G04 (created by PCBNEW-RS274X (2010-05-05 BZR 2356)-stable) date 3/07/2011 4:56:28 p.m.*
G01*
G70*
G90*
%MOIN*%
G04 Gerber Fmt 3.4, Leading zero omitted, Abs format*
%FSLAX34Y34*%
G04 APERTURE LIST*
%ADD10C,0.006000*%
%ADD11C,0.019700*%
%ADD12C,0.012000*%
G04 APERTURE END LIST*
G54D10*
G54D11*
X78691Y-33268D02*
X78667Y-33510D01*
X78596Y-33744D01*
X78482Y-33959D01*
X78327Y-34148D01*
X78139Y-34304D01*
X77925Y-34420D01*
X77692Y-34492D01*
X77449Y-34517D01*
X77207Y-34495D01*
X76973Y-34426D01*
X76757Y-34313D01*
X76567Y-34161D01*
X76410Y-33974D01*
X76293Y-33760D01*
X76219Y-33527D01*
X76192Y-33285D01*
X76212Y-33043D01*
X76279Y-32808D01*
X76391Y-32591D01*
X76542Y-32400D01*
X76728Y-32242D01*
X76941Y-32123D01*
X77173Y-32048D01*
X77415Y-32019D01*
X77658Y-32037D01*
X77893Y-32103D01*
X78110Y-32213D01*
X78303Y-32363D01*
X78462Y-32548D01*
X78582Y-32760D01*
X78659Y-32992D01*
X78690Y-33234D01*
X78691Y-33268D01*
X74941Y-33268D02*
X79941Y-33268D01*
X77441Y-30768D02*
X77441Y-35768D01*
X13927Y-33189D02*
X13903Y-33431D01*
X13832Y-33665D01*
X13718Y-33880D01*
X13563Y-34069D01*
X13375Y-34225D01*
X13161Y-34341D01*
X12928Y-34413D01*
X12685Y-34438D01*
X12443Y-34416D01*
X12209Y-34347D01*
X11993Y-34234D01*
X11803Y-34082D01*
X11646Y-33895D01*
X11529Y-33681D01*
X11455Y-33448D01*
X11428Y-33206D01*
X11448Y-32964D01*
X11515Y-32729D01*
X11627Y-32512D01*
X11778Y-32321D01*
X11964Y-32163D01*
X12177Y-32044D01*
X12409Y-31969D01*
X12651Y-31940D01*
X12894Y-31958D01*
X13129Y-32024D01*
X13346Y-32134D01*
X13539Y-32284D01*
X13698Y-32469D01*
X13818Y-32681D01*
X13895Y-32913D01*
X13926Y-33155D01*
X13927Y-33189D01*
X10177Y-33189D02*
X15177Y-33189D01*
X12677Y-30689D02*
X12677Y-35689D01*
G54D12*
X17346Y-24074D02*
X16698Y-24074D01*
X16622Y-24103D01*
X16584Y-24131D01*
X16546Y-24188D01*
X16546Y-24274D01*
X16584Y-24331D01*
X16850Y-24074D02*
X16812Y-24131D01*
X16812Y-24245D01*
X16850Y-24303D01*
X16888Y-24331D01*
X16965Y-24360D01*
X17193Y-24360D01*
X17269Y-24331D01*
X17307Y-24303D01*
X17346Y-24245D01*
X17346Y-24131D01*
X17307Y-24074D01*
X16812Y-23788D02*
X17346Y-23788D01*
X17193Y-23788D02*
X17269Y-23760D01*
X17307Y-23731D01*
X17346Y-23674D01*
X17346Y-23617D01*
X17346Y-23160D02*
X16812Y-23160D01*
X17346Y-23417D02*
X16926Y-23417D01*
X16850Y-23389D01*
X16812Y-23331D01*
X16812Y-23246D01*
X16850Y-23189D01*
X16888Y-23160D01*
X17346Y-22931D02*
X16812Y-22788D01*
X17346Y-22646D01*
X16812Y-22417D02*
X17346Y-22417D01*
X17612Y-22417D02*
X17574Y-22446D01*
X17536Y-22417D01*
X17574Y-22389D01*
X17612Y-22417D01*
X17536Y-22417D01*
X17346Y-22131D02*
X16812Y-22131D01*
X17269Y-22131D02*
X17307Y-22103D01*
X17346Y-22045D01*
X17346Y-21960D01*
X17307Y-21903D01*
X17231Y-21874D01*
X16812Y-21874D01*
X16812Y-21560D02*
X16812Y-21445D01*
X16850Y-21388D01*
X16888Y-21360D01*
X17003Y-21302D01*
X17155Y-21274D01*
X17460Y-21274D01*
X17536Y-21302D01*
X17574Y-21331D01*
X17612Y-21388D01*
X17612Y-21502D01*
X17574Y-21560D01*
X17536Y-21588D01*
X17460Y-21617D01*
X17269Y-21617D01*
X17193Y-21588D01*
X17155Y-21560D01*
X17117Y-21502D01*
X17117Y-21388D01*
X17155Y-21331D01*
X17193Y-21302D01*
X17269Y-21274D01*
X16812Y-21074D02*
X17346Y-20760D01*
X17346Y-21074D02*
X16812Y-20760D01*
X17117Y-20531D02*
X17117Y-20074D01*
X17346Y-19845D02*
X16812Y-19702D01*
X17346Y-19560D01*
X17612Y-19388D02*
X17612Y-19017D01*
X17307Y-19217D01*
X17307Y-19131D01*
X17269Y-19074D01*
X17231Y-19045D01*
X17155Y-19017D01*
X16965Y-19017D01*
X16888Y-19045D01*
X16850Y-19074D01*
X16812Y-19131D01*
X16812Y-19303D01*
X16850Y-19360D01*
X16888Y-19388D01*
X16888Y-18760D02*
X16850Y-18732D01*
X16812Y-18760D01*
X16850Y-18789D01*
X16888Y-18760D01*
X16812Y-18760D01*
X17536Y-18503D02*
X17574Y-18474D01*
X17612Y-18417D01*
X17612Y-18274D01*
X17574Y-18217D01*
X17536Y-18188D01*
X17460Y-18160D01*
X17384Y-18160D01*
X17269Y-18188D01*
X16812Y-18531D01*
X16812Y-18160D01*
X15572Y-29661D02*
X16372Y-29661D01*
X15572Y-29404D02*
X15991Y-29404D01*
X16067Y-29433D01*
X16106Y-29490D01*
X16106Y-29575D01*
X16067Y-29633D01*
X16029Y-29661D01*
X16106Y-29204D02*
X16106Y-28975D01*
X16372Y-29118D02*
X15686Y-29118D01*
X15610Y-29090D01*
X15572Y-29032D01*
X15572Y-28975D01*
X16106Y-28861D02*
X16106Y-28632D01*
X16372Y-28775D02*
X15686Y-28775D01*
X15610Y-28747D01*
X15572Y-28689D01*
X15572Y-28632D01*
X16106Y-28432D02*
X15306Y-28432D01*
X16067Y-28432D02*
X16106Y-28375D01*
X16106Y-28261D01*
X16067Y-28204D01*
X16029Y-28175D01*
X15953Y-28146D01*
X15725Y-28146D01*
X15648Y-28175D01*
X15610Y-28204D01*
X15572Y-28261D01*
X15572Y-28375D01*
X15610Y-28432D01*
X15648Y-27889D02*
X15610Y-27861D01*
X15572Y-27889D01*
X15610Y-27918D01*
X15648Y-27889D01*
X15572Y-27889D01*
X16067Y-27889D02*
X16029Y-27861D01*
X15991Y-27889D01*
X16029Y-27918D01*
X16067Y-27889D01*
X15991Y-27889D01*
X16410Y-27175D02*
X15382Y-27689D01*
X16410Y-26546D02*
X15382Y-27060D01*
X15610Y-26088D02*
X15572Y-26145D01*
X15572Y-26259D01*
X15610Y-26317D01*
X15648Y-26345D01*
X15725Y-26374D01*
X15953Y-26374D01*
X16029Y-26345D01*
X16067Y-26317D01*
X16106Y-26259D01*
X16106Y-26145D01*
X16067Y-26088D01*
X15572Y-25745D02*
X15610Y-25803D01*
X15648Y-25831D01*
X15725Y-25860D01*
X15953Y-25860D01*
X16029Y-25831D01*
X16067Y-25803D01*
X16106Y-25745D01*
X16106Y-25660D01*
X16067Y-25603D01*
X16029Y-25574D01*
X15953Y-25545D01*
X15725Y-25545D01*
X15648Y-25574D01*
X15610Y-25603D01*
X15572Y-25660D01*
X15572Y-25745D01*
X15572Y-25031D02*
X16372Y-25031D01*
X15610Y-25031D02*
X15572Y-25088D01*
X15572Y-25202D01*
X15610Y-25260D01*
X15648Y-25288D01*
X15725Y-25317D01*
X15953Y-25317D01*
X16029Y-25288D01*
X16067Y-25260D01*
X16106Y-25202D01*
X16106Y-25088D01*
X16067Y-25031D01*
X15610Y-24517D02*
X15572Y-24574D01*
X15572Y-24688D01*
X15610Y-24745D01*
X15686Y-24774D01*
X15991Y-24774D01*
X16067Y-24745D01*
X16106Y-24688D01*
X16106Y-24574D01*
X16067Y-24517D01*
X15991Y-24488D01*
X15915Y-24488D01*
X15839Y-24774D01*
X15648Y-24231D02*
X15610Y-24203D01*
X15572Y-24231D01*
X15610Y-24260D01*
X15648Y-24231D01*
X15572Y-24231D01*
X16106Y-23688D02*
X15458Y-23688D01*
X15382Y-23717D01*
X15344Y-23745D01*
X15306Y-23802D01*
X15306Y-23888D01*
X15344Y-23945D01*
X15610Y-23688D02*
X15572Y-23745D01*
X15572Y-23859D01*
X15610Y-23917D01*
X15648Y-23945D01*
X15725Y-23974D01*
X15953Y-23974D01*
X16029Y-23945D01*
X16067Y-23917D01*
X16106Y-23859D01*
X16106Y-23745D01*
X16067Y-23688D01*
X15572Y-23316D02*
X15610Y-23374D01*
X15648Y-23402D01*
X15725Y-23431D01*
X15953Y-23431D01*
X16029Y-23402D01*
X16067Y-23374D01*
X16106Y-23316D01*
X16106Y-23231D01*
X16067Y-23174D01*
X16029Y-23145D01*
X15953Y-23116D01*
X15725Y-23116D01*
X15648Y-23145D01*
X15610Y-23174D01*
X15572Y-23231D01*
X15572Y-23316D01*
X15572Y-22773D02*
X15610Y-22831D01*
X15648Y-22859D01*
X15725Y-22888D01*
X15953Y-22888D01*
X16029Y-22859D01*
X16067Y-22831D01*
X16106Y-22773D01*
X16106Y-22688D01*
X16067Y-22631D01*
X16029Y-22602D01*
X15953Y-22573D01*
X15725Y-22573D01*
X15648Y-22602D01*
X15610Y-22631D01*
X15572Y-22688D01*
X15572Y-22773D01*
X16106Y-22059D02*
X15458Y-22059D01*
X15382Y-22088D01*
X15344Y-22116D01*
X15306Y-22173D01*
X15306Y-22259D01*
X15344Y-22316D01*
X15610Y-22059D02*
X15572Y-22116D01*
X15572Y-22230D01*
X15610Y-22288D01*
X15648Y-22316D01*
X15725Y-22345D01*
X15953Y-22345D01*
X16029Y-22316D01*
X16067Y-22288D01*
X16106Y-22230D01*
X16106Y-22116D01*
X16067Y-22059D01*
X15572Y-21687D02*
X15610Y-21745D01*
X15686Y-21773D01*
X16372Y-21773D01*
X15610Y-21231D02*
X15572Y-21288D01*
X15572Y-21402D01*
X15610Y-21459D01*
X15686Y-21488D01*
X15991Y-21488D01*
X16067Y-21459D01*
X16106Y-21402D01*
X16106Y-21288D01*
X16067Y-21231D01*
X15991Y-21202D01*
X15915Y-21202D01*
X15839Y-21488D01*
X15648Y-20945D02*
X15610Y-20917D01*
X15572Y-20945D01*
X15610Y-20974D01*
X15648Y-20945D01*
X15572Y-20945D01*
X15610Y-20402D02*
X15572Y-20459D01*
X15572Y-20573D01*
X15610Y-20631D01*
X15648Y-20659D01*
X15725Y-20688D01*
X15953Y-20688D01*
X16029Y-20659D01*
X16067Y-20631D01*
X16106Y-20573D01*
X16106Y-20459D01*
X16067Y-20402D01*
X15572Y-20059D02*
X15610Y-20117D01*
X15648Y-20145D01*
X15725Y-20174D01*
X15953Y-20174D01*
X16029Y-20145D01*
X16067Y-20117D01*
X16106Y-20059D01*
X16106Y-19974D01*
X16067Y-19917D01*
X16029Y-19888D01*
X15953Y-19859D01*
X15725Y-19859D01*
X15648Y-19888D01*
X15610Y-19917D01*
X15572Y-19974D01*
X15572Y-20059D01*
X15572Y-19602D02*
X16106Y-19602D01*
X16029Y-19602D02*
X16067Y-19574D01*
X16106Y-19516D01*
X16106Y-19431D01*
X16067Y-19374D01*
X15991Y-19345D01*
X15572Y-19345D01*
X15991Y-19345D02*
X16067Y-19316D01*
X16106Y-19259D01*
X16106Y-19174D01*
X16067Y-19116D01*
X15991Y-19088D01*
X15572Y-19088D01*
X16410Y-18374D02*
X15382Y-18888D01*
X16106Y-18173D02*
X15306Y-18173D01*
X16067Y-18173D02*
X16106Y-18116D01*
X16106Y-18002D01*
X16067Y-17945D01*
X16029Y-17916D01*
X15953Y-17887D01*
X15725Y-17887D01*
X15648Y-17916D01*
X15610Y-17945D01*
X15572Y-18002D01*
X15572Y-18116D01*
X15610Y-18173D01*
X16410Y-17202D02*
X15382Y-17716D01*
X16106Y-16744D02*
X15458Y-16744D01*
X15382Y-16773D01*
X15344Y-16801D01*
X15306Y-16858D01*
X15306Y-16944D01*
X15344Y-17001D01*
X15610Y-16744D02*
X15572Y-16801D01*
X15572Y-16915D01*
X15610Y-16973D01*
X15648Y-17001D01*
X15725Y-17030D01*
X15953Y-17030D01*
X16029Y-17001D01*
X16067Y-16973D01*
X16106Y-16915D01*
X16106Y-16801D01*
X16067Y-16744D01*
X15572Y-16458D02*
X16106Y-16458D01*
X15953Y-16458D02*
X16029Y-16430D01*
X16067Y-16401D01*
X16106Y-16344D01*
X16106Y-16287D01*
X16106Y-15830D02*
X15572Y-15830D01*
X16106Y-16087D02*
X15686Y-16087D01*
X15610Y-16059D01*
X15572Y-16001D01*
X15572Y-15916D01*
X15610Y-15859D01*
X15648Y-15830D01*
X16106Y-15601D02*
X15572Y-15458D01*
X16106Y-15316D01*
X15572Y-15087D02*
X16106Y-15087D01*
X16372Y-15087D02*
X16334Y-15116D01*
X16296Y-15087D01*
X16334Y-15059D01*
X16372Y-15087D01*
X16296Y-15087D01*
X16106Y-14801D02*
X15572Y-14801D01*
X16029Y-14801D02*
X16067Y-14773D01*
X16106Y-14715D01*
X16106Y-14630D01*
X16067Y-14573D01*
X15991Y-14544D01*
X15572Y-14544D01*
X15572Y-14230D02*
X15572Y-14115D01*
X15610Y-14058D01*
X15648Y-14030D01*
X15763Y-13972D01*
X15915Y-13944D01*
X16220Y-13944D01*
X16296Y-13972D01*
X16334Y-14001D01*
X16372Y-14058D01*
X16372Y-14172D01*
X16334Y-14230D01*
X16296Y-14258D01*
X16220Y-14287D01*
X16029Y-14287D01*
X15953Y-14258D01*
X15915Y-14230D01*
X15877Y-14172D01*
X15877Y-14058D01*
X15915Y-14001D01*
X15953Y-13972D01*
X16029Y-13944D01*
X15572Y-13744D02*
X16106Y-13430D01*
X16106Y-13744D02*
X15572Y-13430D01*
X16410Y-12773D02*
X15382Y-13287D01*
G54D11*
X16167Y-33349D02*
X16013Y-33209D01*
X15848Y-33083D01*
X15672Y-32972D01*
X15487Y-32876D01*
X15295Y-32797D01*
X15096Y-32736D01*
X14893Y-32691D01*
X14687Y-32665D01*
X14480Y-32657D01*
X14397Y-32658D01*
X75802Y-32654D02*
X75595Y-32656D01*
X75387Y-32676D01*
X75183Y-32714D01*
X74982Y-32769D01*
X74787Y-32842D01*
X74599Y-32932D01*
X74419Y-33038D01*
X74250Y-33159D01*
X74092Y-33294D01*
X74017Y-33366D01*
X16181Y-33366D02*
X73986Y-33366D01*
X78248Y-11909D02*
X11909Y-11909D01*
X13091Y-30610D02*
X14390Y-32657D01*
X77264Y-30610D02*
X75807Y-32657D01*
X77264Y-21161D02*
X77264Y-30610D01*
X78248Y-19980D02*
X77264Y-21161D01*
X13091Y-21161D02*
X13091Y-30610D01*
X11909Y-19980D02*
X13091Y-21161D01*
X11909Y-11909D02*
X11909Y-19980D01*
X78248Y-11909D02*
X78248Y-19980D01*
M02*
