G04 (created by PCBNEW-RS274X (2010-05-05 BZR 2356)-stable) date 3/07/2011 4:58:35 p.m.*
G01*
G70*
G90*
%MOIN*%
G04 Gerber Fmt 3.4, Leading zero omitted, Abs format*
%FSLAX34Y34*%
G04 APERTURE LIST*
%ADD10C,0.006000*%
%ADD11C,0.015000*%
%ADD12R,0.059100X0.039400*%
%ADD13R,0.086600X0.047200*%
%ADD14C,0.078700*%
%ADD15R,0.025000X0.031500*%
%ADD16R,0.031500X0.025000*%
%ADD17R,0.055000X0.035000*%
%ADD18R,0.045000X0.020000*%
G04 APERTURE END LIST*
G54D10*
G54D11*
X43307Y-33111D02*
X43307Y-20552D01*
X22283Y-33150D02*
X43307Y-33150D01*
X22283Y-20551D02*
X22283Y-33150D01*
X43307Y-20551D02*
X22283Y-20551D01*
G54D12*
X32481Y-27289D03*
X32481Y-28273D03*
X32481Y-29258D03*
X32481Y-30212D03*
X32481Y-30882D03*
X32481Y-32200D03*
X32481Y-26620D03*
X32481Y-25970D03*
X32481Y-23352D03*
X32481Y-24336D03*
X32481Y-25321D03*
G54D13*
X40778Y-21374D03*
X41221Y-32397D03*
G54D14*
X42048Y-31807D03*
X42048Y-22279D03*
G54D15*
X26323Y-21929D03*
X25723Y-21929D03*
X30960Y-24055D03*
X31560Y-24055D03*
X29700Y-25315D03*
X30300Y-25315D03*
X29700Y-28268D03*
X30300Y-28268D03*
G54D16*
X25512Y-24040D03*
X25512Y-23440D03*
G54D15*
X30330Y-29252D03*
X30930Y-29252D03*
X30330Y-26024D03*
X30930Y-26024D03*
G54D16*
X31421Y-22771D03*
X31421Y-23371D03*
G54D15*
X31058Y-30902D03*
X31658Y-30902D03*
G54D16*
X31402Y-27261D03*
X31402Y-26661D03*
G54D15*
X31560Y-24803D03*
X30960Y-24803D03*
X26983Y-21929D03*
X27583Y-21929D03*
G54D17*
X29764Y-23483D03*
X29764Y-24233D03*
G54D18*
X26273Y-24215D03*
X28373Y-24215D03*
X26273Y-23715D03*
X26273Y-23215D03*
X26273Y-22715D03*
X28373Y-23715D03*
X28373Y-23215D03*
X28373Y-22715D03*
M02*
