G04 (created by PCBNEW-RS274X (2010-05-05 BZR 2356)-stable) date 3/07/2011 4:58:35 p.m.*
G01*
G70*
G90*
%MOIN*%
G04 Gerber Fmt 3.4, Leading zero omitted, Abs format*
%FSLAX34Y34*%
G04 APERTURE LIST*
%ADD10C,0.006000*%
%ADD11C,0.015000*%
%ADD12C,0.012000*%
G04 APERTURE END LIST*
G54D10*
G54D11*
X43307Y-33111D02*
X43307Y-20552D01*
X22283Y-33150D02*
X43307Y-33150D01*
X22283Y-20551D02*
X22283Y-33150D01*
X43307Y-20551D02*
X22283Y-20551D01*
X34016Y-29449D02*
X33947Y-30144D01*
X33745Y-30814D01*
X33417Y-31431D01*
X32975Y-31973D01*
X32436Y-32419D01*
X31821Y-32752D01*
X31153Y-32958D01*
X30458Y-33031D01*
X29762Y-32968D01*
X29091Y-32771D01*
X28472Y-32447D01*
X27927Y-32008D01*
X27477Y-31473D01*
X27140Y-30860D01*
X26929Y-30193D01*
X26851Y-29499D01*
X26909Y-28803D01*
X27102Y-28131D01*
X27422Y-27509D01*
X27856Y-26961D01*
X28389Y-26507D01*
X28999Y-26166D01*
X29664Y-25950D01*
X30358Y-25867D01*
X31055Y-25921D01*
X31728Y-26109D01*
X32352Y-26424D01*
X32903Y-26855D01*
X33360Y-27384D01*
X33706Y-27992D01*
X33926Y-28656D01*
X34014Y-29349D01*
X34016Y-29449D01*
G54D12*
X30943Y-30323D02*
X30857Y-30351D01*
X30829Y-30380D01*
X30800Y-30437D01*
X30800Y-30523D01*
X30829Y-30580D01*
X30857Y-30608D01*
X30915Y-30637D01*
X31143Y-30637D01*
X31143Y-30037D01*
X30943Y-30037D01*
X30886Y-30065D01*
X30857Y-30094D01*
X30829Y-30151D01*
X30829Y-30208D01*
X30857Y-30265D01*
X30886Y-30294D01*
X30943Y-30323D01*
X31143Y-30323D01*
X30629Y-30037D02*
X30286Y-30037D01*
X30457Y-30637D02*
X30457Y-30037D01*
X29772Y-30637D02*
X30115Y-30637D01*
X29943Y-30637D02*
X29943Y-30037D01*
X30000Y-30123D01*
X30058Y-30180D01*
X30115Y-30208D01*
X31846Y-28296D02*
X31875Y-28324D01*
X31961Y-28353D01*
X32018Y-28353D01*
X32103Y-28324D01*
X32161Y-28267D01*
X32189Y-28210D01*
X32218Y-28096D01*
X32218Y-28010D01*
X32189Y-27896D01*
X32161Y-27839D01*
X32103Y-27781D01*
X32018Y-27753D01*
X31961Y-27753D01*
X31875Y-27781D01*
X31846Y-27810D01*
X31246Y-28353D02*
X31446Y-28067D01*
X31589Y-28353D02*
X31589Y-27753D01*
X31361Y-27753D01*
X31303Y-27781D01*
X31275Y-27810D01*
X31246Y-27867D01*
X31246Y-27953D01*
X31275Y-28010D01*
X31303Y-28039D01*
X31361Y-28067D01*
X31589Y-28067D01*
X31018Y-27810D02*
X30989Y-27781D01*
X30932Y-27753D01*
X30789Y-27753D01*
X30732Y-27781D01*
X30703Y-27810D01*
X30675Y-27867D01*
X30675Y-27924D01*
X30703Y-28010D01*
X31046Y-28353D01*
X30675Y-28353D01*
X30304Y-27753D02*
X30247Y-27753D01*
X30190Y-27781D01*
X30161Y-27810D01*
X30132Y-27867D01*
X30104Y-27981D01*
X30104Y-28124D01*
X30132Y-28239D01*
X30161Y-28296D01*
X30190Y-28324D01*
X30247Y-28353D01*
X30304Y-28353D01*
X30361Y-28324D01*
X30390Y-28296D01*
X30418Y-28239D01*
X30447Y-28124D01*
X30447Y-27981D01*
X30418Y-27867D01*
X30390Y-27810D01*
X30361Y-27781D01*
X30304Y-27753D01*
X29904Y-27753D02*
X29533Y-27753D01*
X29733Y-27981D01*
X29647Y-27981D01*
X29590Y-28010D01*
X29561Y-28039D01*
X29533Y-28096D01*
X29533Y-28239D01*
X29561Y-28296D01*
X29590Y-28324D01*
X29647Y-28353D01*
X29819Y-28353D01*
X29876Y-28324D01*
X29904Y-28296D01*
X29305Y-27810D02*
X29276Y-27781D01*
X29219Y-27753D01*
X29076Y-27753D01*
X29019Y-27781D01*
X28990Y-27810D01*
X28962Y-27867D01*
X28962Y-27924D01*
X28990Y-28010D01*
X29333Y-28353D01*
X28962Y-28353D01*
M02*
