G04 (created by PCBNEW-RS274X (2010-05-05 BZR 2356)-stable) date 3/07/2011 4:58:34 p.m.*
G01*
G70*
G90*
%MOIN*%
G04 Gerber Fmt 3.4, Leading zero omitted, Abs format*
%FSLAX34Y34*%
G04 APERTURE LIST*
%ADD10C,0.006000*%
%ADD11C,0.015000*%
%ADD12O,0.118100X0.059100*%
%ADD13R,0.118100X0.059100*%
%ADD14R,0.059100X0.039400*%
%ADD15R,0.086600X0.047200*%
%ADD16R,0.248000X0.055100*%
%ADD17R,0.078700X0.039400*%
%ADD18R,0.098400X0.039400*%
%ADD19R,0.078700X0.078700*%
%ADD20C,0.078700*%
%ADD21R,0.025000X0.031500*%
%ADD22R,0.031500X0.025000*%
%ADD23R,0.055000X0.035000*%
%ADD24R,0.045000X0.020000*%
%ADD25C,0.035000*%
%ADD26C,0.008000*%
%ADD27C,0.010000*%
G04 APERTURE END LIST*
G54D10*
G54D11*
X43307Y-33111D02*
X43307Y-20552D01*
X22283Y-33150D02*
X43307Y-33150D01*
X22283Y-20551D02*
X22283Y-33150D01*
X43307Y-20551D02*
X22283Y-20551D01*
G54D12*
X23583Y-25865D03*
X23583Y-26652D03*
G54D13*
X23583Y-27440D03*
G54D12*
X23583Y-25078D03*
X23583Y-24290D03*
X23583Y-23503D03*
X23583Y-22716D03*
X23583Y-21929D03*
G54D14*
X32481Y-27289D03*
X32481Y-28273D03*
X32481Y-29258D03*
X32481Y-30212D03*
X32481Y-30882D03*
X32481Y-32200D03*
X32481Y-26620D03*
X32481Y-25970D03*
X32481Y-23352D03*
X32481Y-24336D03*
X32481Y-25321D03*
G54D15*
X40778Y-21374D03*
X41221Y-32397D03*
G54D16*
X37245Y-32555D03*
G54D17*
X36811Y-23352D03*
G54D18*
X35689Y-24336D03*
G54D17*
X36014Y-25242D03*
G54D19*
X35975Y-26295D03*
G54D17*
X36014Y-27299D03*
X35955Y-28283D03*
X35935Y-29258D03*
X35945Y-30232D03*
X35945Y-30911D03*
G54D20*
X42048Y-31807D03*
X42048Y-22279D03*
G54D21*
X26323Y-21929D03*
X25723Y-21929D03*
X30960Y-24055D03*
X31560Y-24055D03*
X29700Y-25315D03*
X30300Y-25315D03*
X29700Y-28268D03*
X30300Y-28268D03*
G54D22*
X25512Y-24040D03*
X25512Y-23440D03*
G54D21*
X30330Y-29252D03*
X30930Y-29252D03*
X30330Y-26024D03*
X30930Y-26024D03*
G54D22*
X31421Y-22771D03*
X31421Y-23371D03*
G54D21*
X31058Y-30902D03*
X31658Y-30902D03*
G54D22*
X31402Y-27261D03*
X31402Y-26661D03*
G54D21*
X31560Y-24803D03*
X30960Y-24803D03*
X26983Y-21929D03*
X27583Y-21929D03*
G54D23*
X29764Y-23483D03*
X29764Y-24233D03*
G54D24*
X26273Y-24215D03*
X28373Y-24215D03*
X26273Y-23715D03*
X26273Y-23215D03*
X26273Y-22715D03*
X28373Y-23715D03*
X28373Y-23215D03*
X28373Y-22715D03*
G54D25*
X28071Y-25433D03*
X28071Y-27126D03*
X25276Y-26260D03*
X33780Y-21024D03*
X35433Y-21024D03*
X26575Y-32283D03*
X25000Y-32283D03*
X23543Y-32283D03*
X23543Y-29449D03*
X23543Y-30906D03*
X25984Y-21024D03*
X26693Y-21024D03*
X39449Y-21417D03*
X42008Y-24803D03*
X42008Y-26811D03*
X42008Y-28976D03*
X39685Y-32283D03*
X35276Y-32283D03*
X33661Y-32283D03*
X28346Y-21929D03*
X33346Y-26654D03*
X33425Y-29252D03*
X29212Y-22795D03*
G54D26*
X23583Y-23503D02*
X25449Y-23503D01*
X25449Y-23503D02*
X25512Y-23440D01*
X25512Y-23424D02*
X25721Y-23215D01*
X25721Y-23215D02*
X26273Y-23215D01*
X25512Y-23440D02*
X25512Y-23424D01*
X25512Y-23440D02*
X25300Y-23440D01*
X25300Y-23440D02*
X25237Y-23503D01*
X25983Y-22715D02*
X26273Y-22715D01*
X25723Y-22455D02*
X25983Y-22715D01*
X26272Y-22716D02*
X26273Y-22715D01*
X25723Y-21929D02*
X25723Y-22455D01*
X23583Y-22716D02*
X26272Y-22716D01*
X26272Y-22716D02*
X26273Y-22715D01*
X23583Y-24290D02*
X24489Y-24290D01*
X30905Y-24055D02*
X30960Y-24055D01*
X30078Y-24882D02*
X30905Y-24055D01*
X25081Y-24882D02*
X30078Y-24882D01*
X24489Y-24290D02*
X25081Y-24882D01*
X23583Y-25078D02*
X24487Y-25078D01*
X28071Y-27126D02*
X28071Y-28386D01*
X29897Y-30212D02*
X32481Y-30212D01*
X28071Y-28386D02*
X29897Y-30212D01*
X24842Y-25433D02*
X28071Y-25433D01*
X24487Y-25078D02*
X24842Y-25433D01*
X23583Y-25865D02*
X29150Y-25865D01*
X29150Y-25865D02*
X29700Y-25315D01*
X29094Y-28268D02*
X29700Y-28268D01*
X28819Y-27993D02*
X29094Y-28268D01*
X28819Y-26969D02*
X28819Y-27993D01*
X23583Y-26652D02*
X28502Y-26652D01*
X28502Y-26652D02*
X28819Y-26969D01*
X31421Y-22771D02*
X31421Y-21893D01*
X26983Y-21560D02*
X26983Y-21929D01*
X27204Y-21339D02*
X26983Y-21560D01*
X30867Y-21339D02*
X27204Y-21339D01*
X31421Y-21893D02*
X30867Y-21339D01*
X29409Y-26260D02*
X25276Y-26260D01*
X29409Y-26260D02*
X30394Y-27245D01*
X30394Y-27245D02*
X31386Y-27245D01*
X31386Y-27245D02*
X31402Y-27261D01*
X25512Y-24040D02*
X25512Y-24095D01*
X25632Y-24215D02*
X26273Y-24215D01*
X25512Y-24095D02*
X25632Y-24215D01*
X26983Y-21929D02*
X26323Y-21929D01*
X26273Y-24215D02*
X26769Y-24215D01*
X26769Y-24215D02*
X26983Y-24001D01*
X26983Y-24001D02*
X26983Y-21929D01*
X33701Y-24803D02*
X33740Y-24803D01*
X33740Y-24803D02*
X33807Y-24870D01*
X31560Y-24803D02*
X33701Y-24803D01*
X33701Y-24803D02*
X33807Y-24697D01*
X31402Y-27261D02*
X32453Y-27261D01*
X32453Y-27261D02*
X32481Y-27289D01*
X31058Y-30902D02*
X31058Y-31345D01*
X33807Y-27712D02*
X33384Y-27289D01*
X33807Y-31055D02*
X33807Y-27712D01*
X33342Y-31520D02*
X33807Y-31055D01*
X31233Y-31520D02*
X33342Y-31520D01*
X31058Y-31345D02*
X31233Y-31520D01*
X31421Y-22771D02*
X33389Y-22771D01*
X33384Y-27289D02*
X32481Y-27289D01*
X33807Y-26866D02*
X33384Y-27289D01*
X33807Y-24870D02*
X33807Y-26866D01*
X33807Y-23189D02*
X33807Y-24697D01*
X33807Y-24697D02*
X33807Y-24870D01*
X33389Y-22771D02*
X33807Y-23189D01*
X26575Y-32283D02*
X25000Y-32283D01*
X23543Y-30906D02*
X23543Y-29449D01*
X23583Y-21811D02*
X23583Y-21929D01*
X24370Y-21024D02*
X23583Y-21811D01*
X25984Y-21024D02*
X24370Y-21024D01*
X39056Y-21024D02*
X35433Y-21024D01*
X35433Y-21024D02*
X33780Y-21024D01*
X33780Y-21024D02*
X26693Y-21024D01*
X39449Y-21417D02*
X39056Y-21024D01*
X42008Y-26811D02*
X42008Y-24803D01*
X42008Y-29960D02*
X42008Y-28976D01*
X39685Y-32283D02*
X42008Y-29960D01*
X33661Y-32283D02*
X35276Y-32283D01*
X28373Y-22715D02*
X28373Y-21956D01*
X28373Y-21956D02*
X28346Y-21929D01*
X33346Y-26654D02*
X33312Y-26620D01*
X33312Y-26620D02*
X32481Y-26620D01*
X32481Y-29258D02*
X32092Y-29258D01*
X33425Y-29252D02*
X32092Y-29258D01*
X30930Y-26024D02*
X31182Y-26024D01*
X31182Y-26024D02*
X31402Y-26244D01*
X31402Y-26244D02*
X31402Y-26661D01*
X30930Y-29252D02*
X32475Y-29252D01*
X32475Y-29252D02*
X32481Y-29258D01*
X27583Y-21929D02*
X27583Y-22544D01*
X27754Y-22715D02*
X28373Y-22715D01*
X27583Y-22544D02*
X27754Y-22715D01*
X31402Y-26661D02*
X32440Y-26661D01*
X32440Y-26661D02*
X32481Y-26620D01*
X29233Y-23483D02*
X29764Y-23483D01*
X28373Y-23715D02*
X29001Y-23715D01*
X29001Y-23715D02*
X29233Y-23483D01*
X32200Y-24055D02*
X32481Y-24336D01*
X32478Y-24339D02*
X32481Y-24336D01*
X30960Y-24803D02*
X30960Y-24655D01*
X30960Y-24655D02*
X31560Y-24055D01*
X31560Y-24055D02*
X32200Y-24055D01*
X29212Y-22795D02*
X28819Y-23188D01*
X28819Y-23188D02*
X28400Y-23188D01*
X28400Y-23188D02*
X28373Y-23215D01*
X28391Y-24233D02*
X28373Y-24215D01*
X29764Y-24233D02*
X28391Y-24233D01*
X30300Y-28268D02*
X32474Y-28280D01*
X32474Y-28280D02*
X32481Y-28273D01*
X30300Y-28268D02*
X30300Y-29222D01*
X30300Y-29222D02*
X30330Y-29252D01*
X31658Y-30902D02*
X32461Y-30902D01*
X32461Y-30902D02*
X32481Y-30882D01*
X31421Y-23371D02*
X32462Y-23371D01*
X32462Y-23371D02*
X32481Y-23352D01*
X32479Y-25319D02*
X32481Y-25321D01*
X30300Y-25315D02*
X30300Y-25994D01*
X30300Y-25994D02*
X30330Y-26024D01*
X30300Y-25315D02*
X32479Y-25319D01*
G54D27*
X22558Y-20826D02*
X43032Y-20826D01*
X22558Y-20906D02*
X40255Y-20906D01*
X41302Y-20906D02*
X43032Y-20906D01*
X22558Y-20986D02*
X40145Y-20986D01*
X41411Y-20986D02*
X43032Y-20986D01*
X22558Y-21066D02*
X27119Y-21066D01*
X30953Y-21066D02*
X40106Y-21066D01*
X41451Y-21066D02*
X43032Y-21066D01*
X22558Y-21146D02*
X26987Y-21146D01*
X31084Y-21146D02*
X40096Y-21146D01*
X41460Y-21146D02*
X43032Y-21146D01*
X22558Y-21226D02*
X26907Y-21226D01*
X31164Y-21226D02*
X40096Y-21226D01*
X41460Y-21226D02*
X43032Y-21226D01*
X22558Y-21306D02*
X26827Y-21306D01*
X31244Y-21306D02*
X40096Y-21306D01*
X41460Y-21306D02*
X43032Y-21306D01*
X22558Y-21386D02*
X23186Y-21386D01*
X23533Y-21386D02*
X23633Y-21386D01*
X23981Y-21386D02*
X26758Y-21386D01*
X31324Y-21386D02*
X40096Y-21386D01*
X41460Y-21386D02*
X43032Y-21386D01*
X22558Y-21466D02*
X22987Y-21466D01*
X23533Y-21466D02*
X23633Y-21466D01*
X24180Y-21466D02*
X26712Y-21466D01*
X31404Y-21466D02*
X40096Y-21466D01*
X41460Y-21466D02*
X43032Y-21466D01*
X22558Y-21546D02*
X22904Y-21546D01*
X23533Y-21546D02*
X23633Y-21546D01*
X24263Y-21546D02*
X25494Y-21546D01*
X25954Y-21546D02*
X26094Y-21546D01*
X26554Y-21546D02*
X26696Y-21546D01*
X31484Y-21546D02*
X40096Y-21546D01*
X41460Y-21546D02*
X43032Y-21546D01*
X22558Y-21626D02*
X22829Y-21626D01*
X23533Y-21626D02*
X23633Y-21626D01*
X24338Y-21626D02*
X25392Y-21626D01*
X31564Y-21626D02*
X40096Y-21626D01*
X41460Y-21626D02*
X43032Y-21626D01*
X22558Y-21706D02*
X22797Y-21706D01*
X23533Y-21706D02*
X23633Y-21706D01*
X24370Y-21706D02*
X25356Y-21706D01*
X31639Y-21706D02*
X40115Y-21706D01*
X41440Y-21706D02*
X41753Y-21706D01*
X42344Y-21706D02*
X43032Y-21706D01*
X22558Y-21786D02*
X22764Y-21786D01*
X23533Y-21786D02*
X23633Y-21786D01*
X24403Y-21786D02*
X25349Y-21786D01*
X31690Y-21786D02*
X40169Y-21786D01*
X41387Y-21786D02*
X41633Y-21786D01*
X42464Y-21786D02*
X43032Y-21786D01*
X22558Y-21866D02*
X22800Y-21866D01*
X23533Y-21866D02*
X23633Y-21866D01*
X24365Y-21866D02*
X25349Y-21866D01*
X31706Y-21866D02*
X41553Y-21866D01*
X42544Y-21866D02*
X43032Y-21866D01*
X22558Y-21946D02*
X25349Y-21946D01*
X31711Y-21946D02*
X41491Y-21946D01*
X42606Y-21946D02*
X43032Y-21946D01*
X22558Y-22026D02*
X22782Y-22026D01*
X24385Y-22026D02*
X25349Y-22026D01*
X31711Y-22026D02*
X41458Y-22026D01*
X42639Y-22026D02*
X43032Y-22026D01*
X22558Y-22106D02*
X22777Y-22106D01*
X24388Y-22106D02*
X25349Y-22106D01*
X31711Y-22106D02*
X41424Y-22106D01*
X42672Y-22106D02*
X43032Y-22106D01*
X22558Y-22186D02*
X22810Y-22186D01*
X24355Y-22186D02*
X25370Y-22186D01*
X31711Y-22186D02*
X41405Y-22186D01*
X42691Y-22186D02*
X43032Y-22186D01*
X22558Y-22266D02*
X22855Y-22266D01*
X24309Y-22266D02*
X25426Y-22266D01*
X31711Y-22266D02*
X41405Y-22266D01*
X42691Y-22266D02*
X43032Y-22266D01*
X22558Y-22346D02*
X22885Y-22346D01*
X24281Y-22346D02*
X25433Y-22346D01*
X31711Y-22346D02*
X41405Y-22346D01*
X42691Y-22346D02*
X43032Y-22346D01*
X22558Y-22426D02*
X22814Y-22426D01*
X31711Y-22426D02*
X41413Y-22426D01*
X42683Y-22426D02*
X43032Y-22426D01*
X22558Y-22506D02*
X22781Y-22506D01*
X33505Y-22506D02*
X41446Y-22506D01*
X42649Y-22506D02*
X43032Y-22506D01*
X22558Y-22586D02*
X22747Y-22586D01*
X33614Y-22586D02*
X41479Y-22586D01*
X42616Y-22586D02*
X43032Y-22586D01*
X22558Y-22666D02*
X22737Y-22666D01*
X33694Y-22666D02*
X41526Y-22666D01*
X42569Y-22666D02*
X43032Y-22666D01*
X22558Y-22746D02*
X22737Y-22746D01*
X33774Y-22746D02*
X41606Y-22746D01*
X42489Y-22746D02*
X43032Y-22746D01*
X22558Y-22826D02*
X22738Y-22826D01*
X33854Y-22826D02*
X41690Y-22826D01*
X42406Y-22826D02*
X43032Y-22826D01*
X22558Y-22906D02*
X22771Y-22906D01*
X33934Y-22906D02*
X36369Y-22906D01*
X37254Y-22906D02*
X41880Y-22906D01*
X42213Y-22906D02*
X43032Y-22906D01*
X22558Y-22986D02*
X22804Y-22986D01*
X34014Y-22986D02*
X36235Y-22986D01*
X37387Y-22986D02*
X43032Y-22986D01*
X22558Y-23066D02*
X22865Y-23066D01*
X34067Y-23066D02*
X36186Y-23066D01*
X37437Y-23066D02*
X43032Y-23066D01*
X22558Y-23146D02*
X22873Y-23146D01*
X34089Y-23146D02*
X36169Y-23146D01*
X37453Y-23146D02*
X43032Y-23146D01*
X22558Y-23226D02*
X22809Y-23226D01*
X34097Y-23226D02*
X36169Y-23226D01*
X37453Y-23226D02*
X43032Y-23226D01*
X22558Y-23306D02*
X22775Y-23306D01*
X34097Y-23306D02*
X36169Y-23306D01*
X37453Y-23306D02*
X43032Y-23306D01*
X22558Y-23386D02*
X22742Y-23386D01*
X34097Y-23386D02*
X36169Y-23386D01*
X37453Y-23386D02*
X43032Y-23386D01*
X22558Y-23466D02*
X22737Y-23466D01*
X34097Y-23466D02*
X36169Y-23466D01*
X37453Y-23466D02*
X43032Y-23466D01*
X22558Y-23546D02*
X22737Y-23546D01*
X34097Y-23546D02*
X36169Y-23546D01*
X37453Y-23546D02*
X43032Y-23546D01*
X22558Y-23626D02*
X22743Y-23626D01*
X34097Y-23626D02*
X36180Y-23626D01*
X37441Y-23626D02*
X43032Y-23626D01*
X22558Y-23706D02*
X22776Y-23706D01*
X34097Y-23706D02*
X36223Y-23706D01*
X37399Y-23706D02*
X43032Y-23706D01*
X22558Y-23786D02*
X22809Y-23786D01*
X34097Y-23786D02*
X36339Y-23786D01*
X37282Y-23786D02*
X43032Y-23786D01*
X22558Y-23866D02*
X22878Y-23866D01*
X34097Y-23866D02*
X43032Y-23866D01*
X22558Y-23946D02*
X22860Y-23946D01*
X34097Y-23946D02*
X35038Y-23946D01*
X36340Y-23946D02*
X43032Y-23946D01*
X22558Y-24026D02*
X22803Y-24026D01*
X34097Y-24026D02*
X34975Y-24026D01*
X36404Y-24026D02*
X43032Y-24026D01*
X22558Y-24106D02*
X22770Y-24106D01*
X34097Y-24106D02*
X34948Y-24106D01*
X36430Y-24106D02*
X43032Y-24106D01*
X22558Y-24186D02*
X22737Y-24186D01*
X34097Y-24186D02*
X34948Y-24186D01*
X36430Y-24186D02*
X43032Y-24186D01*
X22558Y-24266D02*
X22737Y-24266D01*
X34097Y-24266D02*
X34948Y-24266D01*
X36430Y-24266D02*
X43032Y-24266D01*
X22558Y-24346D02*
X22737Y-24346D01*
X34097Y-24346D02*
X34948Y-24346D01*
X36430Y-24346D02*
X43032Y-24346D01*
X22558Y-24426D02*
X22749Y-24426D01*
X34097Y-24426D02*
X34948Y-24426D01*
X36430Y-24426D02*
X43032Y-24426D01*
X22558Y-24506D02*
X22782Y-24506D01*
X34097Y-24506D02*
X34948Y-24506D01*
X36430Y-24506D02*
X43032Y-24506D01*
X22558Y-24586D02*
X22815Y-24586D01*
X34097Y-24586D02*
X34949Y-24586D01*
X36428Y-24586D02*
X43032Y-24586D01*
X22558Y-24666D02*
X22891Y-24666D01*
X34097Y-24666D02*
X34982Y-24666D01*
X36395Y-24666D02*
X43032Y-24666D01*
X22558Y-24746D02*
X22848Y-24746D01*
X34097Y-24746D02*
X35060Y-24746D01*
X36317Y-24746D02*
X43032Y-24746D01*
X22558Y-24826D02*
X22798Y-24826D01*
X34097Y-24826D02*
X35500Y-24826D01*
X36529Y-24826D02*
X43032Y-24826D01*
X22558Y-24906D02*
X22765Y-24906D01*
X34097Y-24906D02*
X35410Y-24906D01*
X36619Y-24906D02*
X43032Y-24906D01*
X22558Y-24986D02*
X22737Y-24986D01*
X34097Y-24986D02*
X35376Y-24986D01*
X36652Y-24986D02*
X43032Y-24986D01*
X22558Y-25066D02*
X22737Y-25066D01*
X34097Y-25066D02*
X35372Y-25066D01*
X36656Y-25066D02*
X43032Y-25066D01*
X22558Y-25146D02*
X22737Y-25146D01*
X34097Y-25146D02*
X35372Y-25146D01*
X36656Y-25146D02*
X43032Y-25146D01*
X22558Y-25226D02*
X22754Y-25226D01*
X34097Y-25226D02*
X35372Y-25226D01*
X36656Y-25226D02*
X43032Y-25226D01*
X22558Y-25306D02*
X22787Y-25306D01*
X34097Y-25306D02*
X35372Y-25306D01*
X36656Y-25306D02*
X43032Y-25306D01*
X22558Y-25386D02*
X22823Y-25386D01*
X34097Y-25386D02*
X35372Y-25386D01*
X36656Y-25386D02*
X43032Y-25386D01*
X22558Y-25466D02*
X22903Y-25466D01*
X34097Y-25466D02*
X35372Y-25466D01*
X36656Y-25466D02*
X43032Y-25466D01*
X22558Y-25546D02*
X22835Y-25546D01*
X34097Y-25546D02*
X35395Y-25546D01*
X36632Y-25546D02*
X43032Y-25546D01*
X22558Y-25626D02*
X22793Y-25626D01*
X34097Y-25626D02*
X35456Y-25626D01*
X36572Y-25626D02*
X43032Y-25626D01*
X22558Y-25706D02*
X22759Y-25706D01*
X34097Y-25706D02*
X35426Y-25706D01*
X36524Y-25706D02*
X43032Y-25706D01*
X22558Y-25786D02*
X22737Y-25786D01*
X34097Y-25786D02*
X35361Y-25786D01*
X36590Y-25786D02*
X43032Y-25786D01*
X22558Y-25866D02*
X22737Y-25866D01*
X34097Y-25866D02*
X35333Y-25866D01*
X36617Y-25866D02*
X43032Y-25866D01*
X22558Y-25946D02*
X22737Y-25946D01*
X34097Y-25946D02*
X35333Y-25946D01*
X36617Y-25946D02*
X43032Y-25946D01*
X22558Y-26026D02*
X22759Y-26026D01*
X34097Y-26026D02*
X35333Y-26026D01*
X36617Y-26026D02*
X43032Y-26026D01*
X22558Y-26106D02*
X22792Y-26106D01*
X34097Y-26106D02*
X35333Y-26106D01*
X36617Y-26106D02*
X43032Y-26106D01*
X22558Y-26186D02*
X22836Y-26186D01*
X34097Y-26186D02*
X35333Y-26186D01*
X36617Y-26186D02*
X43032Y-26186D01*
X22558Y-26266D02*
X22902Y-26266D01*
X34097Y-26266D02*
X35333Y-26266D01*
X36617Y-26266D02*
X43032Y-26266D01*
X22558Y-26346D02*
X22822Y-26346D01*
X34097Y-26346D02*
X35333Y-26346D01*
X36617Y-26346D02*
X43032Y-26346D01*
X22558Y-26426D02*
X22787Y-26426D01*
X34097Y-26426D02*
X35333Y-26426D01*
X36617Y-26426D02*
X43032Y-26426D01*
X22558Y-26506D02*
X22754Y-26506D01*
X34097Y-26506D02*
X35333Y-26506D01*
X36617Y-26506D02*
X43032Y-26506D01*
X22558Y-26586D02*
X22737Y-26586D01*
X34097Y-26586D02*
X35333Y-26586D01*
X36617Y-26586D02*
X43032Y-26586D01*
X22558Y-26666D02*
X22737Y-26666D01*
X34097Y-26666D02*
X35333Y-26666D01*
X36617Y-26666D02*
X43032Y-26666D01*
X22558Y-26746D02*
X22737Y-26746D01*
X34097Y-26746D02*
X35336Y-26746D01*
X36613Y-26746D02*
X43032Y-26746D01*
X22558Y-26826D02*
X22764Y-26826D01*
X34097Y-26826D02*
X35369Y-26826D01*
X36580Y-26826D02*
X43032Y-26826D01*
X22558Y-26906D02*
X22797Y-26906D01*
X34089Y-26906D02*
X35457Y-26906D01*
X36563Y-26906D02*
X43032Y-26906D01*
X22558Y-26986D02*
X22800Y-26986D01*
X24366Y-26986D02*
X27669Y-26986D01*
X34068Y-26986D02*
X35400Y-26986D01*
X36629Y-26986D02*
X43032Y-26986D01*
X22558Y-27066D02*
X22757Y-27066D01*
X24410Y-27066D02*
X27646Y-27066D01*
X34015Y-27066D02*
X35372Y-27066D01*
X36656Y-27066D02*
X43032Y-27066D01*
X22558Y-27146D02*
X22744Y-27146D01*
X24422Y-27146D02*
X27646Y-27146D01*
X33936Y-27146D02*
X35372Y-27146D01*
X36656Y-27146D02*
X43032Y-27146D01*
X22558Y-27226D02*
X22744Y-27226D01*
X24422Y-27226D02*
X27652Y-27226D01*
X33855Y-27226D02*
X35372Y-27226D01*
X36656Y-27226D02*
X43032Y-27226D01*
X22558Y-27306D02*
X22744Y-27306D01*
X24422Y-27306D02*
X27685Y-27306D01*
X33811Y-27306D02*
X35372Y-27306D01*
X36656Y-27306D02*
X43032Y-27306D01*
X22558Y-27386D02*
X22744Y-27386D01*
X24422Y-27386D02*
X27730Y-27386D01*
X33891Y-27386D02*
X35372Y-27386D01*
X36656Y-27386D02*
X43032Y-27386D01*
X22558Y-27466D02*
X22744Y-27466D01*
X24422Y-27466D02*
X27781Y-27466D01*
X33971Y-27466D02*
X35372Y-27466D01*
X36656Y-27466D02*
X43032Y-27466D01*
X22558Y-27546D02*
X22744Y-27546D01*
X24422Y-27546D02*
X27781Y-27546D01*
X34039Y-27546D02*
X35372Y-27546D01*
X36656Y-27546D02*
X43032Y-27546D01*
X22558Y-27626D02*
X22744Y-27626D01*
X24422Y-27626D02*
X27781Y-27626D01*
X34080Y-27626D02*
X35405Y-27626D01*
X36622Y-27626D02*
X43032Y-27626D01*
X22558Y-27706D02*
X22744Y-27706D01*
X24422Y-27706D02*
X27781Y-27706D01*
X34096Y-27706D02*
X35479Y-27706D01*
X36549Y-27706D02*
X43032Y-27706D01*
X22558Y-27786D02*
X22744Y-27786D01*
X24421Y-27786D02*
X27781Y-27786D01*
X34097Y-27786D02*
X43032Y-27786D01*
X22558Y-27866D02*
X22777Y-27866D01*
X24388Y-27866D02*
X27781Y-27866D01*
X34097Y-27866D02*
X35443Y-27866D01*
X36468Y-27866D02*
X43032Y-27866D01*
X22558Y-27946D02*
X22852Y-27946D01*
X24314Y-27946D02*
X27781Y-27946D01*
X34097Y-27946D02*
X35351Y-27946D01*
X36560Y-27946D02*
X43032Y-27946D01*
X22558Y-28026D02*
X27781Y-28026D01*
X34097Y-28026D02*
X35318Y-28026D01*
X36593Y-28026D02*
X43032Y-28026D01*
X22558Y-28106D02*
X27781Y-28106D01*
X34097Y-28106D02*
X35313Y-28106D01*
X36597Y-28106D02*
X43032Y-28106D01*
X22558Y-28186D02*
X27781Y-28186D01*
X34097Y-28186D02*
X35313Y-28186D01*
X36597Y-28186D02*
X43032Y-28186D01*
X22558Y-28266D02*
X27781Y-28266D01*
X34097Y-28266D02*
X35313Y-28266D01*
X36597Y-28266D02*
X43032Y-28266D01*
X22558Y-28346D02*
X27781Y-28346D01*
X34097Y-28346D02*
X35313Y-28346D01*
X36597Y-28346D02*
X43032Y-28346D01*
X22558Y-28426D02*
X27788Y-28426D01*
X34097Y-28426D02*
X35313Y-28426D01*
X36597Y-28426D02*
X43032Y-28426D01*
X22558Y-28506D02*
X27809Y-28506D01*
X34097Y-28506D02*
X35313Y-28506D01*
X36597Y-28506D02*
X43032Y-28506D01*
X22558Y-28586D02*
X27862Y-28586D01*
X34097Y-28586D02*
X35336Y-28586D01*
X36573Y-28586D02*
X43032Y-28586D01*
X22558Y-28666D02*
X27941Y-28666D01*
X34097Y-28666D02*
X35396Y-28666D01*
X36514Y-28666D02*
X43032Y-28666D01*
X22558Y-28746D02*
X28021Y-28746D01*
X34097Y-28746D02*
X43032Y-28746D01*
X22558Y-28826D02*
X28101Y-28826D01*
X34097Y-28826D02*
X35460Y-28826D01*
X36412Y-28826D02*
X43032Y-28826D01*
X22558Y-28906D02*
X28181Y-28906D01*
X34097Y-28906D02*
X35345Y-28906D01*
X36525Y-28906D02*
X43032Y-28906D01*
X22558Y-28986D02*
X28261Y-28986D01*
X34097Y-28986D02*
X35304Y-28986D01*
X36567Y-28986D02*
X43032Y-28986D01*
X22558Y-29066D02*
X28341Y-29066D01*
X34097Y-29066D02*
X35293Y-29066D01*
X36577Y-29066D02*
X43032Y-29066D01*
X22558Y-29146D02*
X28421Y-29146D01*
X34097Y-29146D02*
X35293Y-29146D01*
X36577Y-29146D02*
X43032Y-29146D01*
X22558Y-29226D02*
X28501Y-29226D01*
X34097Y-29226D02*
X35293Y-29226D01*
X36577Y-29226D02*
X43032Y-29226D01*
X22558Y-29306D02*
X28581Y-29306D01*
X34097Y-29306D02*
X35293Y-29306D01*
X36577Y-29306D02*
X43032Y-29306D01*
X22558Y-29386D02*
X28661Y-29386D01*
X34097Y-29386D02*
X35293Y-29386D01*
X36577Y-29386D02*
X43032Y-29386D01*
X22558Y-29466D02*
X28741Y-29466D01*
X34097Y-29466D02*
X35293Y-29466D01*
X36577Y-29466D02*
X43032Y-29466D01*
X22558Y-29546D02*
X28821Y-29546D01*
X34097Y-29546D02*
X35310Y-29546D01*
X36559Y-29546D02*
X43032Y-29546D01*
X22558Y-29626D02*
X28901Y-29626D01*
X34097Y-29626D02*
X35361Y-29626D01*
X36509Y-29626D02*
X43032Y-29626D01*
X22558Y-29706D02*
X28981Y-29706D01*
X34097Y-29706D02*
X43032Y-29706D01*
X22558Y-29786D02*
X29061Y-29786D01*
X34097Y-29786D02*
X35503Y-29786D01*
X36388Y-29786D02*
X43032Y-29786D01*
X22558Y-29866D02*
X29141Y-29866D01*
X34097Y-29866D02*
X35369Y-29866D01*
X36521Y-29866D02*
X43032Y-29866D01*
X22558Y-29946D02*
X29221Y-29946D01*
X34097Y-29946D02*
X35320Y-29946D01*
X36571Y-29946D02*
X43032Y-29946D01*
X22558Y-30026D02*
X29301Y-30026D01*
X34097Y-30026D02*
X35303Y-30026D01*
X36587Y-30026D02*
X43032Y-30026D01*
X22558Y-30106D02*
X29381Y-30106D01*
X34097Y-30106D02*
X35303Y-30106D01*
X36587Y-30106D02*
X43032Y-30106D01*
X22558Y-30186D02*
X29461Y-30186D01*
X34097Y-30186D02*
X35303Y-30186D01*
X36587Y-30186D02*
X43032Y-30186D01*
X22558Y-30266D02*
X29541Y-30266D01*
X34097Y-30266D02*
X35303Y-30266D01*
X36587Y-30266D02*
X43032Y-30266D01*
X22558Y-30346D02*
X29621Y-30346D01*
X34097Y-30346D02*
X35303Y-30346D01*
X36587Y-30346D02*
X43032Y-30346D01*
X22558Y-30426D02*
X29705Y-30426D01*
X34097Y-30426D02*
X35303Y-30426D01*
X36587Y-30426D02*
X43032Y-30426D01*
X22558Y-30506D02*
X30860Y-30506D01*
X34097Y-30506D02*
X35314Y-30506D01*
X36575Y-30506D02*
X43032Y-30506D01*
X22558Y-30586D02*
X30740Y-30586D01*
X34097Y-30586D02*
X35336Y-30586D01*
X36555Y-30586D02*
X43032Y-30586D01*
X22558Y-30666D02*
X30697Y-30666D01*
X34097Y-30666D02*
X35303Y-30666D01*
X36587Y-30666D02*
X43032Y-30666D01*
X22558Y-30746D02*
X30684Y-30746D01*
X34097Y-30746D02*
X35303Y-30746D01*
X36587Y-30746D02*
X43032Y-30746D01*
X22558Y-30826D02*
X30684Y-30826D01*
X34097Y-30826D02*
X35303Y-30826D01*
X36587Y-30826D02*
X43032Y-30826D01*
X22558Y-30906D02*
X30684Y-30906D01*
X34097Y-30906D02*
X35303Y-30906D01*
X36587Y-30906D02*
X43032Y-30906D01*
X22558Y-30986D02*
X30684Y-30986D01*
X34097Y-30986D02*
X35303Y-30986D01*
X36587Y-30986D02*
X43032Y-30986D01*
X22558Y-31066D02*
X30684Y-31066D01*
X34094Y-31066D02*
X35303Y-31066D01*
X36587Y-31066D02*
X43032Y-31066D01*
X22558Y-31146D02*
X30699Y-31146D01*
X34078Y-31146D02*
X35303Y-31146D01*
X36587Y-31146D02*
X43032Y-31146D01*
X22558Y-31226D02*
X30748Y-31226D01*
X34034Y-31226D02*
X35331Y-31226D01*
X36558Y-31226D02*
X41771Y-31226D01*
X42325Y-31226D02*
X43032Y-31226D01*
X22558Y-31306D02*
X30768Y-31306D01*
X33966Y-31306D02*
X35398Y-31306D01*
X36492Y-31306D02*
X41641Y-31306D01*
X42456Y-31306D02*
X43032Y-31306D01*
X22558Y-31386D02*
X30776Y-31386D01*
X33886Y-31386D02*
X41561Y-31386D01*
X42536Y-31386D02*
X43032Y-31386D01*
X22558Y-31466D02*
X30796Y-31466D01*
X33806Y-31466D02*
X41494Y-31466D01*
X42603Y-31466D02*
X43032Y-31466D01*
X22558Y-31546D02*
X30850Y-31546D01*
X33726Y-31546D02*
X41461Y-31546D01*
X42636Y-31546D02*
X43032Y-31546D01*
X22558Y-31626D02*
X30929Y-31626D01*
X33646Y-31626D02*
X41427Y-31626D01*
X42669Y-31626D02*
X43032Y-31626D01*
X22558Y-31706D02*
X31009Y-31706D01*
X33566Y-31706D02*
X41405Y-31706D01*
X42691Y-31706D02*
X43032Y-31706D01*
X22558Y-31786D02*
X31119Y-31786D01*
X33455Y-31786D02*
X41405Y-31786D01*
X42691Y-31786D02*
X43032Y-31786D01*
X22558Y-31866D02*
X31974Y-31866D01*
X32989Y-31866D02*
X41405Y-31866D01*
X42691Y-31866D02*
X43032Y-31866D01*
X22558Y-31946D02*
X31940Y-31946D01*
X33022Y-31946D02*
X40657Y-31946D01*
X42686Y-31946D02*
X43032Y-31946D01*
X22558Y-32026D02*
X31937Y-32026D01*
X33025Y-32026D02*
X40575Y-32026D01*
X42653Y-32026D02*
X43032Y-32026D01*
X22558Y-32106D02*
X31937Y-32106D01*
X33025Y-32106D02*
X35827Y-32106D01*
X38663Y-32106D02*
X40542Y-32106D01*
X42619Y-32106D02*
X43032Y-32106D01*
X22558Y-32186D02*
X31937Y-32186D01*
X33025Y-32186D02*
X35775Y-32186D01*
X38716Y-32186D02*
X40539Y-32186D01*
X42577Y-32186D02*
X43032Y-32186D01*
X22558Y-32266D02*
X31937Y-32266D01*
X33025Y-32266D02*
X35756Y-32266D01*
X38734Y-32266D02*
X40539Y-32266D01*
X42497Y-32266D02*
X43032Y-32266D01*
X22558Y-32346D02*
X31937Y-32346D01*
X33025Y-32346D02*
X35756Y-32346D01*
X38734Y-32346D02*
X40539Y-32346D01*
X42417Y-32346D02*
X43032Y-32346D01*
X22558Y-32426D02*
X31937Y-32426D01*
X33025Y-32426D02*
X35756Y-32426D01*
X38734Y-32426D02*
X40539Y-32426D01*
X42232Y-32426D02*
X43032Y-32426D01*
X22558Y-32506D02*
X31961Y-32506D01*
X33000Y-32506D02*
X35756Y-32506D01*
X38734Y-32506D02*
X40539Y-32506D01*
X41903Y-32506D02*
X43032Y-32506D01*
X22558Y-32586D02*
X32023Y-32586D01*
X32939Y-32586D02*
X35756Y-32586D01*
X38734Y-32586D02*
X40539Y-32586D01*
X41903Y-32586D02*
X43032Y-32586D01*
X22558Y-32666D02*
X35756Y-32666D01*
X38734Y-32666D02*
X40539Y-32666D01*
X41903Y-32666D02*
X43032Y-32666D01*
X22558Y-32746D02*
X35756Y-32746D01*
X38734Y-32746D02*
X40565Y-32746D01*
X41876Y-32746D02*
X43032Y-32746D01*
X22558Y-32826D02*
X35756Y-32826D01*
X38734Y-32826D02*
X40629Y-32826D01*
X41813Y-32826D02*
X43032Y-32826D01*
X29288Y-26549D02*
X29288Y-26549D01*
X28889Y-26629D02*
X29368Y-26629D01*
X28969Y-26709D02*
X29448Y-26709D01*
X29041Y-26789D02*
X29528Y-26789D01*
X29090Y-26869D02*
X29608Y-26869D01*
X29106Y-26949D02*
X29688Y-26949D01*
X29109Y-27029D02*
X29768Y-27029D01*
X28496Y-27109D02*
X28529Y-27109D01*
X29109Y-27109D02*
X29848Y-27109D01*
X28496Y-27189D02*
X28529Y-27189D01*
X29109Y-27189D02*
X29928Y-27189D01*
X28471Y-27269D02*
X28529Y-27269D01*
X29109Y-27269D02*
X30008Y-27269D01*
X28438Y-27349D02*
X28529Y-27349D01*
X29109Y-27349D02*
X30088Y-27349D01*
X28369Y-27429D02*
X28529Y-27429D01*
X29109Y-27429D02*
X30168Y-27429D01*
X28361Y-27509D02*
X28529Y-27509D01*
X29109Y-27509D02*
X30277Y-27509D01*
X28361Y-27589D02*
X28529Y-27589D01*
X29109Y-27589D02*
X31095Y-27589D01*
X31708Y-27589D02*
X31959Y-27589D01*
X33002Y-27589D02*
X33273Y-27589D01*
X28361Y-27669D02*
X28529Y-27669D01*
X29109Y-27669D02*
X32017Y-27669D01*
X32945Y-27669D02*
X33353Y-27669D01*
X28361Y-27749D02*
X28529Y-27749D01*
X29109Y-27749D02*
X33433Y-27749D01*
X28361Y-27829D02*
X28529Y-27829D01*
X29109Y-27829D02*
X32133Y-27829D01*
X32831Y-27829D02*
X33513Y-27829D01*
X28361Y-27909D02*
X28529Y-27909D01*
X29145Y-27909D02*
X29425Y-27909D01*
X29975Y-27909D02*
X30025Y-27909D01*
X30575Y-27909D02*
X32001Y-27909D01*
X32961Y-27909D02*
X33517Y-27909D01*
X28361Y-27989D02*
X28529Y-27989D01*
X33010Y-27989D02*
X33517Y-27989D01*
X28361Y-28069D02*
X28544Y-28069D01*
X33025Y-28069D02*
X33517Y-28069D01*
X28361Y-28149D02*
X28581Y-28149D01*
X33025Y-28149D02*
X33517Y-28149D01*
X28361Y-28229D02*
X28645Y-28229D01*
X33025Y-28229D02*
X33517Y-28229D01*
X28404Y-28309D02*
X28725Y-28309D01*
X33025Y-28309D02*
X33517Y-28309D01*
X28484Y-28389D02*
X28805Y-28389D01*
X33025Y-28389D02*
X33517Y-28389D01*
X28564Y-28469D02*
X28885Y-28469D01*
X33025Y-28469D02*
X33517Y-28469D01*
X28644Y-28549D02*
X29048Y-28549D01*
X33012Y-28549D02*
X33517Y-28549D01*
X28724Y-28629D02*
X29427Y-28629D01*
X29972Y-28629D02*
X30010Y-28629D01*
X30590Y-28629D02*
X31993Y-28629D01*
X32969Y-28629D02*
X33517Y-28629D01*
X28804Y-28709D02*
X30010Y-28709D01*
X30590Y-28709D02*
X32112Y-28709D01*
X32849Y-28709D02*
X33517Y-28709D01*
X28884Y-28789D02*
X30010Y-28789D01*
X30590Y-28789D02*
X33517Y-28789D01*
X28964Y-28869D02*
X30010Y-28869D01*
X30590Y-28869D02*
X30701Y-28869D01*
X30842Y-28869D02*
X31018Y-28869D01*
X31160Y-28869D02*
X32026Y-28869D01*
X32427Y-28869D02*
X32535Y-28869D01*
X32936Y-28869D02*
X33517Y-28869D01*
X29044Y-28949D02*
X29999Y-28949D01*
X30880Y-28949D02*
X30980Y-28949D01*
X31261Y-28949D02*
X31964Y-28949D01*
X32431Y-28949D02*
X32531Y-28949D01*
X32999Y-28949D02*
X33517Y-28949D01*
X29124Y-29029D02*
X29963Y-29029D01*
X30880Y-29029D02*
X30980Y-29029D01*
X31298Y-29029D02*
X31937Y-29029D01*
X32431Y-29029D02*
X32531Y-29029D01*
X33026Y-29029D02*
X33517Y-29029D01*
X29204Y-29109D02*
X29956Y-29109D01*
X30880Y-29109D02*
X30980Y-29109D01*
X31304Y-29109D02*
X31937Y-29109D01*
X32431Y-29109D02*
X32531Y-29109D01*
X33026Y-29109D02*
X33517Y-29109D01*
X29284Y-29189D02*
X29956Y-29189D01*
X30880Y-29189D02*
X30980Y-29189D01*
X31256Y-29189D02*
X31979Y-29189D01*
X32431Y-29189D02*
X32531Y-29189D01*
X32983Y-29189D02*
X33517Y-29189D01*
X29364Y-29269D02*
X29956Y-29269D01*
X30880Y-29269D02*
X33517Y-29269D01*
X29444Y-29349D02*
X29956Y-29349D01*
X30880Y-29349D02*
X30980Y-29349D01*
X31290Y-29349D02*
X31957Y-29349D01*
X32431Y-29349D02*
X32531Y-29349D01*
X33005Y-29349D02*
X33517Y-29349D01*
X29524Y-29429D02*
X29956Y-29429D01*
X30880Y-29429D02*
X30980Y-29429D01*
X31304Y-29429D02*
X31936Y-29429D01*
X32431Y-29429D02*
X32531Y-29429D01*
X33025Y-29429D02*
X33517Y-29429D01*
X29604Y-29509D02*
X29977Y-29509D01*
X30880Y-29509D02*
X30980Y-29509D01*
X31283Y-29509D02*
X31939Y-29509D01*
X32431Y-29509D02*
X32531Y-29509D01*
X33022Y-29509D02*
X33517Y-29509D01*
X29684Y-29589D02*
X30033Y-29589D01*
X30625Y-29589D02*
X30633Y-29589D01*
X30880Y-29589D02*
X30980Y-29589D01*
X31227Y-29589D02*
X31972Y-29589D01*
X32431Y-29589D02*
X32531Y-29589D01*
X32989Y-29589D02*
X33517Y-29589D01*
X29764Y-29669D02*
X32052Y-29669D01*
X32405Y-29669D02*
X32557Y-29669D01*
X32909Y-29669D02*
X33517Y-29669D01*
X29844Y-29749D02*
X33517Y-29749D01*
X29924Y-29829D02*
X32020Y-29829D01*
X32942Y-29829D02*
X33517Y-29829D01*
X30004Y-29909D02*
X31960Y-29909D01*
X33002Y-29909D02*
X33517Y-29909D01*
X33025Y-29989D02*
X33517Y-29989D01*
X33025Y-30069D02*
X33517Y-30069D01*
X33025Y-30149D02*
X33517Y-30149D01*
X33025Y-30229D02*
X33517Y-30229D01*
X33025Y-30309D02*
X33517Y-30309D01*
X33025Y-30389D02*
X33517Y-30389D01*
X33020Y-30469D02*
X33517Y-30469D01*
X32989Y-30549D02*
X33517Y-30549D01*
X33023Y-30629D02*
X33517Y-30629D01*
X33025Y-30709D02*
X33517Y-30709D01*
X33025Y-30789D02*
X33517Y-30789D01*
X33025Y-30869D02*
X33517Y-30869D01*
X33025Y-30949D02*
X33503Y-30949D01*
X33025Y-31029D02*
X33423Y-31029D01*
X33025Y-31109D02*
X33343Y-31109D01*
X32999Y-31189D02*
X33263Y-31189D01*
X33025Y-25093D02*
X33517Y-25093D01*
X33025Y-25173D02*
X33517Y-25173D01*
X33025Y-25253D02*
X33517Y-25253D01*
X33025Y-25333D02*
X33517Y-25333D01*
X33025Y-25413D02*
X33517Y-25413D01*
X33025Y-25493D02*
X33517Y-25493D01*
X33022Y-25573D02*
X33517Y-25573D01*
X29994Y-25653D02*
X30004Y-25653D01*
X30595Y-25653D02*
X30672Y-25653D01*
X30854Y-25653D02*
X31006Y-25653D01*
X31189Y-25653D02*
X31966Y-25653D01*
X32996Y-25653D02*
X33517Y-25653D01*
X29691Y-25733D02*
X29992Y-25733D01*
X30880Y-25733D02*
X30980Y-25733D01*
X31269Y-25733D02*
X31937Y-25733D01*
X33025Y-25733D02*
X33517Y-25733D01*
X29611Y-25813D02*
X29958Y-25813D01*
X30880Y-25813D02*
X30980Y-25813D01*
X31303Y-25813D02*
X31937Y-25813D01*
X33025Y-25813D02*
X33517Y-25813D01*
X29531Y-25893D02*
X29956Y-25893D01*
X30880Y-25893D02*
X30980Y-25893D01*
X31304Y-25893D02*
X31937Y-25893D01*
X33025Y-25893D02*
X33517Y-25893D01*
X29451Y-25973D02*
X29956Y-25973D01*
X30880Y-25973D02*
X30980Y-25973D01*
X31244Y-25973D02*
X31937Y-25973D01*
X33025Y-25973D02*
X33517Y-25973D01*
X29612Y-26053D02*
X29956Y-26053D01*
X30704Y-26053D02*
X31937Y-26053D01*
X33025Y-26053D02*
X33517Y-26053D01*
X29692Y-26133D02*
X29956Y-26133D01*
X30880Y-26133D02*
X30980Y-26133D01*
X31302Y-26133D02*
X31937Y-26133D01*
X33025Y-26133D02*
X33517Y-26133D01*
X29772Y-26213D02*
X29956Y-26213D01*
X30880Y-26213D02*
X30980Y-26213D01*
X31304Y-26213D02*
X31937Y-26213D01*
X33025Y-26213D02*
X33517Y-26213D01*
X29852Y-26293D02*
X29982Y-26293D01*
X30880Y-26293D02*
X30980Y-26293D01*
X31297Y-26293D02*
X31507Y-26293D01*
X31624Y-26293D02*
X31968Y-26293D01*
X32992Y-26293D02*
X33517Y-26293D01*
X29932Y-26373D02*
X30045Y-26373D01*
X30613Y-26373D02*
X30645Y-26373D01*
X30876Y-26373D02*
X30984Y-26373D01*
X31352Y-26373D02*
X31452Y-26373D01*
X31748Y-26373D02*
X31938Y-26373D01*
X33025Y-26373D02*
X33517Y-26373D01*
X30012Y-26453D02*
X31010Y-26453D01*
X31352Y-26453D02*
X31452Y-26453D01*
X31794Y-26453D02*
X31937Y-26453D01*
X33026Y-26453D02*
X33517Y-26453D01*
X30092Y-26533D02*
X30996Y-26533D01*
X31352Y-26533D02*
X31452Y-26533D01*
X31809Y-26533D02*
X31961Y-26533D01*
X33001Y-26533D02*
X33517Y-26533D01*
X30172Y-26613D02*
X33517Y-26613D01*
X30252Y-26693D02*
X31975Y-26693D01*
X32431Y-26693D02*
X32531Y-26693D01*
X32987Y-26693D02*
X33517Y-26693D01*
X30332Y-26773D02*
X30995Y-26773D01*
X31809Y-26773D02*
X31936Y-26773D01*
X32431Y-26773D02*
X32531Y-26773D01*
X33025Y-26773D02*
X33490Y-26773D01*
X30412Y-26853D02*
X31003Y-26853D01*
X31800Y-26853D02*
X31936Y-26853D01*
X33025Y-26853D02*
X33410Y-26853D01*
X30492Y-26933D02*
X31039Y-26933D01*
X31763Y-26933D02*
X31964Y-26933D01*
X32996Y-26933D02*
X33330Y-26933D01*
X27916Y-21629D02*
X30747Y-21629D01*
X27952Y-21709D02*
X30827Y-21709D01*
X27957Y-21789D02*
X30907Y-21789D01*
X27906Y-21869D02*
X30987Y-21869D01*
X27533Y-21949D02*
X31067Y-21949D01*
X27533Y-22029D02*
X27633Y-22029D01*
X27946Y-22029D02*
X31131Y-22029D01*
X27533Y-22109D02*
X27633Y-22109D01*
X27957Y-22109D02*
X31131Y-22109D01*
X27533Y-22189D02*
X27633Y-22189D01*
X27934Y-22189D02*
X31131Y-22189D01*
X27276Y-22269D02*
X27289Y-22269D01*
X27533Y-22269D02*
X27633Y-22269D01*
X27877Y-22269D02*
X31131Y-22269D01*
X27273Y-22349D02*
X31131Y-22349D01*
X27273Y-22429D02*
X27982Y-22429D01*
X28323Y-22429D02*
X28423Y-22429D01*
X28764Y-22429D02*
X28985Y-22429D01*
X29439Y-22429D02*
X31131Y-22429D01*
X27273Y-22509D02*
X27923Y-22509D01*
X28323Y-22509D02*
X28423Y-22509D01*
X28824Y-22509D02*
X28897Y-22509D01*
X29527Y-22509D02*
X31052Y-22509D01*
X27273Y-22589D02*
X27899Y-22589D01*
X28323Y-22589D02*
X28423Y-22589D01*
X29587Y-22589D02*
X31018Y-22589D01*
X27273Y-22669D02*
X28423Y-22669D01*
X29620Y-22669D02*
X31015Y-22669D01*
X27273Y-22749D02*
X28423Y-22749D01*
X29637Y-22749D02*
X31015Y-22749D01*
X27273Y-22829D02*
X27898Y-22829D01*
X29637Y-22829D02*
X31015Y-22829D01*
X27273Y-22909D02*
X27917Y-22909D01*
X29624Y-22909D02*
X31015Y-22909D01*
X27273Y-22989D02*
X27931Y-22989D01*
X29591Y-22989D02*
X31033Y-22989D01*
X27273Y-23069D02*
X27899Y-23069D01*
X30113Y-23069D02*
X31085Y-23069D01*
X27273Y-23149D02*
X27899Y-23149D01*
X30232Y-23149D02*
X31035Y-23149D01*
X27273Y-23229D02*
X27899Y-23229D01*
X30276Y-23229D02*
X31015Y-23229D01*
X27273Y-23309D02*
X27899Y-23309D01*
X30288Y-23309D02*
X31015Y-23309D01*
X27273Y-23389D02*
X27909Y-23389D01*
X30288Y-23389D02*
X31015Y-23389D01*
X27273Y-23469D02*
X27941Y-23469D01*
X30288Y-23469D02*
X31015Y-23469D01*
X27273Y-23549D02*
X27906Y-23549D01*
X30288Y-23549D02*
X31016Y-23549D01*
X27273Y-23629D02*
X27899Y-23629D01*
X30288Y-23629D02*
X31049Y-23629D01*
X27273Y-23709D02*
X27899Y-23709D01*
X30287Y-23709D02*
X30672Y-23709D01*
X27273Y-23789D02*
X27899Y-23789D01*
X30254Y-23789D02*
X30611Y-23789D01*
X24283Y-23869D02*
X25106Y-23869D01*
X27273Y-23869D02*
X27901Y-23869D01*
X30202Y-23869D02*
X30586Y-23869D01*
X24310Y-23949D02*
X25106Y-23949D01*
X27273Y-23949D02*
X27934Y-23949D01*
X30264Y-23949D02*
X30586Y-23949D01*
X24611Y-24029D02*
X25106Y-24029D01*
X27267Y-24029D02*
X27915Y-24029D01*
X30288Y-24029D02*
X30521Y-24029D01*
X24718Y-24109D02*
X25106Y-24109D01*
X27251Y-24109D02*
X27899Y-24109D01*
X30288Y-24109D02*
X30441Y-24109D01*
X24798Y-24189D02*
X25106Y-24189D01*
X27199Y-24189D02*
X27899Y-24189D01*
X30288Y-24189D02*
X30361Y-24189D01*
X24878Y-24269D02*
X25128Y-24269D01*
X27125Y-24269D02*
X27899Y-24269D01*
X24958Y-24349D02*
X25187Y-24349D01*
X27045Y-24349D02*
X27899Y-24349D01*
X25038Y-24429D02*
X25439Y-24429D01*
X26960Y-24429D02*
X27925Y-24429D01*
X25118Y-24509D02*
X25889Y-24509D01*
X26656Y-24509D02*
X27990Y-24509D01*
X25198Y-24589D02*
X29317Y-24589D01*
X43032Y-32875D02*
X43032Y-20826D01*
X22558Y-20826D01*
X22558Y-32875D01*
X32136Y-32875D01*
X32136Y-32646D01*
X32045Y-32608D01*
X31975Y-32538D01*
X31937Y-32446D01*
X31937Y-31953D01*
X31975Y-31862D01*
X32026Y-31810D01*
X31233Y-31810D01*
X31122Y-31788D01*
X31027Y-31724D01*
X30853Y-31550D01*
X30790Y-31456D01*
X30768Y-31345D01*
X30768Y-31246D01*
X30722Y-31200D01*
X30684Y-31108D01*
X30684Y-30695D01*
X30722Y-30604D01*
X30792Y-30534D01*
X30869Y-30502D01*
X29897Y-30502D01*
X29786Y-30480D01*
X29692Y-30417D01*
X27866Y-28591D01*
X27803Y-28497D01*
X27781Y-28386D01*
X27781Y-27437D01*
X27710Y-27366D01*
X27646Y-27210D01*
X27646Y-27041D01*
X27687Y-26942D01*
X24352Y-26942D01*
X24347Y-26955D01*
X24341Y-26961D01*
X24384Y-27004D01*
X24422Y-27096D01*
X24422Y-27785D01*
X24384Y-27876D01*
X24314Y-27946D01*
X24222Y-27984D01*
X22943Y-27984D01*
X22852Y-27946D01*
X22782Y-27876D01*
X22744Y-27784D01*
X22744Y-27095D01*
X22782Y-27004D01*
X22824Y-26961D01*
X22818Y-26955D01*
X22737Y-26758D01*
X22737Y-26545D01*
X22819Y-26349D01*
X22909Y-26258D01*
X22818Y-26168D01*
X22737Y-25971D01*
X22737Y-25758D01*
X22819Y-25562D01*
X22909Y-25471D01*
X22818Y-25381D01*
X22737Y-25184D01*
X22737Y-24971D01*
X22819Y-24775D01*
X22909Y-24683D01*
X22818Y-24593D01*
X22737Y-24396D01*
X22737Y-24183D01*
X22819Y-23987D01*
X22909Y-23896D01*
X22818Y-23806D01*
X22737Y-23609D01*
X22737Y-23396D01*
X22819Y-23200D01*
X22909Y-23109D01*
X22818Y-23019D01*
X22737Y-22822D01*
X22737Y-22609D01*
X22819Y-22413D01*
X22911Y-22319D01*
X22834Y-22245D01*
X22760Y-22063D01*
X22808Y-21979D01*
X22808Y-21879D01*
X22760Y-21795D01*
X22834Y-21613D01*
X22990Y-21463D01*
X23191Y-21384D01*
X23533Y-21384D01*
X23533Y-21879D01*
X22808Y-21879D01*
X22808Y-21979D01*
X23533Y-21979D01*
X23633Y-21979D01*
X23633Y-21879D01*
X23633Y-21384D01*
X23975Y-21384D01*
X24176Y-21463D01*
X24332Y-21613D01*
X24406Y-21795D01*
X24358Y-21879D01*
X23633Y-21879D01*
X23633Y-21979D01*
X24358Y-21979D01*
X24406Y-22063D01*
X24332Y-22245D01*
X24254Y-22319D01*
X24348Y-22413D01*
X24353Y-22426D01*
X25433Y-22426D01*
X25433Y-22273D01*
X25387Y-22227D01*
X25349Y-22135D01*
X25349Y-21722D01*
X25387Y-21631D01*
X25457Y-21561D01*
X25549Y-21523D01*
X25898Y-21523D01*
X25989Y-21561D01*
X26022Y-21594D01*
X26057Y-21561D01*
X26149Y-21523D01*
X26498Y-21523D01*
X26589Y-21561D01*
X26652Y-21624D01*
X26693Y-21585D01*
X26693Y-21560D01*
X26715Y-21449D01*
X26778Y-21355D01*
X26999Y-21134D01*
X27093Y-21071D01*
X27204Y-21049D01*
X30867Y-21049D01*
X30978Y-21071D01*
X31072Y-21134D01*
X31626Y-21688D01*
X31689Y-21782D01*
X31711Y-21893D01*
X31711Y-22431D01*
X31719Y-22435D01*
X31765Y-22481D01*
X33389Y-22481D01*
X33500Y-22503D01*
X33594Y-22566D01*
X34012Y-22984D01*
X34075Y-23078D01*
X34097Y-23189D01*
X34097Y-26866D01*
X34075Y-26977D01*
X34012Y-27071D01*
X33793Y-27288D01*
X34012Y-27507D01*
X34075Y-27601D01*
X34097Y-27712D01*
X34097Y-31055D01*
X34075Y-31166D01*
X34012Y-31260D01*
X33547Y-31725D01*
X33453Y-31788D01*
X33342Y-31810D01*
X32934Y-31810D01*
X32987Y-31862D01*
X33025Y-31954D01*
X33025Y-32447D01*
X32987Y-32538D01*
X32917Y-32608D01*
X32825Y-32646D01*
X32136Y-32646D01*
X32136Y-32875D01*
X35147Y-32875D01*
X35147Y-24782D01*
X35056Y-24744D01*
X34986Y-24674D01*
X34948Y-24582D01*
X34948Y-24089D01*
X34986Y-23998D01*
X35056Y-23928D01*
X35148Y-23890D01*
X36231Y-23890D01*
X36322Y-23928D01*
X36368Y-23974D01*
X36368Y-23798D01*
X36277Y-23760D01*
X36207Y-23690D01*
X36169Y-23598D01*
X36169Y-23105D01*
X36207Y-23014D01*
X36277Y-22944D01*
X36369Y-22906D01*
X37254Y-22906D01*
X37345Y-22944D01*
X37415Y-23014D01*
X37453Y-23106D01*
X37453Y-23599D01*
X37415Y-23690D01*
X37345Y-23760D01*
X37253Y-23798D01*
X36368Y-23798D01*
X36368Y-23974D01*
X36392Y-23998D01*
X36430Y-24090D01*
X36430Y-24583D01*
X36392Y-24674D01*
X36322Y-24744D01*
X36230Y-24782D01*
X35147Y-24782D01*
X35147Y-32875D01*
X35502Y-32875D01*
X35502Y-31357D01*
X35411Y-31319D01*
X35341Y-31249D01*
X35303Y-31157D01*
X35303Y-30664D01*
X35341Y-30573D01*
X35342Y-30571D01*
X35341Y-30570D01*
X35303Y-30478D01*
X35303Y-29985D01*
X35341Y-29894D01*
X35411Y-29824D01*
X35492Y-29790D01*
X35492Y-29704D01*
X35401Y-29666D01*
X35331Y-29596D01*
X35293Y-29504D01*
X35293Y-29011D01*
X35331Y-28920D01*
X35401Y-28850D01*
X35493Y-28812D01*
X35512Y-28812D01*
X35512Y-28729D01*
X35421Y-28691D01*
X35351Y-28621D01*
X35313Y-28529D01*
X35313Y-28036D01*
X35351Y-27945D01*
X35421Y-27875D01*
X35513Y-27837D01*
X35571Y-27837D01*
X35571Y-27745D01*
X35480Y-27707D01*
X35410Y-27637D01*
X35372Y-27545D01*
X35372Y-27052D01*
X35410Y-26961D01*
X35462Y-26908D01*
X35441Y-26899D01*
X35371Y-26829D01*
X35333Y-26737D01*
X35333Y-25852D01*
X35371Y-25761D01*
X35441Y-25691D01*
X35509Y-25662D01*
X35480Y-25650D01*
X35410Y-25580D01*
X35372Y-25488D01*
X35372Y-24995D01*
X35410Y-24904D01*
X35480Y-24834D01*
X35572Y-24796D01*
X36457Y-24796D01*
X36548Y-24834D01*
X36618Y-24904D01*
X36656Y-24996D01*
X36656Y-25489D01*
X36618Y-25580D01*
X36548Y-25650D01*
X36479Y-25678D01*
X36509Y-25691D01*
X36579Y-25761D01*
X36617Y-25853D01*
X36617Y-26738D01*
X36579Y-26829D01*
X36526Y-26881D01*
X36548Y-26891D01*
X36618Y-26961D01*
X36656Y-27053D01*
X36656Y-27546D01*
X36618Y-27637D01*
X36548Y-27707D01*
X36456Y-27745D01*
X35571Y-27745D01*
X35571Y-27837D01*
X36398Y-27837D01*
X36489Y-27875D01*
X36559Y-27945D01*
X36597Y-28037D01*
X36597Y-28530D01*
X36559Y-28621D01*
X36489Y-28691D01*
X36397Y-28729D01*
X35512Y-28729D01*
X35512Y-28812D01*
X36378Y-28812D01*
X36469Y-28850D01*
X36539Y-28920D01*
X36577Y-29012D01*
X36577Y-29505D01*
X36539Y-29596D01*
X36469Y-29666D01*
X36377Y-29704D01*
X35492Y-29704D01*
X35492Y-29790D01*
X35503Y-29786D01*
X36388Y-29786D01*
X36479Y-29824D01*
X36549Y-29894D01*
X36587Y-29986D01*
X36587Y-30479D01*
X36549Y-30570D01*
X36547Y-30571D01*
X36549Y-30573D01*
X36587Y-30665D01*
X36587Y-31158D01*
X36549Y-31249D01*
X36479Y-31319D01*
X36387Y-31357D01*
X35502Y-31357D01*
X35502Y-32875D01*
X35756Y-32875D01*
X35756Y-32230D01*
X35794Y-32139D01*
X35864Y-32069D01*
X35956Y-32031D01*
X38535Y-32031D01*
X38626Y-32069D01*
X38696Y-32139D01*
X38734Y-32231D01*
X38734Y-32875D01*
X40295Y-32875D01*
X40295Y-21859D01*
X40204Y-21821D01*
X40134Y-21751D01*
X40096Y-21659D01*
X40096Y-21088D01*
X40134Y-20997D01*
X40204Y-20927D01*
X40296Y-20889D01*
X41261Y-20889D01*
X41352Y-20927D01*
X41422Y-20997D01*
X41460Y-21089D01*
X41460Y-21660D01*
X41422Y-21751D01*
X41352Y-21821D01*
X41260Y-21859D01*
X40295Y-21859D01*
X40295Y-32875D01*
X40721Y-32875D01*
X40647Y-32844D01*
X40577Y-32774D01*
X40539Y-32682D01*
X40539Y-32111D01*
X40577Y-32020D01*
X40647Y-31950D01*
X40739Y-31912D01*
X41405Y-31912D01*
X41405Y-31678D01*
X41504Y-31442D01*
X41685Y-31262D01*
X41919Y-31164D01*
X41919Y-22922D01*
X41683Y-22823D01*
X41503Y-22642D01*
X41405Y-22406D01*
X41405Y-22150D01*
X41504Y-21914D01*
X41685Y-21734D01*
X41921Y-21636D01*
X42177Y-21636D01*
X42413Y-21735D01*
X42593Y-21916D01*
X42691Y-22152D01*
X42691Y-22408D01*
X42592Y-22644D01*
X42411Y-22824D01*
X42175Y-22922D01*
X41919Y-22922D01*
X41919Y-31164D01*
X42177Y-31164D01*
X42413Y-31263D01*
X42593Y-31444D01*
X42691Y-31680D01*
X42691Y-31936D01*
X42592Y-32172D01*
X42411Y-32352D01*
X42175Y-32450D01*
X41919Y-32450D01*
X41903Y-32443D01*
X41903Y-32683D01*
X41865Y-32774D01*
X41795Y-32844D01*
X41719Y-32875D01*
X43032Y-32875D01*
X22558Y-20826D02*
X43032Y-20826D01*
X22558Y-20906D02*
X40255Y-20906D01*
X41302Y-20906D02*
X43032Y-20906D01*
X22558Y-20986D02*
X40145Y-20986D01*
X41411Y-20986D02*
X43032Y-20986D01*
X22558Y-21066D02*
X27119Y-21066D01*
X30953Y-21066D02*
X40106Y-21066D01*
X41451Y-21066D02*
X43032Y-21066D01*
X22558Y-21146D02*
X26987Y-21146D01*
X31084Y-21146D02*
X40096Y-21146D01*
X41460Y-21146D02*
X43032Y-21146D01*
X22558Y-21226D02*
X26907Y-21226D01*
X31164Y-21226D02*
X40096Y-21226D01*
X41460Y-21226D02*
X43032Y-21226D01*
X22558Y-21306D02*
X26827Y-21306D01*
X31244Y-21306D02*
X40096Y-21306D01*
X41460Y-21306D02*
X43032Y-21306D01*
X22558Y-21386D02*
X23186Y-21386D01*
X23533Y-21386D02*
X23633Y-21386D01*
X23981Y-21386D02*
X26758Y-21386D01*
X31324Y-21386D02*
X40096Y-21386D01*
X41460Y-21386D02*
X43032Y-21386D01*
X22558Y-21466D02*
X22987Y-21466D01*
X23533Y-21466D02*
X23633Y-21466D01*
X24180Y-21466D02*
X26712Y-21466D01*
X31404Y-21466D02*
X40096Y-21466D01*
X41460Y-21466D02*
X43032Y-21466D01*
X22558Y-21546D02*
X22904Y-21546D01*
X23533Y-21546D02*
X23633Y-21546D01*
X24263Y-21546D02*
X25494Y-21546D01*
X25954Y-21546D02*
X26094Y-21546D01*
X26554Y-21546D02*
X26696Y-21546D01*
X31484Y-21546D02*
X40096Y-21546D01*
X41460Y-21546D02*
X43032Y-21546D01*
X22558Y-21626D02*
X22829Y-21626D01*
X23533Y-21626D02*
X23633Y-21626D01*
X24338Y-21626D02*
X25392Y-21626D01*
X31564Y-21626D02*
X40096Y-21626D01*
X41460Y-21626D02*
X43032Y-21626D01*
X22558Y-21706D02*
X22797Y-21706D01*
X23533Y-21706D02*
X23633Y-21706D01*
X24370Y-21706D02*
X25356Y-21706D01*
X31639Y-21706D02*
X40115Y-21706D01*
X41440Y-21706D02*
X41753Y-21706D01*
X42344Y-21706D02*
X43032Y-21706D01*
X22558Y-21786D02*
X22764Y-21786D01*
X23533Y-21786D02*
X23633Y-21786D01*
X24403Y-21786D02*
X25349Y-21786D01*
X31690Y-21786D02*
X40169Y-21786D01*
X41387Y-21786D02*
X41633Y-21786D01*
X42464Y-21786D02*
X43032Y-21786D01*
X22558Y-21866D02*
X22800Y-21866D01*
X23533Y-21866D02*
X23633Y-21866D01*
X24365Y-21866D02*
X25349Y-21866D01*
X31706Y-21866D02*
X41553Y-21866D01*
X42544Y-21866D02*
X43032Y-21866D01*
X22558Y-21946D02*
X25349Y-21946D01*
X31711Y-21946D02*
X41491Y-21946D01*
X42606Y-21946D02*
X43032Y-21946D01*
X22558Y-22026D02*
X22782Y-22026D01*
X24385Y-22026D02*
X25349Y-22026D01*
X31711Y-22026D02*
X41458Y-22026D01*
X42639Y-22026D02*
X43032Y-22026D01*
X22558Y-22106D02*
X22777Y-22106D01*
X24388Y-22106D02*
X25349Y-22106D01*
X31711Y-22106D02*
X41424Y-22106D01*
X42672Y-22106D02*
X43032Y-22106D01*
X22558Y-22186D02*
X22810Y-22186D01*
X24355Y-22186D02*
X25370Y-22186D01*
X31711Y-22186D02*
X41405Y-22186D01*
X42691Y-22186D02*
X43032Y-22186D01*
X22558Y-22266D02*
X22855Y-22266D01*
X24309Y-22266D02*
X25426Y-22266D01*
X31711Y-22266D02*
X41405Y-22266D01*
X42691Y-22266D02*
X43032Y-22266D01*
X22558Y-22346D02*
X22885Y-22346D01*
X24281Y-22346D02*
X25433Y-22346D01*
X31711Y-22346D02*
X41405Y-22346D01*
X42691Y-22346D02*
X43032Y-22346D01*
X22558Y-22426D02*
X22814Y-22426D01*
X31711Y-22426D02*
X41413Y-22426D01*
X42683Y-22426D02*
X43032Y-22426D01*
X22558Y-22506D02*
X22781Y-22506D01*
X33505Y-22506D02*
X41446Y-22506D01*
X42649Y-22506D02*
X43032Y-22506D01*
X22558Y-22586D02*
X22747Y-22586D01*
X33614Y-22586D02*
X41479Y-22586D01*
X42616Y-22586D02*
X43032Y-22586D01*
X22558Y-22666D02*
X22737Y-22666D01*
X33694Y-22666D02*
X41526Y-22666D01*
X42569Y-22666D02*
X43032Y-22666D01*
X22558Y-22746D02*
X22737Y-22746D01*
X33774Y-22746D02*
X41606Y-22746D01*
X42489Y-22746D02*
X43032Y-22746D01*
X22558Y-22826D02*
X22738Y-22826D01*
X33854Y-22826D02*
X41690Y-22826D01*
X42406Y-22826D02*
X43032Y-22826D01*
X22558Y-22906D02*
X22771Y-22906D01*
X33934Y-22906D02*
X36369Y-22906D01*
X37254Y-22906D02*
X41880Y-22906D01*
X42213Y-22906D02*
X43032Y-22906D01*
X22558Y-22986D02*
X22804Y-22986D01*
X34014Y-22986D02*
X36235Y-22986D01*
X37387Y-22986D02*
X43032Y-22986D01*
X22558Y-23066D02*
X22865Y-23066D01*
X34067Y-23066D02*
X36186Y-23066D01*
X37437Y-23066D02*
X43032Y-23066D01*
X22558Y-23146D02*
X22873Y-23146D01*
X34089Y-23146D02*
X36169Y-23146D01*
X37453Y-23146D02*
X43032Y-23146D01*
X22558Y-23226D02*
X22809Y-23226D01*
X34097Y-23226D02*
X36169Y-23226D01*
X37453Y-23226D02*
X43032Y-23226D01*
X22558Y-23306D02*
X22775Y-23306D01*
X34097Y-23306D02*
X36169Y-23306D01*
X37453Y-23306D02*
X43032Y-23306D01*
X22558Y-23386D02*
X22742Y-23386D01*
X34097Y-23386D02*
X36169Y-23386D01*
X37453Y-23386D02*
X43032Y-23386D01*
X22558Y-23466D02*
X22737Y-23466D01*
X34097Y-23466D02*
X36169Y-23466D01*
X37453Y-23466D02*
X43032Y-23466D01*
X22558Y-23546D02*
X22737Y-23546D01*
X34097Y-23546D02*
X36169Y-23546D01*
X37453Y-23546D02*
X43032Y-23546D01*
X22558Y-23626D02*
X22743Y-23626D01*
X34097Y-23626D02*
X36180Y-23626D01*
X37441Y-23626D02*
X43032Y-23626D01*
X22558Y-23706D02*
X22776Y-23706D01*
X34097Y-23706D02*
X36223Y-23706D01*
X37399Y-23706D02*
X43032Y-23706D01*
X22558Y-23786D02*
X22809Y-23786D01*
X34097Y-23786D02*
X36339Y-23786D01*
X37282Y-23786D02*
X43032Y-23786D01*
X22558Y-23866D02*
X22878Y-23866D01*
X34097Y-23866D02*
X43032Y-23866D01*
X22558Y-23946D02*
X22860Y-23946D01*
X34097Y-23946D02*
X35038Y-23946D01*
X36340Y-23946D02*
X43032Y-23946D01*
X22558Y-24026D02*
X22803Y-24026D01*
X34097Y-24026D02*
X34975Y-24026D01*
X36404Y-24026D02*
X43032Y-24026D01*
X22558Y-24106D02*
X22770Y-24106D01*
X34097Y-24106D02*
X34948Y-24106D01*
X36430Y-24106D02*
X43032Y-24106D01*
X22558Y-24186D02*
X22737Y-24186D01*
X34097Y-24186D02*
X34948Y-24186D01*
X36430Y-24186D02*
X43032Y-24186D01*
X22558Y-24266D02*
X22737Y-24266D01*
X34097Y-24266D02*
X34948Y-24266D01*
X36430Y-24266D02*
X43032Y-24266D01*
X22558Y-24346D02*
X22737Y-24346D01*
X34097Y-24346D02*
X34948Y-24346D01*
X36430Y-24346D02*
X43032Y-24346D01*
X22558Y-24426D02*
X22749Y-24426D01*
X34097Y-24426D02*
X34948Y-24426D01*
X36430Y-24426D02*
X43032Y-24426D01*
X22558Y-24506D02*
X22782Y-24506D01*
X34097Y-24506D02*
X34948Y-24506D01*
X36430Y-24506D02*
X43032Y-24506D01*
X22558Y-24586D02*
X22815Y-24586D01*
X34097Y-24586D02*
X34949Y-24586D01*
X36428Y-24586D02*
X43032Y-24586D01*
X22558Y-24666D02*
X22891Y-24666D01*
X34097Y-24666D02*
X34982Y-24666D01*
X36395Y-24666D02*
X43032Y-24666D01*
X22558Y-24746D02*
X22848Y-24746D01*
X34097Y-24746D02*
X35060Y-24746D01*
X36317Y-24746D02*
X43032Y-24746D01*
X22558Y-24826D02*
X22798Y-24826D01*
X34097Y-24826D02*
X35500Y-24826D01*
X36529Y-24826D02*
X43032Y-24826D01*
X22558Y-24906D02*
X22765Y-24906D01*
X34097Y-24906D02*
X35410Y-24906D01*
X36619Y-24906D02*
X43032Y-24906D01*
X22558Y-24986D02*
X22737Y-24986D01*
X34097Y-24986D02*
X35376Y-24986D01*
X36652Y-24986D02*
X43032Y-24986D01*
X22558Y-25066D02*
X22737Y-25066D01*
X34097Y-25066D02*
X35372Y-25066D01*
X36656Y-25066D02*
X43032Y-25066D01*
X22558Y-25146D02*
X22737Y-25146D01*
X34097Y-25146D02*
X35372Y-25146D01*
X36656Y-25146D02*
X43032Y-25146D01*
X22558Y-25226D02*
X22754Y-25226D01*
X34097Y-25226D02*
X35372Y-25226D01*
X36656Y-25226D02*
X43032Y-25226D01*
X22558Y-25306D02*
X22787Y-25306D01*
X34097Y-25306D02*
X35372Y-25306D01*
X36656Y-25306D02*
X43032Y-25306D01*
X22558Y-25386D02*
X22823Y-25386D01*
X34097Y-25386D02*
X35372Y-25386D01*
X36656Y-25386D02*
X43032Y-25386D01*
X22558Y-25466D02*
X22903Y-25466D01*
X34097Y-25466D02*
X35372Y-25466D01*
X36656Y-25466D02*
X43032Y-25466D01*
X22558Y-25546D02*
X22835Y-25546D01*
X34097Y-25546D02*
X35395Y-25546D01*
X36632Y-25546D02*
X43032Y-25546D01*
X22558Y-25626D02*
X22793Y-25626D01*
X34097Y-25626D02*
X35456Y-25626D01*
X36572Y-25626D02*
X43032Y-25626D01*
X22558Y-25706D02*
X22759Y-25706D01*
X34097Y-25706D02*
X35426Y-25706D01*
X36524Y-25706D02*
X43032Y-25706D01*
X22558Y-25786D02*
X22737Y-25786D01*
X34097Y-25786D02*
X35361Y-25786D01*
X36590Y-25786D02*
X43032Y-25786D01*
X22558Y-25866D02*
X22737Y-25866D01*
X34097Y-25866D02*
X35333Y-25866D01*
X36617Y-25866D02*
X43032Y-25866D01*
X22558Y-25946D02*
X22737Y-25946D01*
X34097Y-25946D02*
X35333Y-25946D01*
X36617Y-25946D02*
X43032Y-25946D01*
X22558Y-26026D02*
X22759Y-26026D01*
X34097Y-26026D02*
X35333Y-26026D01*
X36617Y-26026D02*
X43032Y-26026D01*
X22558Y-26106D02*
X22792Y-26106D01*
X34097Y-26106D02*
X35333Y-26106D01*
X36617Y-26106D02*
X43032Y-26106D01*
X22558Y-26186D02*
X22836Y-26186D01*
X34097Y-26186D02*
X35333Y-26186D01*
X36617Y-26186D02*
X43032Y-26186D01*
X22558Y-26266D02*
X22902Y-26266D01*
X34097Y-26266D02*
X35333Y-26266D01*
X36617Y-26266D02*
X43032Y-26266D01*
X22558Y-26346D02*
X22822Y-26346D01*
X34097Y-26346D02*
X35333Y-26346D01*
X36617Y-26346D02*
X43032Y-26346D01*
X22558Y-26426D02*
X22787Y-26426D01*
X34097Y-26426D02*
X35333Y-26426D01*
X36617Y-26426D02*
X43032Y-26426D01*
X22558Y-26506D02*
X22754Y-26506D01*
X34097Y-26506D02*
X35333Y-26506D01*
X36617Y-26506D02*
X43032Y-26506D01*
X22558Y-26586D02*
X22737Y-26586D01*
X34097Y-26586D02*
X35333Y-26586D01*
X36617Y-26586D02*
X43032Y-26586D01*
X22558Y-26666D02*
X22737Y-26666D01*
X34097Y-26666D02*
X35333Y-26666D01*
X36617Y-26666D02*
X43032Y-26666D01*
X22558Y-26746D02*
X22737Y-26746D01*
X34097Y-26746D02*
X35336Y-26746D01*
X36613Y-26746D02*
X43032Y-26746D01*
X22558Y-26826D02*
X22764Y-26826D01*
X34097Y-26826D02*
X35369Y-26826D01*
X36580Y-26826D02*
X43032Y-26826D01*
X22558Y-26906D02*
X22797Y-26906D01*
X34089Y-26906D02*
X35457Y-26906D01*
X36563Y-26906D02*
X43032Y-26906D01*
X22558Y-26986D02*
X22800Y-26986D01*
X24366Y-26986D02*
X27669Y-26986D01*
X34068Y-26986D02*
X35400Y-26986D01*
X36629Y-26986D02*
X43032Y-26986D01*
X22558Y-27066D02*
X22757Y-27066D01*
X24410Y-27066D02*
X27646Y-27066D01*
X34015Y-27066D02*
X35372Y-27066D01*
X36656Y-27066D02*
X43032Y-27066D01*
X22558Y-27146D02*
X22744Y-27146D01*
X24422Y-27146D02*
X27646Y-27146D01*
X33936Y-27146D02*
X35372Y-27146D01*
X36656Y-27146D02*
X43032Y-27146D01*
X22558Y-27226D02*
X22744Y-27226D01*
X24422Y-27226D02*
X27652Y-27226D01*
X33855Y-27226D02*
X35372Y-27226D01*
X36656Y-27226D02*
X43032Y-27226D01*
X22558Y-27306D02*
X22744Y-27306D01*
X24422Y-27306D02*
X27685Y-27306D01*
X33811Y-27306D02*
X35372Y-27306D01*
X36656Y-27306D02*
X43032Y-27306D01*
X22558Y-27386D02*
X22744Y-27386D01*
X24422Y-27386D02*
X27730Y-27386D01*
X33891Y-27386D02*
X35372Y-27386D01*
X36656Y-27386D02*
X43032Y-27386D01*
X22558Y-27466D02*
X22744Y-27466D01*
X24422Y-27466D02*
X27781Y-27466D01*
X33971Y-27466D02*
X35372Y-27466D01*
X36656Y-27466D02*
X43032Y-27466D01*
X22558Y-27546D02*
X22744Y-27546D01*
X24422Y-27546D02*
X27781Y-27546D01*
X34039Y-27546D02*
X35372Y-27546D01*
X36656Y-27546D02*
X43032Y-27546D01*
X22558Y-27626D02*
X22744Y-27626D01*
X24422Y-27626D02*
X27781Y-27626D01*
X34080Y-27626D02*
X35405Y-27626D01*
X36622Y-27626D02*
X43032Y-27626D01*
X22558Y-27706D02*
X22744Y-27706D01*
X24422Y-27706D02*
X27781Y-27706D01*
X34096Y-27706D02*
X35479Y-27706D01*
X36549Y-27706D02*
X43032Y-27706D01*
X22558Y-27786D02*
X22744Y-27786D01*
X24421Y-27786D02*
X27781Y-27786D01*
X34097Y-27786D02*
X43032Y-27786D01*
X22558Y-27866D02*
X22777Y-27866D01*
X24388Y-27866D02*
X27781Y-27866D01*
X34097Y-27866D02*
X35443Y-27866D01*
X36468Y-27866D02*
X43032Y-27866D01*
X22558Y-27946D02*
X22852Y-27946D01*
X24314Y-27946D02*
X27781Y-27946D01*
X34097Y-27946D02*
X35351Y-27946D01*
X36560Y-27946D02*
X43032Y-27946D01*
X22558Y-28026D02*
X27781Y-28026D01*
X34097Y-28026D02*
X35318Y-28026D01*
X36593Y-28026D02*
X43032Y-28026D01*
X22558Y-28106D02*
X27781Y-28106D01*
X34097Y-28106D02*
X35313Y-28106D01*
X36597Y-28106D02*
X43032Y-28106D01*
X22558Y-28186D02*
X27781Y-28186D01*
X34097Y-28186D02*
X35313Y-28186D01*
X36597Y-28186D02*
X43032Y-28186D01*
X22558Y-28266D02*
X27781Y-28266D01*
X34097Y-28266D02*
X35313Y-28266D01*
X36597Y-28266D02*
X43032Y-28266D01*
X22558Y-28346D02*
X27781Y-28346D01*
X34097Y-28346D02*
X35313Y-28346D01*
X36597Y-28346D02*
X43032Y-28346D01*
X22558Y-28426D02*
X27788Y-28426D01*
X34097Y-28426D02*
X35313Y-28426D01*
X36597Y-28426D02*
X43032Y-28426D01*
X22558Y-28506D02*
X27809Y-28506D01*
X34097Y-28506D02*
X35313Y-28506D01*
X36597Y-28506D02*
X43032Y-28506D01*
X22558Y-28586D02*
X27862Y-28586D01*
X34097Y-28586D02*
X35336Y-28586D01*
X36573Y-28586D02*
X43032Y-28586D01*
X22558Y-28666D02*
X27941Y-28666D01*
X34097Y-28666D02*
X35396Y-28666D01*
X36514Y-28666D02*
X43032Y-28666D01*
X22558Y-28746D02*
X28021Y-28746D01*
X34097Y-28746D02*
X43032Y-28746D01*
X22558Y-28826D02*
X28101Y-28826D01*
X34097Y-28826D02*
X35460Y-28826D01*
X36412Y-28826D02*
X43032Y-28826D01*
X22558Y-28906D02*
X28181Y-28906D01*
X34097Y-28906D02*
X35345Y-28906D01*
X36525Y-28906D02*
X43032Y-28906D01*
X22558Y-28986D02*
X28261Y-28986D01*
X34097Y-28986D02*
X35304Y-28986D01*
X36567Y-28986D02*
X43032Y-28986D01*
X22558Y-29066D02*
X28341Y-29066D01*
X34097Y-29066D02*
X35293Y-29066D01*
X36577Y-29066D02*
X43032Y-29066D01*
X22558Y-29146D02*
X28421Y-29146D01*
X34097Y-29146D02*
X35293Y-29146D01*
X36577Y-29146D02*
X43032Y-29146D01*
X22558Y-29226D02*
X28501Y-29226D01*
X34097Y-29226D02*
X35293Y-29226D01*
X36577Y-29226D02*
X43032Y-29226D01*
X22558Y-29306D02*
X28581Y-29306D01*
X34097Y-29306D02*
X35293Y-29306D01*
X36577Y-29306D02*
X43032Y-29306D01*
X22558Y-29386D02*
X28661Y-29386D01*
X34097Y-29386D02*
X35293Y-29386D01*
X36577Y-29386D02*
X43032Y-29386D01*
X22558Y-29466D02*
X28741Y-29466D01*
X34097Y-29466D02*
X35293Y-29466D01*
X36577Y-29466D02*
X43032Y-29466D01*
X22558Y-29546D02*
X28821Y-29546D01*
X34097Y-29546D02*
X35310Y-29546D01*
X36559Y-29546D02*
X43032Y-29546D01*
X22558Y-29626D02*
X28901Y-29626D01*
X34097Y-29626D02*
X35361Y-29626D01*
X36509Y-29626D02*
X43032Y-29626D01*
X22558Y-29706D02*
X28981Y-29706D01*
X34097Y-29706D02*
X43032Y-29706D01*
X22558Y-29786D02*
X29061Y-29786D01*
X34097Y-29786D02*
X35503Y-29786D01*
X36388Y-29786D02*
X43032Y-29786D01*
X22558Y-29866D02*
X29141Y-29866D01*
X34097Y-29866D02*
X35369Y-29866D01*
X36521Y-29866D02*
X43032Y-29866D01*
X22558Y-29946D02*
X29221Y-29946D01*
X34097Y-29946D02*
X35320Y-29946D01*
X36571Y-29946D02*
X43032Y-29946D01*
X22558Y-30026D02*
X29301Y-30026D01*
X34097Y-30026D02*
X35303Y-30026D01*
X36587Y-30026D02*
X43032Y-30026D01*
X22558Y-30106D02*
X29381Y-30106D01*
X34097Y-30106D02*
X35303Y-30106D01*
X36587Y-30106D02*
X43032Y-30106D01*
X22558Y-30186D02*
X29461Y-30186D01*
X34097Y-30186D02*
X35303Y-30186D01*
X36587Y-30186D02*
X43032Y-30186D01*
X22558Y-30266D02*
X29541Y-30266D01*
X34097Y-30266D02*
X35303Y-30266D01*
X36587Y-30266D02*
X43032Y-30266D01*
X22558Y-30346D02*
X29621Y-30346D01*
X34097Y-30346D02*
X35303Y-30346D01*
X36587Y-30346D02*
X43032Y-30346D01*
X22558Y-30426D02*
X29705Y-30426D01*
X34097Y-30426D02*
X35303Y-30426D01*
X36587Y-30426D02*
X43032Y-30426D01*
X22558Y-30506D02*
X30860Y-30506D01*
X34097Y-30506D02*
X35314Y-30506D01*
X36575Y-30506D02*
X43032Y-30506D01*
X22558Y-30586D02*
X30740Y-30586D01*
X34097Y-30586D02*
X35336Y-30586D01*
X36555Y-30586D02*
X43032Y-30586D01*
X22558Y-30666D02*
X30697Y-30666D01*
X34097Y-30666D02*
X35303Y-30666D01*
X36587Y-30666D02*
X43032Y-30666D01*
X22558Y-30746D02*
X30684Y-30746D01*
X34097Y-30746D02*
X35303Y-30746D01*
X36587Y-30746D02*
X43032Y-30746D01*
X22558Y-30826D02*
X30684Y-30826D01*
X34097Y-30826D02*
X35303Y-30826D01*
X36587Y-30826D02*
X43032Y-30826D01*
X22558Y-30906D02*
X30684Y-30906D01*
X34097Y-30906D02*
X35303Y-30906D01*
X36587Y-30906D02*
X43032Y-30906D01*
X22558Y-30986D02*
X30684Y-30986D01*
X34097Y-30986D02*
X35303Y-30986D01*
X36587Y-30986D02*
X43032Y-30986D01*
X22558Y-31066D02*
X30684Y-31066D01*
X34094Y-31066D02*
X35303Y-31066D01*
X36587Y-31066D02*
X43032Y-31066D01*
X22558Y-31146D02*
X30699Y-31146D01*
X34078Y-31146D02*
X35303Y-31146D01*
X36587Y-31146D02*
X43032Y-31146D01*
X22558Y-31226D02*
X30748Y-31226D01*
X34034Y-31226D02*
X35331Y-31226D01*
X36558Y-31226D02*
X41771Y-31226D01*
X42325Y-31226D02*
X43032Y-31226D01*
X22558Y-31306D02*
X30768Y-31306D01*
X33966Y-31306D02*
X35398Y-31306D01*
X36492Y-31306D02*
X41641Y-31306D01*
X42456Y-31306D02*
X43032Y-31306D01*
X22558Y-31386D02*
X30776Y-31386D01*
X33886Y-31386D02*
X41561Y-31386D01*
X42536Y-31386D02*
X43032Y-31386D01*
X22558Y-31466D02*
X30796Y-31466D01*
X33806Y-31466D02*
X41494Y-31466D01*
X42603Y-31466D02*
X43032Y-31466D01*
X22558Y-31546D02*
X30850Y-31546D01*
X33726Y-31546D02*
X41461Y-31546D01*
X42636Y-31546D02*
X43032Y-31546D01*
X22558Y-31626D02*
X30929Y-31626D01*
X33646Y-31626D02*
X41427Y-31626D01*
X42669Y-31626D02*
X43032Y-31626D01*
X22558Y-31706D02*
X31009Y-31706D01*
X33566Y-31706D02*
X41405Y-31706D01*
X42691Y-31706D02*
X43032Y-31706D01*
X22558Y-31786D02*
X31119Y-31786D01*
X33455Y-31786D02*
X41405Y-31786D01*
X42691Y-31786D02*
X43032Y-31786D01*
X22558Y-31866D02*
X31974Y-31866D01*
X32989Y-31866D02*
X41405Y-31866D01*
X42691Y-31866D02*
X43032Y-31866D01*
X22558Y-31946D02*
X31940Y-31946D01*
X33022Y-31946D02*
X40657Y-31946D01*
X42686Y-31946D02*
X43032Y-31946D01*
X22558Y-32026D02*
X31937Y-32026D01*
X33025Y-32026D02*
X40575Y-32026D01*
X42653Y-32026D02*
X43032Y-32026D01*
X22558Y-32106D02*
X31937Y-32106D01*
X33025Y-32106D02*
X35827Y-32106D01*
X38663Y-32106D02*
X40542Y-32106D01*
X42619Y-32106D02*
X43032Y-32106D01*
X22558Y-32186D02*
X31937Y-32186D01*
X33025Y-32186D02*
X35775Y-32186D01*
X38716Y-32186D02*
X40539Y-32186D01*
X42577Y-32186D02*
X43032Y-32186D01*
X22558Y-32266D02*
X31937Y-32266D01*
X33025Y-32266D02*
X35756Y-32266D01*
X38734Y-32266D02*
X40539Y-32266D01*
X42497Y-32266D02*
X43032Y-32266D01*
X22558Y-32346D02*
X31937Y-32346D01*
X33025Y-32346D02*
X35756Y-32346D01*
X38734Y-32346D02*
X40539Y-32346D01*
X42417Y-32346D02*
X43032Y-32346D01*
X22558Y-32426D02*
X31937Y-32426D01*
X33025Y-32426D02*
X35756Y-32426D01*
X38734Y-32426D02*
X40539Y-32426D01*
X42232Y-32426D02*
X43032Y-32426D01*
X22558Y-32506D02*
X31961Y-32506D01*
X33000Y-32506D02*
X35756Y-32506D01*
X38734Y-32506D02*
X40539Y-32506D01*
X41903Y-32506D02*
X43032Y-32506D01*
X22558Y-32586D02*
X32023Y-32586D01*
X32939Y-32586D02*
X35756Y-32586D01*
X38734Y-32586D02*
X40539Y-32586D01*
X41903Y-32586D02*
X43032Y-32586D01*
X22558Y-32666D02*
X35756Y-32666D01*
X38734Y-32666D02*
X40539Y-32666D01*
X41903Y-32666D02*
X43032Y-32666D01*
X22558Y-32746D02*
X35756Y-32746D01*
X38734Y-32746D02*
X40565Y-32746D01*
X41876Y-32746D02*
X43032Y-32746D01*
X22558Y-32826D02*
X35756Y-32826D01*
X38734Y-32826D02*
X40629Y-32826D01*
X41813Y-32826D02*
X43032Y-32826D01*
X29288Y-26549D02*
X29288Y-26549D01*
X28889Y-26629D02*
X29368Y-26629D01*
X28969Y-26709D02*
X29448Y-26709D01*
X29041Y-26789D02*
X29528Y-26789D01*
X29090Y-26869D02*
X29608Y-26869D01*
X29106Y-26949D02*
X29688Y-26949D01*
X29109Y-27029D02*
X29768Y-27029D01*
X28496Y-27109D02*
X28529Y-27109D01*
X29109Y-27109D02*
X29848Y-27109D01*
X28496Y-27189D02*
X28529Y-27189D01*
X29109Y-27189D02*
X29928Y-27189D01*
X28471Y-27269D02*
X28529Y-27269D01*
X29109Y-27269D02*
X30008Y-27269D01*
X28438Y-27349D02*
X28529Y-27349D01*
X29109Y-27349D02*
X30088Y-27349D01*
X28369Y-27429D02*
X28529Y-27429D01*
X29109Y-27429D02*
X30168Y-27429D01*
X28361Y-27509D02*
X28529Y-27509D01*
X29109Y-27509D02*
X30277Y-27509D01*
X28361Y-27589D02*
X28529Y-27589D01*
X29109Y-27589D02*
X31095Y-27589D01*
X31708Y-27589D02*
X31959Y-27589D01*
X33002Y-27589D02*
X33273Y-27589D01*
X28361Y-27669D02*
X28529Y-27669D01*
X29109Y-27669D02*
X32017Y-27669D01*
X32945Y-27669D02*
X33353Y-27669D01*
X28361Y-27749D02*
X28529Y-27749D01*
X29109Y-27749D02*
X33433Y-27749D01*
X28361Y-27829D02*
X28529Y-27829D01*
X29109Y-27829D02*
X32133Y-27829D01*
X32831Y-27829D02*
X33513Y-27829D01*
X28361Y-27909D02*
X28529Y-27909D01*
X29145Y-27909D02*
X29425Y-27909D01*
X29975Y-27909D02*
X30025Y-27909D01*
X30575Y-27909D02*
X32001Y-27909D01*
X32961Y-27909D02*
X33517Y-27909D01*
X28361Y-27989D02*
X28529Y-27989D01*
X33010Y-27989D02*
X33517Y-27989D01*
X28361Y-28069D02*
X28544Y-28069D01*
X33025Y-28069D02*
X33517Y-28069D01*
X28361Y-28149D02*
X28581Y-28149D01*
X33025Y-28149D02*
X33517Y-28149D01*
X28361Y-28229D02*
X28645Y-28229D01*
X33025Y-28229D02*
X33517Y-28229D01*
X28404Y-28309D02*
X28725Y-28309D01*
X33025Y-28309D02*
X33517Y-28309D01*
X28484Y-28389D02*
X28805Y-28389D01*
X33025Y-28389D02*
X33517Y-28389D01*
X28564Y-28469D02*
X28885Y-28469D01*
X33025Y-28469D02*
X33517Y-28469D01*
X28644Y-28549D02*
X29048Y-28549D01*
X33012Y-28549D02*
X33517Y-28549D01*
X28724Y-28629D02*
X29427Y-28629D01*
X29972Y-28629D02*
X30010Y-28629D01*
X30590Y-28629D02*
X31993Y-28629D01*
X32969Y-28629D02*
X33517Y-28629D01*
X28804Y-28709D02*
X30010Y-28709D01*
X30590Y-28709D02*
X32112Y-28709D01*
X32849Y-28709D02*
X33517Y-28709D01*
X28884Y-28789D02*
X30010Y-28789D01*
X30590Y-28789D02*
X33517Y-28789D01*
X28964Y-28869D02*
X30010Y-28869D01*
X30590Y-28869D02*
X30701Y-28869D01*
X30842Y-28869D02*
X31018Y-28869D01*
X31160Y-28869D02*
X32026Y-28869D01*
X32427Y-28869D02*
X32535Y-28869D01*
X32936Y-28869D02*
X33517Y-28869D01*
X29044Y-28949D02*
X29999Y-28949D01*
X30880Y-28949D02*
X30980Y-28949D01*
X31261Y-28949D02*
X31964Y-28949D01*
X32431Y-28949D02*
X32531Y-28949D01*
X32999Y-28949D02*
X33517Y-28949D01*
X29124Y-29029D02*
X29963Y-29029D01*
X30880Y-29029D02*
X30980Y-29029D01*
X31298Y-29029D02*
X31937Y-29029D01*
X32431Y-29029D02*
X32531Y-29029D01*
X33026Y-29029D02*
X33517Y-29029D01*
X29204Y-29109D02*
X29956Y-29109D01*
X30880Y-29109D02*
X30980Y-29109D01*
X31304Y-29109D02*
X31937Y-29109D01*
X32431Y-29109D02*
X32531Y-29109D01*
X33026Y-29109D02*
X33517Y-29109D01*
X29284Y-29189D02*
X29956Y-29189D01*
X30880Y-29189D02*
X30980Y-29189D01*
X31256Y-29189D02*
X31979Y-29189D01*
X32431Y-29189D02*
X32531Y-29189D01*
X32983Y-29189D02*
X33517Y-29189D01*
X29364Y-29269D02*
X29956Y-29269D01*
X30880Y-29269D02*
X33517Y-29269D01*
X29444Y-29349D02*
X29956Y-29349D01*
X30880Y-29349D02*
X30980Y-29349D01*
X31290Y-29349D02*
X31957Y-29349D01*
X32431Y-29349D02*
X32531Y-29349D01*
X33005Y-29349D02*
X33517Y-29349D01*
X29524Y-29429D02*
X29956Y-29429D01*
X30880Y-29429D02*
X30980Y-29429D01*
X31304Y-29429D02*
X31936Y-29429D01*
X32431Y-29429D02*
X32531Y-29429D01*
X33025Y-29429D02*
X33517Y-29429D01*
X29604Y-29509D02*
X29977Y-29509D01*
X30880Y-29509D02*
X30980Y-29509D01*
X31283Y-29509D02*
X31939Y-29509D01*
X32431Y-29509D02*
X32531Y-29509D01*
X33022Y-29509D02*
X33517Y-29509D01*
X29684Y-29589D02*
X30033Y-29589D01*
X30625Y-29589D02*
X30633Y-29589D01*
X30880Y-29589D02*
X30980Y-29589D01*
X31227Y-29589D02*
X31972Y-29589D01*
X32431Y-29589D02*
X32531Y-29589D01*
X32989Y-29589D02*
X33517Y-29589D01*
X29764Y-29669D02*
X32052Y-29669D01*
X32405Y-29669D02*
X32557Y-29669D01*
X32909Y-29669D02*
X33517Y-29669D01*
X29844Y-29749D02*
X33517Y-29749D01*
X29924Y-29829D02*
X32020Y-29829D01*
X32942Y-29829D02*
X33517Y-29829D01*
X30004Y-29909D02*
X31960Y-29909D01*
X33002Y-29909D02*
X33517Y-29909D01*
X33025Y-29989D02*
X33517Y-29989D01*
X33025Y-30069D02*
X33517Y-30069D01*
X33025Y-30149D02*
X33517Y-30149D01*
X33025Y-30229D02*
X33517Y-30229D01*
X33025Y-30309D02*
X33517Y-30309D01*
X33025Y-30389D02*
X33517Y-30389D01*
X33020Y-30469D02*
X33517Y-30469D01*
X32989Y-30549D02*
X33517Y-30549D01*
X33023Y-30629D02*
X33517Y-30629D01*
X33025Y-30709D02*
X33517Y-30709D01*
X33025Y-30789D02*
X33517Y-30789D01*
X33025Y-30869D02*
X33517Y-30869D01*
X33025Y-30949D02*
X33503Y-30949D01*
X33025Y-31029D02*
X33423Y-31029D01*
X33025Y-31109D02*
X33343Y-31109D01*
X32999Y-31189D02*
X33263Y-31189D01*
X33025Y-25093D02*
X33517Y-25093D01*
X33025Y-25173D02*
X33517Y-25173D01*
X33025Y-25253D02*
X33517Y-25253D01*
X33025Y-25333D02*
X33517Y-25333D01*
X33025Y-25413D02*
X33517Y-25413D01*
X33025Y-25493D02*
X33517Y-25493D01*
X33022Y-25573D02*
X33517Y-25573D01*
X29994Y-25653D02*
X30004Y-25653D01*
X30595Y-25653D02*
X30672Y-25653D01*
X30854Y-25653D02*
X31006Y-25653D01*
X31189Y-25653D02*
X31966Y-25653D01*
X32996Y-25653D02*
X33517Y-25653D01*
X29691Y-25733D02*
X29992Y-25733D01*
X30880Y-25733D02*
X30980Y-25733D01*
X31269Y-25733D02*
X31937Y-25733D01*
X33025Y-25733D02*
X33517Y-25733D01*
X29611Y-25813D02*
X29958Y-25813D01*
X30880Y-25813D02*
X30980Y-25813D01*
X31303Y-25813D02*
X31937Y-25813D01*
X33025Y-25813D02*
X33517Y-25813D01*
X29531Y-25893D02*
X29956Y-25893D01*
X30880Y-25893D02*
X30980Y-25893D01*
X31304Y-25893D02*
X31937Y-25893D01*
X33025Y-25893D02*
X33517Y-25893D01*
X29451Y-25973D02*
X29956Y-25973D01*
X30880Y-25973D02*
X30980Y-25973D01*
X31244Y-25973D02*
X31937Y-25973D01*
X33025Y-25973D02*
X33517Y-25973D01*
X29612Y-26053D02*
X29956Y-26053D01*
X30704Y-26053D02*
X31937Y-26053D01*
X33025Y-26053D02*
X33517Y-26053D01*
X29692Y-26133D02*
X29956Y-26133D01*
X30880Y-26133D02*
X30980Y-26133D01*
X31302Y-26133D02*
X31937Y-26133D01*
X33025Y-26133D02*
X33517Y-26133D01*
X29772Y-26213D02*
X29956Y-26213D01*
X30880Y-26213D02*
X30980Y-26213D01*
X31304Y-26213D02*
X31937Y-26213D01*
X33025Y-26213D02*
X33517Y-26213D01*
X29852Y-26293D02*
X29982Y-26293D01*
X30880Y-26293D02*
X30980Y-26293D01*
X31297Y-26293D02*
X31507Y-26293D01*
X31624Y-26293D02*
X31968Y-26293D01*
X32992Y-26293D02*
X33517Y-26293D01*
X29932Y-26373D02*
X30045Y-26373D01*
X30613Y-26373D02*
X30645Y-26373D01*
X30876Y-26373D02*
X30984Y-26373D01*
X31352Y-26373D02*
X31452Y-26373D01*
X31748Y-26373D02*
X31938Y-26373D01*
X33025Y-26373D02*
X33517Y-26373D01*
X30012Y-26453D02*
X31010Y-26453D01*
X31352Y-26453D02*
X31452Y-26453D01*
X31794Y-26453D02*
X31937Y-26453D01*
X33026Y-26453D02*
X33517Y-26453D01*
X30092Y-26533D02*
X30996Y-26533D01*
X31352Y-26533D02*
X31452Y-26533D01*
X31809Y-26533D02*
X31961Y-26533D01*
X33001Y-26533D02*
X33517Y-26533D01*
X30172Y-26613D02*
X33517Y-26613D01*
X30252Y-26693D02*
X31975Y-26693D01*
X32431Y-26693D02*
X32531Y-26693D01*
X32987Y-26693D02*
X33517Y-26693D01*
X30332Y-26773D02*
X30995Y-26773D01*
X31809Y-26773D02*
X31936Y-26773D01*
X32431Y-26773D02*
X32531Y-26773D01*
X33025Y-26773D02*
X33490Y-26773D01*
X30412Y-26853D02*
X31003Y-26853D01*
X31800Y-26853D02*
X31936Y-26853D01*
X33025Y-26853D02*
X33410Y-26853D01*
X30492Y-26933D02*
X31039Y-26933D01*
X31763Y-26933D02*
X31964Y-26933D01*
X32996Y-26933D02*
X33330Y-26933D01*
X27916Y-21629D02*
X30747Y-21629D01*
X27952Y-21709D02*
X30827Y-21709D01*
X27957Y-21789D02*
X30907Y-21789D01*
X27906Y-21869D02*
X30987Y-21869D01*
X27533Y-21949D02*
X31067Y-21949D01*
X27533Y-22029D02*
X27633Y-22029D01*
X27946Y-22029D02*
X31131Y-22029D01*
X27533Y-22109D02*
X27633Y-22109D01*
X27957Y-22109D02*
X31131Y-22109D01*
X27533Y-22189D02*
X27633Y-22189D01*
X27934Y-22189D02*
X31131Y-22189D01*
X27276Y-22269D02*
X27289Y-22269D01*
X27533Y-22269D02*
X27633Y-22269D01*
X27877Y-22269D02*
X31131Y-22269D01*
X27273Y-22349D02*
X31131Y-22349D01*
X27273Y-22429D02*
X27982Y-22429D01*
X28323Y-22429D02*
X28423Y-22429D01*
X28764Y-22429D02*
X28985Y-22429D01*
X29439Y-22429D02*
X31131Y-22429D01*
X27273Y-22509D02*
X27923Y-22509D01*
X28323Y-22509D02*
X28423Y-22509D01*
X28824Y-22509D02*
X28897Y-22509D01*
X29527Y-22509D02*
X31052Y-22509D01*
X27273Y-22589D02*
X27899Y-22589D01*
X28323Y-22589D02*
X28423Y-22589D01*
X29587Y-22589D02*
X31018Y-22589D01*
X27273Y-22669D02*
X28423Y-22669D01*
X29620Y-22669D02*
X31015Y-22669D01*
X27273Y-22749D02*
X28423Y-22749D01*
X29637Y-22749D02*
X31015Y-22749D01*
X27273Y-22829D02*
X27898Y-22829D01*
X29637Y-22829D02*
X31015Y-22829D01*
X27273Y-22909D02*
X27917Y-22909D01*
X29624Y-22909D02*
X31015Y-22909D01*
X27273Y-22989D02*
X27931Y-22989D01*
X29591Y-22989D02*
X31033Y-22989D01*
X27273Y-23069D02*
X27899Y-23069D01*
X30113Y-23069D02*
X31085Y-23069D01*
X27273Y-23149D02*
X27899Y-23149D01*
X30232Y-23149D02*
X31035Y-23149D01*
X27273Y-23229D02*
X27899Y-23229D01*
X30276Y-23229D02*
X31015Y-23229D01*
X27273Y-23309D02*
X27899Y-23309D01*
X30288Y-23309D02*
X31015Y-23309D01*
X27273Y-23389D02*
X27909Y-23389D01*
X30288Y-23389D02*
X31015Y-23389D01*
X27273Y-23469D02*
X27941Y-23469D01*
X30288Y-23469D02*
X31015Y-23469D01*
X27273Y-23549D02*
X27906Y-23549D01*
X30288Y-23549D02*
X31016Y-23549D01*
X27273Y-23629D02*
X27899Y-23629D01*
X30288Y-23629D02*
X31049Y-23629D01*
X27273Y-23709D02*
X27899Y-23709D01*
X30287Y-23709D02*
X30672Y-23709D01*
X27273Y-23789D02*
X27899Y-23789D01*
X30254Y-23789D02*
X30611Y-23789D01*
X24283Y-23869D02*
X25106Y-23869D01*
X27273Y-23869D02*
X27901Y-23869D01*
X30202Y-23869D02*
X30586Y-23869D01*
X24310Y-23949D02*
X25106Y-23949D01*
X27273Y-23949D02*
X27934Y-23949D01*
X30264Y-23949D02*
X30586Y-23949D01*
X24611Y-24029D02*
X25106Y-24029D01*
X27267Y-24029D02*
X27915Y-24029D01*
X30288Y-24029D02*
X30521Y-24029D01*
X24718Y-24109D02*
X25106Y-24109D01*
X27251Y-24109D02*
X27899Y-24109D01*
X30288Y-24109D02*
X30441Y-24109D01*
X24798Y-24189D02*
X25106Y-24189D01*
X27199Y-24189D02*
X27899Y-24189D01*
X30288Y-24189D02*
X30361Y-24189D01*
X24878Y-24269D02*
X25128Y-24269D01*
X27125Y-24269D02*
X27899Y-24269D01*
X24958Y-24349D02*
X25187Y-24349D01*
X27045Y-24349D02*
X27899Y-24349D01*
X25038Y-24429D02*
X25439Y-24429D01*
X26960Y-24429D02*
X27925Y-24429D01*
X25118Y-24509D02*
X25889Y-24509D01*
X26656Y-24509D02*
X27990Y-24509D01*
X25198Y-24589D02*
X29317Y-24589D01*
X33222Y-31230D02*
X33517Y-30935D01*
X33517Y-27832D01*
X33263Y-27579D01*
X33007Y-27579D01*
X32987Y-27627D01*
X32917Y-27697D01*
X32825Y-27735D01*
X32136Y-27735D01*
X32045Y-27697D01*
X31975Y-27627D01*
X31943Y-27551D01*
X31746Y-27551D01*
X31700Y-27597D01*
X31608Y-27635D01*
X31195Y-27635D01*
X31104Y-27597D01*
X31041Y-27535D01*
X30394Y-27535D01*
X30283Y-27513D01*
X30188Y-27449D01*
X29288Y-26549D01*
X28810Y-26550D01*
X29024Y-26764D01*
X29087Y-26858D01*
X29109Y-26969D01*
X29109Y-27873D01*
X29213Y-27978D01*
X29360Y-27978D01*
X29364Y-27970D01*
X29434Y-27900D01*
X29526Y-27862D01*
X29875Y-27862D01*
X29966Y-27900D01*
X29999Y-27933D01*
X30034Y-27900D01*
X30126Y-27862D01*
X30475Y-27862D01*
X30566Y-27900D01*
X30636Y-27970D01*
X30640Y-27979D01*
X31953Y-27986D01*
X31975Y-27935D01*
X32045Y-27865D01*
X32137Y-27827D01*
X32826Y-27827D01*
X32917Y-27865D01*
X32987Y-27935D01*
X33025Y-28027D01*
X33025Y-28520D01*
X32987Y-28611D01*
X32917Y-28681D01*
X32825Y-28719D01*
X32136Y-28719D01*
X32045Y-28681D01*
X31975Y-28611D01*
X31956Y-28566D01*
X30638Y-28559D01*
X30636Y-28566D01*
X30590Y-28612D01*
X30590Y-28881D01*
X30596Y-28884D01*
X30629Y-28917D01*
X30664Y-28884D01*
X30756Y-28846D01*
X30818Y-28845D01*
X30880Y-28907D01*
X30880Y-29202D01*
X30880Y-29302D01*
X30880Y-29597D01*
X30818Y-29659D01*
X30756Y-29658D01*
X30664Y-29620D01*
X30629Y-29585D01*
X30596Y-29620D01*
X30504Y-29658D01*
X30155Y-29658D01*
X30064Y-29620D01*
X29994Y-29550D01*
X29956Y-29458D01*
X29956Y-29045D01*
X29994Y-28954D01*
X30010Y-28938D01*
X30010Y-28612D01*
X29999Y-28601D01*
X29966Y-28636D01*
X29874Y-28674D01*
X29525Y-28674D01*
X29434Y-28636D01*
X29364Y-28566D01*
X29360Y-28558D01*
X29094Y-28558D01*
X28983Y-28536D01*
X28889Y-28473D01*
X28614Y-28198D01*
X28551Y-28104D01*
X28529Y-27993D01*
X28529Y-27089D01*
X28496Y-27056D01*
X28496Y-27211D01*
X28431Y-27367D01*
X28361Y-27437D01*
X28361Y-28266D01*
X30017Y-29922D01*
X31042Y-29922D01*
X31042Y-29659D01*
X30980Y-29597D01*
X30980Y-29302D01*
X30980Y-29202D01*
X30980Y-28907D01*
X31042Y-28845D01*
X31104Y-28846D01*
X31196Y-28884D01*
X31266Y-28954D01*
X31304Y-29045D01*
X31304Y-29141D01*
X31243Y-29202D01*
X30980Y-29202D01*
X30980Y-29302D01*
X31243Y-29302D01*
X31304Y-29363D01*
X31304Y-29459D01*
X31266Y-29550D01*
X31196Y-29620D01*
X31104Y-29658D01*
X31042Y-29659D01*
X31042Y-29922D01*
X31954Y-29922D01*
X31975Y-29874D01*
X32045Y-29804D01*
X32137Y-29766D01*
X32369Y-29766D01*
X32369Y-29705D01*
X32235Y-29704D01*
X32136Y-29704D01*
X32045Y-29666D01*
X31975Y-29596D01*
X31937Y-29504D01*
X31936Y-29370D01*
X31998Y-29308D01*
X31998Y-29208D01*
X31936Y-29146D01*
X31937Y-29012D01*
X31975Y-28920D01*
X32045Y-28850D01*
X32136Y-28812D01*
X32235Y-28812D01*
X32369Y-28811D01*
X32431Y-28873D01*
X32431Y-29208D01*
X31998Y-29208D01*
X31998Y-29308D01*
X32431Y-29308D01*
X32431Y-29643D01*
X32369Y-29705D01*
X32369Y-29766D01*
X32593Y-29766D01*
X32593Y-29705D01*
X32531Y-29643D01*
X32531Y-29308D01*
X32531Y-29208D01*
X32531Y-28873D01*
X32593Y-28811D01*
X32727Y-28812D01*
X32826Y-28812D01*
X32917Y-28850D01*
X32987Y-28920D01*
X33025Y-29012D01*
X33026Y-29146D01*
X32964Y-29208D01*
X32531Y-29208D01*
X32531Y-29308D01*
X32964Y-29308D01*
X33026Y-29370D01*
X33025Y-29504D01*
X32987Y-29596D01*
X32917Y-29666D01*
X32826Y-29704D01*
X32727Y-29704D01*
X32593Y-29705D01*
X32593Y-29766D01*
X32826Y-29766D01*
X32917Y-29804D01*
X32987Y-29874D01*
X33025Y-29966D01*
X33025Y-30459D01*
X32988Y-30547D01*
X33025Y-30636D01*
X33025Y-31129D01*
X32987Y-31220D01*
X32977Y-31230D01*
X33222Y-31230D01*
X22558Y-20826D02*
X43032Y-20826D01*
X22558Y-20906D02*
X40255Y-20906D01*
X41302Y-20906D02*
X43032Y-20906D01*
X22558Y-20986D02*
X40145Y-20986D01*
X41411Y-20986D02*
X43032Y-20986D01*
X22558Y-21066D02*
X27119Y-21066D01*
X30953Y-21066D02*
X40106Y-21066D01*
X41451Y-21066D02*
X43032Y-21066D01*
X22558Y-21146D02*
X26987Y-21146D01*
X31084Y-21146D02*
X40096Y-21146D01*
X41460Y-21146D02*
X43032Y-21146D01*
X22558Y-21226D02*
X26907Y-21226D01*
X31164Y-21226D02*
X40096Y-21226D01*
X41460Y-21226D02*
X43032Y-21226D01*
X22558Y-21306D02*
X26827Y-21306D01*
X31244Y-21306D02*
X40096Y-21306D01*
X41460Y-21306D02*
X43032Y-21306D01*
X22558Y-21386D02*
X23186Y-21386D01*
X23533Y-21386D02*
X23633Y-21386D01*
X23981Y-21386D02*
X26758Y-21386D01*
X31324Y-21386D02*
X40096Y-21386D01*
X41460Y-21386D02*
X43032Y-21386D01*
X22558Y-21466D02*
X22987Y-21466D01*
X23533Y-21466D02*
X23633Y-21466D01*
X24180Y-21466D02*
X26712Y-21466D01*
X31404Y-21466D02*
X40096Y-21466D01*
X41460Y-21466D02*
X43032Y-21466D01*
X22558Y-21546D02*
X22904Y-21546D01*
X23533Y-21546D02*
X23633Y-21546D01*
X24263Y-21546D02*
X25494Y-21546D01*
X25954Y-21546D02*
X26094Y-21546D01*
X26554Y-21546D02*
X26696Y-21546D01*
X31484Y-21546D02*
X40096Y-21546D01*
X41460Y-21546D02*
X43032Y-21546D01*
X22558Y-21626D02*
X22829Y-21626D01*
X23533Y-21626D02*
X23633Y-21626D01*
X24338Y-21626D02*
X25392Y-21626D01*
X31564Y-21626D02*
X40096Y-21626D01*
X41460Y-21626D02*
X43032Y-21626D01*
X22558Y-21706D02*
X22797Y-21706D01*
X23533Y-21706D02*
X23633Y-21706D01*
X24370Y-21706D02*
X25356Y-21706D01*
X31639Y-21706D02*
X40115Y-21706D01*
X41440Y-21706D02*
X41753Y-21706D01*
X42344Y-21706D02*
X43032Y-21706D01*
X22558Y-21786D02*
X22764Y-21786D01*
X23533Y-21786D02*
X23633Y-21786D01*
X24403Y-21786D02*
X25349Y-21786D01*
X31690Y-21786D02*
X40169Y-21786D01*
X41387Y-21786D02*
X41633Y-21786D01*
X42464Y-21786D02*
X43032Y-21786D01*
X22558Y-21866D02*
X22800Y-21866D01*
X23533Y-21866D02*
X23633Y-21866D01*
X24365Y-21866D02*
X25349Y-21866D01*
X31706Y-21866D02*
X41553Y-21866D01*
X42544Y-21866D02*
X43032Y-21866D01*
X22558Y-21946D02*
X25349Y-21946D01*
X31711Y-21946D02*
X41491Y-21946D01*
X42606Y-21946D02*
X43032Y-21946D01*
X22558Y-22026D02*
X22782Y-22026D01*
X24385Y-22026D02*
X25349Y-22026D01*
X31711Y-22026D02*
X41458Y-22026D01*
X42639Y-22026D02*
X43032Y-22026D01*
X22558Y-22106D02*
X22777Y-22106D01*
X24388Y-22106D02*
X25349Y-22106D01*
X31711Y-22106D02*
X41424Y-22106D01*
X42672Y-22106D02*
X43032Y-22106D01*
X22558Y-22186D02*
X22810Y-22186D01*
X24355Y-22186D02*
X25370Y-22186D01*
X31711Y-22186D02*
X41405Y-22186D01*
X42691Y-22186D02*
X43032Y-22186D01*
X22558Y-22266D02*
X22855Y-22266D01*
X24309Y-22266D02*
X25426Y-22266D01*
X31711Y-22266D02*
X41405Y-22266D01*
X42691Y-22266D02*
X43032Y-22266D01*
X22558Y-22346D02*
X22885Y-22346D01*
X24281Y-22346D02*
X25433Y-22346D01*
X31711Y-22346D02*
X41405Y-22346D01*
X42691Y-22346D02*
X43032Y-22346D01*
X22558Y-22426D02*
X22814Y-22426D01*
X31711Y-22426D02*
X41413Y-22426D01*
X42683Y-22426D02*
X43032Y-22426D01*
X22558Y-22506D02*
X22781Y-22506D01*
X33505Y-22506D02*
X41446Y-22506D01*
X42649Y-22506D02*
X43032Y-22506D01*
X22558Y-22586D02*
X22747Y-22586D01*
X33614Y-22586D02*
X41479Y-22586D01*
X42616Y-22586D02*
X43032Y-22586D01*
X22558Y-22666D02*
X22737Y-22666D01*
X33694Y-22666D02*
X41526Y-22666D01*
X42569Y-22666D02*
X43032Y-22666D01*
X22558Y-22746D02*
X22737Y-22746D01*
X33774Y-22746D02*
X41606Y-22746D01*
X42489Y-22746D02*
X43032Y-22746D01*
X22558Y-22826D02*
X22738Y-22826D01*
X33854Y-22826D02*
X41690Y-22826D01*
X42406Y-22826D02*
X43032Y-22826D01*
X22558Y-22906D02*
X22771Y-22906D01*
X33934Y-22906D02*
X36369Y-22906D01*
X37254Y-22906D02*
X41880Y-22906D01*
X42213Y-22906D02*
X43032Y-22906D01*
X22558Y-22986D02*
X22804Y-22986D01*
X34014Y-22986D02*
X36235Y-22986D01*
X37387Y-22986D02*
X43032Y-22986D01*
X22558Y-23066D02*
X22865Y-23066D01*
X34067Y-23066D02*
X36186Y-23066D01*
X37437Y-23066D02*
X43032Y-23066D01*
X22558Y-23146D02*
X22873Y-23146D01*
X34089Y-23146D02*
X36169Y-23146D01*
X37453Y-23146D02*
X43032Y-23146D01*
X22558Y-23226D02*
X22809Y-23226D01*
X34097Y-23226D02*
X36169Y-23226D01*
X37453Y-23226D02*
X43032Y-23226D01*
X22558Y-23306D02*
X22775Y-23306D01*
X34097Y-23306D02*
X36169Y-23306D01*
X37453Y-23306D02*
X43032Y-23306D01*
X22558Y-23386D02*
X22742Y-23386D01*
X34097Y-23386D02*
X36169Y-23386D01*
X37453Y-23386D02*
X43032Y-23386D01*
X22558Y-23466D02*
X22737Y-23466D01*
X34097Y-23466D02*
X36169Y-23466D01*
X37453Y-23466D02*
X43032Y-23466D01*
X22558Y-23546D02*
X22737Y-23546D01*
X34097Y-23546D02*
X36169Y-23546D01*
X37453Y-23546D02*
X43032Y-23546D01*
X22558Y-23626D02*
X22743Y-23626D01*
X34097Y-23626D02*
X36180Y-23626D01*
X37441Y-23626D02*
X43032Y-23626D01*
X22558Y-23706D02*
X22776Y-23706D01*
X34097Y-23706D02*
X36223Y-23706D01*
X37399Y-23706D02*
X43032Y-23706D01*
X22558Y-23786D02*
X22809Y-23786D01*
X34097Y-23786D02*
X36339Y-23786D01*
X37282Y-23786D02*
X43032Y-23786D01*
X22558Y-23866D02*
X22878Y-23866D01*
X34097Y-23866D02*
X43032Y-23866D01*
X22558Y-23946D02*
X22860Y-23946D01*
X34097Y-23946D02*
X35038Y-23946D01*
X36340Y-23946D02*
X43032Y-23946D01*
X22558Y-24026D02*
X22803Y-24026D01*
X34097Y-24026D02*
X34975Y-24026D01*
X36404Y-24026D02*
X43032Y-24026D01*
X22558Y-24106D02*
X22770Y-24106D01*
X34097Y-24106D02*
X34948Y-24106D01*
X36430Y-24106D02*
X43032Y-24106D01*
X22558Y-24186D02*
X22737Y-24186D01*
X34097Y-24186D02*
X34948Y-24186D01*
X36430Y-24186D02*
X43032Y-24186D01*
X22558Y-24266D02*
X22737Y-24266D01*
X34097Y-24266D02*
X34948Y-24266D01*
X36430Y-24266D02*
X43032Y-24266D01*
X22558Y-24346D02*
X22737Y-24346D01*
X34097Y-24346D02*
X34948Y-24346D01*
X36430Y-24346D02*
X43032Y-24346D01*
X22558Y-24426D02*
X22749Y-24426D01*
X34097Y-24426D02*
X34948Y-24426D01*
X36430Y-24426D02*
X43032Y-24426D01*
X22558Y-24506D02*
X22782Y-24506D01*
X34097Y-24506D02*
X34948Y-24506D01*
X36430Y-24506D02*
X43032Y-24506D01*
X22558Y-24586D02*
X22815Y-24586D01*
X34097Y-24586D02*
X34949Y-24586D01*
X36428Y-24586D02*
X43032Y-24586D01*
X22558Y-24666D02*
X22891Y-24666D01*
X34097Y-24666D02*
X34982Y-24666D01*
X36395Y-24666D02*
X43032Y-24666D01*
X22558Y-24746D02*
X22848Y-24746D01*
X34097Y-24746D02*
X35060Y-24746D01*
X36317Y-24746D02*
X43032Y-24746D01*
X22558Y-24826D02*
X22798Y-24826D01*
X34097Y-24826D02*
X35500Y-24826D01*
X36529Y-24826D02*
X43032Y-24826D01*
X22558Y-24906D02*
X22765Y-24906D01*
X34097Y-24906D02*
X35410Y-24906D01*
X36619Y-24906D02*
X43032Y-24906D01*
X22558Y-24986D02*
X22737Y-24986D01*
X34097Y-24986D02*
X35376Y-24986D01*
X36652Y-24986D02*
X43032Y-24986D01*
X22558Y-25066D02*
X22737Y-25066D01*
X34097Y-25066D02*
X35372Y-25066D01*
X36656Y-25066D02*
X43032Y-25066D01*
X22558Y-25146D02*
X22737Y-25146D01*
X34097Y-25146D02*
X35372Y-25146D01*
X36656Y-25146D02*
X43032Y-25146D01*
X22558Y-25226D02*
X22754Y-25226D01*
X34097Y-25226D02*
X35372Y-25226D01*
X36656Y-25226D02*
X43032Y-25226D01*
X22558Y-25306D02*
X22787Y-25306D01*
X34097Y-25306D02*
X35372Y-25306D01*
X36656Y-25306D02*
X43032Y-25306D01*
X22558Y-25386D02*
X22823Y-25386D01*
X34097Y-25386D02*
X35372Y-25386D01*
X36656Y-25386D02*
X43032Y-25386D01*
X22558Y-25466D02*
X22903Y-25466D01*
X34097Y-25466D02*
X35372Y-25466D01*
X36656Y-25466D02*
X43032Y-25466D01*
X22558Y-25546D02*
X22835Y-25546D01*
X34097Y-25546D02*
X35395Y-25546D01*
X36632Y-25546D02*
X43032Y-25546D01*
X22558Y-25626D02*
X22793Y-25626D01*
X34097Y-25626D02*
X35456Y-25626D01*
X36572Y-25626D02*
X43032Y-25626D01*
X22558Y-25706D02*
X22759Y-25706D01*
X34097Y-25706D02*
X35426Y-25706D01*
X36524Y-25706D02*
X43032Y-25706D01*
X22558Y-25786D02*
X22737Y-25786D01*
X34097Y-25786D02*
X35361Y-25786D01*
X36590Y-25786D02*
X43032Y-25786D01*
X22558Y-25866D02*
X22737Y-25866D01*
X34097Y-25866D02*
X35333Y-25866D01*
X36617Y-25866D02*
X43032Y-25866D01*
X22558Y-25946D02*
X22737Y-25946D01*
X34097Y-25946D02*
X35333Y-25946D01*
X36617Y-25946D02*
X43032Y-25946D01*
X22558Y-26026D02*
X22759Y-26026D01*
X34097Y-26026D02*
X35333Y-26026D01*
X36617Y-26026D02*
X43032Y-26026D01*
X22558Y-26106D02*
X22792Y-26106D01*
X34097Y-26106D02*
X35333Y-26106D01*
X36617Y-26106D02*
X43032Y-26106D01*
X22558Y-26186D02*
X22836Y-26186D01*
X34097Y-26186D02*
X35333Y-26186D01*
X36617Y-26186D02*
X43032Y-26186D01*
X22558Y-26266D02*
X22902Y-26266D01*
X34097Y-26266D02*
X35333Y-26266D01*
X36617Y-26266D02*
X43032Y-26266D01*
X22558Y-26346D02*
X22822Y-26346D01*
X34097Y-26346D02*
X35333Y-26346D01*
X36617Y-26346D02*
X43032Y-26346D01*
X22558Y-26426D02*
X22787Y-26426D01*
X34097Y-26426D02*
X35333Y-26426D01*
X36617Y-26426D02*
X43032Y-26426D01*
X22558Y-26506D02*
X22754Y-26506D01*
X34097Y-26506D02*
X35333Y-26506D01*
X36617Y-26506D02*
X43032Y-26506D01*
X22558Y-26586D02*
X22737Y-26586D01*
X34097Y-26586D02*
X35333Y-26586D01*
X36617Y-26586D02*
X43032Y-26586D01*
X22558Y-26666D02*
X22737Y-26666D01*
X34097Y-26666D02*
X35333Y-26666D01*
X36617Y-26666D02*
X43032Y-26666D01*
X22558Y-26746D02*
X22737Y-26746D01*
X34097Y-26746D02*
X35336Y-26746D01*
X36613Y-26746D02*
X43032Y-26746D01*
X22558Y-26826D02*
X22764Y-26826D01*
X34097Y-26826D02*
X35369Y-26826D01*
X36580Y-26826D02*
X43032Y-26826D01*
X22558Y-26906D02*
X22797Y-26906D01*
X34089Y-26906D02*
X35457Y-26906D01*
X36563Y-26906D02*
X43032Y-26906D01*
X22558Y-26986D02*
X22800Y-26986D01*
X24366Y-26986D02*
X27669Y-26986D01*
X34068Y-26986D02*
X35400Y-26986D01*
X36629Y-26986D02*
X43032Y-26986D01*
X22558Y-27066D02*
X22757Y-27066D01*
X24410Y-27066D02*
X27646Y-27066D01*
X34015Y-27066D02*
X35372Y-27066D01*
X36656Y-27066D02*
X43032Y-27066D01*
X22558Y-27146D02*
X22744Y-27146D01*
X24422Y-27146D02*
X27646Y-27146D01*
X33936Y-27146D02*
X35372Y-27146D01*
X36656Y-27146D02*
X43032Y-27146D01*
X22558Y-27226D02*
X22744Y-27226D01*
X24422Y-27226D02*
X27652Y-27226D01*
X33855Y-27226D02*
X35372Y-27226D01*
X36656Y-27226D02*
X43032Y-27226D01*
X22558Y-27306D02*
X22744Y-27306D01*
X24422Y-27306D02*
X27685Y-27306D01*
X33811Y-27306D02*
X35372Y-27306D01*
X36656Y-27306D02*
X43032Y-27306D01*
X22558Y-27386D02*
X22744Y-27386D01*
X24422Y-27386D02*
X27730Y-27386D01*
X33891Y-27386D02*
X35372Y-27386D01*
X36656Y-27386D02*
X43032Y-27386D01*
X22558Y-27466D02*
X22744Y-27466D01*
X24422Y-27466D02*
X27781Y-27466D01*
X33971Y-27466D02*
X35372Y-27466D01*
X36656Y-27466D02*
X43032Y-27466D01*
X22558Y-27546D02*
X22744Y-27546D01*
X24422Y-27546D02*
X27781Y-27546D01*
X34039Y-27546D02*
X35372Y-27546D01*
X36656Y-27546D02*
X43032Y-27546D01*
X22558Y-27626D02*
X22744Y-27626D01*
X24422Y-27626D02*
X27781Y-27626D01*
X34080Y-27626D02*
X35405Y-27626D01*
X36622Y-27626D02*
X43032Y-27626D01*
X22558Y-27706D02*
X22744Y-27706D01*
X24422Y-27706D02*
X27781Y-27706D01*
X34096Y-27706D02*
X35479Y-27706D01*
X36549Y-27706D02*
X43032Y-27706D01*
X22558Y-27786D02*
X22744Y-27786D01*
X24421Y-27786D02*
X27781Y-27786D01*
X34097Y-27786D02*
X43032Y-27786D01*
X22558Y-27866D02*
X22777Y-27866D01*
X24388Y-27866D02*
X27781Y-27866D01*
X34097Y-27866D02*
X35443Y-27866D01*
X36468Y-27866D02*
X43032Y-27866D01*
X22558Y-27946D02*
X22852Y-27946D01*
X24314Y-27946D02*
X27781Y-27946D01*
X34097Y-27946D02*
X35351Y-27946D01*
X36560Y-27946D02*
X43032Y-27946D01*
X22558Y-28026D02*
X27781Y-28026D01*
X34097Y-28026D02*
X35318Y-28026D01*
X36593Y-28026D02*
X43032Y-28026D01*
X22558Y-28106D02*
X27781Y-28106D01*
X34097Y-28106D02*
X35313Y-28106D01*
X36597Y-28106D02*
X43032Y-28106D01*
X22558Y-28186D02*
X27781Y-28186D01*
X34097Y-28186D02*
X35313Y-28186D01*
X36597Y-28186D02*
X43032Y-28186D01*
X22558Y-28266D02*
X27781Y-28266D01*
X34097Y-28266D02*
X35313Y-28266D01*
X36597Y-28266D02*
X43032Y-28266D01*
X22558Y-28346D02*
X27781Y-28346D01*
X34097Y-28346D02*
X35313Y-28346D01*
X36597Y-28346D02*
X43032Y-28346D01*
X22558Y-28426D02*
X27788Y-28426D01*
X34097Y-28426D02*
X35313Y-28426D01*
X36597Y-28426D02*
X43032Y-28426D01*
X22558Y-28506D02*
X27809Y-28506D01*
X34097Y-28506D02*
X35313Y-28506D01*
X36597Y-28506D02*
X43032Y-28506D01*
X22558Y-28586D02*
X27862Y-28586D01*
X34097Y-28586D02*
X35336Y-28586D01*
X36573Y-28586D02*
X43032Y-28586D01*
X22558Y-28666D02*
X27941Y-28666D01*
X34097Y-28666D02*
X35396Y-28666D01*
X36514Y-28666D02*
X43032Y-28666D01*
X22558Y-28746D02*
X28021Y-28746D01*
X34097Y-28746D02*
X43032Y-28746D01*
X22558Y-28826D02*
X28101Y-28826D01*
X34097Y-28826D02*
X35460Y-28826D01*
X36412Y-28826D02*
X43032Y-28826D01*
X22558Y-28906D02*
X28181Y-28906D01*
X34097Y-28906D02*
X35345Y-28906D01*
X36525Y-28906D02*
X43032Y-28906D01*
X22558Y-28986D02*
X28261Y-28986D01*
X34097Y-28986D02*
X35304Y-28986D01*
X36567Y-28986D02*
X43032Y-28986D01*
X22558Y-29066D02*
X28341Y-29066D01*
X34097Y-29066D02*
X35293Y-29066D01*
X36577Y-29066D02*
X43032Y-29066D01*
X22558Y-29146D02*
X28421Y-29146D01*
X34097Y-29146D02*
X35293Y-29146D01*
X36577Y-29146D02*
X43032Y-29146D01*
X22558Y-29226D02*
X28501Y-29226D01*
X34097Y-29226D02*
X35293Y-29226D01*
X36577Y-29226D02*
X43032Y-29226D01*
X22558Y-29306D02*
X28581Y-29306D01*
X34097Y-29306D02*
X35293Y-29306D01*
X36577Y-29306D02*
X43032Y-29306D01*
X22558Y-29386D02*
X28661Y-29386D01*
X34097Y-29386D02*
X35293Y-29386D01*
X36577Y-29386D02*
X43032Y-29386D01*
X22558Y-29466D02*
X28741Y-29466D01*
X34097Y-29466D02*
X35293Y-29466D01*
X36577Y-29466D02*
X43032Y-29466D01*
X22558Y-29546D02*
X28821Y-29546D01*
X34097Y-29546D02*
X35310Y-29546D01*
X36559Y-29546D02*
X43032Y-29546D01*
X22558Y-29626D02*
X28901Y-29626D01*
X34097Y-29626D02*
X35361Y-29626D01*
X36509Y-29626D02*
X43032Y-29626D01*
X22558Y-29706D02*
X28981Y-29706D01*
X34097Y-29706D02*
X43032Y-29706D01*
X22558Y-29786D02*
X29061Y-29786D01*
X34097Y-29786D02*
X35503Y-29786D01*
X36388Y-29786D02*
X43032Y-29786D01*
X22558Y-29866D02*
X29141Y-29866D01*
X34097Y-29866D02*
X35369Y-29866D01*
X36521Y-29866D02*
X43032Y-29866D01*
X22558Y-29946D02*
X29221Y-29946D01*
X34097Y-29946D02*
X35320Y-29946D01*
X36571Y-29946D02*
X43032Y-29946D01*
X22558Y-30026D02*
X29301Y-30026D01*
X34097Y-30026D02*
X35303Y-30026D01*
X36587Y-30026D02*
X43032Y-30026D01*
X22558Y-30106D02*
X29381Y-30106D01*
X34097Y-30106D02*
X35303Y-30106D01*
X36587Y-30106D02*
X43032Y-30106D01*
X22558Y-30186D02*
X29461Y-30186D01*
X34097Y-30186D02*
X35303Y-30186D01*
X36587Y-30186D02*
X43032Y-30186D01*
X22558Y-30266D02*
X29541Y-30266D01*
X34097Y-30266D02*
X35303Y-30266D01*
X36587Y-30266D02*
X43032Y-30266D01*
X22558Y-30346D02*
X29621Y-30346D01*
X34097Y-30346D02*
X35303Y-30346D01*
X36587Y-30346D02*
X43032Y-30346D01*
X22558Y-30426D02*
X29705Y-30426D01*
X34097Y-30426D02*
X35303Y-30426D01*
X36587Y-30426D02*
X43032Y-30426D01*
X22558Y-30506D02*
X30860Y-30506D01*
X34097Y-30506D02*
X35314Y-30506D01*
X36575Y-30506D02*
X43032Y-30506D01*
X22558Y-30586D02*
X30740Y-30586D01*
X34097Y-30586D02*
X35336Y-30586D01*
X36555Y-30586D02*
X43032Y-30586D01*
X22558Y-30666D02*
X30697Y-30666D01*
X34097Y-30666D02*
X35303Y-30666D01*
X36587Y-30666D02*
X43032Y-30666D01*
X22558Y-30746D02*
X30684Y-30746D01*
X34097Y-30746D02*
X35303Y-30746D01*
X36587Y-30746D02*
X43032Y-30746D01*
X22558Y-30826D02*
X30684Y-30826D01*
X34097Y-30826D02*
X35303Y-30826D01*
X36587Y-30826D02*
X43032Y-30826D01*
X22558Y-30906D02*
X30684Y-30906D01*
X34097Y-30906D02*
X35303Y-30906D01*
X36587Y-30906D02*
X43032Y-30906D01*
X22558Y-30986D02*
X30684Y-30986D01*
X34097Y-30986D02*
X35303Y-30986D01*
X36587Y-30986D02*
X43032Y-30986D01*
X22558Y-31066D02*
X30684Y-31066D01*
X34094Y-31066D02*
X35303Y-31066D01*
X36587Y-31066D02*
X43032Y-31066D01*
X22558Y-31146D02*
X30699Y-31146D01*
X34078Y-31146D02*
X35303Y-31146D01*
X36587Y-31146D02*
X43032Y-31146D01*
X22558Y-31226D02*
X30748Y-31226D01*
X34034Y-31226D02*
X35331Y-31226D01*
X36558Y-31226D02*
X41771Y-31226D01*
X42325Y-31226D02*
X43032Y-31226D01*
X22558Y-31306D02*
X30768Y-31306D01*
X33966Y-31306D02*
X35398Y-31306D01*
X36492Y-31306D02*
X41641Y-31306D01*
X42456Y-31306D02*
X43032Y-31306D01*
X22558Y-31386D02*
X30776Y-31386D01*
X33886Y-31386D02*
X41561Y-31386D01*
X42536Y-31386D02*
X43032Y-31386D01*
X22558Y-31466D02*
X30796Y-31466D01*
X33806Y-31466D02*
X41494Y-31466D01*
X42603Y-31466D02*
X43032Y-31466D01*
X22558Y-31546D02*
X30850Y-31546D01*
X33726Y-31546D02*
X41461Y-31546D01*
X42636Y-31546D02*
X43032Y-31546D01*
X22558Y-31626D02*
X30929Y-31626D01*
X33646Y-31626D02*
X41427Y-31626D01*
X42669Y-31626D02*
X43032Y-31626D01*
X22558Y-31706D02*
X31009Y-31706D01*
X33566Y-31706D02*
X41405Y-31706D01*
X42691Y-31706D02*
X43032Y-31706D01*
X22558Y-31786D02*
X31119Y-31786D01*
X33455Y-31786D02*
X41405Y-31786D01*
X42691Y-31786D02*
X43032Y-31786D01*
X22558Y-31866D02*
X31974Y-31866D01*
X32989Y-31866D02*
X41405Y-31866D01*
X42691Y-31866D02*
X43032Y-31866D01*
X22558Y-31946D02*
X31940Y-31946D01*
X33022Y-31946D02*
X40657Y-31946D01*
X42686Y-31946D02*
X43032Y-31946D01*
X22558Y-32026D02*
X31937Y-32026D01*
X33025Y-32026D02*
X40575Y-32026D01*
X42653Y-32026D02*
X43032Y-32026D01*
X22558Y-32106D02*
X31937Y-32106D01*
X33025Y-32106D02*
X35827Y-32106D01*
X38663Y-32106D02*
X40542Y-32106D01*
X42619Y-32106D02*
X43032Y-32106D01*
X22558Y-32186D02*
X31937Y-32186D01*
X33025Y-32186D02*
X35775Y-32186D01*
X38716Y-32186D02*
X40539Y-32186D01*
X42577Y-32186D02*
X43032Y-32186D01*
X22558Y-32266D02*
X31937Y-32266D01*
X33025Y-32266D02*
X35756Y-32266D01*
X38734Y-32266D02*
X40539Y-32266D01*
X42497Y-32266D02*
X43032Y-32266D01*
X22558Y-32346D02*
X31937Y-32346D01*
X33025Y-32346D02*
X35756Y-32346D01*
X38734Y-32346D02*
X40539Y-32346D01*
X42417Y-32346D02*
X43032Y-32346D01*
X22558Y-32426D02*
X31937Y-32426D01*
X33025Y-32426D02*
X35756Y-32426D01*
X38734Y-32426D02*
X40539Y-32426D01*
X42232Y-32426D02*
X43032Y-32426D01*
X22558Y-32506D02*
X31961Y-32506D01*
X33000Y-32506D02*
X35756Y-32506D01*
X38734Y-32506D02*
X40539Y-32506D01*
X41903Y-32506D02*
X43032Y-32506D01*
X22558Y-32586D02*
X32023Y-32586D01*
X32939Y-32586D02*
X35756Y-32586D01*
X38734Y-32586D02*
X40539Y-32586D01*
X41903Y-32586D02*
X43032Y-32586D01*
X22558Y-32666D02*
X35756Y-32666D01*
X38734Y-32666D02*
X40539Y-32666D01*
X41903Y-32666D02*
X43032Y-32666D01*
X22558Y-32746D02*
X35756Y-32746D01*
X38734Y-32746D02*
X40565Y-32746D01*
X41876Y-32746D02*
X43032Y-32746D01*
X22558Y-32826D02*
X35756Y-32826D01*
X38734Y-32826D02*
X40629Y-32826D01*
X41813Y-32826D02*
X43032Y-32826D01*
X29288Y-26549D02*
X29288Y-26549D01*
X28889Y-26629D02*
X29368Y-26629D01*
X28969Y-26709D02*
X29448Y-26709D01*
X29041Y-26789D02*
X29528Y-26789D01*
X29090Y-26869D02*
X29608Y-26869D01*
X29106Y-26949D02*
X29688Y-26949D01*
X29109Y-27029D02*
X29768Y-27029D01*
X28496Y-27109D02*
X28529Y-27109D01*
X29109Y-27109D02*
X29848Y-27109D01*
X28496Y-27189D02*
X28529Y-27189D01*
X29109Y-27189D02*
X29928Y-27189D01*
X28471Y-27269D02*
X28529Y-27269D01*
X29109Y-27269D02*
X30008Y-27269D01*
X28438Y-27349D02*
X28529Y-27349D01*
X29109Y-27349D02*
X30088Y-27349D01*
X28369Y-27429D02*
X28529Y-27429D01*
X29109Y-27429D02*
X30168Y-27429D01*
X28361Y-27509D02*
X28529Y-27509D01*
X29109Y-27509D02*
X30277Y-27509D01*
X28361Y-27589D02*
X28529Y-27589D01*
X29109Y-27589D02*
X31095Y-27589D01*
X31708Y-27589D02*
X31959Y-27589D01*
X33002Y-27589D02*
X33273Y-27589D01*
X28361Y-27669D02*
X28529Y-27669D01*
X29109Y-27669D02*
X32017Y-27669D01*
X32945Y-27669D02*
X33353Y-27669D01*
X28361Y-27749D02*
X28529Y-27749D01*
X29109Y-27749D02*
X33433Y-27749D01*
X28361Y-27829D02*
X28529Y-27829D01*
X29109Y-27829D02*
X32133Y-27829D01*
X32831Y-27829D02*
X33513Y-27829D01*
X28361Y-27909D02*
X28529Y-27909D01*
X29145Y-27909D02*
X29425Y-27909D01*
X29975Y-27909D02*
X30025Y-27909D01*
X30575Y-27909D02*
X32001Y-27909D01*
X32961Y-27909D02*
X33517Y-27909D01*
X28361Y-27989D02*
X28529Y-27989D01*
X33010Y-27989D02*
X33517Y-27989D01*
X28361Y-28069D02*
X28544Y-28069D01*
X33025Y-28069D02*
X33517Y-28069D01*
X28361Y-28149D02*
X28581Y-28149D01*
X33025Y-28149D02*
X33517Y-28149D01*
X28361Y-28229D02*
X28645Y-28229D01*
X33025Y-28229D02*
X33517Y-28229D01*
X28404Y-28309D02*
X28725Y-28309D01*
X33025Y-28309D02*
X33517Y-28309D01*
X28484Y-28389D02*
X28805Y-28389D01*
X33025Y-28389D02*
X33517Y-28389D01*
X28564Y-28469D02*
X28885Y-28469D01*
X33025Y-28469D02*
X33517Y-28469D01*
X28644Y-28549D02*
X29048Y-28549D01*
X33012Y-28549D02*
X33517Y-28549D01*
X28724Y-28629D02*
X29427Y-28629D01*
X29972Y-28629D02*
X30010Y-28629D01*
X30590Y-28629D02*
X31993Y-28629D01*
X32969Y-28629D02*
X33517Y-28629D01*
X28804Y-28709D02*
X30010Y-28709D01*
X30590Y-28709D02*
X32112Y-28709D01*
X32849Y-28709D02*
X33517Y-28709D01*
X28884Y-28789D02*
X30010Y-28789D01*
X30590Y-28789D02*
X33517Y-28789D01*
X28964Y-28869D02*
X30010Y-28869D01*
X30590Y-28869D02*
X30701Y-28869D01*
X30842Y-28869D02*
X31018Y-28869D01*
X31160Y-28869D02*
X32026Y-28869D01*
X32427Y-28869D02*
X32535Y-28869D01*
X32936Y-28869D02*
X33517Y-28869D01*
X29044Y-28949D02*
X29999Y-28949D01*
X30880Y-28949D02*
X30980Y-28949D01*
X31261Y-28949D02*
X31964Y-28949D01*
X32431Y-28949D02*
X32531Y-28949D01*
X32999Y-28949D02*
X33517Y-28949D01*
X29124Y-29029D02*
X29963Y-29029D01*
X30880Y-29029D02*
X30980Y-29029D01*
X31298Y-29029D02*
X31937Y-29029D01*
X32431Y-29029D02*
X32531Y-29029D01*
X33026Y-29029D02*
X33517Y-29029D01*
X29204Y-29109D02*
X29956Y-29109D01*
X30880Y-29109D02*
X30980Y-29109D01*
X31304Y-29109D02*
X31937Y-29109D01*
X32431Y-29109D02*
X32531Y-29109D01*
X33026Y-29109D02*
X33517Y-29109D01*
X29284Y-29189D02*
X29956Y-29189D01*
X30880Y-29189D02*
X30980Y-29189D01*
X31256Y-29189D02*
X31979Y-29189D01*
X32431Y-29189D02*
X32531Y-29189D01*
X32983Y-29189D02*
X33517Y-29189D01*
X29364Y-29269D02*
X29956Y-29269D01*
X30880Y-29269D02*
X33517Y-29269D01*
X29444Y-29349D02*
X29956Y-29349D01*
X30880Y-29349D02*
X30980Y-29349D01*
X31290Y-29349D02*
X31957Y-29349D01*
X32431Y-29349D02*
X32531Y-29349D01*
X33005Y-29349D02*
X33517Y-29349D01*
X29524Y-29429D02*
X29956Y-29429D01*
X30880Y-29429D02*
X30980Y-29429D01*
X31304Y-29429D02*
X31936Y-29429D01*
X32431Y-29429D02*
X32531Y-29429D01*
X33025Y-29429D02*
X33517Y-29429D01*
X29604Y-29509D02*
X29977Y-29509D01*
X30880Y-29509D02*
X30980Y-29509D01*
X31283Y-29509D02*
X31939Y-29509D01*
X32431Y-29509D02*
X32531Y-29509D01*
X33022Y-29509D02*
X33517Y-29509D01*
X29684Y-29589D02*
X30033Y-29589D01*
X30625Y-29589D02*
X30633Y-29589D01*
X30880Y-29589D02*
X30980Y-29589D01*
X31227Y-29589D02*
X31972Y-29589D01*
X32431Y-29589D02*
X32531Y-29589D01*
X32989Y-29589D02*
X33517Y-29589D01*
X29764Y-29669D02*
X32052Y-29669D01*
X32405Y-29669D02*
X32557Y-29669D01*
X32909Y-29669D02*
X33517Y-29669D01*
X29844Y-29749D02*
X33517Y-29749D01*
X29924Y-29829D02*
X32020Y-29829D01*
X32942Y-29829D02*
X33517Y-29829D01*
X30004Y-29909D02*
X31960Y-29909D01*
X33002Y-29909D02*
X33517Y-29909D01*
X33025Y-29989D02*
X33517Y-29989D01*
X33025Y-30069D02*
X33517Y-30069D01*
X33025Y-30149D02*
X33517Y-30149D01*
X33025Y-30229D02*
X33517Y-30229D01*
X33025Y-30309D02*
X33517Y-30309D01*
X33025Y-30389D02*
X33517Y-30389D01*
X33020Y-30469D02*
X33517Y-30469D01*
X32989Y-30549D02*
X33517Y-30549D01*
X33023Y-30629D02*
X33517Y-30629D01*
X33025Y-30709D02*
X33517Y-30709D01*
X33025Y-30789D02*
X33517Y-30789D01*
X33025Y-30869D02*
X33517Y-30869D01*
X33025Y-30949D02*
X33503Y-30949D01*
X33025Y-31029D02*
X33423Y-31029D01*
X33025Y-31109D02*
X33343Y-31109D01*
X32999Y-31189D02*
X33263Y-31189D01*
X33025Y-25093D02*
X33517Y-25093D01*
X33025Y-25173D02*
X33517Y-25173D01*
X33025Y-25253D02*
X33517Y-25253D01*
X33025Y-25333D02*
X33517Y-25333D01*
X33025Y-25413D02*
X33517Y-25413D01*
X33025Y-25493D02*
X33517Y-25493D01*
X33022Y-25573D02*
X33517Y-25573D01*
X29994Y-25653D02*
X30004Y-25653D01*
X30595Y-25653D02*
X30672Y-25653D01*
X30854Y-25653D02*
X31006Y-25653D01*
X31189Y-25653D02*
X31966Y-25653D01*
X32996Y-25653D02*
X33517Y-25653D01*
X29691Y-25733D02*
X29992Y-25733D01*
X30880Y-25733D02*
X30980Y-25733D01*
X31269Y-25733D02*
X31937Y-25733D01*
X33025Y-25733D02*
X33517Y-25733D01*
X29611Y-25813D02*
X29958Y-25813D01*
X30880Y-25813D02*
X30980Y-25813D01*
X31303Y-25813D02*
X31937Y-25813D01*
X33025Y-25813D02*
X33517Y-25813D01*
X29531Y-25893D02*
X29956Y-25893D01*
X30880Y-25893D02*
X30980Y-25893D01*
X31304Y-25893D02*
X31937Y-25893D01*
X33025Y-25893D02*
X33517Y-25893D01*
X29451Y-25973D02*
X29956Y-25973D01*
X30880Y-25973D02*
X30980Y-25973D01*
X31244Y-25973D02*
X31937Y-25973D01*
X33025Y-25973D02*
X33517Y-25973D01*
X29612Y-26053D02*
X29956Y-26053D01*
X30704Y-26053D02*
X31937Y-26053D01*
X33025Y-26053D02*
X33517Y-26053D01*
X29692Y-26133D02*
X29956Y-26133D01*
X30880Y-26133D02*
X30980Y-26133D01*
X31302Y-26133D02*
X31937Y-26133D01*
X33025Y-26133D02*
X33517Y-26133D01*
X29772Y-26213D02*
X29956Y-26213D01*
X30880Y-26213D02*
X30980Y-26213D01*
X31304Y-26213D02*
X31937Y-26213D01*
X33025Y-26213D02*
X33517Y-26213D01*
X29852Y-26293D02*
X29982Y-26293D01*
X30880Y-26293D02*
X30980Y-26293D01*
X31297Y-26293D02*
X31507Y-26293D01*
X31624Y-26293D02*
X31968Y-26293D01*
X32992Y-26293D02*
X33517Y-26293D01*
X29932Y-26373D02*
X30045Y-26373D01*
X30613Y-26373D02*
X30645Y-26373D01*
X30876Y-26373D02*
X30984Y-26373D01*
X31352Y-26373D02*
X31452Y-26373D01*
X31748Y-26373D02*
X31938Y-26373D01*
X33025Y-26373D02*
X33517Y-26373D01*
X30012Y-26453D02*
X31010Y-26453D01*
X31352Y-26453D02*
X31452Y-26453D01*
X31794Y-26453D02*
X31937Y-26453D01*
X33026Y-26453D02*
X33517Y-26453D01*
X30092Y-26533D02*
X30996Y-26533D01*
X31352Y-26533D02*
X31452Y-26533D01*
X31809Y-26533D02*
X31961Y-26533D01*
X33001Y-26533D02*
X33517Y-26533D01*
X30172Y-26613D02*
X33517Y-26613D01*
X30252Y-26693D02*
X31975Y-26693D01*
X32431Y-26693D02*
X32531Y-26693D01*
X32987Y-26693D02*
X33517Y-26693D01*
X30332Y-26773D02*
X30995Y-26773D01*
X31809Y-26773D02*
X31936Y-26773D01*
X32431Y-26773D02*
X32531Y-26773D01*
X33025Y-26773D02*
X33490Y-26773D01*
X30412Y-26853D02*
X31003Y-26853D01*
X31800Y-26853D02*
X31936Y-26853D01*
X33025Y-26853D02*
X33410Y-26853D01*
X30492Y-26933D02*
X31039Y-26933D01*
X31763Y-26933D02*
X31964Y-26933D01*
X32996Y-26933D02*
X33330Y-26933D01*
X27916Y-21629D02*
X30747Y-21629D01*
X27952Y-21709D02*
X30827Y-21709D01*
X27957Y-21789D02*
X30907Y-21789D01*
X27906Y-21869D02*
X30987Y-21869D01*
X27533Y-21949D02*
X31067Y-21949D01*
X27533Y-22029D02*
X27633Y-22029D01*
X27946Y-22029D02*
X31131Y-22029D01*
X27533Y-22109D02*
X27633Y-22109D01*
X27957Y-22109D02*
X31131Y-22109D01*
X27533Y-22189D02*
X27633Y-22189D01*
X27934Y-22189D02*
X31131Y-22189D01*
X27276Y-22269D02*
X27289Y-22269D01*
X27533Y-22269D02*
X27633Y-22269D01*
X27877Y-22269D02*
X31131Y-22269D01*
X27273Y-22349D02*
X31131Y-22349D01*
X27273Y-22429D02*
X27982Y-22429D01*
X28323Y-22429D02*
X28423Y-22429D01*
X28764Y-22429D02*
X28985Y-22429D01*
X29439Y-22429D02*
X31131Y-22429D01*
X27273Y-22509D02*
X27923Y-22509D01*
X28323Y-22509D02*
X28423Y-22509D01*
X28824Y-22509D02*
X28897Y-22509D01*
X29527Y-22509D02*
X31052Y-22509D01*
X27273Y-22589D02*
X27899Y-22589D01*
X28323Y-22589D02*
X28423Y-22589D01*
X29587Y-22589D02*
X31018Y-22589D01*
X27273Y-22669D02*
X28423Y-22669D01*
X29620Y-22669D02*
X31015Y-22669D01*
X27273Y-22749D02*
X28423Y-22749D01*
X29637Y-22749D02*
X31015Y-22749D01*
X27273Y-22829D02*
X27898Y-22829D01*
X29637Y-22829D02*
X31015Y-22829D01*
X27273Y-22909D02*
X27917Y-22909D01*
X29624Y-22909D02*
X31015Y-22909D01*
X27273Y-22989D02*
X27931Y-22989D01*
X29591Y-22989D02*
X31033Y-22989D01*
X27273Y-23069D02*
X27899Y-23069D01*
X30113Y-23069D02*
X31085Y-23069D01*
X27273Y-23149D02*
X27899Y-23149D01*
X30232Y-23149D02*
X31035Y-23149D01*
X27273Y-23229D02*
X27899Y-23229D01*
X30276Y-23229D02*
X31015Y-23229D01*
X27273Y-23309D02*
X27899Y-23309D01*
X30288Y-23309D02*
X31015Y-23309D01*
X27273Y-23389D02*
X27909Y-23389D01*
X30288Y-23389D02*
X31015Y-23389D01*
X27273Y-23469D02*
X27941Y-23469D01*
X30288Y-23469D02*
X31015Y-23469D01*
X27273Y-23549D02*
X27906Y-23549D01*
X30288Y-23549D02*
X31016Y-23549D01*
X27273Y-23629D02*
X27899Y-23629D01*
X30288Y-23629D02*
X31049Y-23629D01*
X27273Y-23709D02*
X27899Y-23709D01*
X30287Y-23709D02*
X30672Y-23709D01*
X27273Y-23789D02*
X27899Y-23789D01*
X30254Y-23789D02*
X30611Y-23789D01*
X24283Y-23869D02*
X25106Y-23869D01*
X27273Y-23869D02*
X27901Y-23869D01*
X30202Y-23869D02*
X30586Y-23869D01*
X24310Y-23949D02*
X25106Y-23949D01*
X27273Y-23949D02*
X27934Y-23949D01*
X30264Y-23949D02*
X30586Y-23949D01*
X24611Y-24029D02*
X25106Y-24029D01*
X27267Y-24029D02*
X27915Y-24029D01*
X30288Y-24029D02*
X30521Y-24029D01*
X24718Y-24109D02*
X25106Y-24109D01*
X27251Y-24109D02*
X27899Y-24109D01*
X30288Y-24109D02*
X30441Y-24109D01*
X24798Y-24189D02*
X25106Y-24189D01*
X27199Y-24189D02*
X27899Y-24189D01*
X30288Y-24189D02*
X30361Y-24189D01*
X24878Y-24269D02*
X25128Y-24269D01*
X27125Y-24269D02*
X27899Y-24269D01*
X24958Y-24349D02*
X25187Y-24349D01*
X27045Y-24349D02*
X27899Y-24349D01*
X25038Y-24429D02*
X25439Y-24429D01*
X26960Y-24429D02*
X27925Y-24429D01*
X25118Y-24509D02*
X25889Y-24509D01*
X26656Y-24509D02*
X27990Y-24509D01*
X25198Y-24589D02*
X29317Y-24589D01*
X33264Y-26999D02*
X33517Y-26746D01*
X33517Y-25093D01*
X33025Y-25093D01*
X33025Y-25568D01*
X32992Y-25645D01*
X33025Y-25724D01*
X33025Y-26217D01*
X32992Y-26295D01*
X33025Y-26374D01*
X33026Y-26508D01*
X32964Y-26570D01*
X32531Y-26570D01*
X32431Y-26570D01*
X31998Y-26570D01*
X31936Y-26508D01*
X31937Y-26374D01*
X31969Y-26295D01*
X31937Y-26216D01*
X31937Y-25723D01*
X31969Y-25645D01*
X31953Y-25608D01*
X30639Y-25605D01*
X30636Y-25613D01*
X30593Y-25655D01*
X30596Y-25656D01*
X30629Y-25689D01*
X30664Y-25656D01*
X30756Y-25618D01*
X30818Y-25617D01*
X30880Y-25679D01*
X30880Y-25974D01*
X30704Y-25974D01*
X30704Y-26074D01*
X30880Y-26074D01*
X30880Y-26369D01*
X30818Y-26431D01*
X30756Y-26430D01*
X30664Y-26392D01*
X30629Y-26357D01*
X30596Y-26392D01*
X30504Y-26430D01*
X30155Y-26430D01*
X30064Y-26392D01*
X29994Y-26322D01*
X29956Y-26230D01*
X29956Y-25817D01*
X29994Y-25726D01*
X30010Y-25710D01*
X30010Y-25659D01*
X29999Y-25648D01*
X29966Y-25683D01*
X29874Y-25721D01*
X29703Y-25721D01*
X29447Y-25977D01*
X29520Y-25992D01*
X29614Y-26055D01*
X30514Y-26955D01*
X31061Y-26955D01*
X31034Y-26927D01*
X30996Y-26835D01*
X30995Y-26773D01*
X31057Y-26711D01*
X31057Y-26611D01*
X30995Y-26549D01*
X30996Y-26487D01*
X31025Y-26414D01*
X30980Y-26369D01*
X30980Y-26074D01*
X30980Y-25974D01*
X30980Y-25679D01*
X31042Y-25617D01*
X31104Y-25618D01*
X31196Y-25656D01*
X31266Y-25726D01*
X31304Y-25817D01*
X31304Y-25913D01*
X31243Y-25974D01*
X30980Y-25974D01*
X30980Y-26074D01*
X31243Y-26074D01*
X31304Y-26135D01*
X31304Y-26231D01*
X31280Y-26287D01*
X31290Y-26287D01*
X31290Y-26286D01*
X31294Y-26287D01*
X31290Y-26287D01*
X31352Y-26348D01*
X31352Y-26611D01*
X31057Y-26611D01*
X31057Y-26711D01*
X31352Y-26711D01*
X31452Y-26711D01*
X31452Y-26611D01*
X31452Y-26348D01*
X31512Y-26287D01*
X31510Y-26287D01*
X31514Y-26286D01*
X31512Y-26287D01*
X31609Y-26287D01*
X31700Y-26325D01*
X31770Y-26395D01*
X31808Y-26487D01*
X31809Y-26549D01*
X31747Y-26611D01*
X31452Y-26611D01*
X31452Y-26711D01*
X31747Y-26711D01*
X31809Y-26773D01*
X31808Y-26835D01*
X31770Y-26927D01*
X31735Y-26960D01*
X31746Y-26971D01*
X31966Y-26971D01*
X31973Y-26954D01*
X31937Y-26866D01*
X31936Y-26732D01*
X31998Y-26670D01*
X32431Y-26670D01*
X32431Y-26843D01*
X32531Y-26843D01*
X32531Y-26670D01*
X32964Y-26670D01*
X33026Y-26732D01*
X33025Y-26866D01*
X32988Y-26954D01*
X33006Y-26999D01*
X33264Y-26999D01*
X22558Y-20826D02*
X43032Y-20826D01*
X22558Y-20906D02*
X40255Y-20906D01*
X41302Y-20906D02*
X43032Y-20906D01*
X22558Y-20986D02*
X40145Y-20986D01*
X41411Y-20986D02*
X43032Y-20986D01*
X22558Y-21066D02*
X27119Y-21066D01*
X30953Y-21066D02*
X40106Y-21066D01*
X41451Y-21066D02*
X43032Y-21066D01*
X22558Y-21146D02*
X26987Y-21146D01*
X31084Y-21146D02*
X40096Y-21146D01*
X41460Y-21146D02*
X43032Y-21146D01*
X22558Y-21226D02*
X26907Y-21226D01*
X31164Y-21226D02*
X40096Y-21226D01*
X41460Y-21226D02*
X43032Y-21226D01*
X22558Y-21306D02*
X26827Y-21306D01*
X31244Y-21306D02*
X40096Y-21306D01*
X41460Y-21306D02*
X43032Y-21306D01*
X22558Y-21386D02*
X23186Y-21386D01*
X23533Y-21386D02*
X23633Y-21386D01*
X23981Y-21386D02*
X26758Y-21386D01*
X31324Y-21386D02*
X40096Y-21386D01*
X41460Y-21386D02*
X43032Y-21386D01*
X22558Y-21466D02*
X22987Y-21466D01*
X23533Y-21466D02*
X23633Y-21466D01*
X24180Y-21466D02*
X26712Y-21466D01*
X31404Y-21466D02*
X40096Y-21466D01*
X41460Y-21466D02*
X43032Y-21466D01*
X22558Y-21546D02*
X22904Y-21546D01*
X23533Y-21546D02*
X23633Y-21546D01*
X24263Y-21546D02*
X25494Y-21546D01*
X25954Y-21546D02*
X26094Y-21546D01*
X26554Y-21546D02*
X26696Y-21546D01*
X31484Y-21546D02*
X40096Y-21546D01*
X41460Y-21546D02*
X43032Y-21546D01*
X22558Y-21626D02*
X22829Y-21626D01*
X23533Y-21626D02*
X23633Y-21626D01*
X24338Y-21626D02*
X25392Y-21626D01*
X31564Y-21626D02*
X40096Y-21626D01*
X41460Y-21626D02*
X43032Y-21626D01*
X22558Y-21706D02*
X22797Y-21706D01*
X23533Y-21706D02*
X23633Y-21706D01*
X24370Y-21706D02*
X25356Y-21706D01*
X31639Y-21706D02*
X40115Y-21706D01*
X41440Y-21706D02*
X41753Y-21706D01*
X42344Y-21706D02*
X43032Y-21706D01*
X22558Y-21786D02*
X22764Y-21786D01*
X23533Y-21786D02*
X23633Y-21786D01*
X24403Y-21786D02*
X25349Y-21786D01*
X31690Y-21786D02*
X40169Y-21786D01*
X41387Y-21786D02*
X41633Y-21786D01*
X42464Y-21786D02*
X43032Y-21786D01*
X22558Y-21866D02*
X22800Y-21866D01*
X23533Y-21866D02*
X23633Y-21866D01*
X24365Y-21866D02*
X25349Y-21866D01*
X31706Y-21866D02*
X41553Y-21866D01*
X42544Y-21866D02*
X43032Y-21866D01*
X22558Y-21946D02*
X25349Y-21946D01*
X31711Y-21946D02*
X41491Y-21946D01*
X42606Y-21946D02*
X43032Y-21946D01*
X22558Y-22026D02*
X22782Y-22026D01*
X24385Y-22026D02*
X25349Y-22026D01*
X31711Y-22026D02*
X41458Y-22026D01*
X42639Y-22026D02*
X43032Y-22026D01*
X22558Y-22106D02*
X22777Y-22106D01*
X24388Y-22106D02*
X25349Y-22106D01*
X31711Y-22106D02*
X41424Y-22106D01*
X42672Y-22106D02*
X43032Y-22106D01*
X22558Y-22186D02*
X22810Y-22186D01*
X24355Y-22186D02*
X25370Y-22186D01*
X31711Y-22186D02*
X41405Y-22186D01*
X42691Y-22186D02*
X43032Y-22186D01*
X22558Y-22266D02*
X22855Y-22266D01*
X24309Y-22266D02*
X25426Y-22266D01*
X31711Y-22266D02*
X41405Y-22266D01*
X42691Y-22266D02*
X43032Y-22266D01*
X22558Y-22346D02*
X22885Y-22346D01*
X24281Y-22346D02*
X25433Y-22346D01*
X31711Y-22346D02*
X41405Y-22346D01*
X42691Y-22346D02*
X43032Y-22346D01*
X22558Y-22426D02*
X22814Y-22426D01*
X31711Y-22426D02*
X41413Y-22426D01*
X42683Y-22426D02*
X43032Y-22426D01*
X22558Y-22506D02*
X22781Y-22506D01*
X33505Y-22506D02*
X41446Y-22506D01*
X42649Y-22506D02*
X43032Y-22506D01*
X22558Y-22586D02*
X22747Y-22586D01*
X33614Y-22586D02*
X41479Y-22586D01*
X42616Y-22586D02*
X43032Y-22586D01*
X22558Y-22666D02*
X22737Y-22666D01*
X33694Y-22666D02*
X41526Y-22666D01*
X42569Y-22666D02*
X43032Y-22666D01*
X22558Y-22746D02*
X22737Y-22746D01*
X33774Y-22746D02*
X41606Y-22746D01*
X42489Y-22746D02*
X43032Y-22746D01*
X22558Y-22826D02*
X22738Y-22826D01*
X33854Y-22826D02*
X41690Y-22826D01*
X42406Y-22826D02*
X43032Y-22826D01*
X22558Y-22906D02*
X22771Y-22906D01*
X33934Y-22906D02*
X36369Y-22906D01*
X37254Y-22906D02*
X41880Y-22906D01*
X42213Y-22906D02*
X43032Y-22906D01*
X22558Y-22986D02*
X22804Y-22986D01*
X34014Y-22986D02*
X36235Y-22986D01*
X37387Y-22986D02*
X43032Y-22986D01*
X22558Y-23066D02*
X22865Y-23066D01*
X34067Y-23066D02*
X36186Y-23066D01*
X37437Y-23066D02*
X43032Y-23066D01*
X22558Y-23146D02*
X22873Y-23146D01*
X34089Y-23146D02*
X36169Y-23146D01*
X37453Y-23146D02*
X43032Y-23146D01*
X22558Y-23226D02*
X22809Y-23226D01*
X34097Y-23226D02*
X36169Y-23226D01*
X37453Y-23226D02*
X43032Y-23226D01*
X22558Y-23306D02*
X22775Y-23306D01*
X34097Y-23306D02*
X36169Y-23306D01*
X37453Y-23306D02*
X43032Y-23306D01*
X22558Y-23386D02*
X22742Y-23386D01*
X34097Y-23386D02*
X36169Y-23386D01*
X37453Y-23386D02*
X43032Y-23386D01*
X22558Y-23466D02*
X22737Y-23466D01*
X34097Y-23466D02*
X36169Y-23466D01*
X37453Y-23466D02*
X43032Y-23466D01*
X22558Y-23546D02*
X22737Y-23546D01*
X34097Y-23546D02*
X36169Y-23546D01*
X37453Y-23546D02*
X43032Y-23546D01*
X22558Y-23626D02*
X22743Y-23626D01*
X34097Y-23626D02*
X36180Y-23626D01*
X37441Y-23626D02*
X43032Y-23626D01*
X22558Y-23706D02*
X22776Y-23706D01*
X34097Y-23706D02*
X36223Y-23706D01*
X37399Y-23706D02*
X43032Y-23706D01*
X22558Y-23786D02*
X22809Y-23786D01*
X34097Y-23786D02*
X36339Y-23786D01*
X37282Y-23786D02*
X43032Y-23786D01*
X22558Y-23866D02*
X22878Y-23866D01*
X34097Y-23866D02*
X43032Y-23866D01*
X22558Y-23946D02*
X22860Y-23946D01*
X34097Y-23946D02*
X35038Y-23946D01*
X36340Y-23946D02*
X43032Y-23946D01*
X22558Y-24026D02*
X22803Y-24026D01*
X34097Y-24026D02*
X34975Y-24026D01*
X36404Y-24026D02*
X43032Y-24026D01*
X22558Y-24106D02*
X22770Y-24106D01*
X34097Y-24106D02*
X34948Y-24106D01*
X36430Y-24106D02*
X43032Y-24106D01*
X22558Y-24186D02*
X22737Y-24186D01*
X34097Y-24186D02*
X34948Y-24186D01*
X36430Y-24186D02*
X43032Y-24186D01*
X22558Y-24266D02*
X22737Y-24266D01*
X34097Y-24266D02*
X34948Y-24266D01*
X36430Y-24266D02*
X43032Y-24266D01*
X22558Y-24346D02*
X22737Y-24346D01*
X34097Y-24346D02*
X34948Y-24346D01*
X36430Y-24346D02*
X43032Y-24346D01*
X22558Y-24426D02*
X22749Y-24426D01*
X34097Y-24426D02*
X34948Y-24426D01*
X36430Y-24426D02*
X43032Y-24426D01*
X22558Y-24506D02*
X22782Y-24506D01*
X34097Y-24506D02*
X34948Y-24506D01*
X36430Y-24506D02*
X43032Y-24506D01*
X22558Y-24586D02*
X22815Y-24586D01*
X34097Y-24586D02*
X34949Y-24586D01*
X36428Y-24586D02*
X43032Y-24586D01*
X22558Y-24666D02*
X22891Y-24666D01*
X34097Y-24666D02*
X34982Y-24666D01*
X36395Y-24666D02*
X43032Y-24666D01*
X22558Y-24746D02*
X22848Y-24746D01*
X34097Y-24746D02*
X35060Y-24746D01*
X36317Y-24746D02*
X43032Y-24746D01*
X22558Y-24826D02*
X22798Y-24826D01*
X34097Y-24826D02*
X35500Y-24826D01*
X36529Y-24826D02*
X43032Y-24826D01*
X22558Y-24906D02*
X22765Y-24906D01*
X34097Y-24906D02*
X35410Y-24906D01*
X36619Y-24906D02*
X43032Y-24906D01*
X22558Y-24986D02*
X22737Y-24986D01*
X34097Y-24986D02*
X35376Y-24986D01*
X36652Y-24986D02*
X43032Y-24986D01*
X22558Y-25066D02*
X22737Y-25066D01*
X34097Y-25066D02*
X35372Y-25066D01*
X36656Y-25066D02*
X43032Y-25066D01*
X22558Y-25146D02*
X22737Y-25146D01*
X34097Y-25146D02*
X35372Y-25146D01*
X36656Y-25146D02*
X43032Y-25146D01*
X22558Y-25226D02*
X22754Y-25226D01*
X34097Y-25226D02*
X35372Y-25226D01*
X36656Y-25226D02*
X43032Y-25226D01*
X22558Y-25306D02*
X22787Y-25306D01*
X34097Y-25306D02*
X35372Y-25306D01*
X36656Y-25306D02*
X43032Y-25306D01*
X22558Y-25386D02*
X22823Y-25386D01*
X34097Y-25386D02*
X35372Y-25386D01*
X36656Y-25386D02*
X43032Y-25386D01*
X22558Y-25466D02*
X22903Y-25466D01*
X34097Y-25466D02*
X35372Y-25466D01*
X36656Y-25466D02*
X43032Y-25466D01*
X22558Y-25546D02*
X22835Y-25546D01*
X34097Y-25546D02*
X35395Y-25546D01*
X36632Y-25546D02*
X43032Y-25546D01*
X22558Y-25626D02*
X22793Y-25626D01*
X34097Y-25626D02*
X35456Y-25626D01*
X36572Y-25626D02*
X43032Y-25626D01*
X22558Y-25706D02*
X22759Y-25706D01*
X34097Y-25706D02*
X35426Y-25706D01*
X36524Y-25706D02*
X43032Y-25706D01*
X22558Y-25786D02*
X22737Y-25786D01*
X34097Y-25786D02*
X35361Y-25786D01*
X36590Y-25786D02*
X43032Y-25786D01*
X22558Y-25866D02*
X22737Y-25866D01*
X34097Y-25866D02*
X35333Y-25866D01*
X36617Y-25866D02*
X43032Y-25866D01*
X22558Y-25946D02*
X22737Y-25946D01*
X34097Y-25946D02*
X35333Y-25946D01*
X36617Y-25946D02*
X43032Y-25946D01*
X22558Y-26026D02*
X22759Y-26026D01*
X34097Y-26026D02*
X35333Y-26026D01*
X36617Y-26026D02*
X43032Y-26026D01*
X22558Y-26106D02*
X22792Y-26106D01*
X34097Y-26106D02*
X35333Y-26106D01*
X36617Y-26106D02*
X43032Y-26106D01*
X22558Y-26186D02*
X22836Y-26186D01*
X34097Y-26186D02*
X35333Y-26186D01*
X36617Y-26186D02*
X43032Y-26186D01*
X22558Y-26266D02*
X22902Y-26266D01*
X34097Y-26266D02*
X35333Y-26266D01*
X36617Y-26266D02*
X43032Y-26266D01*
X22558Y-26346D02*
X22822Y-26346D01*
X34097Y-26346D02*
X35333Y-26346D01*
X36617Y-26346D02*
X43032Y-26346D01*
X22558Y-26426D02*
X22787Y-26426D01*
X34097Y-26426D02*
X35333Y-26426D01*
X36617Y-26426D02*
X43032Y-26426D01*
X22558Y-26506D02*
X22754Y-26506D01*
X34097Y-26506D02*
X35333Y-26506D01*
X36617Y-26506D02*
X43032Y-26506D01*
X22558Y-26586D02*
X22737Y-26586D01*
X34097Y-26586D02*
X35333Y-26586D01*
X36617Y-26586D02*
X43032Y-26586D01*
X22558Y-26666D02*
X22737Y-26666D01*
X34097Y-26666D02*
X35333Y-26666D01*
X36617Y-26666D02*
X43032Y-26666D01*
X22558Y-26746D02*
X22737Y-26746D01*
X34097Y-26746D02*
X35336Y-26746D01*
X36613Y-26746D02*
X43032Y-26746D01*
X22558Y-26826D02*
X22764Y-26826D01*
X34097Y-26826D02*
X35369Y-26826D01*
X36580Y-26826D02*
X43032Y-26826D01*
X22558Y-26906D02*
X22797Y-26906D01*
X34089Y-26906D02*
X35457Y-26906D01*
X36563Y-26906D02*
X43032Y-26906D01*
X22558Y-26986D02*
X22800Y-26986D01*
X24366Y-26986D02*
X27669Y-26986D01*
X34068Y-26986D02*
X35400Y-26986D01*
X36629Y-26986D02*
X43032Y-26986D01*
X22558Y-27066D02*
X22757Y-27066D01*
X24410Y-27066D02*
X27646Y-27066D01*
X34015Y-27066D02*
X35372Y-27066D01*
X36656Y-27066D02*
X43032Y-27066D01*
X22558Y-27146D02*
X22744Y-27146D01*
X24422Y-27146D02*
X27646Y-27146D01*
X33936Y-27146D02*
X35372Y-27146D01*
X36656Y-27146D02*
X43032Y-27146D01*
X22558Y-27226D02*
X22744Y-27226D01*
X24422Y-27226D02*
X27652Y-27226D01*
X33855Y-27226D02*
X35372Y-27226D01*
X36656Y-27226D02*
X43032Y-27226D01*
X22558Y-27306D02*
X22744Y-27306D01*
X24422Y-27306D02*
X27685Y-27306D01*
X33811Y-27306D02*
X35372Y-27306D01*
X36656Y-27306D02*
X43032Y-27306D01*
X22558Y-27386D02*
X22744Y-27386D01*
X24422Y-27386D02*
X27730Y-27386D01*
X33891Y-27386D02*
X35372Y-27386D01*
X36656Y-27386D02*
X43032Y-27386D01*
X22558Y-27466D02*
X22744Y-27466D01*
X24422Y-27466D02*
X27781Y-27466D01*
X33971Y-27466D02*
X35372Y-27466D01*
X36656Y-27466D02*
X43032Y-27466D01*
X22558Y-27546D02*
X22744Y-27546D01*
X24422Y-27546D02*
X27781Y-27546D01*
X34039Y-27546D02*
X35372Y-27546D01*
X36656Y-27546D02*
X43032Y-27546D01*
X22558Y-27626D02*
X22744Y-27626D01*
X24422Y-27626D02*
X27781Y-27626D01*
X34080Y-27626D02*
X35405Y-27626D01*
X36622Y-27626D02*
X43032Y-27626D01*
X22558Y-27706D02*
X22744Y-27706D01*
X24422Y-27706D02*
X27781Y-27706D01*
X34096Y-27706D02*
X35479Y-27706D01*
X36549Y-27706D02*
X43032Y-27706D01*
X22558Y-27786D02*
X22744Y-27786D01*
X24421Y-27786D02*
X27781Y-27786D01*
X34097Y-27786D02*
X43032Y-27786D01*
X22558Y-27866D02*
X22777Y-27866D01*
X24388Y-27866D02*
X27781Y-27866D01*
X34097Y-27866D02*
X35443Y-27866D01*
X36468Y-27866D02*
X43032Y-27866D01*
X22558Y-27946D02*
X22852Y-27946D01*
X24314Y-27946D02*
X27781Y-27946D01*
X34097Y-27946D02*
X35351Y-27946D01*
X36560Y-27946D02*
X43032Y-27946D01*
X22558Y-28026D02*
X27781Y-28026D01*
X34097Y-28026D02*
X35318Y-28026D01*
X36593Y-28026D02*
X43032Y-28026D01*
X22558Y-28106D02*
X27781Y-28106D01*
X34097Y-28106D02*
X35313Y-28106D01*
X36597Y-28106D02*
X43032Y-28106D01*
X22558Y-28186D02*
X27781Y-28186D01*
X34097Y-28186D02*
X35313Y-28186D01*
X36597Y-28186D02*
X43032Y-28186D01*
X22558Y-28266D02*
X27781Y-28266D01*
X34097Y-28266D02*
X35313Y-28266D01*
X36597Y-28266D02*
X43032Y-28266D01*
X22558Y-28346D02*
X27781Y-28346D01*
X34097Y-28346D02*
X35313Y-28346D01*
X36597Y-28346D02*
X43032Y-28346D01*
X22558Y-28426D02*
X27788Y-28426D01*
X34097Y-28426D02*
X35313Y-28426D01*
X36597Y-28426D02*
X43032Y-28426D01*
X22558Y-28506D02*
X27809Y-28506D01*
X34097Y-28506D02*
X35313Y-28506D01*
X36597Y-28506D02*
X43032Y-28506D01*
X22558Y-28586D02*
X27862Y-28586D01*
X34097Y-28586D02*
X35336Y-28586D01*
X36573Y-28586D02*
X43032Y-28586D01*
X22558Y-28666D02*
X27941Y-28666D01*
X34097Y-28666D02*
X35396Y-28666D01*
X36514Y-28666D02*
X43032Y-28666D01*
X22558Y-28746D02*
X28021Y-28746D01*
X34097Y-28746D02*
X43032Y-28746D01*
X22558Y-28826D02*
X28101Y-28826D01*
X34097Y-28826D02*
X35460Y-28826D01*
X36412Y-28826D02*
X43032Y-28826D01*
X22558Y-28906D02*
X28181Y-28906D01*
X34097Y-28906D02*
X35345Y-28906D01*
X36525Y-28906D02*
X43032Y-28906D01*
X22558Y-28986D02*
X28261Y-28986D01*
X34097Y-28986D02*
X35304Y-28986D01*
X36567Y-28986D02*
X43032Y-28986D01*
X22558Y-29066D02*
X28341Y-29066D01*
X34097Y-29066D02*
X35293Y-29066D01*
X36577Y-29066D02*
X43032Y-29066D01*
X22558Y-29146D02*
X28421Y-29146D01*
X34097Y-29146D02*
X35293Y-29146D01*
X36577Y-29146D02*
X43032Y-29146D01*
X22558Y-29226D02*
X28501Y-29226D01*
X34097Y-29226D02*
X35293Y-29226D01*
X36577Y-29226D02*
X43032Y-29226D01*
X22558Y-29306D02*
X28581Y-29306D01*
X34097Y-29306D02*
X35293Y-29306D01*
X36577Y-29306D02*
X43032Y-29306D01*
X22558Y-29386D02*
X28661Y-29386D01*
X34097Y-29386D02*
X35293Y-29386D01*
X36577Y-29386D02*
X43032Y-29386D01*
X22558Y-29466D02*
X28741Y-29466D01*
X34097Y-29466D02*
X35293Y-29466D01*
X36577Y-29466D02*
X43032Y-29466D01*
X22558Y-29546D02*
X28821Y-29546D01*
X34097Y-29546D02*
X35310Y-29546D01*
X36559Y-29546D02*
X43032Y-29546D01*
X22558Y-29626D02*
X28901Y-29626D01*
X34097Y-29626D02*
X35361Y-29626D01*
X36509Y-29626D02*
X43032Y-29626D01*
X22558Y-29706D02*
X28981Y-29706D01*
X34097Y-29706D02*
X43032Y-29706D01*
X22558Y-29786D02*
X29061Y-29786D01*
X34097Y-29786D02*
X35503Y-29786D01*
X36388Y-29786D02*
X43032Y-29786D01*
X22558Y-29866D02*
X29141Y-29866D01*
X34097Y-29866D02*
X35369Y-29866D01*
X36521Y-29866D02*
X43032Y-29866D01*
X22558Y-29946D02*
X29221Y-29946D01*
X34097Y-29946D02*
X35320Y-29946D01*
X36571Y-29946D02*
X43032Y-29946D01*
X22558Y-30026D02*
X29301Y-30026D01*
X34097Y-30026D02*
X35303Y-30026D01*
X36587Y-30026D02*
X43032Y-30026D01*
X22558Y-30106D02*
X29381Y-30106D01*
X34097Y-30106D02*
X35303Y-30106D01*
X36587Y-30106D02*
X43032Y-30106D01*
X22558Y-30186D02*
X29461Y-30186D01*
X34097Y-30186D02*
X35303Y-30186D01*
X36587Y-30186D02*
X43032Y-30186D01*
X22558Y-30266D02*
X29541Y-30266D01*
X34097Y-30266D02*
X35303Y-30266D01*
X36587Y-30266D02*
X43032Y-30266D01*
X22558Y-30346D02*
X29621Y-30346D01*
X34097Y-30346D02*
X35303Y-30346D01*
X36587Y-30346D02*
X43032Y-30346D01*
X22558Y-30426D02*
X29705Y-30426D01*
X34097Y-30426D02*
X35303Y-30426D01*
X36587Y-30426D02*
X43032Y-30426D01*
X22558Y-30506D02*
X30860Y-30506D01*
X34097Y-30506D02*
X35314Y-30506D01*
X36575Y-30506D02*
X43032Y-30506D01*
X22558Y-30586D02*
X30740Y-30586D01*
X34097Y-30586D02*
X35336Y-30586D01*
X36555Y-30586D02*
X43032Y-30586D01*
X22558Y-30666D02*
X30697Y-30666D01*
X34097Y-30666D02*
X35303Y-30666D01*
X36587Y-30666D02*
X43032Y-30666D01*
X22558Y-30746D02*
X30684Y-30746D01*
X34097Y-30746D02*
X35303Y-30746D01*
X36587Y-30746D02*
X43032Y-30746D01*
X22558Y-30826D02*
X30684Y-30826D01*
X34097Y-30826D02*
X35303Y-30826D01*
X36587Y-30826D02*
X43032Y-30826D01*
X22558Y-30906D02*
X30684Y-30906D01*
X34097Y-30906D02*
X35303Y-30906D01*
X36587Y-30906D02*
X43032Y-30906D01*
X22558Y-30986D02*
X30684Y-30986D01*
X34097Y-30986D02*
X35303Y-30986D01*
X36587Y-30986D02*
X43032Y-30986D01*
X22558Y-31066D02*
X30684Y-31066D01*
X34094Y-31066D02*
X35303Y-31066D01*
X36587Y-31066D02*
X43032Y-31066D01*
X22558Y-31146D02*
X30699Y-31146D01*
X34078Y-31146D02*
X35303Y-31146D01*
X36587Y-31146D02*
X43032Y-31146D01*
X22558Y-31226D02*
X30748Y-31226D01*
X34034Y-31226D02*
X35331Y-31226D01*
X36558Y-31226D02*
X41771Y-31226D01*
X42325Y-31226D02*
X43032Y-31226D01*
X22558Y-31306D02*
X30768Y-31306D01*
X33966Y-31306D02*
X35398Y-31306D01*
X36492Y-31306D02*
X41641Y-31306D01*
X42456Y-31306D02*
X43032Y-31306D01*
X22558Y-31386D02*
X30776Y-31386D01*
X33886Y-31386D02*
X41561Y-31386D01*
X42536Y-31386D02*
X43032Y-31386D01*
X22558Y-31466D02*
X30796Y-31466D01*
X33806Y-31466D02*
X41494Y-31466D01*
X42603Y-31466D02*
X43032Y-31466D01*
X22558Y-31546D02*
X30850Y-31546D01*
X33726Y-31546D02*
X41461Y-31546D01*
X42636Y-31546D02*
X43032Y-31546D01*
X22558Y-31626D02*
X30929Y-31626D01*
X33646Y-31626D02*
X41427Y-31626D01*
X42669Y-31626D02*
X43032Y-31626D01*
X22558Y-31706D02*
X31009Y-31706D01*
X33566Y-31706D02*
X41405Y-31706D01*
X42691Y-31706D02*
X43032Y-31706D01*
X22558Y-31786D02*
X31119Y-31786D01*
X33455Y-31786D02*
X41405Y-31786D01*
X42691Y-31786D02*
X43032Y-31786D01*
X22558Y-31866D02*
X31974Y-31866D01*
X32989Y-31866D02*
X41405Y-31866D01*
X42691Y-31866D02*
X43032Y-31866D01*
X22558Y-31946D02*
X31940Y-31946D01*
X33022Y-31946D02*
X40657Y-31946D01*
X42686Y-31946D02*
X43032Y-31946D01*
X22558Y-32026D02*
X31937Y-32026D01*
X33025Y-32026D02*
X40575Y-32026D01*
X42653Y-32026D02*
X43032Y-32026D01*
X22558Y-32106D02*
X31937Y-32106D01*
X33025Y-32106D02*
X35827Y-32106D01*
X38663Y-32106D02*
X40542Y-32106D01*
X42619Y-32106D02*
X43032Y-32106D01*
X22558Y-32186D02*
X31937Y-32186D01*
X33025Y-32186D02*
X35775Y-32186D01*
X38716Y-32186D02*
X40539Y-32186D01*
X42577Y-32186D02*
X43032Y-32186D01*
X22558Y-32266D02*
X31937Y-32266D01*
X33025Y-32266D02*
X35756Y-32266D01*
X38734Y-32266D02*
X40539Y-32266D01*
X42497Y-32266D02*
X43032Y-32266D01*
X22558Y-32346D02*
X31937Y-32346D01*
X33025Y-32346D02*
X35756Y-32346D01*
X38734Y-32346D02*
X40539Y-32346D01*
X42417Y-32346D02*
X43032Y-32346D01*
X22558Y-32426D02*
X31937Y-32426D01*
X33025Y-32426D02*
X35756Y-32426D01*
X38734Y-32426D02*
X40539Y-32426D01*
X42232Y-32426D02*
X43032Y-32426D01*
X22558Y-32506D02*
X31961Y-32506D01*
X33000Y-32506D02*
X35756Y-32506D01*
X38734Y-32506D02*
X40539Y-32506D01*
X41903Y-32506D02*
X43032Y-32506D01*
X22558Y-32586D02*
X32023Y-32586D01*
X32939Y-32586D02*
X35756Y-32586D01*
X38734Y-32586D02*
X40539Y-32586D01*
X41903Y-32586D02*
X43032Y-32586D01*
X22558Y-32666D02*
X35756Y-32666D01*
X38734Y-32666D02*
X40539Y-32666D01*
X41903Y-32666D02*
X43032Y-32666D01*
X22558Y-32746D02*
X35756Y-32746D01*
X38734Y-32746D02*
X40565Y-32746D01*
X41876Y-32746D02*
X43032Y-32746D01*
X22558Y-32826D02*
X35756Y-32826D01*
X38734Y-32826D02*
X40629Y-32826D01*
X41813Y-32826D02*
X43032Y-32826D01*
X29288Y-26549D02*
X29288Y-26549D01*
X28889Y-26629D02*
X29368Y-26629D01*
X28969Y-26709D02*
X29448Y-26709D01*
X29041Y-26789D02*
X29528Y-26789D01*
X29090Y-26869D02*
X29608Y-26869D01*
X29106Y-26949D02*
X29688Y-26949D01*
X29109Y-27029D02*
X29768Y-27029D01*
X28496Y-27109D02*
X28529Y-27109D01*
X29109Y-27109D02*
X29848Y-27109D01*
X28496Y-27189D02*
X28529Y-27189D01*
X29109Y-27189D02*
X29928Y-27189D01*
X28471Y-27269D02*
X28529Y-27269D01*
X29109Y-27269D02*
X30008Y-27269D01*
X28438Y-27349D02*
X28529Y-27349D01*
X29109Y-27349D02*
X30088Y-27349D01*
X28369Y-27429D02*
X28529Y-27429D01*
X29109Y-27429D02*
X30168Y-27429D01*
X28361Y-27509D02*
X28529Y-27509D01*
X29109Y-27509D02*
X30277Y-27509D01*
X28361Y-27589D02*
X28529Y-27589D01*
X29109Y-27589D02*
X31095Y-27589D01*
X31708Y-27589D02*
X31959Y-27589D01*
X33002Y-27589D02*
X33273Y-27589D01*
X28361Y-27669D02*
X28529Y-27669D01*
X29109Y-27669D02*
X32017Y-27669D01*
X32945Y-27669D02*
X33353Y-27669D01*
X28361Y-27749D02*
X28529Y-27749D01*
X29109Y-27749D02*
X33433Y-27749D01*
X28361Y-27829D02*
X28529Y-27829D01*
X29109Y-27829D02*
X32133Y-27829D01*
X32831Y-27829D02*
X33513Y-27829D01*
X28361Y-27909D02*
X28529Y-27909D01*
X29145Y-27909D02*
X29425Y-27909D01*
X29975Y-27909D02*
X30025Y-27909D01*
X30575Y-27909D02*
X32001Y-27909D01*
X32961Y-27909D02*
X33517Y-27909D01*
X28361Y-27989D02*
X28529Y-27989D01*
X33010Y-27989D02*
X33517Y-27989D01*
X28361Y-28069D02*
X28544Y-28069D01*
X33025Y-28069D02*
X33517Y-28069D01*
X28361Y-28149D02*
X28581Y-28149D01*
X33025Y-28149D02*
X33517Y-28149D01*
X28361Y-28229D02*
X28645Y-28229D01*
X33025Y-28229D02*
X33517Y-28229D01*
X28404Y-28309D02*
X28725Y-28309D01*
X33025Y-28309D02*
X33517Y-28309D01*
X28484Y-28389D02*
X28805Y-28389D01*
X33025Y-28389D02*
X33517Y-28389D01*
X28564Y-28469D02*
X28885Y-28469D01*
X33025Y-28469D02*
X33517Y-28469D01*
X28644Y-28549D02*
X29048Y-28549D01*
X33012Y-28549D02*
X33517Y-28549D01*
X28724Y-28629D02*
X29427Y-28629D01*
X29972Y-28629D02*
X30010Y-28629D01*
X30590Y-28629D02*
X31993Y-28629D01*
X32969Y-28629D02*
X33517Y-28629D01*
X28804Y-28709D02*
X30010Y-28709D01*
X30590Y-28709D02*
X32112Y-28709D01*
X32849Y-28709D02*
X33517Y-28709D01*
X28884Y-28789D02*
X30010Y-28789D01*
X30590Y-28789D02*
X33517Y-28789D01*
X28964Y-28869D02*
X30010Y-28869D01*
X30590Y-28869D02*
X30701Y-28869D01*
X30842Y-28869D02*
X31018Y-28869D01*
X31160Y-28869D02*
X32026Y-28869D01*
X32427Y-28869D02*
X32535Y-28869D01*
X32936Y-28869D02*
X33517Y-28869D01*
X29044Y-28949D02*
X29999Y-28949D01*
X30880Y-28949D02*
X30980Y-28949D01*
X31261Y-28949D02*
X31964Y-28949D01*
X32431Y-28949D02*
X32531Y-28949D01*
X32999Y-28949D02*
X33517Y-28949D01*
X29124Y-29029D02*
X29963Y-29029D01*
X30880Y-29029D02*
X30980Y-29029D01*
X31298Y-29029D02*
X31937Y-29029D01*
X32431Y-29029D02*
X32531Y-29029D01*
X33026Y-29029D02*
X33517Y-29029D01*
X29204Y-29109D02*
X29956Y-29109D01*
X30880Y-29109D02*
X30980Y-29109D01*
X31304Y-29109D02*
X31937Y-29109D01*
X32431Y-29109D02*
X32531Y-29109D01*
X33026Y-29109D02*
X33517Y-29109D01*
X29284Y-29189D02*
X29956Y-29189D01*
X30880Y-29189D02*
X30980Y-29189D01*
X31256Y-29189D02*
X31979Y-29189D01*
X32431Y-29189D02*
X32531Y-29189D01*
X32983Y-29189D02*
X33517Y-29189D01*
X29364Y-29269D02*
X29956Y-29269D01*
X30880Y-29269D02*
X33517Y-29269D01*
X29444Y-29349D02*
X29956Y-29349D01*
X30880Y-29349D02*
X30980Y-29349D01*
X31290Y-29349D02*
X31957Y-29349D01*
X32431Y-29349D02*
X32531Y-29349D01*
X33005Y-29349D02*
X33517Y-29349D01*
X29524Y-29429D02*
X29956Y-29429D01*
X30880Y-29429D02*
X30980Y-29429D01*
X31304Y-29429D02*
X31936Y-29429D01*
X32431Y-29429D02*
X32531Y-29429D01*
X33025Y-29429D02*
X33517Y-29429D01*
X29604Y-29509D02*
X29977Y-29509D01*
X30880Y-29509D02*
X30980Y-29509D01*
X31283Y-29509D02*
X31939Y-29509D01*
X32431Y-29509D02*
X32531Y-29509D01*
X33022Y-29509D02*
X33517Y-29509D01*
X29684Y-29589D02*
X30033Y-29589D01*
X30625Y-29589D02*
X30633Y-29589D01*
X30880Y-29589D02*
X30980Y-29589D01*
X31227Y-29589D02*
X31972Y-29589D01*
X32431Y-29589D02*
X32531Y-29589D01*
X32989Y-29589D02*
X33517Y-29589D01*
X29764Y-29669D02*
X32052Y-29669D01*
X32405Y-29669D02*
X32557Y-29669D01*
X32909Y-29669D02*
X33517Y-29669D01*
X29844Y-29749D02*
X33517Y-29749D01*
X29924Y-29829D02*
X32020Y-29829D01*
X32942Y-29829D02*
X33517Y-29829D01*
X30004Y-29909D02*
X31960Y-29909D01*
X33002Y-29909D02*
X33517Y-29909D01*
X33025Y-29989D02*
X33517Y-29989D01*
X33025Y-30069D02*
X33517Y-30069D01*
X33025Y-30149D02*
X33517Y-30149D01*
X33025Y-30229D02*
X33517Y-30229D01*
X33025Y-30309D02*
X33517Y-30309D01*
X33025Y-30389D02*
X33517Y-30389D01*
X33020Y-30469D02*
X33517Y-30469D01*
X32989Y-30549D02*
X33517Y-30549D01*
X33023Y-30629D02*
X33517Y-30629D01*
X33025Y-30709D02*
X33517Y-30709D01*
X33025Y-30789D02*
X33517Y-30789D01*
X33025Y-30869D02*
X33517Y-30869D01*
X33025Y-30949D02*
X33503Y-30949D01*
X33025Y-31029D02*
X33423Y-31029D01*
X33025Y-31109D02*
X33343Y-31109D01*
X32999Y-31189D02*
X33263Y-31189D01*
X33025Y-25093D02*
X33517Y-25093D01*
X33025Y-25173D02*
X33517Y-25173D01*
X33025Y-25253D02*
X33517Y-25253D01*
X33025Y-25333D02*
X33517Y-25333D01*
X33025Y-25413D02*
X33517Y-25413D01*
X33025Y-25493D02*
X33517Y-25493D01*
X33022Y-25573D02*
X33517Y-25573D01*
X29994Y-25653D02*
X30004Y-25653D01*
X30595Y-25653D02*
X30672Y-25653D01*
X30854Y-25653D02*
X31006Y-25653D01*
X31189Y-25653D02*
X31966Y-25653D01*
X32996Y-25653D02*
X33517Y-25653D01*
X29691Y-25733D02*
X29992Y-25733D01*
X30880Y-25733D02*
X30980Y-25733D01*
X31269Y-25733D02*
X31937Y-25733D01*
X33025Y-25733D02*
X33517Y-25733D01*
X29611Y-25813D02*
X29958Y-25813D01*
X30880Y-25813D02*
X30980Y-25813D01*
X31303Y-25813D02*
X31937Y-25813D01*
X33025Y-25813D02*
X33517Y-25813D01*
X29531Y-25893D02*
X29956Y-25893D01*
X30880Y-25893D02*
X30980Y-25893D01*
X31304Y-25893D02*
X31937Y-25893D01*
X33025Y-25893D02*
X33517Y-25893D01*
X29451Y-25973D02*
X29956Y-25973D01*
X30880Y-25973D02*
X30980Y-25973D01*
X31244Y-25973D02*
X31937Y-25973D01*
X33025Y-25973D02*
X33517Y-25973D01*
X29612Y-26053D02*
X29956Y-26053D01*
X30704Y-26053D02*
X31937Y-26053D01*
X33025Y-26053D02*
X33517Y-26053D01*
X29692Y-26133D02*
X29956Y-26133D01*
X30880Y-26133D02*
X30980Y-26133D01*
X31302Y-26133D02*
X31937Y-26133D01*
X33025Y-26133D02*
X33517Y-26133D01*
X29772Y-26213D02*
X29956Y-26213D01*
X30880Y-26213D02*
X30980Y-26213D01*
X31304Y-26213D02*
X31937Y-26213D01*
X33025Y-26213D02*
X33517Y-26213D01*
X29852Y-26293D02*
X29982Y-26293D01*
X30880Y-26293D02*
X30980Y-26293D01*
X31297Y-26293D02*
X31507Y-26293D01*
X31624Y-26293D02*
X31968Y-26293D01*
X32992Y-26293D02*
X33517Y-26293D01*
X29932Y-26373D02*
X30045Y-26373D01*
X30613Y-26373D02*
X30645Y-26373D01*
X30876Y-26373D02*
X30984Y-26373D01*
X31352Y-26373D02*
X31452Y-26373D01*
X31748Y-26373D02*
X31938Y-26373D01*
X33025Y-26373D02*
X33517Y-26373D01*
X30012Y-26453D02*
X31010Y-26453D01*
X31352Y-26453D02*
X31452Y-26453D01*
X31794Y-26453D02*
X31937Y-26453D01*
X33026Y-26453D02*
X33517Y-26453D01*
X30092Y-26533D02*
X30996Y-26533D01*
X31352Y-26533D02*
X31452Y-26533D01*
X31809Y-26533D02*
X31961Y-26533D01*
X33001Y-26533D02*
X33517Y-26533D01*
X30172Y-26613D02*
X33517Y-26613D01*
X30252Y-26693D02*
X31975Y-26693D01*
X32431Y-26693D02*
X32531Y-26693D01*
X32987Y-26693D02*
X33517Y-26693D01*
X30332Y-26773D02*
X30995Y-26773D01*
X31809Y-26773D02*
X31936Y-26773D01*
X32431Y-26773D02*
X32531Y-26773D01*
X33025Y-26773D02*
X33490Y-26773D01*
X30412Y-26853D02*
X31003Y-26853D01*
X31800Y-26853D02*
X31936Y-26853D01*
X33025Y-26853D02*
X33410Y-26853D01*
X30492Y-26933D02*
X31039Y-26933D01*
X31763Y-26933D02*
X31964Y-26933D01*
X32996Y-26933D02*
X33330Y-26933D01*
X27916Y-21629D02*
X30747Y-21629D01*
X27952Y-21709D02*
X30827Y-21709D01*
X27957Y-21789D02*
X30907Y-21789D01*
X27906Y-21869D02*
X30987Y-21869D01*
X27533Y-21949D02*
X31067Y-21949D01*
X27533Y-22029D02*
X27633Y-22029D01*
X27946Y-22029D02*
X31131Y-22029D01*
X27533Y-22109D02*
X27633Y-22109D01*
X27957Y-22109D02*
X31131Y-22109D01*
X27533Y-22189D02*
X27633Y-22189D01*
X27934Y-22189D02*
X31131Y-22189D01*
X27276Y-22269D02*
X27289Y-22269D01*
X27533Y-22269D02*
X27633Y-22269D01*
X27877Y-22269D02*
X31131Y-22269D01*
X27273Y-22349D02*
X31131Y-22349D01*
X27273Y-22429D02*
X27982Y-22429D01*
X28323Y-22429D02*
X28423Y-22429D01*
X28764Y-22429D02*
X28985Y-22429D01*
X29439Y-22429D02*
X31131Y-22429D01*
X27273Y-22509D02*
X27923Y-22509D01*
X28323Y-22509D02*
X28423Y-22509D01*
X28824Y-22509D02*
X28897Y-22509D01*
X29527Y-22509D02*
X31052Y-22509D01*
X27273Y-22589D02*
X27899Y-22589D01*
X28323Y-22589D02*
X28423Y-22589D01*
X29587Y-22589D02*
X31018Y-22589D01*
X27273Y-22669D02*
X28423Y-22669D01*
X29620Y-22669D02*
X31015Y-22669D01*
X27273Y-22749D02*
X28423Y-22749D01*
X29637Y-22749D02*
X31015Y-22749D01*
X27273Y-22829D02*
X27898Y-22829D01*
X29637Y-22829D02*
X31015Y-22829D01*
X27273Y-22909D02*
X27917Y-22909D01*
X29624Y-22909D02*
X31015Y-22909D01*
X27273Y-22989D02*
X27931Y-22989D01*
X29591Y-22989D02*
X31033Y-22989D01*
X27273Y-23069D02*
X27899Y-23069D01*
X30113Y-23069D02*
X31085Y-23069D01*
X27273Y-23149D02*
X27899Y-23149D01*
X30232Y-23149D02*
X31035Y-23149D01*
X27273Y-23229D02*
X27899Y-23229D01*
X30276Y-23229D02*
X31015Y-23229D01*
X27273Y-23309D02*
X27899Y-23309D01*
X30288Y-23309D02*
X31015Y-23309D01*
X27273Y-23389D02*
X27909Y-23389D01*
X30288Y-23389D02*
X31015Y-23389D01*
X27273Y-23469D02*
X27941Y-23469D01*
X30288Y-23469D02*
X31015Y-23469D01*
X27273Y-23549D02*
X27906Y-23549D01*
X30288Y-23549D02*
X31016Y-23549D01*
X27273Y-23629D02*
X27899Y-23629D01*
X30288Y-23629D02*
X31049Y-23629D01*
X27273Y-23709D02*
X27899Y-23709D01*
X30287Y-23709D02*
X30672Y-23709D01*
X27273Y-23789D02*
X27899Y-23789D01*
X30254Y-23789D02*
X30611Y-23789D01*
X24283Y-23869D02*
X25106Y-23869D01*
X27273Y-23869D02*
X27901Y-23869D01*
X30202Y-23869D02*
X30586Y-23869D01*
X24310Y-23949D02*
X25106Y-23949D01*
X27273Y-23949D02*
X27934Y-23949D01*
X30264Y-23949D02*
X30586Y-23949D01*
X24611Y-24029D02*
X25106Y-24029D01*
X27267Y-24029D02*
X27915Y-24029D01*
X30288Y-24029D02*
X30521Y-24029D01*
X24718Y-24109D02*
X25106Y-24109D01*
X27251Y-24109D02*
X27899Y-24109D01*
X30288Y-24109D02*
X30441Y-24109D01*
X24798Y-24189D02*
X25106Y-24189D01*
X27199Y-24189D02*
X27899Y-24189D01*
X30288Y-24189D02*
X30361Y-24189D01*
X24878Y-24269D02*
X25128Y-24269D01*
X27125Y-24269D02*
X27899Y-24269D01*
X24958Y-24349D02*
X25187Y-24349D01*
X27045Y-24349D02*
X27899Y-24349D01*
X25038Y-24429D02*
X25439Y-24429D01*
X26960Y-24429D02*
X27925Y-24429D01*
X25118Y-24509D02*
X25889Y-24509D01*
X26656Y-24509D02*
X27990Y-24509D01*
X25198Y-24589D02*
X29317Y-24589D01*
X29320Y-24592D02*
X29278Y-24549D01*
X29267Y-24523D01*
X28741Y-24523D01*
X28739Y-24526D01*
X28647Y-24564D01*
X28098Y-24564D01*
X28007Y-24526D01*
X27937Y-24456D01*
X27899Y-24364D01*
X27899Y-24065D01*
X27937Y-23974D01*
X27945Y-23964D01*
X27937Y-23956D01*
X27899Y-23864D01*
X27899Y-23565D01*
X27937Y-23474D01*
X27945Y-23464D01*
X27937Y-23456D01*
X27899Y-23364D01*
X27899Y-23065D01*
X27937Y-22974D01*
X27945Y-22964D01*
X27937Y-22956D01*
X27899Y-22864D01*
X27898Y-22827D01*
X27960Y-22765D01*
X27960Y-22665D01*
X27898Y-22603D01*
X27899Y-22566D01*
X27937Y-22474D01*
X28007Y-22404D01*
X28098Y-22366D01*
X28197Y-22366D01*
X28261Y-22365D01*
X28323Y-22427D01*
X28323Y-22665D01*
X27960Y-22665D01*
X27960Y-22765D01*
X28323Y-22765D01*
X28423Y-22765D01*
X28423Y-22665D01*
X28423Y-22427D01*
X28485Y-22365D01*
X28549Y-22366D01*
X28648Y-22366D01*
X28739Y-22404D01*
X28809Y-22474D01*
X28847Y-22566D01*
X28852Y-22554D01*
X28972Y-22434D01*
X29128Y-22370D01*
X29297Y-22370D01*
X29453Y-22435D01*
X29573Y-22555D01*
X29637Y-22711D01*
X29637Y-22880D01*
X29572Y-23036D01*
X29549Y-23059D01*
X30089Y-23059D01*
X30180Y-23097D01*
X30250Y-23167D01*
X30288Y-23259D01*
X30288Y-23708D01*
X30250Y-23799D01*
X30190Y-23857D01*
X30250Y-23917D01*
X30288Y-24009D01*
X30288Y-24262D01*
X30586Y-23964D01*
X30586Y-23848D01*
X30624Y-23757D01*
X30694Y-23687D01*
X30786Y-23649D01*
X31065Y-23649D01*
X31053Y-23637D01*
X31015Y-23545D01*
X31015Y-23196D01*
X31053Y-23105D01*
X31086Y-23070D01*
X31053Y-23037D01*
X31015Y-22945D01*
X31015Y-22596D01*
X31053Y-22505D01*
X31123Y-22435D01*
X31131Y-22431D01*
X31131Y-22013D01*
X30747Y-21629D01*
X27916Y-21629D01*
X27919Y-21631D01*
X27957Y-21722D01*
X27957Y-21818D01*
X27896Y-21879D01*
X27633Y-21879D01*
X27533Y-21879D01*
X27533Y-21979D01*
X27533Y-22274D01*
X27471Y-22336D01*
X27409Y-22335D01*
X27317Y-22297D01*
X27282Y-22262D01*
X27273Y-22273D01*
X27273Y-24001D01*
X27251Y-24112D01*
X27188Y-24207D01*
X26974Y-24420D01*
X26880Y-24483D01*
X26769Y-24505D01*
X26660Y-24505D01*
X26639Y-24526D01*
X26547Y-24564D01*
X25998Y-24564D01*
X25907Y-24526D01*
X25885Y-24505D01*
X25632Y-24505D01*
X25521Y-24483D01*
X25488Y-24461D01*
X25426Y-24420D01*
X25420Y-24414D01*
X25305Y-24414D01*
X25214Y-24376D01*
X25144Y-24306D01*
X25106Y-24214D01*
X25106Y-23865D01*
X25136Y-23793D01*
X24352Y-23793D01*
X24347Y-23806D01*
X24256Y-23896D01*
X24348Y-23987D01*
X24353Y-24000D01*
X24489Y-24000D01*
X24600Y-24022D01*
X24694Y-24085D01*
X25201Y-24592D01*
X27695Y-24592D01*
X27695Y-22336D01*
X27633Y-22274D01*
X27633Y-21979D01*
X27896Y-21979D01*
X27957Y-22040D01*
X27957Y-22136D01*
X27919Y-22227D01*
X27849Y-22297D01*
X27757Y-22335D01*
X27695Y-22336D01*
X27695Y-24592D01*
X29320Y-24592D01*
M02*
