G04 (created by PCBNEW-RS274X (2010-05-05 BZR 2356)-stable) date 3/07/2011 4:58:35 p.m.*
G01*
G70*
G90*
%MOIN*%
G04 Gerber Fmt 3.4, Leading zero omitted, Abs format*
%FSLAX34Y34*%
G04 APERTURE LIST*
%ADD10C,0.006000*%
%ADD11C,0.015000*%
%ADD12C,0.005000*%
%ADD13C,0.012000*%
%ADD14C,0.003900*%
G04 APERTURE END LIST*
G54D10*
G54D11*
X43307Y-33111D02*
X43307Y-20552D01*
X22283Y-33150D02*
X43307Y-33150D01*
X22283Y-20551D02*
X22283Y-33150D01*
X43307Y-20551D02*
X22283Y-20551D01*
G54D12*
X24567Y-21141D02*
X24567Y-22716D01*
X22599Y-22716D02*
X22599Y-21141D01*
X24567Y-23503D02*
X24567Y-22715D01*
X22599Y-23503D02*
X22599Y-22715D01*
X24567Y-23503D02*
X24567Y-28227D01*
X24567Y-28227D02*
X22599Y-28227D01*
X22599Y-28227D02*
X22599Y-23503D01*
X22599Y-21140D02*
X24567Y-21140D01*
G54D11*
X32933Y-32673D02*
X32933Y-21147D01*
X32933Y-21147D02*
X44174Y-21147D01*
X44174Y-21147D02*
X44174Y-32653D01*
X44174Y-32653D02*
X32933Y-32653D01*
G54D12*
X26535Y-21693D02*
X25531Y-21693D01*
X25511Y-22165D02*
X26535Y-22165D01*
X26535Y-22165D02*
X26535Y-21693D01*
X25522Y-22161D02*
X25522Y-21701D01*
X30748Y-24291D02*
X31752Y-24291D01*
X31772Y-23819D02*
X30748Y-23819D01*
X30748Y-23819D02*
X30748Y-24291D01*
X31761Y-23823D02*
X31761Y-24283D01*
X29488Y-25551D02*
X30492Y-25551D01*
X30512Y-25079D02*
X29488Y-25079D01*
X29488Y-25079D02*
X29488Y-25551D01*
X30501Y-25083D02*
X30501Y-25543D01*
X29488Y-28504D02*
X30492Y-28504D01*
X30512Y-28032D02*
X29488Y-28032D01*
X29488Y-28032D02*
X29488Y-28504D01*
X30501Y-28036D02*
X30501Y-28496D01*
X25748Y-24252D02*
X25748Y-23248D01*
X25276Y-23228D02*
X25276Y-24252D01*
X25276Y-24252D02*
X25748Y-24252D01*
X25280Y-23239D02*
X25740Y-23239D01*
X30118Y-29488D02*
X31122Y-29488D01*
X31142Y-29016D02*
X30118Y-29016D01*
X30118Y-29016D02*
X30118Y-29488D01*
X31131Y-29020D02*
X31131Y-29480D01*
X30118Y-26260D02*
X31122Y-26260D01*
X31142Y-25788D02*
X30118Y-25788D01*
X30118Y-25788D02*
X30118Y-26260D01*
X31131Y-25792D02*
X31131Y-26252D01*
X31185Y-22559D02*
X31185Y-23563D01*
X31657Y-23583D02*
X31657Y-22559D01*
X31657Y-22559D02*
X31185Y-22559D01*
X31653Y-23572D02*
X31193Y-23572D01*
X30846Y-31138D02*
X31850Y-31138D01*
X31870Y-30666D02*
X30846Y-30666D01*
X30846Y-30666D02*
X30846Y-31138D01*
X31859Y-30670D02*
X31859Y-31130D01*
X31638Y-27473D02*
X31638Y-26469D01*
X31166Y-26449D02*
X31166Y-27473D01*
X31166Y-27473D02*
X31638Y-27473D01*
X31170Y-26460D02*
X31630Y-26460D01*
X31772Y-24567D02*
X30768Y-24567D01*
X30748Y-25039D02*
X31772Y-25039D01*
X31772Y-25039D02*
X31772Y-24567D01*
X30759Y-25035D02*
X30759Y-24575D01*
X26771Y-22165D02*
X27775Y-22165D01*
X27795Y-21693D02*
X26771Y-21693D01*
X26771Y-21693D02*
X26771Y-22165D01*
X27784Y-21697D02*
X27784Y-22157D01*
X29514Y-23208D02*
X29513Y-23217D01*
X29510Y-23227D01*
X29505Y-23235D01*
X29499Y-23243D01*
X29491Y-23249D01*
X29483Y-23254D01*
X29474Y-23256D01*
X29464Y-23257D01*
X29455Y-23257D01*
X29446Y-23254D01*
X29437Y-23249D01*
X29430Y-23243D01*
X29423Y-23236D01*
X29419Y-23227D01*
X29416Y-23218D01*
X29415Y-23208D01*
X29415Y-23199D01*
X29418Y-23190D01*
X29422Y-23181D01*
X29429Y-23174D01*
X29436Y-23167D01*
X29444Y-23163D01*
X29454Y-23160D01*
X29463Y-23159D01*
X29472Y-23159D01*
X29482Y-23162D01*
X29490Y-23166D01*
X29498Y-23172D01*
X29504Y-23180D01*
X29509Y-23188D01*
X29512Y-23197D01*
X29513Y-23207D01*
X29514Y-23208D01*
X29464Y-23658D02*
X29464Y-23258D01*
X29464Y-23258D02*
X30064Y-23258D01*
X30064Y-23258D02*
X30064Y-23658D01*
X30064Y-24058D02*
X30064Y-24458D01*
X30064Y-24458D02*
X29464Y-24458D01*
X29464Y-24458D02*
X29464Y-24058D01*
X28023Y-24515D02*
X28073Y-24515D01*
X28073Y-24515D02*
X28073Y-22415D01*
X26573Y-22415D02*
X26573Y-24515D01*
X26573Y-24515D02*
X28023Y-24515D01*
X27123Y-24515D02*
X27123Y-24315D01*
X27123Y-24315D02*
X27523Y-24315D01*
X27523Y-24315D02*
X27523Y-24515D01*
X26573Y-22415D02*
X28073Y-22415D01*
G54D10*
X23288Y-26130D02*
X23878Y-26130D01*
X23288Y-25600D02*
X23878Y-25600D01*
X23878Y-26130D02*
X23901Y-26128D01*
X23924Y-26125D01*
X23946Y-26120D01*
X23968Y-26114D01*
X23989Y-26105D01*
X24010Y-26094D01*
X24029Y-26082D01*
X24048Y-26068D01*
X24065Y-26052D01*
X24081Y-26035D01*
X24095Y-26016D01*
X24107Y-25997D01*
X24118Y-25976D01*
X24127Y-25955D01*
X24133Y-25933D01*
X24138Y-25911D01*
X24141Y-25888D01*
X24143Y-25865D01*
X24141Y-25842D01*
X24138Y-25819D01*
X24133Y-25797D01*
X24127Y-25775D01*
X24118Y-25754D01*
X24107Y-25733D01*
X24095Y-25714D01*
X24081Y-25695D01*
X24065Y-25678D01*
X24048Y-25662D01*
X24029Y-25648D01*
X24010Y-25636D01*
X23989Y-25625D01*
X23968Y-25616D01*
X23946Y-25610D01*
X23924Y-25605D01*
X23901Y-25602D01*
X23878Y-25600D01*
X23288Y-25600D02*
X23265Y-25602D01*
X23242Y-25605D01*
X23220Y-25610D01*
X23198Y-25616D01*
X23177Y-25625D01*
X23156Y-25636D01*
X23137Y-25648D01*
X23118Y-25662D01*
X23101Y-25678D01*
X23085Y-25695D01*
X23071Y-25714D01*
X23059Y-25733D01*
X23048Y-25754D01*
X23039Y-25775D01*
X23033Y-25797D01*
X23028Y-25819D01*
X23025Y-25842D01*
X23023Y-25865D01*
X23025Y-25888D01*
X23028Y-25911D01*
X23033Y-25933D01*
X23039Y-25955D01*
X23048Y-25976D01*
X23059Y-25997D01*
X23071Y-26016D01*
X23085Y-26035D01*
X23101Y-26052D01*
X23118Y-26068D01*
X23137Y-26082D01*
X23156Y-26094D01*
X23177Y-26105D01*
X23198Y-26114D01*
X23220Y-26120D01*
X23242Y-26125D01*
X23265Y-26128D01*
X23288Y-26130D01*
X23288Y-26917D02*
X23878Y-26917D01*
X23288Y-26387D02*
X23878Y-26387D01*
X23878Y-26917D02*
X23901Y-26915D01*
X23924Y-26912D01*
X23946Y-26907D01*
X23968Y-26901D01*
X23989Y-26892D01*
X24010Y-26881D01*
X24029Y-26869D01*
X24048Y-26855D01*
X24065Y-26839D01*
X24081Y-26822D01*
X24095Y-26803D01*
X24107Y-26784D01*
X24118Y-26763D01*
X24127Y-26742D01*
X24133Y-26720D01*
X24138Y-26698D01*
X24141Y-26675D01*
X24143Y-26652D01*
X24141Y-26629D01*
X24138Y-26606D01*
X24133Y-26584D01*
X24127Y-26562D01*
X24118Y-26541D01*
X24107Y-26520D01*
X24095Y-26501D01*
X24081Y-26482D01*
X24065Y-26465D01*
X24048Y-26449D01*
X24029Y-26435D01*
X24010Y-26423D01*
X23989Y-26412D01*
X23968Y-26403D01*
X23946Y-26397D01*
X23924Y-26392D01*
X23901Y-26389D01*
X23878Y-26387D01*
X23288Y-26387D02*
X23265Y-26389D01*
X23242Y-26392D01*
X23220Y-26397D01*
X23198Y-26403D01*
X23177Y-26412D01*
X23156Y-26423D01*
X23137Y-26435D01*
X23118Y-26449D01*
X23101Y-26465D01*
X23085Y-26482D01*
X23071Y-26501D01*
X23059Y-26520D01*
X23048Y-26541D01*
X23039Y-26562D01*
X23033Y-26584D01*
X23028Y-26606D01*
X23025Y-26629D01*
X23023Y-26652D01*
X23025Y-26675D01*
X23028Y-26698D01*
X23033Y-26720D01*
X23039Y-26742D01*
X23048Y-26763D01*
X23059Y-26784D01*
X23071Y-26803D01*
X23085Y-26822D01*
X23101Y-26839D01*
X23118Y-26855D01*
X23137Y-26869D01*
X23156Y-26881D01*
X23177Y-26892D01*
X23198Y-26901D01*
X23220Y-26907D01*
X23242Y-26912D01*
X23265Y-26915D01*
X23288Y-26917D01*
X23023Y-27175D02*
X23023Y-27705D01*
X24143Y-27705D01*
X24143Y-27175D01*
X23023Y-27175D01*
X23288Y-25343D02*
X23878Y-25343D01*
X23288Y-24813D02*
X23878Y-24813D01*
X23878Y-25343D02*
X23901Y-25341D01*
X23924Y-25338D01*
X23946Y-25333D01*
X23968Y-25327D01*
X23989Y-25318D01*
X24010Y-25307D01*
X24029Y-25295D01*
X24048Y-25281D01*
X24065Y-25265D01*
X24081Y-25248D01*
X24095Y-25229D01*
X24107Y-25210D01*
X24118Y-25189D01*
X24127Y-25168D01*
X24133Y-25146D01*
X24138Y-25124D01*
X24141Y-25101D01*
X24143Y-25078D01*
X24141Y-25055D01*
X24138Y-25032D01*
X24133Y-25010D01*
X24127Y-24988D01*
X24118Y-24967D01*
X24107Y-24946D01*
X24095Y-24927D01*
X24081Y-24908D01*
X24065Y-24891D01*
X24048Y-24875D01*
X24029Y-24861D01*
X24010Y-24849D01*
X23989Y-24838D01*
X23968Y-24829D01*
X23946Y-24823D01*
X23924Y-24818D01*
X23901Y-24815D01*
X23878Y-24813D01*
X23288Y-24813D02*
X23265Y-24815D01*
X23242Y-24818D01*
X23220Y-24823D01*
X23198Y-24829D01*
X23177Y-24838D01*
X23156Y-24849D01*
X23137Y-24861D01*
X23118Y-24875D01*
X23101Y-24891D01*
X23085Y-24908D01*
X23071Y-24927D01*
X23059Y-24946D01*
X23048Y-24967D01*
X23039Y-24988D01*
X23033Y-25010D01*
X23028Y-25032D01*
X23025Y-25055D01*
X23023Y-25078D01*
X23025Y-25101D01*
X23028Y-25124D01*
X23033Y-25146D01*
X23039Y-25168D01*
X23048Y-25189D01*
X23059Y-25210D01*
X23071Y-25229D01*
X23085Y-25248D01*
X23101Y-25265D01*
X23118Y-25281D01*
X23137Y-25295D01*
X23156Y-25307D01*
X23177Y-25318D01*
X23198Y-25327D01*
X23220Y-25333D01*
X23242Y-25338D01*
X23265Y-25341D01*
X23288Y-25343D01*
X23288Y-24555D02*
X23878Y-24555D01*
X23288Y-24025D02*
X23878Y-24025D01*
X23878Y-24555D02*
X23901Y-24553D01*
X23924Y-24550D01*
X23946Y-24545D01*
X23968Y-24539D01*
X23989Y-24530D01*
X24010Y-24519D01*
X24029Y-24507D01*
X24048Y-24493D01*
X24065Y-24477D01*
X24081Y-24460D01*
X24095Y-24441D01*
X24107Y-24422D01*
X24118Y-24401D01*
X24127Y-24380D01*
X24133Y-24358D01*
X24138Y-24336D01*
X24141Y-24313D01*
X24143Y-24290D01*
X24141Y-24267D01*
X24138Y-24244D01*
X24133Y-24222D01*
X24127Y-24200D01*
X24118Y-24179D01*
X24107Y-24158D01*
X24095Y-24139D01*
X24081Y-24120D01*
X24065Y-24103D01*
X24048Y-24087D01*
X24029Y-24073D01*
X24010Y-24061D01*
X23989Y-24050D01*
X23968Y-24041D01*
X23946Y-24035D01*
X23924Y-24030D01*
X23901Y-24027D01*
X23878Y-24025D01*
X23288Y-24025D02*
X23265Y-24027D01*
X23242Y-24030D01*
X23220Y-24035D01*
X23198Y-24041D01*
X23177Y-24050D01*
X23156Y-24061D01*
X23137Y-24073D01*
X23118Y-24087D01*
X23101Y-24103D01*
X23085Y-24120D01*
X23071Y-24139D01*
X23059Y-24158D01*
X23048Y-24179D01*
X23039Y-24200D01*
X23033Y-24222D01*
X23028Y-24244D01*
X23025Y-24267D01*
X23023Y-24290D01*
X23025Y-24313D01*
X23028Y-24336D01*
X23033Y-24358D01*
X23039Y-24380D01*
X23048Y-24401D01*
X23059Y-24422D01*
X23071Y-24441D01*
X23085Y-24460D01*
X23101Y-24477D01*
X23118Y-24493D01*
X23137Y-24507D01*
X23156Y-24519D01*
X23177Y-24530D01*
X23198Y-24539D01*
X23220Y-24545D01*
X23242Y-24550D01*
X23265Y-24553D01*
X23288Y-24555D01*
X23288Y-23768D02*
X23878Y-23768D01*
X23288Y-23238D02*
X23878Y-23238D01*
X23878Y-23768D02*
X23901Y-23766D01*
X23924Y-23763D01*
X23946Y-23758D01*
X23968Y-23752D01*
X23989Y-23743D01*
X24010Y-23732D01*
X24029Y-23720D01*
X24048Y-23706D01*
X24065Y-23690D01*
X24081Y-23673D01*
X24095Y-23654D01*
X24107Y-23635D01*
X24118Y-23614D01*
X24127Y-23593D01*
X24133Y-23571D01*
X24138Y-23549D01*
X24141Y-23526D01*
X24143Y-23503D01*
X24141Y-23480D01*
X24138Y-23457D01*
X24133Y-23435D01*
X24127Y-23413D01*
X24118Y-23392D01*
X24107Y-23371D01*
X24095Y-23352D01*
X24081Y-23333D01*
X24065Y-23316D01*
X24048Y-23300D01*
X24029Y-23286D01*
X24010Y-23274D01*
X23989Y-23263D01*
X23968Y-23254D01*
X23946Y-23248D01*
X23924Y-23243D01*
X23901Y-23240D01*
X23878Y-23238D01*
X23288Y-23238D02*
X23265Y-23240D01*
X23242Y-23243D01*
X23220Y-23248D01*
X23198Y-23254D01*
X23177Y-23263D01*
X23156Y-23274D01*
X23137Y-23286D01*
X23118Y-23300D01*
X23101Y-23316D01*
X23085Y-23333D01*
X23071Y-23352D01*
X23059Y-23371D01*
X23048Y-23392D01*
X23039Y-23413D01*
X23033Y-23435D01*
X23028Y-23457D01*
X23025Y-23480D01*
X23023Y-23503D01*
X23025Y-23526D01*
X23028Y-23549D01*
X23033Y-23571D01*
X23039Y-23593D01*
X23048Y-23614D01*
X23059Y-23635D01*
X23071Y-23654D01*
X23085Y-23673D01*
X23101Y-23690D01*
X23118Y-23706D01*
X23137Y-23720D01*
X23156Y-23732D01*
X23177Y-23743D01*
X23198Y-23752D01*
X23220Y-23758D01*
X23242Y-23763D01*
X23265Y-23766D01*
X23288Y-23768D01*
X23288Y-22981D02*
X23878Y-22981D01*
X23288Y-22451D02*
X23878Y-22451D01*
X23878Y-22981D02*
X23901Y-22979D01*
X23924Y-22976D01*
X23946Y-22971D01*
X23968Y-22965D01*
X23989Y-22956D01*
X24010Y-22945D01*
X24029Y-22933D01*
X24048Y-22919D01*
X24065Y-22903D01*
X24081Y-22886D01*
X24095Y-22867D01*
X24107Y-22848D01*
X24118Y-22827D01*
X24127Y-22806D01*
X24133Y-22784D01*
X24138Y-22762D01*
X24141Y-22739D01*
X24143Y-22716D01*
X24141Y-22693D01*
X24138Y-22670D01*
X24133Y-22648D01*
X24127Y-22626D01*
X24118Y-22605D01*
X24107Y-22584D01*
X24095Y-22565D01*
X24081Y-22546D01*
X24065Y-22529D01*
X24048Y-22513D01*
X24029Y-22499D01*
X24010Y-22487D01*
X23989Y-22476D01*
X23968Y-22467D01*
X23946Y-22461D01*
X23924Y-22456D01*
X23901Y-22453D01*
X23878Y-22451D01*
X23288Y-22451D02*
X23265Y-22453D01*
X23242Y-22456D01*
X23220Y-22461D01*
X23198Y-22467D01*
X23177Y-22476D01*
X23156Y-22487D01*
X23137Y-22499D01*
X23118Y-22513D01*
X23101Y-22529D01*
X23085Y-22546D01*
X23071Y-22565D01*
X23059Y-22584D01*
X23048Y-22605D01*
X23039Y-22626D01*
X23033Y-22648D01*
X23028Y-22670D01*
X23025Y-22693D01*
X23023Y-22716D01*
X23025Y-22739D01*
X23028Y-22762D01*
X23033Y-22784D01*
X23039Y-22806D01*
X23048Y-22827D01*
X23059Y-22848D01*
X23071Y-22867D01*
X23085Y-22886D01*
X23101Y-22903D01*
X23118Y-22919D01*
X23137Y-22933D01*
X23156Y-22945D01*
X23177Y-22956D01*
X23198Y-22965D01*
X23220Y-22971D01*
X23242Y-22976D01*
X23265Y-22979D01*
X23288Y-22981D01*
X23288Y-22194D02*
X23878Y-22194D01*
X23288Y-21664D02*
X23878Y-21664D01*
X23878Y-22194D02*
X23901Y-22192D01*
X23924Y-22189D01*
X23946Y-22184D01*
X23968Y-22178D01*
X23989Y-22169D01*
X24010Y-22158D01*
X24029Y-22146D01*
X24048Y-22132D01*
X24065Y-22116D01*
X24081Y-22099D01*
X24095Y-22080D01*
X24107Y-22061D01*
X24118Y-22040D01*
X24127Y-22019D01*
X24133Y-21997D01*
X24138Y-21975D01*
X24141Y-21952D01*
X24143Y-21929D01*
X24141Y-21906D01*
X24138Y-21883D01*
X24133Y-21861D01*
X24127Y-21839D01*
X24118Y-21818D01*
X24107Y-21797D01*
X24095Y-21778D01*
X24081Y-21759D01*
X24065Y-21742D01*
X24048Y-21726D01*
X24029Y-21712D01*
X24010Y-21700D01*
X23989Y-21689D01*
X23968Y-21680D01*
X23946Y-21674D01*
X23924Y-21669D01*
X23901Y-21666D01*
X23878Y-21664D01*
X23288Y-21664D02*
X23265Y-21666D01*
X23242Y-21669D01*
X23220Y-21674D01*
X23198Y-21680D01*
X23177Y-21689D01*
X23156Y-21700D01*
X23137Y-21712D01*
X23118Y-21726D01*
X23101Y-21742D01*
X23085Y-21759D01*
X23071Y-21778D01*
X23059Y-21797D01*
X23048Y-21818D01*
X23039Y-21839D01*
X23033Y-21861D01*
X23028Y-21883D01*
X23025Y-21906D01*
X23023Y-21929D01*
X23025Y-21952D01*
X23028Y-21975D01*
X23033Y-21997D01*
X23039Y-22019D01*
X23048Y-22040D01*
X23059Y-22061D01*
X23071Y-22080D01*
X23085Y-22099D01*
X23101Y-22116D01*
X23118Y-22132D01*
X23137Y-22146D01*
X23156Y-22158D01*
X23177Y-22169D01*
X23198Y-22178D01*
X23220Y-22184D01*
X23242Y-22189D01*
X23265Y-22192D01*
X23288Y-22194D01*
X42411Y-31807D02*
X42404Y-31877D01*
X42383Y-31945D01*
X42350Y-32007D01*
X42305Y-32062D01*
X42250Y-32107D01*
X42188Y-32141D01*
X42120Y-32162D01*
X42050Y-32169D01*
X41980Y-32163D01*
X41913Y-32143D01*
X41850Y-32110D01*
X41795Y-32066D01*
X41749Y-32012D01*
X41715Y-31950D01*
X41693Y-31882D01*
X41686Y-31812D01*
X41691Y-31742D01*
X41711Y-31674D01*
X41743Y-31611D01*
X41787Y-31555D01*
X41841Y-31509D01*
X41903Y-31475D01*
X41971Y-31453D01*
X42041Y-31445D01*
X42111Y-31450D01*
X42179Y-31469D01*
X42242Y-31501D01*
X42298Y-31545D01*
X42344Y-31598D01*
X42379Y-31660D01*
X42401Y-31727D01*
X42410Y-31797D01*
X42411Y-31807D01*
X42411Y-22279D02*
X42404Y-22349D01*
X42383Y-22417D01*
X42350Y-22479D01*
X42305Y-22534D01*
X42250Y-22579D01*
X42188Y-22613D01*
X42120Y-22634D01*
X42050Y-22641D01*
X41980Y-22635D01*
X41913Y-22615D01*
X41850Y-22582D01*
X41795Y-22538D01*
X41749Y-22484D01*
X41715Y-22422D01*
X41693Y-22354D01*
X41686Y-22284D01*
X41691Y-22214D01*
X41711Y-22146D01*
X41743Y-22083D01*
X41787Y-22027D01*
X41841Y-21981D01*
X41903Y-21947D01*
X41971Y-21925D01*
X42041Y-21917D01*
X42111Y-21922D01*
X42179Y-21941D01*
X42242Y-21973D01*
X42298Y-22017D01*
X42344Y-22070D01*
X42379Y-22132D01*
X42401Y-22199D01*
X42410Y-22269D01*
X42411Y-22279D01*
G54D13*
X23101Y-29219D02*
X23101Y-28619D01*
X23329Y-28619D01*
X23387Y-28647D01*
X23415Y-28676D01*
X23444Y-28733D01*
X23444Y-28819D01*
X23415Y-28876D01*
X23387Y-28905D01*
X23329Y-28933D01*
X23101Y-28933D01*
X23672Y-28676D02*
X23701Y-28647D01*
X23758Y-28619D01*
X23901Y-28619D01*
X23958Y-28647D01*
X23987Y-28676D01*
X24015Y-28733D01*
X24015Y-28790D01*
X23987Y-28876D01*
X23644Y-29219D01*
X24015Y-29219D01*
X38649Y-27308D02*
X38049Y-27308D01*
X38049Y-27080D01*
X38077Y-27022D01*
X38106Y-26994D01*
X38163Y-26965D01*
X38249Y-26965D01*
X38306Y-26994D01*
X38335Y-27022D01*
X38363Y-27080D01*
X38363Y-27308D01*
X38649Y-26394D02*
X38649Y-26737D01*
X38649Y-26565D02*
X38049Y-26565D01*
X38135Y-26622D01*
X38192Y-26680D01*
X38220Y-26737D01*
X40470Y-30957D02*
X40499Y-30871D01*
X40499Y-30728D01*
X40470Y-30671D01*
X40442Y-30642D01*
X40385Y-30614D01*
X40327Y-30614D01*
X40270Y-30642D01*
X40242Y-30671D01*
X40213Y-30728D01*
X40185Y-30842D01*
X40156Y-30900D01*
X40127Y-30928D01*
X40070Y-30957D01*
X40013Y-30957D01*
X39956Y-30928D01*
X39927Y-30900D01*
X39899Y-30842D01*
X39899Y-30700D01*
X39927Y-30614D01*
X40499Y-30357D02*
X39899Y-30357D01*
X39899Y-30214D01*
X39927Y-30129D01*
X39985Y-30071D01*
X40042Y-30043D01*
X40156Y-30014D01*
X40242Y-30014D01*
X40356Y-30043D01*
X40413Y-30071D01*
X40470Y-30129D01*
X40499Y-30214D01*
X40499Y-30357D01*
X40442Y-29414D02*
X40470Y-29443D01*
X40499Y-29529D01*
X40499Y-29586D01*
X40470Y-29671D01*
X40413Y-29729D01*
X40356Y-29757D01*
X40242Y-29786D01*
X40156Y-29786D01*
X40042Y-29757D01*
X39985Y-29729D01*
X39927Y-29671D01*
X39899Y-29586D01*
X39899Y-29529D01*
X39927Y-29443D01*
X39956Y-29414D01*
X40556Y-29300D02*
X40556Y-28843D01*
X40499Y-28700D02*
X39899Y-28700D01*
X40327Y-28500D01*
X39899Y-28300D01*
X40499Y-28300D01*
X40499Y-28014D02*
X39899Y-28014D01*
X40327Y-27814D01*
X39899Y-27614D01*
X40499Y-27614D01*
X40442Y-26985D02*
X40470Y-27014D01*
X40499Y-27100D01*
X40499Y-27157D01*
X40470Y-27242D01*
X40413Y-27300D01*
X40356Y-27328D01*
X40242Y-27357D01*
X40156Y-27357D01*
X40042Y-27328D01*
X39985Y-27300D01*
X39927Y-27242D01*
X39899Y-27157D01*
X39899Y-27100D01*
X39927Y-27014D01*
X39956Y-26985D01*
X40556Y-26871D02*
X40556Y-26414D01*
X40470Y-26300D02*
X40499Y-26214D01*
X40499Y-26071D01*
X40470Y-26014D01*
X40442Y-25985D01*
X40385Y-25957D01*
X40327Y-25957D01*
X40270Y-25985D01*
X40242Y-26014D01*
X40213Y-26071D01*
X40185Y-26185D01*
X40156Y-26243D01*
X40127Y-26271D01*
X40070Y-26300D01*
X40013Y-26300D01*
X39956Y-26271D01*
X39927Y-26243D01*
X39899Y-26185D01*
X39899Y-26043D01*
X39927Y-25957D01*
X39899Y-25586D02*
X39899Y-25472D01*
X39927Y-25414D01*
X39985Y-25357D01*
X40099Y-25329D01*
X40299Y-25329D01*
X40413Y-25357D01*
X40470Y-25414D01*
X40499Y-25472D01*
X40499Y-25586D01*
X40470Y-25643D01*
X40413Y-25700D01*
X40299Y-25729D01*
X40099Y-25729D01*
X39985Y-25700D01*
X39927Y-25643D01*
X39899Y-25586D01*
X40442Y-24728D02*
X40470Y-24757D01*
X40499Y-24843D01*
X40499Y-24900D01*
X40470Y-24985D01*
X40413Y-25043D01*
X40356Y-25071D01*
X40242Y-25100D01*
X40156Y-25100D01*
X40042Y-25071D01*
X39985Y-25043D01*
X39927Y-24985D01*
X39899Y-24900D01*
X39899Y-24843D01*
X39927Y-24757D01*
X39956Y-24728D01*
X40499Y-24471D02*
X39899Y-24471D01*
X40499Y-24128D02*
X40156Y-24385D01*
X39899Y-24128D02*
X40242Y-24471D01*
X40185Y-23871D02*
X40185Y-23671D01*
X40499Y-23585D02*
X40499Y-23871D01*
X39899Y-23871D01*
X39899Y-23585D01*
X39899Y-23414D02*
X39899Y-23071D01*
X40499Y-23242D02*
X39899Y-23242D01*
G54D14*
X26017Y-22026D02*
X25965Y-21911D01*
X25927Y-22026D02*
X25927Y-21785D01*
X25987Y-21785D01*
X26002Y-21797D01*
X26010Y-21808D01*
X26017Y-21831D01*
X26017Y-21865D01*
X26010Y-21888D01*
X26002Y-21900D01*
X25987Y-21911D01*
X25927Y-21911D01*
X26092Y-22026D02*
X26122Y-22026D01*
X26137Y-22015D01*
X26144Y-22003D01*
X26159Y-21969D01*
X26167Y-21923D01*
X26167Y-21831D01*
X26159Y-21808D01*
X26152Y-21797D01*
X26137Y-21785D01*
X26107Y-21785D01*
X26092Y-21797D01*
X26084Y-21808D01*
X26077Y-21831D01*
X26077Y-21888D01*
X26084Y-21911D01*
X26092Y-21923D01*
X26107Y-21934D01*
X26137Y-21934D01*
X26152Y-21923D01*
X26159Y-21911D01*
X26167Y-21888D01*
X31214Y-24152D02*
X31162Y-24037D01*
X31124Y-24152D02*
X31124Y-23911D01*
X31184Y-23911D01*
X31199Y-23923D01*
X31207Y-23934D01*
X31214Y-23957D01*
X31214Y-23991D01*
X31207Y-24014D01*
X31199Y-24026D01*
X31184Y-24037D01*
X31124Y-24037D01*
X31304Y-24014D02*
X31289Y-24003D01*
X31281Y-23991D01*
X31274Y-23968D01*
X31274Y-23957D01*
X31281Y-23934D01*
X31289Y-23923D01*
X31304Y-23911D01*
X31334Y-23911D01*
X31349Y-23923D01*
X31356Y-23934D01*
X31364Y-23957D01*
X31364Y-23968D01*
X31356Y-23991D01*
X31349Y-24003D01*
X31334Y-24014D01*
X31304Y-24014D01*
X31289Y-24026D01*
X31281Y-24037D01*
X31274Y-24060D01*
X31274Y-24106D01*
X31281Y-24129D01*
X31289Y-24141D01*
X31304Y-24152D01*
X31334Y-24152D01*
X31349Y-24141D01*
X31356Y-24129D01*
X31364Y-24106D01*
X31364Y-24060D01*
X31356Y-24037D01*
X31349Y-24026D01*
X31334Y-24014D01*
X29954Y-25412D02*
X29902Y-25297D01*
X29864Y-25412D02*
X29864Y-25171D01*
X29924Y-25171D01*
X29939Y-25183D01*
X29947Y-25194D01*
X29954Y-25217D01*
X29954Y-25251D01*
X29947Y-25274D01*
X29939Y-25286D01*
X29924Y-25297D01*
X29864Y-25297D01*
X30006Y-25171D02*
X30111Y-25171D01*
X30044Y-25412D01*
X29954Y-28365D02*
X29902Y-28250D01*
X29864Y-28365D02*
X29864Y-28124D01*
X29924Y-28124D01*
X29939Y-28136D01*
X29947Y-28147D01*
X29954Y-28170D01*
X29954Y-28204D01*
X29947Y-28227D01*
X29939Y-28239D01*
X29924Y-28250D01*
X29864Y-28250D01*
X30089Y-28124D02*
X30059Y-28124D01*
X30044Y-28136D01*
X30036Y-28147D01*
X30021Y-28181D01*
X30014Y-28227D01*
X30014Y-28319D01*
X30021Y-28342D01*
X30029Y-28354D01*
X30044Y-28365D01*
X30074Y-28365D01*
X30089Y-28354D01*
X30096Y-28342D01*
X30104Y-28319D01*
X30104Y-28262D01*
X30096Y-28239D01*
X30089Y-28227D01*
X30074Y-28216D01*
X30044Y-28216D01*
X30029Y-28227D01*
X30021Y-28239D01*
X30014Y-28262D01*
X25609Y-23861D02*
X25494Y-23913D01*
X25609Y-23951D02*
X25368Y-23951D01*
X25368Y-23891D01*
X25380Y-23876D01*
X25391Y-23868D01*
X25414Y-23861D01*
X25448Y-23861D01*
X25471Y-23868D01*
X25483Y-23876D01*
X25494Y-23891D01*
X25494Y-23951D01*
X25609Y-23711D02*
X25609Y-23801D01*
X25609Y-23756D02*
X25368Y-23756D01*
X25402Y-23771D01*
X25425Y-23786D01*
X25437Y-23801D01*
X25368Y-23614D02*
X25368Y-23599D01*
X25380Y-23584D01*
X25391Y-23576D01*
X25414Y-23569D01*
X25460Y-23561D01*
X25517Y-23561D01*
X25563Y-23569D01*
X25586Y-23576D01*
X25598Y-23584D01*
X25609Y-23599D01*
X25609Y-23614D01*
X25598Y-23629D01*
X25586Y-23636D01*
X25563Y-23644D01*
X25517Y-23651D01*
X25460Y-23651D01*
X25414Y-23644D01*
X25391Y-23636D01*
X25380Y-23629D01*
X25368Y-23614D01*
X30584Y-29349D02*
X30532Y-29234D01*
X30494Y-29349D02*
X30494Y-29108D01*
X30554Y-29108D01*
X30569Y-29120D01*
X30577Y-29131D01*
X30584Y-29154D01*
X30584Y-29188D01*
X30577Y-29211D01*
X30569Y-29223D01*
X30554Y-29234D01*
X30494Y-29234D01*
X30719Y-29188D02*
X30719Y-29349D01*
X30681Y-29097D02*
X30644Y-29269D01*
X30741Y-29269D01*
X30584Y-26121D02*
X30532Y-26006D01*
X30494Y-26121D02*
X30494Y-25880D01*
X30554Y-25880D01*
X30569Y-25892D01*
X30577Y-25903D01*
X30584Y-25926D01*
X30584Y-25960D01*
X30577Y-25983D01*
X30569Y-25995D01*
X30554Y-26006D01*
X30494Y-26006D01*
X30636Y-25880D02*
X30734Y-25880D01*
X30681Y-25972D01*
X30704Y-25972D01*
X30719Y-25983D01*
X30726Y-25995D01*
X30734Y-26018D01*
X30734Y-26075D01*
X30726Y-26098D01*
X30719Y-26110D01*
X30704Y-26121D01*
X30659Y-26121D01*
X30644Y-26110D01*
X30636Y-26098D01*
X31518Y-23077D02*
X31403Y-23129D01*
X31518Y-23167D02*
X31277Y-23167D01*
X31277Y-23107D01*
X31289Y-23092D01*
X31300Y-23084D01*
X31323Y-23077D01*
X31357Y-23077D01*
X31380Y-23084D01*
X31392Y-23092D01*
X31403Y-23107D01*
X31403Y-23167D01*
X31300Y-23017D02*
X31289Y-23010D01*
X31277Y-22995D01*
X31277Y-22957D01*
X31289Y-22942D01*
X31300Y-22935D01*
X31323Y-22927D01*
X31346Y-22927D01*
X31380Y-22935D01*
X31518Y-23025D01*
X31518Y-22927D01*
X31312Y-30999D02*
X31260Y-30884D01*
X31222Y-30999D02*
X31222Y-30758D01*
X31282Y-30758D01*
X31297Y-30770D01*
X31305Y-30781D01*
X31312Y-30804D01*
X31312Y-30838D01*
X31305Y-30861D01*
X31297Y-30873D01*
X31282Y-30884D01*
X31222Y-30884D01*
X31462Y-30999D02*
X31372Y-30999D01*
X31417Y-30999D02*
X31417Y-30758D01*
X31402Y-30792D01*
X31387Y-30815D01*
X31372Y-30827D01*
X31476Y-27007D02*
X31488Y-27014D01*
X31499Y-27037D01*
X31499Y-27052D01*
X31488Y-27074D01*
X31465Y-27089D01*
X31442Y-27097D01*
X31396Y-27104D01*
X31361Y-27104D01*
X31315Y-27097D01*
X31292Y-27089D01*
X31270Y-27074D01*
X31258Y-27052D01*
X31258Y-27037D01*
X31270Y-27014D01*
X31281Y-27007D01*
X31499Y-26857D02*
X31499Y-26947D01*
X31499Y-26902D02*
X31258Y-26902D01*
X31292Y-26917D01*
X31315Y-26932D01*
X31327Y-26947D01*
X31254Y-24900D02*
X31202Y-24785D01*
X31164Y-24900D02*
X31164Y-24659D01*
X31224Y-24659D01*
X31239Y-24671D01*
X31247Y-24682D01*
X31254Y-24705D01*
X31254Y-24739D01*
X31247Y-24762D01*
X31239Y-24774D01*
X31224Y-24785D01*
X31164Y-24785D01*
X31396Y-24659D02*
X31321Y-24659D01*
X31314Y-24774D01*
X31321Y-24762D01*
X31336Y-24751D01*
X31374Y-24751D01*
X31389Y-24762D01*
X31396Y-24774D01*
X31404Y-24797D01*
X31404Y-24854D01*
X31396Y-24877D01*
X31389Y-24889D01*
X31374Y-24900D01*
X31336Y-24900D01*
X31321Y-24889D01*
X31314Y-24877D01*
X27237Y-22003D02*
X27230Y-22015D01*
X27207Y-22026D01*
X27192Y-22026D01*
X27170Y-22015D01*
X27155Y-21992D01*
X27147Y-21969D01*
X27140Y-21923D01*
X27140Y-21888D01*
X27147Y-21842D01*
X27155Y-21819D01*
X27170Y-21797D01*
X27192Y-21785D01*
X27207Y-21785D01*
X27230Y-21797D01*
X27237Y-21808D01*
X27297Y-21808D02*
X27304Y-21797D01*
X27319Y-21785D01*
X27357Y-21785D01*
X27372Y-21797D01*
X27379Y-21808D01*
X27387Y-21831D01*
X27387Y-21854D01*
X27379Y-21888D01*
X27289Y-22026D01*
X27387Y-22026D01*
G54D12*
X29615Y-24060D02*
X29865Y-23894D01*
X29615Y-23894D02*
X29865Y-24060D01*
X29865Y-23668D02*
X29865Y-23810D01*
X29865Y-23739D02*
X29615Y-23739D01*
X29651Y-23763D01*
X29675Y-23787D01*
X29687Y-23810D01*
G54D10*
X26705Y-23808D02*
X27069Y-23808D01*
X27112Y-23786D01*
X27134Y-23765D01*
X27155Y-23722D01*
X27155Y-23636D01*
X27134Y-23594D01*
X27112Y-23572D01*
X27069Y-23551D01*
X26705Y-23551D01*
X27155Y-23101D02*
X27155Y-23358D01*
X27155Y-23230D02*
X26705Y-23230D01*
X26769Y-23273D01*
X26812Y-23315D01*
X26834Y-23358D01*
X27865Y-24939D02*
X27515Y-24939D01*
X27515Y-24855D01*
X27531Y-24805D01*
X27565Y-24772D01*
X27598Y-24755D01*
X27665Y-24739D01*
X27715Y-24739D01*
X27781Y-24755D01*
X27815Y-24772D01*
X27848Y-24805D01*
X27865Y-24855D01*
X27865Y-24939D01*
X27848Y-24605D02*
X27865Y-24555D01*
X27865Y-24472D01*
X27848Y-24439D01*
X27831Y-24422D01*
X27798Y-24405D01*
X27765Y-24405D01*
X27731Y-24422D01*
X27715Y-24439D01*
X27698Y-24472D01*
X27681Y-24539D01*
X27665Y-24572D01*
X27648Y-24589D01*
X27615Y-24605D01*
X27581Y-24605D01*
X27548Y-24589D01*
X27531Y-24572D01*
X27515Y-24539D01*
X27515Y-24455D01*
X27531Y-24405D01*
X27865Y-24072D02*
X27865Y-24272D01*
X27865Y-24172D02*
X27515Y-24172D01*
X27565Y-24206D01*
X27598Y-24239D01*
X27615Y-24272D01*
X27515Y-23956D02*
X27515Y-23739D01*
X27648Y-23856D01*
X27648Y-23806D01*
X27665Y-23773D01*
X27681Y-23756D01*
X27715Y-23739D01*
X27798Y-23739D01*
X27831Y-23756D01*
X27848Y-23773D01*
X27865Y-23806D01*
X27865Y-23906D01*
X27848Y-23939D01*
X27831Y-23956D01*
X27515Y-23623D02*
X27515Y-23406D01*
X27648Y-23523D01*
X27648Y-23473D01*
X27665Y-23440D01*
X27681Y-23423D01*
X27715Y-23406D01*
X27798Y-23406D01*
X27831Y-23423D01*
X27848Y-23440D01*
X27865Y-23473D01*
X27865Y-23573D01*
X27848Y-23606D01*
X27831Y-23623D01*
X27665Y-23207D02*
X27648Y-23240D01*
X27631Y-23257D01*
X27598Y-23273D01*
X27581Y-23273D01*
X27548Y-23257D01*
X27531Y-23240D01*
X27515Y-23207D01*
X27515Y-23140D01*
X27531Y-23107D01*
X27548Y-23090D01*
X27581Y-23073D01*
X27598Y-23073D01*
X27631Y-23090D01*
X27648Y-23107D01*
X27665Y-23140D01*
X27665Y-23207D01*
X27681Y-23240D01*
X27698Y-23257D01*
X27731Y-23273D01*
X27798Y-23273D01*
X27831Y-23257D01*
X27848Y-23240D01*
X27865Y-23207D01*
X27865Y-23140D01*
X27848Y-23107D01*
X27831Y-23090D01*
X27798Y-23073D01*
X27731Y-23073D01*
X27698Y-23090D01*
X27681Y-23107D01*
X27665Y-23140D01*
X27731Y-22924D02*
X27731Y-22657D01*
X27515Y-22524D02*
X27515Y-22307D01*
X27648Y-22424D01*
X27648Y-22374D01*
X27665Y-22341D01*
X27681Y-22324D01*
X27715Y-22307D01*
X27798Y-22307D01*
X27831Y-22324D01*
X27848Y-22341D01*
X27865Y-22374D01*
X27865Y-22474D01*
X27848Y-22507D01*
X27831Y-22524D01*
X27515Y-22191D02*
X27515Y-21974D01*
X27648Y-22091D01*
X27648Y-22041D01*
X27665Y-22008D01*
X27681Y-21991D01*
X27715Y-21974D01*
X27798Y-21974D01*
X27831Y-21991D01*
X27848Y-22008D01*
X27865Y-22041D01*
X27865Y-22141D01*
X27848Y-22174D01*
X27831Y-22191D01*
M02*
