G04 (created by PCBNEW-RS274X (2010-05-05 BZR 2356)-stable) date 3/07/2011 4:58:34 p.m.*
G01*
G70*
G90*
%MOIN*%
G04 Gerber Fmt 3.4, Leading zero omitted, Abs format*
%FSLAX34Y34*%
G04 APERTURE LIST*
%ADD10C,0.006000*%
%ADD11C,0.015000*%
%ADD12R,0.100000X0.200800*%
%ADD13C,0.551200*%
%ADD14O,0.118100X0.059100*%
%ADD15R,0.118100X0.059100*%
%ADD16C,0.078700*%
%ADD17C,0.035000*%
%ADD18C,0.008000*%
%ADD19C,0.010000*%
G04 APERTURE END LIST*
G54D10*
G54D11*
X43307Y-33111D02*
X43307Y-20552D01*
X22283Y-33150D02*
X43307Y-33150D01*
X22283Y-20551D02*
X22283Y-33150D01*
X43307Y-20551D02*
X22283Y-20551D01*
G54D12*
X25905Y-29449D03*
X34921Y-29449D03*
G54D13*
X30433Y-29449D03*
G54D14*
X23583Y-25865D03*
X23583Y-26652D03*
G54D15*
X23583Y-27440D03*
G54D14*
X23583Y-25078D03*
X23583Y-24290D03*
X23583Y-23503D03*
X23583Y-22716D03*
X23583Y-21929D03*
G54D16*
X42048Y-31807D03*
X42048Y-22279D03*
G54D17*
X28071Y-25433D03*
X28071Y-27126D03*
X25276Y-26260D03*
X33780Y-21024D03*
X35433Y-21024D03*
X26575Y-32283D03*
X25000Y-32283D03*
X23543Y-32283D03*
X23543Y-29449D03*
X23543Y-30906D03*
X25984Y-21024D03*
X26693Y-21024D03*
X39449Y-21417D03*
X42008Y-24803D03*
X42008Y-26811D03*
X42008Y-28976D03*
X39685Y-32283D03*
X35276Y-32283D03*
X33661Y-32283D03*
X28346Y-21929D03*
X33346Y-26654D03*
X33425Y-29252D03*
X29212Y-22795D03*
G54D18*
X28071Y-25433D02*
X28071Y-27126D01*
X23583Y-27440D02*
X24843Y-27440D01*
X25276Y-27007D02*
X25276Y-26260D01*
X24843Y-27440D02*
X25276Y-27007D01*
X23543Y-32283D02*
X23543Y-30906D01*
X25000Y-32283D02*
X23543Y-32283D01*
X26575Y-32283D02*
X33661Y-32283D01*
X26693Y-21024D02*
X25984Y-21024D01*
X39449Y-22244D02*
X39449Y-21417D01*
X42008Y-24803D02*
X39449Y-22244D01*
X42008Y-28976D02*
X42008Y-26811D01*
X35276Y-32283D02*
X39685Y-32283D01*
X30433Y-29449D02*
X29409Y-29449D01*
X29409Y-29449D02*
X26575Y-32283D01*
X23583Y-21929D02*
X28346Y-21929D01*
X28346Y-21929D02*
X30000Y-21929D01*
X30433Y-22362D02*
X30433Y-29449D01*
X30000Y-21929D02*
X30433Y-22362D01*
X28898Y-27914D02*
X30433Y-29449D01*
X33425Y-29252D02*
X33425Y-26733D01*
X33425Y-26733D02*
X33346Y-26654D01*
X25905Y-26102D02*
X29212Y-22795D01*
X25905Y-29449D02*
X25905Y-26102D01*
G54D19*
X22558Y-20826D02*
X43032Y-20826D01*
X22558Y-20906D02*
X43032Y-20906D01*
X22558Y-20986D02*
X43032Y-20986D01*
X22558Y-21066D02*
X43032Y-21066D01*
X22558Y-21146D02*
X43032Y-21146D01*
X22558Y-21226D02*
X43032Y-21226D01*
X22558Y-21306D02*
X43032Y-21306D01*
X22558Y-21386D02*
X23186Y-21386D01*
X23533Y-21386D02*
X23633Y-21386D01*
X23981Y-21386D02*
X43032Y-21386D01*
X22558Y-21466D02*
X22987Y-21466D01*
X23533Y-21466D02*
X23633Y-21466D01*
X24180Y-21466D02*
X43032Y-21466D01*
X22558Y-21546D02*
X22904Y-21546D01*
X23533Y-21546D02*
X23633Y-21546D01*
X24263Y-21546D02*
X43032Y-21546D01*
X22558Y-21626D02*
X22829Y-21626D01*
X23533Y-21626D02*
X23633Y-21626D01*
X24338Y-21626D02*
X43032Y-21626D01*
X22558Y-21706D02*
X22797Y-21706D01*
X23533Y-21706D02*
X23633Y-21706D01*
X24370Y-21706D02*
X41753Y-21706D01*
X42344Y-21706D02*
X43032Y-21706D01*
X22558Y-21786D02*
X22764Y-21786D01*
X23533Y-21786D02*
X23633Y-21786D01*
X24403Y-21786D02*
X41633Y-21786D01*
X42464Y-21786D02*
X43032Y-21786D01*
X22558Y-21866D02*
X22800Y-21866D01*
X23533Y-21866D02*
X23633Y-21866D01*
X24365Y-21866D02*
X41553Y-21866D01*
X42544Y-21866D02*
X43032Y-21866D01*
X22558Y-21946D02*
X41491Y-21946D01*
X42606Y-21946D02*
X43032Y-21946D01*
X22558Y-22026D02*
X22782Y-22026D01*
X24385Y-22026D02*
X41458Y-22026D01*
X42639Y-22026D02*
X43032Y-22026D01*
X22558Y-22106D02*
X22777Y-22106D01*
X24388Y-22106D02*
X41424Y-22106D01*
X42672Y-22106D02*
X43032Y-22106D01*
X22558Y-22186D02*
X22810Y-22186D01*
X24355Y-22186D02*
X41405Y-22186D01*
X42691Y-22186D02*
X43032Y-22186D01*
X22558Y-22266D02*
X22855Y-22266D01*
X24309Y-22266D02*
X41405Y-22266D01*
X42691Y-22266D02*
X43032Y-22266D01*
X22558Y-22346D02*
X22885Y-22346D01*
X24281Y-22346D02*
X41405Y-22346D01*
X42691Y-22346D02*
X43032Y-22346D01*
X22558Y-22426D02*
X22814Y-22426D01*
X24354Y-22426D02*
X28992Y-22426D01*
X29432Y-22426D02*
X41413Y-22426D01*
X42683Y-22426D02*
X43032Y-22426D01*
X22558Y-22506D02*
X22781Y-22506D01*
X24387Y-22506D02*
X28900Y-22506D01*
X29524Y-22506D02*
X41446Y-22506D01*
X42649Y-22506D02*
X43032Y-22506D01*
X22558Y-22586D02*
X22747Y-22586D01*
X24420Y-22586D02*
X28839Y-22586D01*
X29586Y-22586D02*
X41479Y-22586D01*
X42616Y-22586D02*
X43032Y-22586D01*
X22558Y-22666D02*
X22737Y-22666D01*
X24429Y-22666D02*
X28806Y-22666D01*
X29619Y-22666D02*
X41526Y-22666D01*
X42569Y-22666D02*
X43032Y-22666D01*
X22558Y-22746D02*
X22737Y-22746D01*
X24429Y-22746D02*
X28787Y-22746D01*
X29637Y-22746D02*
X41606Y-22746D01*
X42489Y-22746D02*
X43032Y-22746D01*
X22558Y-22826D02*
X22738Y-22826D01*
X24427Y-22826D02*
X28771Y-22826D01*
X29637Y-22826D02*
X41690Y-22826D01*
X42406Y-22826D02*
X43032Y-22826D01*
X22558Y-22906D02*
X22771Y-22906D01*
X24394Y-22906D02*
X28691Y-22906D01*
X29626Y-22906D02*
X41880Y-22906D01*
X42213Y-22906D02*
X43032Y-22906D01*
X22558Y-22986D02*
X22804Y-22986D01*
X24360Y-22986D02*
X28611Y-22986D01*
X29592Y-22986D02*
X43032Y-22986D01*
X22558Y-23066D02*
X22865Y-23066D01*
X24299Y-23066D02*
X28531Y-23066D01*
X29542Y-23066D02*
X43032Y-23066D01*
X22558Y-23146D02*
X22873Y-23146D01*
X24294Y-23146D02*
X28451Y-23146D01*
X29462Y-23146D02*
X43032Y-23146D01*
X22558Y-23226D02*
X22809Y-23226D01*
X24359Y-23226D02*
X28371Y-23226D01*
X29191Y-23226D02*
X43032Y-23226D01*
X22558Y-23306D02*
X22775Y-23306D01*
X24392Y-23306D02*
X28291Y-23306D01*
X29111Y-23306D02*
X43032Y-23306D01*
X22558Y-23386D02*
X22742Y-23386D01*
X24425Y-23386D02*
X28211Y-23386D01*
X29031Y-23386D02*
X43032Y-23386D01*
X22558Y-23466D02*
X22737Y-23466D01*
X24429Y-23466D02*
X28131Y-23466D01*
X28951Y-23466D02*
X43032Y-23466D01*
X22558Y-23546D02*
X22737Y-23546D01*
X24429Y-23546D02*
X28051Y-23546D01*
X28871Y-23546D02*
X43032Y-23546D01*
X22558Y-23626D02*
X22743Y-23626D01*
X24422Y-23626D02*
X27971Y-23626D01*
X28791Y-23626D02*
X43032Y-23626D01*
X22558Y-23706D02*
X22776Y-23706D01*
X24388Y-23706D02*
X27891Y-23706D01*
X28711Y-23706D02*
X43032Y-23706D01*
X22558Y-23786D02*
X22809Y-23786D01*
X24355Y-23786D02*
X27811Y-23786D01*
X28631Y-23786D02*
X43032Y-23786D01*
X22558Y-23866D02*
X22878Y-23866D01*
X24286Y-23866D02*
X27731Y-23866D01*
X28551Y-23866D02*
X43032Y-23866D01*
X22558Y-23946D02*
X22860Y-23946D01*
X24307Y-23946D02*
X27651Y-23946D01*
X28471Y-23946D02*
X43032Y-23946D01*
X22558Y-24026D02*
X22803Y-24026D01*
X24365Y-24026D02*
X27571Y-24026D01*
X28391Y-24026D02*
X43032Y-24026D01*
X22558Y-24106D02*
X22770Y-24106D01*
X24397Y-24106D02*
X27491Y-24106D01*
X28311Y-24106D02*
X43032Y-24106D01*
X22558Y-24186D02*
X22737Y-24186D01*
X24429Y-24186D02*
X27411Y-24186D01*
X28231Y-24186D02*
X43032Y-24186D01*
X22558Y-24266D02*
X22737Y-24266D01*
X24429Y-24266D02*
X27331Y-24266D01*
X28151Y-24266D02*
X43032Y-24266D01*
X22558Y-24346D02*
X22737Y-24346D01*
X24429Y-24346D02*
X27251Y-24346D01*
X28071Y-24346D02*
X43032Y-24346D01*
X22558Y-24426D02*
X22749Y-24426D01*
X24416Y-24426D02*
X27171Y-24426D01*
X27991Y-24426D02*
X43032Y-24426D01*
X22558Y-24506D02*
X22782Y-24506D01*
X24383Y-24506D02*
X27091Y-24506D01*
X27911Y-24506D02*
X43032Y-24506D01*
X22558Y-24586D02*
X22815Y-24586D01*
X24349Y-24586D02*
X27011Y-24586D01*
X27831Y-24586D02*
X43032Y-24586D01*
X22558Y-24666D02*
X22891Y-24666D01*
X24274Y-24666D02*
X26931Y-24666D01*
X27751Y-24666D02*
X43032Y-24666D01*
X22558Y-24746D02*
X22848Y-24746D01*
X24319Y-24746D02*
X26851Y-24746D01*
X27671Y-24746D02*
X43032Y-24746D01*
X22558Y-24826D02*
X22798Y-24826D01*
X24369Y-24826D02*
X26771Y-24826D01*
X27591Y-24826D02*
X43032Y-24826D01*
X22558Y-24906D02*
X22765Y-24906D01*
X24402Y-24906D02*
X26691Y-24906D01*
X27511Y-24906D02*
X43032Y-24906D01*
X22558Y-24986D02*
X22737Y-24986D01*
X24429Y-24986D02*
X26611Y-24986D01*
X27431Y-24986D02*
X43032Y-24986D01*
X22558Y-25066D02*
X22737Y-25066D01*
X24429Y-25066D02*
X26531Y-25066D01*
X27351Y-25066D02*
X27846Y-25066D01*
X28296Y-25066D02*
X43032Y-25066D01*
X22558Y-25146D02*
X22737Y-25146D01*
X24429Y-25146D02*
X26451Y-25146D01*
X27271Y-25146D02*
X27757Y-25146D01*
X28385Y-25146D02*
X43032Y-25146D01*
X22558Y-25226D02*
X22754Y-25226D01*
X24411Y-25226D02*
X26371Y-25226D01*
X27191Y-25226D02*
X27697Y-25226D01*
X28446Y-25226D02*
X43032Y-25226D01*
X22558Y-25306D02*
X22787Y-25306D01*
X24378Y-25306D02*
X26291Y-25306D01*
X27111Y-25306D02*
X27664Y-25306D01*
X28479Y-25306D02*
X43032Y-25306D01*
X22558Y-25386D02*
X22823Y-25386D01*
X24341Y-25386D02*
X26211Y-25386D01*
X27031Y-25386D02*
X27646Y-25386D01*
X28496Y-25386D02*
X43032Y-25386D01*
X22558Y-25466D02*
X22903Y-25466D01*
X24261Y-25466D02*
X26131Y-25466D01*
X26951Y-25466D02*
X27646Y-25466D01*
X28496Y-25466D02*
X43032Y-25466D01*
X22558Y-25546D02*
X22835Y-25546D01*
X24332Y-25546D02*
X26051Y-25546D01*
X26871Y-25546D02*
X27657Y-25546D01*
X28484Y-25546D02*
X43032Y-25546D01*
X22558Y-25626D02*
X22793Y-25626D01*
X24375Y-25626D02*
X25971Y-25626D01*
X26791Y-25626D02*
X27690Y-25626D01*
X28451Y-25626D02*
X43032Y-25626D01*
X22558Y-25706D02*
X22759Y-25706D01*
X24408Y-25706D02*
X25891Y-25706D01*
X26711Y-25706D02*
X27743Y-25706D01*
X28399Y-25706D02*
X43032Y-25706D01*
X22558Y-25786D02*
X22737Y-25786D01*
X24429Y-25786D02*
X25811Y-25786D01*
X26631Y-25786D02*
X27781Y-25786D01*
X28361Y-25786D02*
X43032Y-25786D01*
X22558Y-25866D02*
X22737Y-25866D01*
X24429Y-25866D02*
X25117Y-25866D01*
X25436Y-25866D02*
X25731Y-25866D01*
X26551Y-25866D02*
X27781Y-25866D01*
X28361Y-25866D02*
X43032Y-25866D01*
X22558Y-25946D02*
X22737Y-25946D01*
X24429Y-25946D02*
X24989Y-25946D01*
X25563Y-25946D02*
X25668Y-25946D01*
X26471Y-25946D02*
X27781Y-25946D01*
X28361Y-25946D02*
X43032Y-25946D01*
X22558Y-26026D02*
X22759Y-26026D01*
X24406Y-26026D02*
X24914Y-26026D01*
X26391Y-26026D02*
X27781Y-26026D01*
X28361Y-26026D02*
X43032Y-26026D01*
X22558Y-26106D02*
X22792Y-26106D01*
X24372Y-26106D02*
X24880Y-26106D01*
X26311Y-26106D02*
X27781Y-26106D01*
X28361Y-26106D02*
X43032Y-26106D01*
X22558Y-26186D02*
X22836Y-26186D01*
X24328Y-26186D02*
X24851Y-26186D01*
X26231Y-26186D02*
X27781Y-26186D01*
X28361Y-26186D02*
X43032Y-26186D01*
X22558Y-26266D02*
X22902Y-26266D01*
X24265Y-26266D02*
X24851Y-26266D01*
X26195Y-26266D02*
X27781Y-26266D01*
X28361Y-26266D02*
X43032Y-26266D01*
X22558Y-26346D02*
X22822Y-26346D01*
X24345Y-26346D02*
X24851Y-26346D01*
X26195Y-26346D02*
X27781Y-26346D01*
X28361Y-26346D02*
X43032Y-26346D01*
X22558Y-26426D02*
X22787Y-26426D01*
X24380Y-26426D02*
X24884Y-26426D01*
X26195Y-26426D02*
X27781Y-26426D01*
X28361Y-26426D02*
X43032Y-26426D01*
X22558Y-26506D02*
X22754Y-26506D01*
X24413Y-26506D02*
X24921Y-26506D01*
X26195Y-26506D02*
X27781Y-26506D01*
X28361Y-26506D02*
X29871Y-26506D01*
X30652Y-26506D02*
X43032Y-26506D01*
X22558Y-26586D02*
X22737Y-26586D01*
X24429Y-26586D02*
X24986Y-26586D01*
X25566Y-26586D02*
X25615Y-26586D01*
X26195Y-26586D02*
X27781Y-26586D01*
X28361Y-26586D02*
X29664Y-26586D01*
X31245Y-26586D02*
X43032Y-26586D01*
X22558Y-26666D02*
X22737Y-26666D01*
X24429Y-26666D02*
X24986Y-26666D01*
X25566Y-26666D02*
X25615Y-26666D01*
X26195Y-26666D02*
X27781Y-26666D01*
X28361Y-26666D02*
X29458Y-26666D01*
X31427Y-26666D02*
X43032Y-26666D01*
X22558Y-26746D02*
X22737Y-26746D01*
X24429Y-26746D02*
X24986Y-26746D01*
X25566Y-26746D02*
X25615Y-26746D01*
X26195Y-26746D02*
X27781Y-26746D01*
X28361Y-26746D02*
X29252Y-26746D01*
X31608Y-26746D02*
X43032Y-26746D01*
X22558Y-26826D02*
X22764Y-26826D01*
X24400Y-26826D02*
X24986Y-26826D01*
X25566Y-26826D02*
X25615Y-26826D01*
X26195Y-26826D02*
X27770Y-26826D01*
X28372Y-26826D02*
X29046Y-26826D01*
X31790Y-26826D02*
X43032Y-26826D01*
X22558Y-26906D02*
X22797Y-26906D01*
X24367Y-26906D02*
X24967Y-26906D01*
X25566Y-26906D02*
X25615Y-26906D01*
X26195Y-26906D02*
X27703Y-26906D01*
X28441Y-26906D02*
X28840Y-26906D01*
X31971Y-26906D02*
X43032Y-26906D01*
X22558Y-26986D02*
X22800Y-26986D01*
X24366Y-26986D02*
X24887Y-26986D01*
X25566Y-26986D02*
X25615Y-26986D01*
X26195Y-26986D02*
X27669Y-26986D01*
X28474Y-26986D02*
X28712Y-26986D01*
X32153Y-26986D02*
X43032Y-26986D01*
X22558Y-27066D02*
X22757Y-27066D01*
X24410Y-27066D02*
X24807Y-27066D01*
X25554Y-27066D02*
X25615Y-27066D01*
X26195Y-27066D02*
X27646Y-27066D01*
X28496Y-27066D02*
X28636Y-27066D01*
X32231Y-27066D02*
X43032Y-27066D01*
X22558Y-27146D02*
X22744Y-27146D01*
X24422Y-27146D02*
X24727Y-27146D01*
X25525Y-27146D02*
X25615Y-27146D01*
X26195Y-27146D02*
X27646Y-27146D01*
X28496Y-27146D02*
X28561Y-27146D01*
X32306Y-27146D02*
X43032Y-27146D01*
X22558Y-27226D02*
X22744Y-27226D01*
X25467Y-27226D02*
X25615Y-27226D01*
X26195Y-27226D02*
X27652Y-27226D01*
X32380Y-27226D02*
X43032Y-27226D01*
X22558Y-27306D02*
X22744Y-27306D01*
X25387Y-27306D02*
X25615Y-27306D01*
X26195Y-27306D02*
X27685Y-27306D01*
X32454Y-27306D02*
X43032Y-27306D01*
X22558Y-27386D02*
X22744Y-27386D01*
X25307Y-27386D02*
X25615Y-27386D01*
X26195Y-27386D02*
X27730Y-27386D01*
X32425Y-27386D02*
X43032Y-27386D01*
X22558Y-27466D02*
X22744Y-27466D01*
X25227Y-27466D02*
X25615Y-27466D01*
X26195Y-27466D02*
X27810Y-27466D01*
X32345Y-27466D02*
X32487Y-27466D01*
X32617Y-27466D02*
X43032Y-27466D01*
X22558Y-27546D02*
X22744Y-27546D01*
X25147Y-27546D02*
X25615Y-27546D01*
X26195Y-27546D02*
X27974Y-27546D01*
X32265Y-27546D02*
X32407Y-27546D01*
X32703Y-27546D02*
X43032Y-27546D01*
X22558Y-27626D02*
X22744Y-27626D01*
X25067Y-27626D02*
X25615Y-27626D01*
X26195Y-27626D02*
X28077Y-27626D01*
X32185Y-27626D02*
X32327Y-27626D01*
X32789Y-27626D02*
X43032Y-27626D01*
X22558Y-27706D02*
X22744Y-27706D01*
X24956Y-27706D02*
X25615Y-27706D01*
X26195Y-27706D02*
X27991Y-27706D01*
X32105Y-27706D02*
X32247Y-27706D01*
X32875Y-27706D02*
X43032Y-27706D01*
X22558Y-27786D02*
X22744Y-27786D01*
X24421Y-27786D02*
X25615Y-27786D01*
X26195Y-27786D02*
X27946Y-27786D01*
X32025Y-27786D02*
X32167Y-27786D01*
X32935Y-27786D02*
X43032Y-27786D01*
X22558Y-27866D02*
X22777Y-27866D01*
X24388Y-27866D02*
X25615Y-27866D01*
X26195Y-27866D02*
X27910Y-27866D01*
X31945Y-27866D02*
X32087Y-27866D01*
X32981Y-27866D02*
X43032Y-27866D01*
X22558Y-27946D02*
X22852Y-27946D01*
X24314Y-27946D02*
X25615Y-27946D01*
X26195Y-27946D02*
X27875Y-27946D01*
X31865Y-27946D02*
X32007Y-27946D01*
X33012Y-27946D02*
X43032Y-27946D01*
X22558Y-28026D02*
X25615Y-28026D01*
X26195Y-28026D02*
X27840Y-28026D01*
X31785Y-28026D02*
X31927Y-28026D01*
X33043Y-28026D02*
X43032Y-28026D01*
X22558Y-28106D02*
X25615Y-28106D01*
X26195Y-28106D02*
X27805Y-28106D01*
X31705Y-28106D02*
X31847Y-28106D01*
X33074Y-28106D02*
X43032Y-28106D01*
X22558Y-28186D02*
X25615Y-28186D01*
X26195Y-28186D02*
X27769Y-28186D01*
X31625Y-28186D02*
X31767Y-28186D01*
X33105Y-28186D02*
X43032Y-28186D01*
X22558Y-28266D02*
X25232Y-28266D01*
X26578Y-28266D02*
X27734Y-28266D01*
X31545Y-28266D02*
X31687Y-28266D01*
X33136Y-28266D02*
X34248Y-28266D01*
X35594Y-28266D02*
X43032Y-28266D01*
X22558Y-28346D02*
X25177Y-28346D01*
X26634Y-28346D02*
X27699Y-28346D01*
X31465Y-28346D02*
X31607Y-28346D01*
X33167Y-28346D02*
X34193Y-28346D01*
X35650Y-28346D02*
X43032Y-28346D01*
X22558Y-28426D02*
X25156Y-28426D01*
X26654Y-28426D02*
X27664Y-28426D01*
X31385Y-28426D02*
X31527Y-28426D01*
X33198Y-28426D02*
X34172Y-28426D01*
X35670Y-28426D02*
X43032Y-28426D01*
X22558Y-28506D02*
X25156Y-28506D01*
X26654Y-28506D02*
X27628Y-28506D01*
X31305Y-28506D02*
X31447Y-28506D01*
X33229Y-28506D02*
X34172Y-28506D01*
X35670Y-28506D02*
X43032Y-28506D01*
X22558Y-28586D02*
X25156Y-28586D01*
X26654Y-28586D02*
X27593Y-28586D01*
X31225Y-28586D02*
X31367Y-28586D01*
X33260Y-28586D02*
X34172Y-28586D01*
X35670Y-28586D02*
X43032Y-28586D01*
X22558Y-28666D02*
X25156Y-28666D01*
X26654Y-28666D02*
X27558Y-28666D01*
X31145Y-28666D02*
X31287Y-28666D01*
X33291Y-28666D02*
X34172Y-28666D01*
X35670Y-28666D02*
X43032Y-28666D01*
X22558Y-28746D02*
X25156Y-28746D01*
X26654Y-28746D02*
X27523Y-28746D01*
X31065Y-28746D02*
X31207Y-28746D01*
X33322Y-28746D02*
X34172Y-28746D01*
X35670Y-28746D02*
X43032Y-28746D01*
X22558Y-28826D02*
X25156Y-28826D01*
X26654Y-28826D02*
X27500Y-28826D01*
X30985Y-28826D02*
X31127Y-28826D01*
X33353Y-28826D02*
X34172Y-28826D01*
X35670Y-28826D02*
X43032Y-28826D01*
X22558Y-28906D02*
X25156Y-28906D01*
X26654Y-28906D02*
X27498Y-28906D01*
X30905Y-28906D02*
X31047Y-28906D01*
X33384Y-28906D02*
X34172Y-28906D01*
X35670Y-28906D02*
X43032Y-28906D01*
X22558Y-28986D02*
X25156Y-28986D01*
X26654Y-28986D02*
X27496Y-28986D01*
X30825Y-28986D02*
X30967Y-28986D01*
X33391Y-28986D02*
X34172Y-28986D01*
X35670Y-28986D02*
X43032Y-28986D01*
X22558Y-29066D02*
X25156Y-29066D01*
X26654Y-29066D02*
X27494Y-29066D01*
X30745Y-29066D02*
X30887Y-29066D01*
X33389Y-29066D02*
X34172Y-29066D01*
X35670Y-29066D02*
X43032Y-29066D01*
X22558Y-29146D02*
X25156Y-29146D01*
X26654Y-29146D02*
X27492Y-29146D01*
X30665Y-29146D02*
X30807Y-29146D01*
X33388Y-29146D02*
X34172Y-29146D01*
X35670Y-29146D02*
X43032Y-29146D01*
X22558Y-29226D02*
X25156Y-29226D01*
X26654Y-29226D02*
X27491Y-29226D01*
X30585Y-29226D02*
X30727Y-29226D01*
X33386Y-29226D02*
X34172Y-29226D01*
X35670Y-29226D02*
X43032Y-29226D01*
X22558Y-29306D02*
X25156Y-29306D01*
X26654Y-29306D02*
X27489Y-29306D01*
X30505Y-29306D02*
X30647Y-29306D01*
X33384Y-29306D02*
X34172Y-29306D01*
X35670Y-29306D02*
X43032Y-29306D01*
X22558Y-29386D02*
X25156Y-29386D01*
X26654Y-29386D02*
X27487Y-29386D01*
X30425Y-29386D02*
X30567Y-29386D01*
X33382Y-29386D02*
X34172Y-29386D01*
X35670Y-29386D02*
X43032Y-29386D01*
X22558Y-29466D02*
X25156Y-29466D01*
X26654Y-29466D02*
X27485Y-29466D01*
X30345Y-29466D02*
X30520Y-29466D01*
X33380Y-29466D02*
X34172Y-29466D01*
X35670Y-29466D02*
X43032Y-29466D01*
X22558Y-29546D02*
X25156Y-29546D01*
X26654Y-29546D02*
X27483Y-29546D01*
X30265Y-29546D02*
X30407Y-29546D01*
X30460Y-29546D02*
X30600Y-29546D01*
X33378Y-29546D02*
X34172Y-29546D01*
X35670Y-29546D02*
X43032Y-29546D01*
X22558Y-29626D02*
X25156Y-29626D01*
X26654Y-29626D02*
X27481Y-29626D01*
X30185Y-29626D02*
X30327Y-29626D01*
X30540Y-29626D02*
X30680Y-29626D01*
X33376Y-29626D02*
X34172Y-29626D01*
X35670Y-29626D02*
X43032Y-29626D01*
X22558Y-29706D02*
X25156Y-29706D01*
X26654Y-29706D02*
X27480Y-29706D01*
X30105Y-29706D02*
X30247Y-29706D01*
X30620Y-29706D02*
X30760Y-29706D01*
X33375Y-29706D02*
X34172Y-29706D01*
X35670Y-29706D02*
X43032Y-29706D01*
X22558Y-29786D02*
X25156Y-29786D01*
X26654Y-29786D02*
X27478Y-29786D01*
X30025Y-29786D02*
X30167Y-29786D01*
X30700Y-29786D02*
X30840Y-29786D01*
X33373Y-29786D02*
X34172Y-29786D01*
X35670Y-29786D02*
X43032Y-29786D01*
X22558Y-29866D02*
X25156Y-29866D01*
X26654Y-29866D02*
X27476Y-29866D01*
X29945Y-29866D02*
X30087Y-29866D01*
X30780Y-29866D02*
X30920Y-29866D01*
X33371Y-29866D02*
X34172Y-29866D01*
X35670Y-29866D02*
X43032Y-29866D01*
X22558Y-29946D02*
X25156Y-29946D01*
X26654Y-29946D02*
X27474Y-29946D01*
X29865Y-29946D02*
X30007Y-29946D01*
X30860Y-29946D02*
X31000Y-29946D01*
X33369Y-29946D02*
X34172Y-29946D01*
X35670Y-29946D02*
X43032Y-29946D01*
X22558Y-30026D02*
X25156Y-30026D01*
X26654Y-30026D02*
X27495Y-30026D01*
X29785Y-30026D02*
X29927Y-30026D01*
X30940Y-30026D02*
X31080Y-30026D01*
X33367Y-30026D02*
X34172Y-30026D01*
X35670Y-30026D02*
X43032Y-30026D01*
X22558Y-30106D02*
X25156Y-30106D01*
X26654Y-30106D02*
X27526Y-30106D01*
X29705Y-30106D02*
X29847Y-30106D01*
X31020Y-30106D02*
X31160Y-30106D01*
X33364Y-30106D02*
X34172Y-30106D01*
X35670Y-30106D02*
X43032Y-30106D01*
X22558Y-30186D02*
X25156Y-30186D01*
X26654Y-30186D02*
X27557Y-30186D01*
X29625Y-30186D02*
X29767Y-30186D01*
X31100Y-30186D02*
X31240Y-30186D01*
X33328Y-30186D02*
X34172Y-30186D01*
X35670Y-30186D02*
X43032Y-30186D01*
X22558Y-30266D02*
X25156Y-30266D01*
X26654Y-30266D02*
X27588Y-30266D01*
X29545Y-30266D02*
X29687Y-30266D01*
X31180Y-30266D02*
X31320Y-30266D01*
X33293Y-30266D02*
X34172Y-30266D01*
X35670Y-30266D02*
X43032Y-30266D01*
X22558Y-30346D02*
X25156Y-30346D01*
X26654Y-30346D02*
X27619Y-30346D01*
X29465Y-30346D02*
X29607Y-30346D01*
X31260Y-30346D02*
X31400Y-30346D01*
X33258Y-30346D02*
X34172Y-30346D01*
X35670Y-30346D02*
X43032Y-30346D01*
X22558Y-30426D02*
X25156Y-30426D01*
X26654Y-30426D02*
X27650Y-30426D01*
X29385Y-30426D02*
X29527Y-30426D01*
X31340Y-30426D02*
X31480Y-30426D01*
X33223Y-30426D02*
X34172Y-30426D01*
X35670Y-30426D02*
X43032Y-30426D01*
X22558Y-30506D02*
X25157Y-30506D01*
X26652Y-30506D02*
X27681Y-30506D01*
X29305Y-30506D02*
X29447Y-30506D01*
X31420Y-30506D02*
X31560Y-30506D01*
X33187Y-30506D02*
X34173Y-30506D01*
X35668Y-30506D02*
X43032Y-30506D01*
X22558Y-30586D02*
X25190Y-30586D01*
X26619Y-30586D02*
X27712Y-30586D01*
X29225Y-30586D02*
X29367Y-30586D01*
X31500Y-30586D02*
X31640Y-30586D01*
X33152Y-30586D02*
X34206Y-30586D01*
X35635Y-30586D02*
X43032Y-30586D01*
X22558Y-30666D02*
X25268Y-30666D01*
X26541Y-30666D02*
X27743Y-30666D01*
X29145Y-30666D02*
X29287Y-30666D01*
X31580Y-30666D02*
X31720Y-30666D01*
X33117Y-30666D02*
X34284Y-30666D01*
X35557Y-30666D02*
X43032Y-30666D01*
X22558Y-30746D02*
X27774Y-30746D01*
X29065Y-30746D02*
X29207Y-30746D01*
X31660Y-30746D02*
X31800Y-30746D01*
X33082Y-30746D02*
X43032Y-30746D01*
X22558Y-30826D02*
X27805Y-30826D01*
X28985Y-30826D02*
X29127Y-30826D01*
X31740Y-30826D02*
X31880Y-30826D01*
X33046Y-30826D02*
X43032Y-30826D01*
X22558Y-30906D02*
X27836Y-30906D01*
X28905Y-30906D02*
X29047Y-30906D01*
X31820Y-30906D02*
X31960Y-30906D01*
X33011Y-30906D02*
X43032Y-30906D01*
X22558Y-30986D02*
X27867Y-30986D01*
X28825Y-30986D02*
X28967Y-30986D01*
X31900Y-30986D02*
X32040Y-30986D01*
X32976Y-30986D02*
X43032Y-30986D01*
X22558Y-31066D02*
X27900Y-31066D01*
X28745Y-31066D02*
X28887Y-31066D01*
X31980Y-31066D02*
X32120Y-31066D01*
X32941Y-31066D02*
X43032Y-31066D01*
X22558Y-31146D02*
X27953Y-31146D01*
X28665Y-31146D02*
X28807Y-31146D01*
X32060Y-31146D02*
X32200Y-31146D01*
X32905Y-31146D02*
X43032Y-31146D01*
X22558Y-31226D02*
X28027Y-31226D01*
X28585Y-31226D02*
X28727Y-31226D01*
X32140Y-31226D02*
X32280Y-31226D01*
X32838Y-31226D02*
X41771Y-31226D01*
X42325Y-31226D02*
X43032Y-31226D01*
X22558Y-31306D02*
X28113Y-31306D01*
X28505Y-31306D02*
X28647Y-31306D01*
X32220Y-31306D02*
X32360Y-31306D01*
X32752Y-31306D02*
X41641Y-31306D01*
X42456Y-31306D02*
X43032Y-31306D01*
X22558Y-31386D02*
X28199Y-31386D01*
X28425Y-31386D02*
X28567Y-31386D01*
X32300Y-31386D02*
X32440Y-31386D01*
X32666Y-31386D02*
X41561Y-31386D01*
X42536Y-31386D02*
X43032Y-31386D01*
X22558Y-31466D02*
X28285Y-31466D01*
X28345Y-31466D02*
X28487Y-31466D01*
X32380Y-31466D02*
X32520Y-31466D01*
X32580Y-31466D02*
X41494Y-31466D01*
X42603Y-31466D02*
X43032Y-31466D01*
X22558Y-31546D02*
X28407Y-31546D01*
X32460Y-31546D02*
X41461Y-31546D01*
X42636Y-31546D02*
X43032Y-31546D01*
X22558Y-31626D02*
X28443Y-31626D01*
X32422Y-31626D02*
X41427Y-31626D01*
X42669Y-31626D02*
X43032Y-31626D01*
X22558Y-31706D02*
X28518Y-31706D01*
X32347Y-31706D02*
X41405Y-31706D01*
X42691Y-31706D02*
X43032Y-31706D01*
X22558Y-31786D02*
X28592Y-31786D01*
X32273Y-31786D02*
X41405Y-31786D01*
X42691Y-31786D02*
X43032Y-31786D01*
X22558Y-31866D02*
X28667Y-31866D01*
X32199Y-31866D02*
X41405Y-31866D01*
X42691Y-31866D02*
X43032Y-31866D01*
X22558Y-31946D02*
X28790Y-31946D01*
X32103Y-31946D02*
X41409Y-31946D01*
X42686Y-31946D02*
X43032Y-31946D01*
X22558Y-32026D02*
X28972Y-32026D01*
X31939Y-32026D02*
X41443Y-32026D01*
X42653Y-32026D02*
X43032Y-32026D01*
X22558Y-32106D02*
X29153Y-32106D01*
X31733Y-32106D02*
X41476Y-32106D01*
X42619Y-32106D02*
X43032Y-32106D01*
X22558Y-32186D02*
X29335Y-32186D01*
X31526Y-32186D02*
X41518Y-32186D01*
X42577Y-32186D02*
X43032Y-32186D01*
X22558Y-32266D02*
X29516Y-32266D01*
X31320Y-32266D02*
X41598Y-32266D01*
X42497Y-32266D02*
X43032Y-32266D01*
X22558Y-32346D02*
X29698Y-32346D01*
X31114Y-32346D02*
X41678Y-32346D01*
X42417Y-32346D02*
X43032Y-32346D01*
X22558Y-32426D02*
X41861Y-32426D01*
X42232Y-32426D02*
X43032Y-32426D01*
X22558Y-32506D02*
X43032Y-32506D01*
X22558Y-32586D02*
X43032Y-32586D01*
X22558Y-32666D02*
X43032Y-32666D01*
X22558Y-32746D02*
X43032Y-32746D01*
X22558Y-32826D02*
X43032Y-32826D01*
X43032Y-32875D02*
X43032Y-20826D01*
X22558Y-20826D01*
X22558Y-32875D01*
X25355Y-32875D01*
X25355Y-30702D01*
X25264Y-30664D01*
X25194Y-30594D01*
X25156Y-30502D01*
X25156Y-28395D01*
X25194Y-28304D01*
X25264Y-28234D01*
X25356Y-28196D01*
X25615Y-28196D01*
X25615Y-26522D01*
X25566Y-26571D01*
X25566Y-27007D01*
X25544Y-27118D01*
X25481Y-27212D01*
X25048Y-27645D01*
X24954Y-27708D01*
X24843Y-27730D01*
X24422Y-27730D01*
X24422Y-27785D01*
X24384Y-27876D01*
X24314Y-27946D01*
X24222Y-27984D01*
X22943Y-27984D01*
X22852Y-27946D01*
X22782Y-27876D01*
X22744Y-27784D01*
X22744Y-27095D01*
X22782Y-27004D01*
X22824Y-26961D01*
X22818Y-26955D01*
X22737Y-26758D01*
X22737Y-26545D01*
X22819Y-26349D01*
X22909Y-26258D01*
X22818Y-26168D01*
X22737Y-25971D01*
X22737Y-25758D01*
X22819Y-25562D01*
X22909Y-25471D01*
X22818Y-25381D01*
X22737Y-25184D01*
X22737Y-24971D01*
X22819Y-24775D01*
X22909Y-24683D01*
X22818Y-24593D01*
X22737Y-24396D01*
X22737Y-24183D01*
X22819Y-23987D01*
X22909Y-23896D01*
X22818Y-23806D01*
X22737Y-23609D01*
X22737Y-23396D01*
X22819Y-23200D01*
X22909Y-23109D01*
X22818Y-23019D01*
X22737Y-22822D01*
X22737Y-22609D01*
X22819Y-22413D01*
X22911Y-22319D01*
X22834Y-22245D01*
X22760Y-22063D01*
X22808Y-21979D01*
X22808Y-21879D01*
X22760Y-21795D01*
X22834Y-21613D01*
X22990Y-21463D01*
X23191Y-21384D01*
X23533Y-21384D01*
X23533Y-21879D01*
X22808Y-21879D01*
X22808Y-21979D01*
X23533Y-21979D01*
X23633Y-21979D01*
X23633Y-21879D01*
X23633Y-21384D01*
X23975Y-21384D01*
X24176Y-21463D01*
X24332Y-21613D01*
X24406Y-21795D01*
X24358Y-21879D01*
X23633Y-21879D01*
X23633Y-21979D01*
X24358Y-21979D01*
X24406Y-22063D01*
X24332Y-22245D01*
X24254Y-22319D01*
X24348Y-22413D01*
X24429Y-22610D01*
X24429Y-22823D01*
X24347Y-23019D01*
X24256Y-23109D01*
X24348Y-23200D01*
X24429Y-23397D01*
X24429Y-23610D01*
X24347Y-23806D01*
X24256Y-23896D01*
X24348Y-23987D01*
X24429Y-24184D01*
X24429Y-24397D01*
X24347Y-24593D01*
X24256Y-24684D01*
X24348Y-24775D01*
X24429Y-24972D01*
X24429Y-25185D01*
X24347Y-25381D01*
X24256Y-25471D01*
X24348Y-25562D01*
X24429Y-25759D01*
X24429Y-25972D01*
X24347Y-26168D01*
X24256Y-26258D01*
X24348Y-26349D01*
X24429Y-26546D01*
X24429Y-26759D01*
X24347Y-26955D01*
X24341Y-26961D01*
X24384Y-27004D01*
X24422Y-27096D01*
X24422Y-27150D01*
X24722Y-27150D01*
X24986Y-26887D01*
X24986Y-26571D01*
X24915Y-26500D01*
X24851Y-26344D01*
X24851Y-26175D01*
X24916Y-26019D01*
X25036Y-25899D01*
X25192Y-25835D01*
X25361Y-25835D01*
X25517Y-25900D01*
X25632Y-26015D01*
X25637Y-25991D01*
X25700Y-25897D01*
X28787Y-22810D01*
X28787Y-22710D01*
X28852Y-22554D01*
X28972Y-22434D01*
X29128Y-22370D01*
X29297Y-22370D01*
X29453Y-22435D01*
X29573Y-22555D01*
X29637Y-22711D01*
X29637Y-22880D01*
X29572Y-23036D01*
X29452Y-23156D01*
X29296Y-23220D01*
X29197Y-23220D01*
X26195Y-26222D01*
X26195Y-28196D01*
X26455Y-28196D01*
X26546Y-28234D01*
X26616Y-28304D01*
X26654Y-28396D01*
X26654Y-30503D01*
X26616Y-30594D01*
X26546Y-30664D01*
X26454Y-30702D01*
X25355Y-30702D01*
X25355Y-32875D01*
X28317Y-32875D01*
X28317Y-31495D01*
X27986Y-31187D01*
X27973Y-31175D01*
X27897Y-31061D01*
X27473Y-29968D01*
X27500Y-28796D01*
X27973Y-27723D01*
X27986Y-27710D01*
X28160Y-27548D01*
X28155Y-27551D01*
X27986Y-27551D01*
X27830Y-27486D01*
X27710Y-27366D01*
X27646Y-27210D01*
X27646Y-27041D01*
X27711Y-26885D01*
X27781Y-26815D01*
X27781Y-25744D01*
X27710Y-25673D01*
X27646Y-25517D01*
X27646Y-25348D01*
X27711Y-25192D01*
X27831Y-25072D01*
X27987Y-25008D01*
X28156Y-25008D01*
X28312Y-25073D01*
X28432Y-25193D01*
X28496Y-25349D01*
X28496Y-25518D01*
X28431Y-25674D01*
X28361Y-25744D01*
X28361Y-26815D01*
X28432Y-26886D01*
X28496Y-27042D01*
X28496Y-27211D01*
X28492Y-27219D01*
X28707Y-26989D01*
X28821Y-26913D01*
X29914Y-26489D01*
X31086Y-26516D01*
X32159Y-26989D01*
X32479Y-27333D01*
X30433Y-29378D01*
X30362Y-29449D01*
X28317Y-31495D01*
X28317Y-32875D01*
X30952Y-32875D01*
X30952Y-32409D01*
X29780Y-32382D01*
X28707Y-31909D01*
X28387Y-31565D01*
X30433Y-29520D01*
X32479Y-31565D01*
X32159Y-31909D01*
X32045Y-31985D01*
X30952Y-32409D01*
X30952Y-32875D01*
X32549Y-32875D01*
X32549Y-31495D01*
X30504Y-29449D01*
X32549Y-27403D01*
X32893Y-27723D01*
X32969Y-27837D01*
X33393Y-28930D01*
X33366Y-30102D01*
X32893Y-31175D01*
X32549Y-31495D01*
X32549Y-32875D01*
X34371Y-32875D01*
X34371Y-30702D01*
X34280Y-30664D01*
X34210Y-30594D01*
X34172Y-30502D01*
X34172Y-28395D01*
X34210Y-28304D01*
X34280Y-28234D01*
X34372Y-28196D01*
X35471Y-28196D01*
X35562Y-28234D01*
X35632Y-28304D01*
X35670Y-28396D01*
X35670Y-30503D01*
X35632Y-30594D01*
X35562Y-30664D01*
X35470Y-30702D01*
X34371Y-30702D01*
X34371Y-32875D01*
X41919Y-32875D01*
X41919Y-32450D01*
X41683Y-32351D01*
X41503Y-32170D01*
X41405Y-31934D01*
X41405Y-31678D01*
X41504Y-31442D01*
X41685Y-31262D01*
X41919Y-31164D01*
X41919Y-22922D01*
X41683Y-22823D01*
X41503Y-22642D01*
X41405Y-22406D01*
X41405Y-22150D01*
X41504Y-21914D01*
X41685Y-21734D01*
X41921Y-21636D01*
X42177Y-21636D01*
X42413Y-21735D01*
X42593Y-21916D01*
X42691Y-22152D01*
X42691Y-22408D01*
X42592Y-22644D01*
X42411Y-22824D01*
X42175Y-22922D01*
X41919Y-22922D01*
X41919Y-31164D01*
X42177Y-31164D01*
X42413Y-31263D01*
X42593Y-31444D01*
X42691Y-31680D01*
X42691Y-31936D01*
X42592Y-32172D01*
X42411Y-32352D01*
X42175Y-32450D01*
X41919Y-32450D01*
X41919Y-32875D01*
X43032Y-32875D01*
M02*
