M48
;DRILL file {PCBnew (2010-05-05 BZR 2356)-stable} date 3/07/2011 4:50:29 p.m.
;FORMAT={-.-/ absolute / inch / decimal}
R,T
VER,1
FMAT,2
INCH,TZ
TCST,OFF
ICI,OFF
ATC,ON
T1C0.025
T2C0.031
T3C0.059
%
M47
G05
M72
T1
X2.354Y-2.945
X2.354Y-3.091
X2.354Y-3.228
X2.500Y-3.228
X2.528Y-2.626
X2.598Y-2.102
X2.658Y-3.228
X2.669Y-2.102
X2.807Y-2.543
X2.807Y-2.713
X2.835Y-2.193
X2.921Y-2.280
X3.335Y-2.665
X3.342Y-2.925
X3.366Y-3.228
X3.378Y-2.102
X3.528Y-3.228
X3.543Y-2.102
X3.945Y-2.142
X3.968Y-3.228
X4.201Y-2.480
X4.201Y-2.681
X4.201Y-2.898
T2
X2.358Y-2.193
X2.358Y-2.272
X2.358Y-2.350
X2.358Y-2.429
X2.358Y-2.508
X2.358Y-2.586
X2.358Y-2.665
X2.358Y-2.744
T3
X4.205Y-2.228
X4.205Y-3.181
T0
M30
