G04 (created by PCBNEW-RS274X (2010-05-05 BZR 2356)-stable) date 3/07/2011 4:58:35 p.m.*
G01*
G70*
G90*
%MOIN*%
G04 Gerber Fmt 3.4, Leading zero omitted, Abs format*
%FSLAX34Y34*%
G04 APERTURE LIST*
%ADD10C,0.006000*%
%ADD11C,0.015000*%
%ADD12O,0.138100X0.079100*%
%ADD13R,0.138100X0.079100*%
%ADD14R,0.079100X0.059400*%
%ADD15R,0.106600X0.067200*%
%ADD16R,0.268000X0.075100*%
%ADD17R,0.098700X0.059400*%
%ADD18R,0.118400X0.059400*%
%ADD19R,0.098700X0.098700*%
%ADD20C,0.098700*%
%ADD21R,0.045000X0.051500*%
%ADD22R,0.051500X0.045000*%
%ADD23R,0.075000X0.055000*%
%ADD24R,0.065000X0.040000*%
G04 APERTURE END LIST*
G54D10*
G54D11*
X43307Y-33111D02*
X43307Y-20552D01*
X22283Y-33150D02*
X43307Y-33150D01*
X22283Y-20551D02*
X22283Y-33150D01*
X43307Y-20551D02*
X22283Y-20551D01*
G54D12*
X23583Y-25865D03*
X23583Y-26652D03*
G54D13*
X23583Y-27440D03*
G54D12*
X23583Y-25078D03*
X23583Y-24290D03*
X23583Y-23503D03*
X23583Y-22716D03*
X23583Y-21929D03*
G54D14*
X32481Y-27289D03*
X32481Y-28273D03*
X32481Y-29258D03*
X32481Y-30212D03*
X32481Y-30882D03*
X32481Y-32200D03*
X32481Y-26620D03*
X32481Y-25970D03*
X32481Y-23352D03*
X32481Y-24336D03*
X32481Y-25321D03*
G54D15*
X40778Y-21374D03*
X41221Y-32397D03*
G54D16*
X37245Y-32555D03*
G54D17*
X36811Y-23352D03*
G54D18*
X35689Y-24336D03*
G54D17*
X36014Y-25242D03*
G54D19*
X35975Y-26295D03*
G54D17*
X36014Y-27299D03*
X35955Y-28283D03*
X35935Y-29258D03*
X35945Y-30232D03*
X35945Y-30911D03*
G54D20*
X42048Y-31807D03*
X42048Y-22279D03*
G54D21*
X26323Y-21929D03*
X25723Y-21929D03*
X30960Y-24055D03*
X31560Y-24055D03*
X29700Y-25315D03*
X30300Y-25315D03*
X29700Y-28268D03*
X30300Y-28268D03*
G54D22*
X25512Y-24040D03*
X25512Y-23440D03*
G54D21*
X30330Y-29252D03*
X30930Y-29252D03*
X30330Y-26024D03*
X30930Y-26024D03*
G54D22*
X31421Y-22771D03*
X31421Y-23371D03*
G54D21*
X31058Y-30902D03*
X31658Y-30902D03*
G54D22*
X31402Y-27261D03*
X31402Y-26661D03*
G54D21*
X31560Y-24803D03*
X30960Y-24803D03*
X26983Y-21929D03*
X27583Y-21929D03*
G54D23*
X29764Y-23483D03*
X29764Y-24233D03*
G54D24*
X26273Y-24215D03*
X28373Y-24215D03*
X26273Y-23715D03*
X26273Y-23215D03*
X26273Y-22715D03*
X28373Y-23715D03*
X28373Y-23215D03*
X28373Y-22715D03*
M02*
