G04 (created by PCBNEW-RS274X (2011-07-08 BZR 3044)-stable) date 27/07/2011 21:07:09*
G01*
G70*
G90*
%MOIN*%
G04 Gerber Fmt 3.4, Leading zero omitted, Abs format*
%FSLAX34Y34*%
G04 APERTURE LIST*
%ADD10C,0.006000*%
%ADD11O,0.079100X0.138100*%
%ADD12R,0.079100X0.138100*%
%ADD13R,0.098700X0.098700*%
%ADD14C,0.098700*%
%ADD15C,0.086900*%
%ADD16R,0.094800X0.086900*%
%ADD17O,0.098700X0.086900*%
%ADD18R,0.083000X0.094800*%
%ADD19O,0.083000X0.098700*%
%ADD20C,0.197200*%
%ADD21C,0.216900*%
%ADD22O,0.138100X0.079100*%
%ADD23R,0.138100X0.079100*%
%ADD24C,0.079100*%
G04 APERTURE END LIST*
G54D10*
G54D11*
X20162Y-13260D03*
X19375Y-13260D03*
G54D12*
X18587Y-13260D03*
G54D11*
X20949Y-13260D03*
X21737Y-13260D03*
X22524Y-13260D03*
X23311Y-13260D03*
X24098Y-13260D03*
X24886Y-13260D03*
G54D13*
X26965Y-16150D03*
G54D14*
X28441Y-16150D03*
X29917Y-16150D03*
G54D15*
X66890Y-26850D03*
X66890Y-25276D03*
X69252Y-26850D03*
X69252Y-25276D03*
X72795Y-21693D03*
X72795Y-23267D03*
X70433Y-21693D03*
X70433Y-23267D03*
X69252Y-18110D03*
X69252Y-19684D03*
X66890Y-18110D03*
X66890Y-19684D03*
X65709Y-21693D03*
X65709Y-23267D03*
X63347Y-21693D03*
X63347Y-23267D03*
X20197Y-21259D03*
X20197Y-19685D03*
X22559Y-21259D03*
X22559Y-19685D03*
X20197Y-27047D03*
X20197Y-25473D03*
X22559Y-27047D03*
X22559Y-25473D03*
G54D16*
X75736Y-25671D03*
G54D17*
X74736Y-25671D03*
X75736Y-24671D03*
X74736Y-24671D03*
G54D15*
X75736Y-23671D03*
X74736Y-23671D03*
G54D17*
X75736Y-22671D03*
X74736Y-22671D03*
X75736Y-21671D03*
X74736Y-21671D03*
G54D16*
X74697Y-27553D03*
G54D17*
X75697Y-27553D03*
X74697Y-28553D03*
X75697Y-28553D03*
X74697Y-29553D03*
X75697Y-29553D03*
G54D18*
X36402Y-32372D03*
G54D19*
X35402Y-32372D03*
X34402Y-32372D03*
X33402Y-32372D03*
G54D18*
X47130Y-31394D03*
G54D19*
X47130Y-32394D03*
X46130Y-31394D03*
X46130Y-32394D03*
X45130Y-31394D03*
X45130Y-32394D03*
X44130Y-31394D03*
X44130Y-32394D03*
G54D20*
X62362Y-13780D03*
G54D21*
X76575Y-13425D03*
G54D20*
X61811Y-31969D03*
G54D21*
X74370Y-31654D03*
G54D20*
X27480Y-31969D03*
G54D21*
X15709Y-31535D03*
G54D20*
X21417Y-23425D03*
G54D21*
X13504Y-13425D03*
G54D20*
X27480Y-13780D03*
G54D11*
X59858Y-13236D03*
X59071Y-13236D03*
G54D12*
X58283Y-13236D03*
G54D11*
X51925Y-13216D03*
X51138Y-13216D03*
G54D12*
X50350Y-13216D03*
G54D11*
X52712Y-13216D03*
X53500Y-13216D03*
X54287Y-13216D03*
X69454Y-13331D03*
X68667Y-13331D03*
G54D12*
X67879Y-13331D03*
G54D11*
X70241Y-13331D03*
X71029Y-13331D03*
X71816Y-13331D03*
X72603Y-13331D03*
X73390Y-13331D03*
X74178Y-13331D03*
G54D22*
X76795Y-17055D03*
X76795Y-16268D03*
G54D23*
X76795Y-15480D03*
G54D22*
X76795Y-17842D03*
X76795Y-18630D03*
X76795Y-19417D03*
G54D11*
X31114Y-13520D03*
X30326Y-13520D03*
G54D12*
X29539Y-13520D03*
G54D11*
X31901Y-13520D03*
X32689Y-13520D03*
X33476Y-13520D03*
X34263Y-13520D03*
X35051Y-13520D03*
X35838Y-13520D03*
X36626Y-13520D03*
X37413Y-13520D03*
X38200Y-13520D03*
G54D22*
X13142Y-17504D03*
X13142Y-18291D03*
G54D23*
X13142Y-19079D03*
G54D22*
X13142Y-16717D03*
X13142Y-15929D03*
X14399Y-29654D03*
G54D23*
X14399Y-28866D03*
G54D22*
X71252Y-30611D03*
X71252Y-31398D03*
G54D23*
X71252Y-32186D03*
G54D22*
X64413Y-30626D03*
X64413Y-31413D03*
G54D23*
X64413Y-32201D03*
G54D11*
X72945Y-16882D03*
X73732Y-16882D03*
G54D12*
X74520Y-16882D03*
G54D11*
X72158Y-16882D03*
X53326Y-32201D03*
X54113Y-32201D03*
G54D12*
X54901Y-32201D03*
G54D11*
X52539Y-32201D03*
X51751Y-32201D03*
X50964Y-32201D03*
X50177Y-32201D03*
X49390Y-32201D03*
X56107Y-17912D03*
G54D12*
X55319Y-17912D03*
G54D24*
X50133Y-26035D03*
X52055Y-26035D03*
G54D11*
X64374Y-13721D03*
X65161Y-13721D03*
G54D12*
X65949Y-13721D03*
G54D22*
X14342Y-22945D03*
X14342Y-23732D03*
G54D23*
X14342Y-24520D03*
G54D22*
X14342Y-22158D03*
G54D11*
X40733Y-32134D03*
X41520Y-32134D03*
G54D12*
X42308Y-32134D03*
M02*
