G04 (created by PCBNEW-RS274X (2010-05-05 BZR 2356)-stable) date 8/04/2011 10:33:59 a.m.*
G01*
G70*
G90*
%MOIN*%
G04 Gerber Fmt 3.4, Leading zero omitted, Abs format*
%FSLAX34Y34*%
G04 APERTURE LIST*
%ADD10C,0.006000*%
%ADD11C,0.005000*%
%ADD12C,0.015000*%
%ADD13C,0.012000*%
%ADD14C,0.003900*%
G04 APERTURE END LIST*
G54D10*
G54D11*
X21575Y-21141D02*
X21575Y-22716D01*
X19607Y-22716D02*
X19607Y-21141D01*
X21575Y-23503D02*
X21575Y-22715D01*
X19607Y-23503D02*
X19607Y-22715D01*
X21575Y-23503D02*
X21575Y-28227D01*
X21575Y-28227D02*
X19607Y-28227D01*
X19607Y-28227D02*
X19607Y-23503D01*
X19607Y-21140D02*
X21575Y-21140D01*
G54D12*
X32933Y-32673D02*
X32933Y-21147D01*
X32933Y-21147D02*
X44174Y-21147D01*
X44174Y-21147D02*
X44174Y-32653D01*
X44174Y-32653D02*
X32933Y-32653D01*
G54D11*
X23858Y-21693D02*
X22854Y-21693D01*
X22834Y-22165D02*
X23858Y-22165D01*
X23858Y-22165D02*
X23858Y-21693D01*
X22845Y-22161D02*
X22845Y-21701D01*
X29488Y-24567D02*
X30492Y-24567D01*
X30512Y-24095D02*
X29488Y-24095D01*
X29488Y-24095D02*
X29488Y-24567D01*
X30501Y-24099D02*
X30501Y-24559D01*
X29488Y-25551D02*
X30492Y-25551D01*
X30512Y-25079D02*
X29488Y-25079D01*
X29488Y-25079D02*
X29488Y-25551D01*
X30501Y-25083D02*
X30501Y-25543D01*
X29488Y-28504D02*
X30492Y-28504D01*
X30512Y-28032D02*
X29488Y-28032D01*
X29488Y-28032D02*
X29488Y-28504D01*
X30501Y-28036D02*
X30501Y-28496D01*
X23071Y-24252D02*
X23071Y-23248D01*
X22599Y-23228D02*
X22599Y-24252D01*
X22599Y-24252D02*
X23071Y-24252D01*
X22603Y-23239D02*
X23063Y-23239D01*
X30118Y-29488D02*
X31122Y-29488D01*
X31142Y-29016D02*
X30118Y-29016D01*
X30118Y-29016D02*
X30118Y-29488D01*
X31131Y-29020D02*
X31131Y-29480D01*
X30118Y-26260D02*
X31122Y-26260D01*
X31142Y-25788D02*
X30118Y-25788D01*
X30118Y-25788D02*
X30118Y-26260D01*
X31131Y-25792D02*
X31131Y-26252D01*
X31185Y-22559D02*
X31185Y-23563D01*
X31657Y-23583D02*
X31657Y-22559D01*
X31657Y-22559D02*
X31185Y-22559D01*
X31653Y-23572D02*
X31193Y-23572D01*
X30846Y-31138D02*
X31850Y-31138D01*
X31870Y-30666D02*
X30846Y-30666D01*
X30846Y-30666D02*
X30846Y-31138D01*
X31859Y-30670D02*
X31859Y-31130D01*
X31638Y-27473D02*
X31638Y-26469D01*
X31166Y-26449D02*
X31166Y-27473D01*
X31166Y-27473D02*
X31638Y-27473D01*
X31170Y-26460D02*
X31630Y-26460D01*
X31772Y-24567D02*
X30768Y-24567D01*
X30748Y-25039D02*
X31772Y-25039D01*
X31772Y-25039D02*
X31772Y-24567D01*
X30759Y-25035D02*
X30759Y-24575D01*
X24094Y-22165D02*
X25098Y-22165D01*
X25118Y-21693D02*
X24094Y-21693D01*
X24094Y-21693D02*
X24094Y-22165D01*
X25107Y-21697D02*
X25107Y-22157D01*
X26837Y-23208D02*
X26836Y-23217D01*
X26833Y-23227D01*
X26828Y-23235D01*
X26822Y-23243D01*
X26814Y-23249D01*
X26806Y-23254D01*
X26797Y-23256D01*
X26787Y-23257D01*
X26778Y-23257D01*
X26769Y-23254D01*
X26760Y-23249D01*
X26753Y-23243D01*
X26746Y-23236D01*
X26742Y-23227D01*
X26739Y-23218D01*
X26738Y-23208D01*
X26738Y-23199D01*
X26741Y-23190D01*
X26745Y-23181D01*
X26752Y-23174D01*
X26759Y-23167D01*
X26767Y-23163D01*
X26777Y-23160D01*
X26786Y-23159D01*
X26795Y-23159D01*
X26805Y-23162D01*
X26813Y-23166D01*
X26821Y-23172D01*
X26827Y-23180D01*
X26832Y-23188D01*
X26835Y-23197D01*
X26836Y-23207D01*
X26837Y-23208D01*
X26787Y-23658D02*
X26787Y-23258D01*
X26787Y-23258D02*
X27387Y-23258D01*
X27387Y-23258D02*
X27387Y-23658D01*
X27387Y-24058D02*
X27387Y-24458D01*
X27387Y-24458D02*
X26787Y-24458D01*
X26787Y-24458D02*
X26787Y-24058D01*
X25346Y-24515D02*
X25396Y-24515D01*
X25396Y-24515D02*
X25396Y-22415D01*
X23896Y-22415D02*
X23896Y-24515D01*
X23896Y-24515D02*
X25346Y-24515D01*
X24446Y-24515D02*
X24446Y-24315D01*
X24446Y-24315D02*
X24846Y-24315D01*
X24846Y-24315D02*
X24846Y-24515D01*
X23896Y-22415D02*
X25396Y-22415D01*
G54D10*
X20296Y-26130D02*
X20886Y-26130D01*
X20296Y-25600D02*
X20886Y-25600D01*
X20886Y-26130D02*
X20909Y-26128D01*
X20932Y-26125D01*
X20954Y-26120D01*
X20976Y-26114D01*
X20997Y-26105D01*
X21018Y-26094D01*
X21037Y-26082D01*
X21056Y-26068D01*
X21073Y-26052D01*
X21089Y-26035D01*
X21103Y-26016D01*
X21115Y-25997D01*
X21126Y-25976D01*
X21135Y-25955D01*
X21141Y-25933D01*
X21146Y-25911D01*
X21149Y-25888D01*
X21151Y-25865D01*
X21149Y-25842D01*
X21146Y-25819D01*
X21141Y-25797D01*
X21135Y-25775D01*
X21126Y-25754D01*
X21115Y-25733D01*
X21103Y-25714D01*
X21089Y-25695D01*
X21073Y-25678D01*
X21056Y-25662D01*
X21037Y-25648D01*
X21018Y-25636D01*
X20997Y-25625D01*
X20976Y-25616D01*
X20954Y-25610D01*
X20932Y-25605D01*
X20909Y-25602D01*
X20886Y-25600D01*
X20296Y-25600D02*
X20273Y-25602D01*
X20250Y-25605D01*
X20228Y-25610D01*
X20206Y-25616D01*
X20185Y-25625D01*
X20164Y-25636D01*
X20145Y-25648D01*
X20126Y-25662D01*
X20109Y-25678D01*
X20093Y-25695D01*
X20079Y-25714D01*
X20067Y-25733D01*
X20056Y-25754D01*
X20047Y-25775D01*
X20041Y-25797D01*
X20036Y-25819D01*
X20033Y-25842D01*
X20031Y-25865D01*
X20033Y-25888D01*
X20036Y-25911D01*
X20041Y-25933D01*
X20047Y-25955D01*
X20056Y-25976D01*
X20067Y-25997D01*
X20079Y-26016D01*
X20093Y-26035D01*
X20109Y-26052D01*
X20126Y-26068D01*
X20145Y-26082D01*
X20164Y-26094D01*
X20185Y-26105D01*
X20206Y-26114D01*
X20228Y-26120D01*
X20250Y-26125D01*
X20273Y-26128D01*
X20296Y-26130D01*
X20296Y-26917D02*
X20886Y-26917D01*
X20296Y-26387D02*
X20886Y-26387D01*
X20886Y-26917D02*
X20909Y-26915D01*
X20932Y-26912D01*
X20954Y-26907D01*
X20976Y-26901D01*
X20997Y-26892D01*
X21018Y-26881D01*
X21037Y-26869D01*
X21056Y-26855D01*
X21073Y-26839D01*
X21089Y-26822D01*
X21103Y-26803D01*
X21115Y-26784D01*
X21126Y-26763D01*
X21135Y-26742D01*
X21141Y-26720D01*
X21146Y-26698D01*
X21149Y-26675D01*
X21151Y-26652D01*
X21149Y-26629D01*
X21146Y-26606D01*
X21141Y-26584D01*
X21135Y-26562D01*
X21126Y-26541D01*
X21115Y-26520D01*
X21103Y-26501D01*
X21089Y-26482D01*
X21073Y-26465D01*
X21056Y-26449D01*
X21037Y-26435D01*
X21018Y-26423D01*
X20997Y-26412D01*
X20976Y-26403D01*
X20954Y-26397D01*
X20932Y-26392D01*
X20909Y-26389D01*
X20886Y-26387D01*
X20296Y-26387D02*
X20273Y-26389D01*
X20250Y-26392D01*
X20228Y-26397D01*
X20206Y-26403D01*
X20185Y-26412D01*
X20164Y-26423D01*
X20145Y-26435D01*
X20126Y-26449D01*
X20109Y-26465D01*
X20093Y-26482D01*
X20079Y-26501D01*
X20067Y-26520D01*
X20056Y-26541D01*
X20047Y-26562D01*
X20041Y-26584D01*
X20036Y-26606D01*
X20033Y-26629D01*
X20031Y-26652D01*
X20033Y-26675D01*
X20036Y-26698D01*
X20041Y-26720D01*
X20047Y-26742D01*
X20056Y-26763D01*
X20067Y-26784D01*
X20079Y-26803D01*
X20093Y-26822D01*
X20109Y-26839D01*
X20126Y-26855D01*
X20145Y-26869D01*
X20164Y-26881D01*
X20185Y-26892D01*
X20206Y-26901D01*
X20228Y-26907D01*
X20250Y-26912D01*
X20273Y-26915D01*
X20296Y-26917D01*
X20031Y-27175D02*
X20031Y-27705D01*
X21151Y-27705D01*
X21151Y-27175D01*
X20031Y-27175D01*
X20296Y-25343D02*
X20886Y-25343D01*
X20296Y-24813D02*
X20886Y-24813D01*
X20886Y-25343D02*
X20909Y-25341D01*
X20932Y-25338D01*
X20954Y-25333D01*
X20976Y-25327D01*
X20997Y-25318D01*
X21018Y-25307D01*
X21037Y-25295D01*
X21056Y-25281D01*
X21073Y-25265D01*
X21089Y-25248D01*
X21103Y-25229D01*
X21115Y-25210D01*
X21126Y-25189D01*
X21135Y-25168D01*
X21141Y-25146D01*
X21146Y-25124D01*
X21149Y-25101D01*
X21151Y-25078D01*
X21149Y-25055D01*
X21146Y-25032D01*
X21141Y-25010D01*
X21135Y-24988D01*
X21126Y-24967D01*
X21115Y-24946D01*
X21103Y-24927D01*
X21089Y-24908D01*
X21073Y-24891D01*
X21056Y-24875D01*
X21037Y-24861D01*
X21018Y-24849D01*
X20997Y-24838D01*
X20976Y-24829D01*
X20954Y-24823D01*
X20932Y-24818D01*
X20909Y-24815D01*
X20886Y-24813D01*
X20296Y-24813D02*
X20273Y-24815D01*
X20250Y-24818D01*
X20228Y-24823D01*
X20206Y-24829D01*
X20185Y-24838D01*
X20164Y-24849D01*
X20145Y-24861D01*
X20126Y-24875D01*
X20109Y-24891D01*
X20093Y-24908D01*
X20079Y-24927D01*
X20067Y-24946D01*
X20056Y-24967D01*
X20047Y-24988D01*
X20041Y-25010D01*
X20036Y-25032D01*
X20033Y-25055D01*
X20031Y-25078D01*
X20033Y-25101D01*
X20036Y-25124D01*
X20041Y-25146D01*
X20047Y-25168D01*
X20056Y-25189D01*
X20067Y-25210D01*
X20079Y-25229D01*
X20093Y-25248D01*
X20109Y-25265D01*
X20126Y-25281D01*
X20145Y-25295D01*
X20164Y-25307D01*
X20185Y-25318D01*
X20206Y-25327D01*
X20228Y-25333D01*
X20250Y-25338D01*
X20273Y-25341D01*
X20296Y-25343D01*
X20296Y-24555D02*
X20886Y-24555D01*
X20296Y-24025D02*
X20886Y-24025D01*
X20886Y-24555D02*
X20909Y-24553D01*
X20932Y-24550D01*
X20954Y-24545D01*
X20976Y-24539D01*
X20997Y-24530D01*
X21018Y-24519D01*
X21037Y-24507D01*
X21056Y-24493D01*
X21073Y-24477D01*
X21089Y-24460D01*
X21103Y-24441D01*
X21115Y-24422D01*
X21126Y-24401D01*
X21135Y-24380D01*
X21141Y-24358D01*
X21146Y-24336D01*
X21149Y-24313D01*
X21151Y-24290D01*
X21149Y-24267D01*
X21146Y-24244D01*
X21141Y-24222D01*
X21135Y-24200D01*
X21126Y-24179D01*
X21115Y-24158D01*
X21103Y-24139D01*
X21089Y-24120D01*
X21073Y-24103D01*
X21056Y-24087D01*
X21037Y-24073D01*
X21018Y-24061D01*
X20997Y-24050D01*
X20976Y-24041D01*
X20954Y-24035D01*
X20932Y-24030D01*
X20909Y-24027D01*
X20886Y-24025D01*
X20296Y-24025D02*
X20273Y-24027D01*
X20250Y-24030D01*
X20228Y-24035D01*
X20206Y-24041D01*
X20185Y-24050D01*
X20164Y-24061D01*
X20145Y-24073D01*
X20126Y-24087D01*
X20109Y-24103D01*
X20093Y-24120D01*
X20079Y-24139D01*
X20067Y-24158D01*
X20056Y-24179D01*
X20047Y-24200D01*
X20041Y-24222D01*
X20036Y-24244D01*
X20033Y-24267D01*
X20031Y-24290D01*
X20033Y-24313D01*
X20036Y-24336D01*
X20041Y-24358D01*
X20047Y-24380D01*
X20056Y-24401D01*
X20067Y-24422D01*
X20079Y-24441D01*
X20093Y-24460D01*
X20109Y-24477D01*
X20126Y-24493D01*
X20145Y-24507D01*
X20164Y-24519D01*
X20185Y-24530D01*
X20206Y-24539D01*
X20228Y-24545D01*
X20250Y-24550D01*
X20273Y-24553D01*
X20296Y-24555D01*
X20296Y-23768D02*
X20886Y-23768D01*
X20296Y-23238D02*
X20886Y-23238D01*
X20886Y-23768D02*
X20909Y-23766D01*
X20932Y-23763D01*
X20954Y-23758D01*
X20976Y-23752D01*
X20997Y-23743D01*
X21018Y-23732D01*
X21037Y-23720D01*
X21056Y-23706D01*
X21073Y-23690D01*
X21089Y-23673D01*
X21103Y-23654D01*
X21115Y-23635D01*
X21126Y-23614D01*
X21135Y-23593D01*
X21141Y-23571D01*
X21146Y-23549D01*
X21149Y-23526D01*
X21151Y-23503D01*
X21149Y-23480D01*
X21146Y-23457D01*
X21141Y-23435D01*
X21135Y-23413D01*
X21126Y-23392D01*
X21115Y-23371D01*
X21103Y-23352D01*
X21089Y-23333D01*
X21073Y-23316D01*
X21056Y-23300D01*
X21037Y-23286D01*
X21018Y-23274D01*
X20997Y-23263D01*
X20976Y-23254D01*
X20954Y-23248D01*
X20932Y-23243D01*
X20909Y-23240D01*
X20886Y-23238D01*
X20296Y-23238D02*
X20273Y-23240D01*
X20250Y-23243D01*
X20228Y-23248D01*
X20206Y-23254D01*
X20185Y-23263D01*
X20164Y-23274D01*
X20145Y-23286D01*
X20126Y-23300D01*
X20109Y-23316D01*
X20093Y-23333D01*
X20079Y-23352D01*
X20067Y-23371D01*
X20056Y-23392D01*
X20047Y-23413D01*
X20041Y-23435D01*
X20036Y-23457D01*
X20033Y-23480D01*
X20031Y-23503D01*
X20033Y-23526D01*
X20036Y-23549D01*
X20041Y-23571D01*
X20047Y-23593D01*
X20056Y-23614D01*
X20067Y-23635D01*
X20079Y-23654D01*
X20093Y-23673D01*
X20109Y-23690D01*
X20126Y-23706D01*
X20145Y-23720D01*
X20164Y-23732D01*
X20185Y-23743D01*
X20206Y-23752D01*
X20228Y-23758D01*
X20250Y-23763D01*
X20273Y-23766D01*
X20296Y-23768D01*
X20296Y-22981D02*
X20886Y-22981D01*
X20296Y-22451D02*
X20886Y-22451D01*
X20886Y-22981D02*
X20909Y-22979D01*
X20932Y-22976D01*
X20954Y-22971D01*
X20976Y-22965D01*
X20997Y-22956D01*
X21018Y-22945D01*
X21037Y-22933D01*
X21056Y-22919D01*
X21073Y-22903D01*
X21089Y-22886D01*
X21103Y-22867D01*
X21115Y-22848D01*
X21126Y-22827D01*
X21135Y-22806D01*
X21141Y-22784D01*
X21146Y-22762D01*
X21149Y-22739D01*
X21151Y-22716D01*
X21149Y-22693D01*
X21146Y-22670D01*
X21141Y-22648D01*
X21135Y-22626D01*
X21126Y-22605D01*
X21115Y-22584D01*
X21103Y-22565D01*
X21089Y-22546D01*
X21073Y-22529D01*
X21056Y-22513D01*
X21037Y-22499D01*
X21018Y-22487D01*
X20997Y-22476D01*
X20976Y-22467D01*
X20954Y-22461D01*
X20932Y-22456D01*
X20909Y-22453D01*
X20886Y-22451D01*
X20296Y-22451D02*
X20273Y-22453D01*
X20250Y-22456D01*
X20228Y-22461D01*
X20206Y-22467D01*
X20185Y-22476D01*
X20164Y-22487D01*
X20145Y-22499D01*
X20126Y-22513D01*
X20109Y-22529D01*
X20093Y-22546D01*
X20079Y-22565D01*
X20067Y-22584D01*
X20056Y-22605D01*
X20047Y-22626D01*
X20041Y-22648D01*
X20036Y-22670D01*
X20033Y-22693D01*
X20031Y-22716D01*
X20033Y-22739D01*
X20036Y-22762D01*
X20041Y-22784D01*
X20047Y-22806D01*
X20056Y-22827D01*
X20067Y-22848D01*
X20079Y-22867D01*
X20093Y-22886D01*
X20109Y-22903D01*
X20126Y-22919D01*
X20145Y-22933D01*
X20164Y-22945D01*
X20185Y-22956D01*
X20206Y-22965D01*
X20228Y-22971D01*
X20250Y-22976D01*
X20273Y-22979D01*
X20296Y-22981D01*
X20296Y-22194D02*
X20886Y-22194D01*
X20296Y-21664D02*
X20886Y-21664D01*
X20886Y-22194D02*
X20909Y-22192D01*
X20932Y-22189D01*
X20954Y-22184D01*
X20976Y-22178D01*
X20997Y-22169D01*
X21018Y-22158D01*
X21037Y-22146D01*
X21056Y-22132D01*
X21073Y-22116D01*
X21089Y-22099D01*
X21103Y-22080D01*
X21115Y-22061D01*
X21126Y-22040D01*
X21135Y-22019D01*
X21141Y-21997D01*
X21146Y-21975D01*
X21149Y-21952D01*
X21151Y-21929D01*
X21149Y-21906D01*
X21146Y-21883D01*
X21141Y-21861D01*
X21135Y-21839D01*
X21126Y-21818D01*
X21115Y-21797D01*
X21103Y-21778D01*
X21089Y-21759D01*
X21073Y-21742D01*
X21056Y-21726D01*
X21037Y-21712D01*
X21018Y-21700D01*
X20997Y-21689D01*
X20976Y-21680D01*
X20954Y-21674D01*
X20932Y-21669D01*
X20909Y-21666D01*
X20886Y-21664D01*
X20296Y-21664D02*
X20273Y-21666D01*
X20250Y-21669D01*
X20228Y-21674D01*
X20206Y-21680D01*
X20185Y-21689D01*
X20164Y-21700D01*
X20145Y-21712D01*
X20126Y-21726D01*
X20109Y-21742D01*
X20093Y-21759D01*
X20079Y-21778D01*
X20067Y-21797D01*
X20056Y-21818D01*
X20047Y-21839D01*
X20041Y-21861D01*
X20036Y-21883D01*
X20033Y-21906D01*
X20031Y-21929D01*
X20033Y-21952D01*
X20036Y-21975D01*
X20041Y-21997D01*
X20047Y-22019D01*
X20056Y-22040D01*
X20067Y-22061D01*
X20079Y-22080D01*
X20093Y-22099D01*
X20109Y-22116D01*
X20126Y-22132D01*
X20145Y-22146D01*
X20164Y-22158D01*
X20185Y-22169D01*
X20206Y-22178D01*
X20228Y-22184D01*
X20250Y-22189D01*
X20273Y-22192D01*
X20296Y-22194D01*
X42411Y-31807D02*
X42404Y-31877D01*
X42383Y-31945D01*
X42350Y-32007D01*
X42305Y-32062D01*
X42250Y-32107D01*
X42188Y-32141D01*
X42120Y-32162D01*
X42050Y-32169D01*
X41980Y-32163D01*
X41913Y-32143D01*
X41850Y-32110D01*
X41795Y-32066D01*
X41749Y-32012D01*
X41715Y-31950D01*
X41693Y-31882D01*
X41686Y-31812D01*
X41691Y-31742D01*
X41711Y-31674D01*
X41743Y-31611D01*
X41787Y-31555D01*
X41841Y-31509D01*
X41903Y-31475D01*
X41971Y-31453D01*
X42041Y-31445D01*
X42111Y-31450D01*
X42179Y-31469D01*
X42242Y-31501D01*
X42298Y-31545D01*
X42344Y-31598D01*
X42379Y-31660D01*
X42401Y-31727D01*
X42410Y-31797D01*
X42411Y-31807D01*
X42411Y-22279D02*
X42404Y-22349D01*
X42383Y-22417D01*
X42350Y-22479D01*
X42305Y-22534D01*
X42250Y-22579D01*
X42188Y-22613D01*
X42120Y-22634D01*
X42050Y-22641D01*
X41980Y-22635D01*
X41913Y-22615D01*
X41850Y-22582D01*
X41795Y-22538D01*
X41749Y-22484D01*
X41715Y-22422D01*
X41693Y-22354D01*
X41686Y-22284D01*
X41691Y-22214D01*
X41711Y-22146D01*
X41743Y-22083D01*
X41787Y-22027D01*
X41841Y-21981D01*
X41903Y-21947D01*
X41971Y-21925D01*
X42041Y-21917D01*
X42111Y-21922D01*
X42179Y-21941D01*
X42242Y-21973D01*
X42298Y-22017D01*
X42344Y-22070D01*
X42379Y-22132D01*
X42401Y-22199D01*
X42410Y-22269D01*
X42411Y-22279D01*
G54D13*
X20109Y-29219D02*
X20109Y-28619D01*
X20337Y-28619D01*
X20395Y-28647D01*
X20423Y-28676D01*
X20452Y-28733D01*
X20452Y-28819D01*
X20423Y-28876D01*
X20395Y-28905D01*
X20337Y-28933D01*
X20109Y-28933D01*
X20680Y-28676D02*
X20709Y-28647D01*
X20766Y-28619D01*
X20909Y-28619D01*
X20966Y-28647D01*
X20995Y-28676D01*
X21023Y-28733D01*
X21023Y-28790D01*
X20995Y-28876D01*
X20652Y-29219D01*
X21023Y-29219D01*
X38649Y-27308D02*
X38049Y-27308D01*
X38049Y-27080D01*
X38077Y-27022D01*
X38106Y-26994D01*
X38163Y-26965D01*
X38249Y-26965D01*
X38306Y-26994D01*
X38335Y-27022D01*
X38363Y-27080D01*
X38363Y-27308D01*
X38649Y-26394D02*
X38649Y-26737D01*
X38649Y-26565D02*
X38049Y-26565D01*
X38135Y-26622D01*
X38192Y-26680D01*
X38220Y-26737D01*
X40470Y-30957D02*
X40499Y-30871D01*
X40499Y-30728D01*
X40470Y-30671D01*
X40442Y-30642D01*
X40385Y-30614D01*
X40327Y-30614D01*
X40270Y-30642D01*
X40242Y-30671D01*
X40213Y-30728D01*
X40185Y-30842D01*
X40156Y-30900D01*
X40127Y-30928D01*
X40070Y-30957D01*
X40013Y-30957D01*
X39956Y-30928D01*
X39927Y-30900D01*
X39899Y-30842D01*
X39899Y-30700D01*
X39927Y-30614D01*
X40499Y-30357D02*
X39899Y-30357D01*
X39899Y-30214D01*
X39927Y-30129D01*
X39985Y-30071D01*
X40042Y-30043D01*
X40156Y-30014D01*
X40242Y-30014D01*
X40356Y-30043D01*
X40413Y-30071D01*
X40470Y-30129D01*
X40499Y-30214D01*
X40499Y-30357D01*
X40442Y-29414D02*
X40470Y-29443D01*
X40499Y-29529D01*
X40499Y-29586D01*
X40470Y-29671D01*
X40413Y-29729D01*
X40356Y-29757D01*
X40242Y-29786D01*
X40156Y-29786D01*
X40042Y-29757D01*
X39985Y-29729D01*
X39927Y-29671D01*
X39899Y-29586D01*
X39899Y-29529D01*
X39927Y-29443D01*
X39956Y-29414D01*
X40556Y-29300D02*
X40556Y-28843D01*
X40499Y-28700D02*
X39899Y-28700D01*
X40327Y-28500D01*
X39899Y-28300D01*
X40499Y-28300D01*
X40499Y-28014D02*
X39899Y-28014D01*
X40327Y-27814D01*
X39899Y-27614D01*
X40499Y-27614D01*
X40442Y-26985D02*
X40470Y-27014D01*
X40499Y-27100D01*
X40499Y-27157D01*
X40470Y-27242D01*
X40413Y-27300D01*
X40356Y-27328D01*
X40242Y-27357D01*
X40156Y-27357D01*
X40042Y-27328D01*
X39985Y-27300D01*
X39927Y-27242D01*
X39899Y-27157D01*
X39899Y-27100D01*
X39927Y-27014D01*
X39956Y-26985D01*
X40556Y-26871D02*
X40556Y-26414D01*
X40470Y-26300D02*
X40499Y-26214D01*
X40499Y-26071D01*
X40470Y-26014D01*
X40442Y-25985D01*
X40385Y-25957D01*
X40327Y-25957D01*
X40270Y-25985D01*
X40242Y-26014D01*
X40213Y-26071D01*
X40185Y-26185D01*
X40156Y-26243D01*
X40127Y-26271D01*
X40070Y-26300D01*
X40013Y-26300D01*
X39956Y-26271D01*
X39927Y-26243D01*
X39899Y-26185D01*
X39899Y-26043D01*
X39927Y-25957D01*
X39899Y-25586D02*
X39899Y-25472D01*
X39927Y-25414D01*
X39985Y-25357D01*
X40099Y-25329D01*
X40299Y-25329D01*
X40413Y-25357D01*
X40470Y-25414D01*
X40499Y-25472D01*
X40499Y-25586D01*
X40470Y-25643D01*
X40413Y-25700D01*
X40299Y-25729D01*
X40099Y-25729D01*
X39985Y-25700D01*
X39927Y-25643D01*
X39899Y-25586D01*
X40442Y-24728D02*
X40470Y-24757D01*
X40499Y-24843D01*
X40499Y-24900D01*
X40470Y-24985D01*
X40413Y-25043D01*
X40356Y-25071D01*
X40242Y-25100D01*
X40156Y-25100D01*
X40042Y-25071D01*
X39985Y-25043D01*
X39927Y-24985D01*
X39899Y-24900D01*
X39899Y-24843D01*
X39927Y-24757D01*
X39956Y-24728D01*
X40499Y-24471D02*
X39899Y-24471D01*
X40499Y-24128D02*
X40156Y-24385D01*
X39899Y-24128D02*
X40242Y-24471D01*
X40185Y-23871D02*
X40185Y-23671D01*
X40499Y-23585D02*
X40499Y-23871D01*
X39899Y-23871D01*
X39899Y-23585D01*
X39899Y-23414D02*
X39899Y-23071D01*
X40499Y-23242D02*
X39899Y-23242D01*
G54D14*
X23340Y-22026D02*
X23288Y-21911D01*
X23250Y-22026D02*
X23250Y-21785D01*
X23310Y-21785D01*
X23325Y-21797D01*
X23333Y-21808D01*
X23340Y-21831D01*
X23340Y-21865D01*
X23333Y-21888D01*
X23325Y-21900D01*
X23310Y-21911D01*
X23250Y-21911D01*
X23415Y-22026D02*
X23445Y-22026D01*
X23460Y-22015D01*
X23467Y-22003D01*
X23482Y-21969D01*
X23490Y-21923D01*
X23490Y-21831D01*
X23482Y-21808D01*
X23475Y-21797D01*
X23460Y-21785D01*
X23430Y-21785D01*
X23415Y-21797D01*
X23407Y-21808D01*
X23400Y-21831D01*
X23400Y-21888D01*
X23407Y-21911D01*
X23415Y-21923D01*
X23430Y-21934D01*
X23460Y-21934D01*
X23475Y-21923D01*
X23482Y-21911D01*
X23490Y-21888D01*
X29954Y-24428D02*
X29902Y-24313D01*
X29864Y-24428D02*
X29864Y-24187D01*
X29924Y-24187D01*
X29939Y-24199D01*
X29947Y-24210D01*
X29954Y-24233D01*
X29954Y-24267D01*
X29947Y-24290D01*
X29939Y-24302D01*
X29924Y-24313D01*
X29864Y-24313D01*
X30044Y-24290D02*
X30029Y-24279D01*
X30021Y-24267D01*
X30014Y-24244D01*
X30014Y-24233D01*
X30021Y-24210D01*
X30029Y-24199D01*
X30044Y-24187D01*
X30074Y-24187D01*
X30089Y-24199D01*
X30096Y-24210D01*
X30104Y-24233D01*
X30104Y-24244D01*
X30096Y-24267D01*
X30089Y-24279D01*
X30074Y-24290D01*
X30044Y-24290D01*
X30029Y-24302D01*
X30021Y-24313D01*
X30014Y-24336D01*
X30014Y-24382D01*
X30021Y-24405D01*
X30029Y-24417D01*
X30044Y-24428D01*
X30074Y-24428D01*
X30089Y-24417D01*
X30096Y-24405D01*
X30104Y-24382D01*
X30104Y-24336D01*
X30096Y-24313D01*
X30089Y-24302D01*
X30074Y-24290D01*
X29954Y-25412D02*
X29902Y-25297D01*
X29864Y-25412D02*
X29864Y-25171D01*
X29924Y-25171D01*
X29939Y-25183D01*
X29947Y-25194D01*
X29954Y-25217D01*
X29954Y-25251D01*
X29947Y-25274D01*
X29939Y-25286D01*
X29924Y-25297D01*
X29864Y-25297D01*
X30006Y-25171D02*
X30111Y-25171D01*
X30044Y-25412D01*
X29954Y-28365D02*
X29902Y-28250D01*
X29864Y-28365D02*
X29864Y-28124D01*
X29924Y-28124D01*
X29939Y-28136D01*
X29947Y-28147D01*
X29954Y-28170D01*
X29954Y-28204D01*
X29947Y-28227D01*
X29939Y-28239D01*
X29924Y-28250D01*
X29864Y-28250D01*
X30089Y-28124D02*
X30059Y-28124D01*
X30044Y-28136D01*
X30036Y-28147D01*
X30021Y-28181D01*
X30014Y-28227D01*
X30014Y-28319D01*
X30021Y-28342D01*
X30029Y-28354D01*
X30044Y-28365D01*
X30074Y-28365D01*
X30089Y-28354D01*
X30096Y-28342D01*
X30104Y-28319D01*
X30104Y-28262D01*
X30096Y-28239D01*
X30089Y-28227D01*
X30074Y-28216D01*
X30044Y-28216D01*
X30029Y-28227D01*
X30021Y-28239D01*
X30014Y-28262D01*
X22932Y-23861D02*
X22817Y-23913D01*
X22932Y-23951D02*
X22691Y-23951D01*
X22691Y-23891D01*
X22703Y-23876D01*
X22714Y-23868D01*
X22737Y-23861D01*
X22771Y-23861D01*
X22794Y-23868D01*
X22806Y-23876D01*
X22817Y-23891D01*
X22817Y-23951D01*
X22932Y-23711D02*
X22932Y-23801D01*
X22932Y-23756D02*
X22691Y-23756D01*
X22725Y-23771D01*
X22748Y-23786D01*
X22760Y-23801D01*
X22691Y-23614D02*
X22691Y-23599D01*
X22703Y-23584D01*
X22714Y-23576D01*
X22737Y-23569D01*
X22783Y-23561D01*
X22840Y-23561D01*
X22886Y-23569D01*
X22909Y-23576D01*
X22921Y-23584D01*
X22932Y-23599D01*
X22932Y-23614D01*
X22921Y-23629D01*
X22909Y-23636D01*
X22886Y-23644D01*
X22840Y-23651D01*
X22783Y-23651D01*
X22737Y-23644D01*
X22714Y-23636D01*
X22703Y-23629D01*
X22691Y-23614D01*
X30584Y-29349D02*
X30532Y-29234D01*
X30494Y-29349D02*
X30494Y-29108D01*
X30554Y-29108D01*
X30569Y-29120D01*
X30577Y-29131D01*
X30584Y-29154D01*
X30584Y-29188D01*
X30577Y-29211D01*
X30569Y-29223D01*
X30554Y-29234D01*
X30494Y-29234D01*
X30719Y-29188D02*
X30719Y-29349D01*
X30681Y-29097D02*
X30644Y-29269D01*
X30741Y-29269D01*
X30584Y-26121D02*
X30532Y-26006D01*
X30494Y-26121D02*
X30494Y-25880D01*
X30554Y-25880D01*
X30569Y-25892D01*
X30577Y-25903D01*
X30584Y-25926D01*
X30584Y-25960D01*
X30577Y-25983D01*
X30569Y-25995D01*
X30554Y-26006D01*
X30494Y-26006D01*
X30636Y-25880D02*
X30734Y-25880D01*
X30681Y-25972D01*
X30704Y-25972D01*
X30719Y-25983D01*
X30726Y-25995D01*
X30734Y-26018D01*
X30734Y-26075D01*
X30726Y-26098D01*
X30719Y-26110D01*
X30704Y-26121D01*
X30659Y-26121D01*
X30644Y-26110D01*
X30636Y-26098D01*
X31518Y-23077D02*
X31403Y-23129D01*
X31518Y-23167D02*
X31277Y-23167D01*
X31277Y-23107D01*
X31289Y-23092D01*
X31300Y-23084D01*
X31323Y-23077D01*
X31357Y-23077D01*
X31380Y-23084D01*
X31392Y-23092D01*
X31403Y-23107D01*
X31403Y-23167D01*
X31300Y-23017D02*
X31289Y-23010D01*
X31277Y-22995D01*
X31277Y-22957D01*
X31289Y-22942D01*
X31300Y-22935D01*
X31323Y-22927D01*
X31346Y-22927D01*
X31380Y-22935D01*
X31518Y-23025D01*
X31518Y-22927D01*
X31312Y-30999D02*
X31260Y-30884D01*
X31222Y-30999D02*
X31222Y-30758D01*
X31282Y-30758D01*
X31297Y-30770D01*
X31305Y-30781D01*
X31312Y-30804D01*
X31312Y-30838D01*
X31305Y-30861D01*
X31297Y-30873D01*
X31282Y-30884D01*
X31222Y-30884D01*
X31462Y-30999D02*
X31372Y-30999D01*
X31417Y-30999D02*
X31417Y-30758D01*
X31402Y-30792D01*
X31387Y-30815D01*
X31372Y-30827D01*
X31476Y-27007D02*
X31488Y-27014D01*
X31499Y-27037D01*
X31499Y-27052D01*
X31488Y-27074D01*
X31465Y-27089D01*
X31442Y-27097D01*
X31396Y-27104D01*
X31361Y-27104D01*
X31315Y-27097D01*
X31292Y-27089D01*
X31270Y-27074D01*
X31258Y-27052D01*
X31258Y-27037D01*
X31270Y-27014D01*
X31281Y-27007D01*
X31499Y-26857D02*
X31499Y-26947D01*
X31499Y-26902D02*
X31258Y-26902D01*
X31292Y-26917D01*
X31315Y-26932D01*
X31327Y-26947D01*
X31254Y-24900D02*
X31202Y-24785D01*
X31164Y-24900D02*
X31164Y-24659D01*
X31224Y-24659D01*
X31239Y-24671D01*
X31247Y-24682D01*
X31254Y-24705D01*
X31254Y-24739D01*
X31247Y-24762D01*
X31239Y-24774D01*
X31224Y-24785D01*
X31164Y-24785D01*
X31396Y-24659D02*
X31321Y-24659D01*
X31314Y-24774D01*
X31321Y-24762D01*
X31336Y-24751D01*
X31374Y-24751D01*
X31389Y-24762D01*
X31396Y-24774D01*
X31404Y-24797D01*
X31404Y-24854D01*
X31396Y-24877D01*
X31389Y-24889D01*
X31374Y-24900D01*
X31336Y-24900D01*
X31321Y-24889D01*
X31314Y-24877D01*
X24560Y-22003D02*
X24553Y-22015D01*
X24530Y-22026D01*
X24515Y-22026D01*
X24493Y-22015D01*
X24478Y-21992D01*
X24470Y-21969D01*
X24463Y-21923D01*
X24463Y-21888D01*
X24470Y-21842D01*
X24478Y-21819D01*
X24493Y-21797D01*
X24515Y-21785D01*
X24530Y-21785D01*
X24553Y-21797D01*
X24560Y-21808D01*
X24620Y-21808D02*
X24627Y-21797D01*
X24642Y-21785D01*
X24680Y-21785D01*
X24695Y-21797D01*
X24702Y-21808D01*
X24710Y-21831D01*
X24710Y-21854D01*
X24702Y-21888D01*
X24612Y-22026D01*
X24710Y-22026D01*
G54D11*
X26938Y-24060D02*
X27188Y-23894D01*
X26938Y-23894D02*
X27188Y-24060D01*
X27188Y-23668D02*
X27188Y-23810D01*
X27188Y-23739D02*
X26938Y-23739D01*
X26974Y-23763D01*
X26998Y-23787D01*
X27010Y-23810D01*
G54D10*
X24028Y-23808D02*
X24392Y-23808D01*
X24435Y-23786D01*
X24457Y-23765D01*
X24478Y-23722D01*
X24478Y-23636D01*
X24457Y-23594D01*
X24435Y-23572D01*
X24392Y-23551D01*
X24028Y-23551D01*
X24478Y-23101D02*
X24478Y-23358D01*
X24478Y-23230D02*
X24028Y-23230D01*
X24092Y-23273D01*
X24135Y-23315D01*
X24157Y-23358D01*
X25188Y-24939D02*
X24838Y-24939D01*
X24838Y-24855D01*
X24854Y-24805D01*
X24888Y-24772D01*
X24921Y-24755D01*
X24988Y-24739D01*
X25038Y-24739D01*
X25104Y-24755D01*
X25138Y-24772D01*
X25171Y-24805D01*
X25188Y-24855D01*
X25188Y-24939D01*
X25171Y-24605D02*
X25188Y-24555D01*
X25188Y-24472D01*
X25171Y-24439D01*
X25154Y-24422D01*
X25121Y-24405D01*
X25088Y-24405D01*
X25054Y-24422D01*
X25038Y-24439D01*
X25021Y-24472D01*
X25004Y-24539D01*
X24988Y-24572D01*
X24971Y-24589D01*
X24938Y-24605D01*
X24904Y-24605D01*
X24871Y-24589D01*
X24854Y-24572D01*
X24838Y-24539D01*
X24838Y-24455D01*
X24854Y-24405D01*
X25188Y-24072D02*
X25188Y-24272D01*
X25188Y-24172D02*
X24838Y-24172D01*
X24888Y-24206D01*
X24921Y-24239D01*
X24938Y-24272D01*
X24838Y-23956D02*
X24838Y-23739D01*
X24971Y-23856D01*
X24971Y-23806D01*
X24988Y-23773D01*
X25004Y-23756D01*
X25038Y-23739D01*
X25121Y-23739D01*
X25154Y-23756D01*
X25171Y-23773D01*
X25188Y-23806D01*
X25188Y-23906D01*
X25171Y-23939D01*
X25154Y-23956D01*
X24838Y-23623D02*
X24838Y-23406D01*
X24971Y-23523D01*
X24971Y-23473D01*
X24988Y-23440D01*
X25004Y-23423D01*
X25038Y-23406D01*
X25121Y-23406D01*
X25154Y-23423D01*
X25171Y-23440D01*
X25188Y-23473D01*
X25188Y-23573D01*
X25171Y-23606D01*
X25154Y-23623D01*
X24988Y-23207D02*
X24971Y-23240D01*
X24954Y-23257D01*
X24921Y-23273D01*
X24904Y-23273D01*
X24871Y-23257D01*
X24854Y-23240D01*
X24838Y-23207D01*
X24838Y-23140D01*
X24854Y-23107D01*
X24871Y-23090D01*
X24904Y-23073D01*
X24921Y-23073D01*
X24954Y-23090D01*
X24971Y-23107D01*
X24988Y-23140D01*
X24988Y-23207D01*
X25004Y-23240D01*
X25021Y-23257D01*
X25054Y-23273D01*
X25121Y-23273D01*
X25154Y-23257D01*
X25171Y-23240D01*
X25188Y-23207D01*
X25188Y-23140D01*
X25171Y-23107D01*
X25154Y-23090D01*
X25121Y-23073D01*
X25054Y-23073D01*
X25021Y-23090D01*
X25004Y-23107D01*
X24988Y-23140D01*
X25054Y-22924D02*
X25054Y-22657D01*
X24838Y-22524D02*
X24838Y-22307D01*
X24971Y-22424D01*
X24971Y-22374D01*
X24988Y-22341D01*
X25004Y-22324D01*
X25038Y-22307D01*
X25121Y-22307D01*
X25154Y-22324D01*
X25171Y-22341D01*
X25188Y-22374D01*
X25188Y-22474D01*
X25171Y-22507D01*
X25154Y-22524D01*
X24838Y-22191D02*
X24838Y-21974D01*
X24971Y-22091D01*
X24971Y-22041D01*
X24988Y-22008D01*
X25004Y-21991D01*
X25038Y-21974D01*
X25121Y-21974D01*
X25154Y-21991D01*
X25171Y-22008D01*
X25188Y-22041D01*
X25188Y-22141D01*
X25171Y-22174D01*
X25154Y-22191D01*
M02*
