G04 (created by PCBNEW-RS274X (2010-05-05 BZR 2356)-stable) date 13/05/2011 9:30:07 a.m.*
G01*
G70*
G90*
%MOIN*%
G04 Gerber Fmt 3.4, Leading zero omitted, Abs format*
%FSLAX34Y34*%
G04 APERTURE LIST*
%ADD10C,0.006000*%
%ADD11R,0.100000X0.200800*%
%ADD12C,0.551200*%
%ADD13O,0.118100X0.059100*%
%ADD14R,0.118100X0.059100*%
%ADD15C,0.078700*%
%ADD16C,0.035000*%
%ADD17C,0.008000*%
%ADD18C,0.010000*%
G04 APERTURE END LIST*
G54D10*
G54D11*
X22755Y-29291D03*
X31771Y-29291D03*
G54D12*
X27283Y-29291D03*
G54D13*
X20591Y-25865D03*
X20591Y-26652D03*
G54D14*
X20591Y-27440D03*
G54D13*
X20591Y-25078D03*
X20591Y-24290D03*
X20591Y-23503D03*
X20591Y-22716D03*
X20591Y-21929D03*
G54D15*
X42048Y-31807D03*
X42048Y-22279D03*
G54D16*
X33425Y-30236D03*
X28937Y-25472D03*
X22441Y-24606D03*
X21969Y-26260D03*
X33346Y-26654D03*
X33425Y-29252D03*
X26535Y-22795D03*
G54D17*
X33425Y-30236D02*
X33386Y-30236D01*
X30354Y-25472D02*
X28937Y-25472D01*
X32638Y-27756D02*
X30354Y-25472D01*
X32638Y-29488D02*
X32638Y-27756D01*
X33386Y-30236D02*
X32638Y-29488D01*
X21969Y-25078D02*
X22441Y-24606D01*
X21969Y-26260D02*
X21969Y-25078D01*
X21969Y-27125D02*
X21969Y-26260D01*
X20591Y-27440D02*
X21654Y-27440D01*
X21654Y-27440D02*
X21969Y-27125D01*
X20591Y-21929D02*
X26929Y-21929D01*
X27283Y-22283D02*
X27283Y-29291D01*
X26929Y-21929D02*
X27283Y-22283D01*
X27283Y-29291D02*
X28582Y-29291D01*
X28582Y-29291D02*
X30275Y-30984D01*
X30275Y-30984D02*
X33662Y-30984D01*
X33662Y-30984D02*
X34016Y-30630D01*
X34016Y-30630D02*
X34016Y-29843D01*
X34016Y-29843D02*
X33425Y-29252D01*
X27283Y-29291D02*
X27283Y-26574D01*
X33425Y-29252D02*
X33425Y-26733D01*
X33425Y-26733D02*
X33346Y-26654D01*
X22755Y-26575D02*
X26535Y-22795D01*
X22755Y-29291D02*
X22755Y-26575D01*
G54D18*
X19409Y-20826D02*
X43938Y-20826D01*
X19409Y-20906D02*
X43938Y-20906D01*
X19409Y-20986D02*
X43938Y-20986D01*
X19409Y-21066D02*
X43938Y-21066D01*
X19409Y-21146D02*
X43938Y-21146D01*
X19409Y-21226D02*
X43938Y-21226D01*
X19409Y-21306D02*
X43938Y-21306D01*
X19409Y-21386D02*
X20194Y-21386D01*
X20541Y-21386D02*
X20641Y-21386D01*
X20989Y-21386D02*
X43938Y-21386D01*
X19409Y-21466D02*
X19995Y-21466D01*
X20541Y-21466D02*
X20641Y-21466D01*
X21188Y-21466D02*
X43938Y-21466D01*
X19409Y-21546D02*
X19912Y-21546D01*
X20541Y-21546D02*
X20641Y-21546D01*
X21271Y-21546D02*
X43938Y-21546D01*
X19409Y-21626D02*
X19837Y-21626D01*
X20541Y-21626D02*
X20641Y-21626D01*
X21346Y-21626D02*
X43938Y-21626D01*
X19409Y-21706D02*
X19805Y-21706D01*
X20541Y-21706D02*
X20641Y-21706D01*
X21378Y-21706D02*
X41753Y-21706D01*
X42344Y-21706D02*
X43938Y-21706D01*
X19409Y-21786D02*
X19772Y-21786D01*
X20541Y-21786D02*
X20641Y-21786D01*
X21411Y-21786D02*
X41633Y-21786D01*
X42464Y-21786D02*
X43938Y-21786D01*
X19409Y-21866D02*
X19808Y-21866D01*
X20541Y-21866D02*
X20641Y-21866D01*
X21373Y-21866D02*
X41553Y-21866D01*
X42544Y-21866D02*
X43938Y-21866D01*
X19409Y-21946D02*
X41491Y-21946D01*
X42606Y-21946D02*
X43938Y-21946D01*
X19409Y-22026D02*
X19790Y-22026D01*
X21393Y-22026D02*
X41458Y-22026D01*
X42639Y-22026D02*
X43938Y-22026D01*
X19409Y-22106D02*
X19785Y-22106D01*
X21396Y-22106D02*
X41424Y-22106D01*
X42672Y-22106D02*
X43938Y-22106D01*
X19409Y-22186D02*
X19818Y-22186D01*
X21363Y-22186D02*
X41405Y-22186D01*
X42691Y-22186D02*
X43938Y-22186D01*
X19409Y-22266D02*
X19863Y-22266D01*
X21317Y-22266D02*
X41405Y-22266D01*
X42691Y-22266D02*
X43938Y-22266D01*
X19409Y-22346D02*
X19893Y-22346D01*
X21289Y-22346D02*
X41405Y-22346D01*
X42691Y-22346D02*
X43938Y-22346D01*
X19409Y-22426D02*
X19822Y-22426D01*
X21362Y-22426D02*
X26315Y-22426D01*
X26755Y-22426D02*
X41413Y-22426D01*
X42683Y-22426D02*
X43938Y-22426D01*
X19409Y-22506D02*
X19789Y-22506D01*
X21395Y-22506D02*
X26223Y-22506D01*
X26847Y-22506D02*
X41446Y-22506D01*
X42649Y-22506D02*
X43938Y-22506D01*
X19409Y-22586D02*
X19755Y-22586D01*
X21428Y-22586D02*
X26162Y-22586D01*
X26909Y-22586D02*
X41479Y-22586D01*
X42616Y-22586D02*
X43938Y-22586D01*
X19409Y-22666D02*
X19745Y-22666D01*
X21437Y-22666D02*
X26129Y-22666D01*
X26942Y-22666D02*
X41526Y-22666D01*
X42569Y-22666D02*
X43938Y-22666D01*
X19409Y-22746D02*
X19745Y-22746D01*
X21437Y-22746D02*
X26110Y-22746D01*
X26960Y-22746D02*
X41606Y-22746D01*
X42489Y-22746D02*
X43938Y-22746D01*
X19409Y-22826D02*
X19746Y-22826D01*
X21435Y-22826D02*
X26094Y-22826D01*
X26960Y-22826D02*
X41690Y-22826D01*
X42406Y-22826D02*
X43938Y-22826D01*
X19409Y-22906D02*
X19779Y-22906D01*
X21402Y-22906D02*
X26014Y-22906D01*
X26949Y-22906D02*
X41880Y-22906D01*
X42213Y-22906D02*
X43938Y-22906D01*
X19409Y-22986D02*
X19812Y-22986D01*
X21368Y-22986D02*
X25934Y-22986D01*
X26915Y-22986D02*
X43938Y-22986D01*
X19409Y-23066D02*
X19873Y-23066D01*
X21307Y-23066D02*
X25854Y-23066D01*
X26865Y-23066D02*
X43938Y-23066D01*
X19409Y-23146D02*
X19881Y-23146D01*
X21302Y-23146D02*
X25774Y-23146D01*
X26785Y-23146D02*
X43938Y-23146D01*
X19409Y-23226D02*
X19817Y-23226D01*
X21367Y-23226D02*
X25694Y-23226D01*
X26514Y-23226D02*
X43938Y-23226D01*
X19409Y-23306D02*
X19783Y-23306D01*
X21400Y-23306D02*
X25614Y-23306D01*
X26434Y-23306D02*
X43938Y-23306D01*
X19409Y-23386D02*
X19750Y-23386D01*
X21433Y-23386D02*
X25534Y-23386D01*
X26354Y-23386D02*
X43938Y-23386D01*
X19409Y-23466D02*
X19745Y-23466D01*
X21437Y-23466D02*
X25454Y-23466D01*
X26274Y-23466D02*
X43938Y-23466D01*
X19409Y-23546D02*
X19745Y-23546D01*
X21437Y-23546D02*
X25374Y-23546D01*
X26194Y-23546D02*
X43938Y-23546D01*
X19409Y-23626D02*
X19751Y-23626D01*
X21430Y-23626D02*
X25294Y-23626D01*
X26114Y-23626D02*
X43938Y-23626D01*
X19409Y-23706D02*
X19784Y-23706D01*
X21396Y-23706D02*
X25214Y-23706D01*
X26034Y-23706D02*
X43938Y-23706D01*
X19409Y-23786D02*
X19817Y-23786D01*
X21363Y-23786D02*
X25134Y-23786D01*
X25954Y-23786D02*
X43938Y-23786D01*
X19409Y-23866D02*
X19886Y-23866D01*
X21294Y-23866D02*
X25054Y-23866D01*
X25874Y-23866D02*
X43938Y-23866D01*
X19409Y-23946D02*
X19868Y-23946D01*
X21315Y-23946D02*
X24974Y-23946D01*
X25794Y-23946D02*
X43938Y-23946D01*
X19409Y-24026D02*
X19811Y-24026D01*
X21373Y-24026D02*
X24894Y-24026D01*
X25714Y-24026D02*
X43938Y-24026D01*
X19409Y-24106D02*
X19778Y-24106D01*
X21405Y-24106D02*
X24814Y-24106D01*
X25634Y-24106D02*
X43938Y-24106D01*
X19409Y-24186D02*
X19745Y-24186D01*
X21437Y-24186D02*
X22345Y-24186D01*
X22538Y-24186D02*
X24734Y-24186D01*
X25554Y-24186D02*
X43938Y-24186D01*
X19409Y-24266D02*
X19745Y-24266D01*
X21437Y-24266D02*
X22180Y-24266D01*
X22702Y-24266D02*
X24654Y-24266D01*
X25474Y-24266D02*
X43938Y-24266D01*
X19409Y-24346D02*
X19745Y-24346D01*
X21437Y-24346D02*
X22100Y-24346D01*
X22782Y-24346D02*
X24574Y-24346D01*
X25394Y-24346D02*
X43938Y-24346D01*
X19409Y-24426D02*
X19757Y-24426D01*
X21424Y-24426D02*
X22056Y-24426D01*
X22827Y-24426D02*
X24494Y-24426D01*
X25314Y-24426D02*
X43938Y-24426D01*
X19409Y-24506D02*
X19790Y-24506D01*
X21391Y-24506D02*
X22023Y-24506D01*
X22860Y-24506D02*
X24414Y-24506D01*
X25234Y-24506D02*
X43938Y-24506D01*
X19409Y-24586D02*
X19823Y-24586D01*
X21357Y-24586D02*
X22016Y-24586D01*
X22866Y-24586D02*
X24334Y-24586D01*
X25154Y-24586D02*
X43938Y-24586D01*
X19409Y-24666D02*
X19899Y-24666D01*
X21282Y-24666D02*
X21971Y-24666D01*
X22866Y-24666D02*
X24254Y-24666D01*
X25074Y-24666D02*
X43938Y-24666D01*
X19409Y-24746D02*
X19856Y-24746D01*
X21327Y-24746D02*
X21891Y-24746D01*
X22843Y-24746D02*
X24174Y-24746D01*
X24994Y-24746D02*
X43938Y-24746D01*
X19409Y-24826D02*
X19806Y-24826D01*
X21377Y-24826D02*
X21811Y-24826D01*
X22809Y-24826D02*
X24094Y-24826D01*
X24914Y-24826D02*
X43938Y-24826D01*
X19409Y-24906D02*
X19773Y-24906D01*
X21410Y-24906D02*
X21742Y-24906D01*
X22742Y-24906D02*
X24014Y-24906D01*
X24834Y-24906D02*
X43938Y-24906D01*
X19409Y-24986D02*
X19745Y-24986D01*
X21437Y-24986D02*
X21698Y-24986D01*
X22634Y-24986D02*
X23934Y-24986D01*
X24754Y-24986D02*
X43938Y-24986D01*
X19409Y-25066D02*
X19745Y-25066D01*
X21437Y-25066D02*
X21682Y-25066D01*
X22391Y-25066D02*
X23854Y-25066D01*
X24674Y-25066D02*
X28807Y-25066D01*
X29068Y-25066D02*
X43938Y-25066D01*
X19409Y-25146D02*
X19745Y-25146D01*
X21437Y-25146D02*
X21679Y-25146D01*
X22311Y-25146D02*
X23774Y-25146D01*
X24594Y-25146D02*
X28662Y-25146D01*
X29212Y-25146D02*
X43938Y-25146D01*
X19409Y-25226D02*
X19762Y-25226D01*
X21419Y-25226D02*
X21679Y-25226D01*
X22259Y-25226D02*
X23694Y-25226D01*
X24514Y-25226D02*
X28582Y-25226D01*
X30498Y-25226D02*
X43938Y-25226D01*
X19409Y-25306D02*
X19795Y-25306D01*
X21386Y-25306D02*
X21679Y-25306D01*
X22259Y-25306D02*
X23614Y-25306D01*
X24434Y-25306D02*
X28546Y-25306D01*
X30598Y-25306D02*
X43938Y-25306D01*
X19409Y-25386D02*
X19831Y-25386D01*
X21349Y-25386D02*
X21679Y-25386D01*
X22259Y-25386D02*
X23534Y-25386D01*
X24354Y-25386D02*
X28513Y-25386D01*
X30678Y-25386D02*
X43938Y-25386D01*
X19409Y-25466D02*
X19911Y-25466D01*
X21269Y-25466D02*
X21679Y-25466D01*
X22259Y-25466D02*
X23454Y-25466D01*
X24274Y-25466D02*
X28512Y-25466D01*
X30758Y-25466D02*
X43938Y-25466D01*
X19409Y-25546D02*
X19843Y-25546D01*
X21340Y-25546D02*
X21679Y-25546D01*
X22259Y-25546D02*
X23374Y-25546D01*
X24194Y-25546D02*
X28512Y-25546D01*
X30838Y-25546D02*
X43938Y-25546D01*
X19409Y-25626D02*
X19801Y-25626D01*
X21383Y-25626D02*
X21679Y-25626D01*
X22259Y-25626D02*
X23294Y-25626D01*
X24114Y-25626D02*
X28540Y-25626D01*
X30918Y-25626D02*
X43938Y-25626D01*
X19409Y-25706D02*
X19767Y-25706D01*
X21416Y-25706D02*
X21679Y-25706D01*
X22259Y-25706D02*
X23214Y-25706D01*
X24034Y-25706D02*
X28573Y-25706D01*
X30998Y-25706D02*
X43938Y-25706D01*
X19409Y-25786D02*
X19745Y-25786D01*
X21437Y-25786D02*
X21679Y-25786D01*
X22259Y-25786D02*
X23134Y-25786D01*
X23954Y-25786D02*
X28650Y-25786D01*
X29224Y-25786D02*
X30257Y-25786D01*
X31078Y-25786D02*
X43938Y-25786D01*
X19409Y-25866D02*
X19745Y-25866D01*
X21437Y-25866D02*
X21679Y-25866D01*
X22259Y-25866D02*
X23054Y-25866D01*
X23874Y-25866D02*
X28777Y-25866D01*
X29096Y-25866D02*
X30337Y-25866D01*
X31158Y-25866D02*
X43938Y-25866D01*
X19409Y-25946D02*
X19745Y-25946D01*
X21437Y-25946D02*
X21679Y-25946D01*
X22259Y-25946D02*
X22974Y-25946D01*
X23794Y-25946D02*
X30417Y-25946D01*
X31238Y-25946D02*
X43938Y-25946D01*
X19409Y-26026D02*
X19767Y-26026D01*
X21414Y-26026D02*
X21607Y-26026D01*
X22333Y-26026D02*
X22894Y-26026D01*
X23714Y-26026D02*
X30497Y-26026D01*
X31318Y-26026D02*
X43938Y-26026D01*
X19409Y-26106D02*
X19800Y-26106D01*
X21380Y-26106D02*
X21573Y-26106D01*
X22366Y-26106D02*
X22814Y-26106D01*
X23634Y-26106D02*
X30577Y-26106D01*
X31398Y-26106D02*
X43938Y-26106D01*
X19409Y-26186D02*
X19844Y-26186D01*
X21336Y-26186D02*
X21544Y-26186D01*
X22394Y-26186D02*
X22734Y-26186D01*
X23554Y-26186D02*
X30657Y-26186D01*
X31478Y-26186D02*
X43938Y-26186D01*
X19409Y-26266D02*
X19910Y-26266D01*
X21273Y-26266D02*
X21544Y-26266D01*
X22394Y-26266D02*
X22654Y-26266D01*
X23474Y-26266D02*
X30737Y-26266D01*
X31558Y-26266D02*
X43938Y-26266D01*
X19409Y-26346D02*
X19830Y-26346D01*
X21353Y-26346D02*
X21544Y-26346D01*
X22393Y-26346D02*
X22574Y-26346D01*
X23394Y-26346D02*
X26726Y-26346D01*
X27416Y-26346D02*
X30817Y-26346D01*
X31638Y-26346D02*
X43938Y-26346D01*
X19409Y-26426D02*
X19795Y-26426D01*
X21388Y-26426D02*
X21577Y-26426D01*
X22360Y-26426D02*
X22513Y-26426D01*
X23314Y-26426D02*
X26520Y-26426D01*
X28091Y-26426D02*
X30897Y-26426D01*
X31718Y-26426D02*
X43938Y-26426D01*
X19409Y-26506D02*
X19762Y-26506D01*
X21421Y-26506D02*
X21614Y-26506D01*
X22324Y-26506D02*
X22479Y-26506D01*
X23234Y-26506D02*
X26313Y-26506D01*
X28272Y-26506D02*
X30977Y-26506D01*
X31798Y-26506D02*
X43938Y-26506D01*
X19409Y-26586D02*
X19745Y-26586D01*
X21437Y-26586D02*
X21679Y-26586D01*
X22259Y-26586D02*
X22465Y-26586D01*
X23154Y-26586D02*
X26107Y-26586D01*
X28454Y-26586D02*
X31057Y-26586D01*
X31878Y-26586D02*
X43938Y-26586D01*
X19409Y-26666D02*
X19745Y-26666D01*
X21437Y-26666D02*
X21679Y-26666D01*
X22259Y-26666D02*
X22465Y-26666D01*
X23074Y-26666D02*
X25901Y-26666D01*
X28635Y-26666D02*
X31137Y-26666D01*
X31958Y-26666D02*
X43938Y-26666D01*
X19409Y-26746D02*
X19745Y-26746D01*
X21437Y-26746D02*
X21679Y-26746D01*
X22259Y-26746D02*
X22465Y-26746D01*
X23045Y-26746D02*
X25695Y-26746D01*
X28817Y-26746D02*
X31217Y-26746D01*
X32038Y-26746D02*
X43938Y-26746D01*
X19409Y-26826D02*
X19772Y-26826D01*
X21408Y-26826D02*
X21679Y-26826D01*
X22259Y-26826D02*
X22465Y-26826D01*
X23045Y-26826D02*
X25565Y-26826D01*
X28998Y-26826D02*
X31297Y-26826D01*
X32118Y-26826D02*
X43938Y-26826D01*
X19409Y-26906D02*
X19805Y-26906D01*
X21375Y-26906D02*
X21679Y-26906D01*
X22259Y-26906D02*
X22465Y-26906D01*
X23045Y-26906D02*
X25488Y-26906D01*
X29079Y-26906D02*
X31377Y-26906D01*
X32198Y-26906D02*
X43938Y-26906D01*
X19409Y-26986D02*
X19808Y-26986D01*
X21374Y-26986D02*
X21679Y-26986D01*
X22259Y-26986D02*
X22465Y-26986D01*
X23045Y-26986D02*
X25413Y-26986D01*
X29154Y-26986D02*
X31457Y-26986D01*
X32278Y-26986D02*
X43938Y-26986D01*
X19409Y-27066D02*
X19765Y-27066D01*
X21418Y-27066D02*
X21618Y-27066D01*
X22259Y-27066D02*
X22465Y-27066D01*
X23045Y-27066D02*
X25339Y-27066D01*
X29228Y-27066D02*
X31537Y-27066D01*
X32358Y-27066D02*
X43938Y-27066D01*
X19409Y-27146D02*
X19752Y-27146D01*
X21430Y-27146D02*
X21538Y-27146D01*
X22254Y-27146D02*
X22465Y-27146D01*
X23045Y-27146D02*
X25264Y-27146D01*
X29303Y-27146D02*
X31617Y-27146D01*
X32438Y-27146D02*
X43938Y-27146D01*
X19409Y-27226D02*
X19752Y-27226D01*
X22238Y-27226D02*
X22465Y-27226D01*
X23045Y-27226D02*
X25288Y-27226D01*
X29277Y-27226D02*
X31697Y-27226D01*
X32518Y-27226D02*
X43938Y-27226D01*
X19409Y-27306D02*
X19752Y-27306D01*
X22190Y-27306D02*
X22465Y-27306D01*
X23045Y-27306D02*
X25102Y-27306D01*
X25228Y-27306D02*
X25368Y-27306D01*
X29197Y-27306D02*
X29339Y-27306D01*
X29465Y-27306D02*
X31777Y-27306D01*
X32598Y-27306D02*
X43938Y-27306D01*
X19409Y-27386D02*
X19752Y-27386D01*
X22118Y-27386D02*
X22465Y-27386D01*
X23045Y-27386D02*
X25016Y-27386D01*
X25308Y-27386D02*
X25448Y-27386D01*
X29117Y-27386D02*
X29259Y-27386D01*
X29551Y-27386D02*
X31857Y-27386D01*
X32678Y-27386D02*
X43938Y-27386D01*
X19409Y-27466D02*
X19752Y-27466D01*
X22038Y-27466D02*
X22465Y-27466D01*
X23045Y-27466D02*
X24930Y-27466D01*
X25388Y-27466D02*
X25528Y-27466D01*
X29037Y-27466D02*
X29179Y-27466D01*
X29637Y-27466D02*
X31937Y-27466D01*
X32758Y-27466D02*
X43938Y-27466D01*
X19409Y-27546D02*
X19752Y-27546D01*
X21958Y-27546D02*
X22465Y-27546D01*
X23045Y-27546D02*
X24844Y-27546D01*
X25468Y-27546D02*
X25608Y-27546D01*
X28957Y-27546D02*
X29099Y-27546D01*
X29723Y-27546D02*
X32017Y-27546D01*
X32838Y-27546D02*
X43938Y-27546D01*
X19409Y-27626D02*
X19752Y-27626D01*
X21878Y-27626D02*
X22465Y-27626D01*
X23045Y-27626D02*
X24797Y-27626D01*
X25548Y-27626D02*
X25688Y-27626D01*
X28877Y-27626D02*
X29019Y-27626D01*
X29784Y-27626D02*
X32097Y-27626D01*
X32894Y-27626D02*
X43938Y-27626D01*
X19409Y-27706D02*
X19752Y-27706D01*
X21767Y-27706D02*
X22465Y-27706D01*
X23045Y-27706D02*
X24761Y-27706D01*
X25628Y-27706D02*
X25768Y-27706D01*
X28797Y-27706D02*
X28939Y-27706D01*
X29830Y-27706D02*
X32177Y-27706D01*
X32919Y-27706D02*
X43938Y-27706D01*
X19409Y-27786D02*
X19752Y-27786D01*
X21429Y-27786D02*
X22465Y-27786D01*
X23045Y-27786D02*
X24726Y-27786D01*
X25708Y-27786D02*
X25848Y-27786D01*
X28717Y-27786D02*
X28859Y-27786D01*
X29861Y-27786D02*
X32257Y-27786D01*
X32928Y-27786D02*
X43938Y-27786D01*
X19409Y-27866D02*
X19785Y-27866D01*
X21396Y-27866D02*
X22465Y-27866D01*
X23045Y-27866D02*
X24691Y-27866D01*
X25788Y-27866D02*
X25928Y-27866D01*
X28637Y-27866D02*
X28779Y-27866D01*
X29892Y-27866D02*
X32337Y-27866D01*
X32928Y-27866D02*
X43938Y-27866D01*
X19409Y-27946D02*
X19860Y-27946D01*
X21322Y-27946D02*
X22465Y-27946D01*
X23045Y-27946D02*
X24656Y-27946D01*
X25868Y-27946D02*
X26008Y-27946D01*
X28557Y-27946D02*
X28699Y-27946D01*
X29923Y-27946D02*
X32348Y-27946D01*
X32928Y-27946D02*
X43938Y-27946D01*
X19409Y-28026D02*
X22465Y-28026D01*
X23045Y-28026D02*
X24620Y-28026D01*
X25948Y-28026D02*
X26088Y-28026D01*
X28477Y-28026D02*
X28619Y-28026D01*
X29954Y-28026D02*
X32348Y-28026D01*
X32928Y-28026D02*
X43938Y-28026D01*
X19409Y-28106D02*
X22084Y-28106D01*
X23426Y-28106D02*
X24585Y-28106D01*
X26028Y-28106D02*
X26168Y-28106D01*
X28397Y-28106D02*
X28539Y-28106D01*
X29985Y-28106D02*
X31100Y-28106D01*
X32928Y-28106D02*
X43938Y-28106D01*
X19409Y-28186D02*
X22028Y-28186D01*
X23483Y-28186D02*
X24550Y-28186D01*
X26108Y-28186D02*
X26248Y-28186D01*
X28317Y-28186D02*
X28459Y-28186D01*
X30016Y-28186D02*
X31044Y-28186D01*
X32928Y-28186D02*
X43938Y-28186D01*
X19409Y-28266D02*
X22006Y-28266D01*
X23504Y-28266D02*
X24514Y-28266D01*
X26188Y-28266D02*
X26328Y-28266D01*
X28237Y-28266D02*
X28379Y-28266D01*
X30047Y-28266D02*
X31022Y-28266D01*
X32928Y-28266D02*
X43938Y-28266D01*
X19409Y-28346D02*
X22006Y-28346D01*
X23504Y-28346D02*
X24479Y-28346D01*
X26268Y-28346D02*
X26408Y-28346D01*
X28157Y-28346D02*
X28299Y-28346D01*
X30078Y-28346D02*
X31022Y-28346D01*
X32928Y-28346D02*
X43938Y-28346D01*
X19409Y-28426D02*
X22006Y-28426D01*
X23504Y-28426D02*
X24444Y-28426D01*
X26348Y-28426D02*
X26488Y-28426D01*
X28077Y-28426D02*
X28219Y-28426D01*
X30109Y-28426D02*
X31022Y-28426D01*
X32928Y-28426D02*
X43938Y-28426D01*
X19409Y-28506D02*
X22006Y-28506D01*
X23504Y-28506D02*
X24409Y-28506D01*
X26428Y-28506D02*
X26568Y-28506D01*
X27997Y-28506D02*
X28139Y-28506D01*
X30140Y-28506D02*
X31022Y-28506D01*
X32928Y-28506D02*
X43938Y-28506D01*
X19409Y-28586D02*
X22006Y-28586D01*
X23504Y-28586D02*
X24373Y-28586D01*
X26508Y-28586D02*
X26648Y-28586D01*
X27917Y-28586D02*
X28059Y-28586D01*
X30171Y-28586D02*
X31022Y-28586D01*
X32928Y-28586D02*
X43938Y-28586D01*
X19409Y-28666D02*
X22006Y-28666D01*
X23504Y-28666D02*
X24350Y-28666D01*
X26588Y-28666D02*
X26728Y-28666D01*
X27837Y-28666D02*
X27979Y-28666D01*
X30202Y-28666D02*
X31022Y-28666D01*
X32928Y-28666D02*
X43938Y-28666D01*
X19409Y-28746D02*
X22006Y-28746D01*
X23504Y-28746D02*
X24348Y-28746D01*
X26668Y-28746D02*
X26808Y-28746D01*
X27757Y-28746D02*
X27899Y-28746D01*
X30233Y-28746D02*
X31022Y-28746D01*
X32928Y-28746D02*
X43938Y-28746D01*
X19409Y-28826D02*
X22006Y-28826D01*
X23504Y-28826D02*
X24346Y-28826D01*
X26748Y-28826D02*
X26888Y-28826D01*
X27677Y-28826D02*
X27819Y-28826D01*
X30241Y-28826D02*
X31022Y-28826D01*
X32928Y-28826D02*
X43938Y-28826D01*
X19409Y-28906D02*
X22006Y-28906D01*
X23504Y-28906D02*
X24344Y-28906D01*
X26828Y-28906D02*
X26968Y-28906D01*
X27597Y-28906D02*
X27739Y-28906D01*
X30239Y-28906D02*
X31022Y-28906D01*
X32928Y-28906D02*
X43938Y-28906D01*
X19409Y-28986D02*
X22006Y-28986D01*
X23504Y-28986D02*
X24342Y-28986D01*
X26908Y-28986D02*
X27048Y-28986D01*
X27517Y-28986D02*
X27659Y-28986D01*
X30238Y-28986D02*
X31022Y-28986D01*
X32928Y-28986D02*
X43938Y-28986D01*
X19409Y-29066D02*
X22006Y-29066D01*
X23504Y-29066D02*
X24341Y-29066D01*
X26988Y-29066D02*
X27128Y-29066D01*
X27437Y-29066D02*
X27579Y-29066D01*
X30236Y-29066D02*
X31022Y-29066D01*
X32928Y-29066D02*
X43938Y-29066D01*
X19409Y-29146D02*
X22006Y-29146D01*
X23504Y-29146D02*
X24339Y-29146D01*
X27068Y-29146D02*
X27208Y-29146D01*
X27357Y-29146D02*
X27499Y-29146D01*
X30234Y-29146D02*
X31022Y-29146D01*
X32928Y-29146D02*
X43938Y-29146D01*
X19409Y-29226D02*
X22006Y-29226D01*
X23504Y-29226D02*
X24337Y-29226D01*
X27148Y-29226D02*
X27419Y-29226D01*
X30232Y-29226D02*
X31022Y-29226D01*
X32928Y-29226D02*
X43938Y-29226D01*
X19409Y-29306D02*
X22006Y-29306D01*
X23504Y-29306D02*
X24335Y-29306D01*
X27197Y-29306D02*
X27368Y-29306D01*
X30230Y-29306D02*
X31022Y-29306D01*
X32928Y-29306D02*
X43938Y-29306D01*
X19409Y-29386D02*
X22006Y-29386D01*
X23504Y-29386D02*
X24333Y-29386D01*
X27117Y-29386D02*
X27259Y-29386D01*
X27308Y-29386D02*
X27448Y-29386D01*
X30228Y-29386D02*
X31022Y-29386D01*
X32946Y-29386D02*
X43938Y-29386D01*
X19409Y-29466D02*
X22006Y-29466D01*
X23504Y-29466D02*
X24331Y-29466D01*
X27037Y-29466D02*
X27179Y-29466D01*
X27388Y-29466D02*
X27528Y-29466D01*
X30227Y-29466D02*
X31022Y-29466D01*
X33026Y-29466D02*
X43938Y-29466D01*
X19409Y-29546D02*
X22006Y-29546D01*
X23504Y-29546D02*
X24330Y-29546D01*
X26957Y-29546D02*
X27099Y-29546D01*
X27468Y-29546D02*
X27608Y-29546D01*
X30225Y-29546D02*
X31022Y-29546D01*
X33106Y-29546D02*
X43938Y-29546D01*
X19409Y-29626D02*
X22006Y-29626D01*
X23504Y-29626D02*
X24328Y-29626D01*
X26877Y-29626D02*
X27019Y-29626D01*
X27548Y-29626D02*
X27688Y-29626D01*
X30223Y-29626D02*
X31022Y-29626D01*
X33186Y-29626D02*
X43938Y-29626D01*
X19409Y-29706D02*
X22006Y-29706D01*
X23504Y-29706D02*
X24326Y-29706D01*
X26797Y-29706D02*
X26939Y-29706D01*
X27628Y-29706D02*
X27768Y-29706D01*
X30221Y-29706D02*
X31022Y-29706D01*
X33266Y-29706D02*
X43938Y-29706D01*
X19409Y-29786D02*
X22006Y-29786D01*
X23504Y-29786D02*
X24324Y-29786D01*
X26717Y-29786D02*
X26859Y-29786D01*
X27708Y-29786D02*
X27848Y-29786D01*
X30219Y-29786D02*
X31022Y-29786D01*
X32520Y-29786D02*
X32526Y-29786D01*
X33346Y-29786D02*
X43938Y-29786D01*
X19409Y-29866D02*
X22006Y-29866D01*
X23504Y-29866D02*
X24344Y-29866D01*
X26637Y-29866D02*
X26779Y-29866D01*
X27788Y-29866D02*
X27928Y-29866D01*
X30217Y-29866D02*
X31022Y-29866D01*
X32520Y-29866D02*
X32606Y-29866D01*
X33642Y-29866D02*
X43938Y-29866D01*
X19409Y-29946D02*
X22006Y-29946D01*
X23504Y-29946D02*
X24375Y-29946D01*
X26557Y-29946D02*
X26699Y-29946D01*
X27868Y-29946D02*
X28008Y-29946D01*
X30215Y-29946D02*
X31022Y-29946D01*
X32520Y-29946D02*
X32686Y-29946D01*
X33736Y-29946D02*
X43938Y-29946D01*
X19409Y-30026D02*
X22006Y-30026D01*
X23504Y-30026D02*
X24406Y-30026D01*
X26477Y-30026D02*
X26619Y-30026D01*
X27948Y-30026D02*
X28088Y-30026D01*
X30179Y-30026D02*
X31022Y-30026D01*
X32520Y-30026D02*
X32766Y-30026D01*
X33799Y-30026D02*
X43938Y-30026D01*
X19409Y-30106D02*
X22006Y-30106D01*
X23504Y-30106D02*
X24437Y-30106D01*
X26397Y-30106D02*
X26539Y-30106D01*
X28028Y-30106D02*
X28168Y-30106D01*
X30144Y-30106D02*
X31022Y-30106D01*
X32520Y-30106D02*
X32846Y-30106D01*
X33832Y-30106D02*
X43938Y-30106D01*
X19409Y-30186D02*
X22006Y-30186D01*
X23504Y-30186D02*
X24468Y-30186D01*
X26317Y-30186D02*
X26459Y-30186D01*
X28108Y-30186D02*
X28248Y-30186D01*
X30109Y-30186D02*
X31022Y-30186D01*
X32520Y-30186D02*
X32926Y-30186D01*
X33850Y-30186D02*
X43938Y-30186D01*
X19409Y-30266D02*
X22006Y-30266D01*
X23504Y-30266D02*
X24499Y-30266D01*
X26237Y-30266D02*
X26379Y-30266D01*
X28188Y-30266D02*
X28328Y-30266D01*
X30074Y-30266D02*
X31022Y-30266D01*
X32520Y-30266D02*
X33000Y-30266D01*
X33850Y-30266D02*
X43938Y-30266D01*
X19409Y-30346D02*
X22006Y-30346D01*
X23503Y-30346D02*
X24530Y-30346D01*
X26157Y-30346D02*
X26299Y-30346D01*
X28268Y-30346D02*
X28408Y-30346D01*
X30038Y-30346D02*
X31022Y-30346D01*
X32519Y-30346D02*
X33010Y-30346D01*
X33839Y-30346D02*
X43938Y-30346D01*
X19409Y-30426D02*
X22039Y-30426D01*
X23470Y-30426D02*
X24561Y-30426D01*
X26077Y-30426D02*
X26219Y-30426D01*
X28348Y-30426D02*
X28488Y-30426D01*
X30003Y-30426D02*
X31055Y-30426D01*
X32486Y-30426D02*
X33043Y-30426D01*
X33806Y-30426D02*
X43938Y-30426D01*
X19409Y-30506D02*
X22114Y-30506D01*
X23396Y-30506D02*
X24592Y-30506D01*
X25997Y-30506D02*
X26139Y-30506D01*
X28428Y-30506D02*
X28568Y-30506D01*
X29968Y-30506D02*
X31130Y-30506D01*
X32412Y-30506D02*
X33094Y-30506D01*
X33756Y-30506D02*
X43938Y-30506D01*
X19409Y-30586D02*
X24624Y-30586D01*
X25917Y-30586D02*
X26059Y-30586D01*
X28508Y-30586D02*
X28648Y-30586D01*
X29932Y-30586D02*
X33174Y-30586D01*
X33676Y-30586D02*
X43938Y-30586D01*
X19409Y-30666D02*
X24655Y-30666D01*
X25837Y-30666D02*
X25979Y-30666D01*
X28588Y-30666D02*
X28728Y-30666D01*
X29897Y-30666D02*
X43938Y-30666D01*
X19409Y-30746D02*
X24686Y-30746D01*
X25757Y-30746D02*
X25899Y-30746D01*
X28668Y-30746D02*
X28808Y-30746D01*
X29862Y-30746D02*
X43938Y-30746D01*
X19409Y-30826D02*
X24717Y-30826D01*
X25677Y-30826D02*
X25819Y-30826D01*
X28748Y-30826D02*
X28888Y-30826D01*
X29827Y-30826D02*
X43938Y-30826D01*
X19409Y-30906D02*
X24749Y-30906D01*
X25597Y-30906D02*
X25739Y-30906D01*
X28828Y-30906D02*
X28968Y-30906D01*
X29791Y-30906D02*
X43938Y-30906D01*
X19409Y-30986D02*
X24802Y-30986D01*
X25517Y-30986D02*
X25659Y-30986D01*
X28908Y-30986D02*
X29048Y-30986D01*
X29756Y-30986D02*
X43938Y-30986D01*
X19409Y-31066D02*
X24875Y-31066D01*
X25437Y-31066D02*
X25579Y-31066D01*
X28988Y-31066D02*
X29128Y-31066D01*
X29690Y-31066D02*
X43938Y-31066D01*
X19409Y-31146D02*
X24961Y-31146D01*
X25357Y-31146D02*
X25499Y-31146D01*
X29068Y-31146D02*
X29208Y-31146D01*
X29604Y-31146D02*
X43938Y-31146D01*
X19409Y-31226D02*
X25047Y-31226D01*
X25277Y-31226D02*
X25419Y-31226D01*
X29148Y-31226D02*
X29288Y-31226D01*
X29518Y-31226D02*
X41771Y-31226D01*
X42325Y-31226D02*
X43938Y-31226D01*
X19409Y-31306D02*
X25133Y-31306D01*
X25197Y-31306D02*
X25339Y-31306D01*
X29228Y-31306D02*
X29368Y-31306D01*
X29432Y-31306D02*
X41641Y-31306D01*
X42456Y-31306D02*
X43938Y-31306D01*
X19409Y-31386D02*
X25259Y-31386D01*
X29308Y-31386D02*
X41561Y-31386D01*
X42536Y-31386D02*
X43938Y-31386D01*
X19409Y-31466D02*
X25291Y-31466D01*
X29274Y-31466D02*
X41494Y-31466D01*
X42603Y-31466D02*
X43938Y-31466D01*
X19409Y-31546D02*
X25366Y-31546D01*
X29199Y-31546D02*
X41461Y-31546D01*
X42636Y-31546D02*
X43938Y-31546D01*
X19409Y-31626D02*
X25440Y-31626D01*
X29125Y-31626D02*
X41427Y-31626D01*
X42669Y-31626D02*
X43938Y-31626D01*
X19409Y-31706D02*
X25515Y-31706D01*
X29050Y-31706D02*
X41405Y-31706D01*
X42691Y-31706D02*
X43938Y-31706D01*
X19409Y-31786D02*
X25636Y-31786D01*
X28956Y-31786D02*
X41405Y-31786D01*
X42691Y-31786D02*
X43938Y-31786D01*
X19409Y-31866D02*
X25817Y-31866D01*
X28794Y-31866D02*
X41405Y-31866D01*
X42691Y-31866D02*
X43938Y-31866D01*
X19409Y-31946D02*
X25999Y-31946D01*
X28588Y-31946D02*
X41409Y-31946D01*
X42686Y-31946D02*
X43938Y-31946D01*
X19409Y-32026D02*
X26180Y-32026D01*
X28382Y-32026D02*
X41443Y-32026D01*
X42653Y-32026D02*
X43938Y-32026D01*
X19409Y-32106D02*
X26362Y-32106D01*
X28175Y-32106D02*
X41476Y-32106D01*
X42619Y-32106D02*
X43938Y-32106D01*
X19409Y-32186D02*
X26543Y-32186D01*
X27969Y-32186D02*
X41518Y-32186D01*
X42577Y-32186D02*
X43938Y-32186D01*
X19409Y-32266D02*
X41598Y-32266D01*
X42497Y-32266D02*
X43938Y-32266D01*
X19409Y-32346D02*
X41678Y-32346D01*
X42417Y-32346D02*
X43938Y-32346D01*
X19409Y-32426D02*
X41861Y-32426D01*
X42232Y-32426D02*
X43938Y-32426D01*
X19409Y-32506D02*
X43938Y-32506D01*
X19409Y-32586D02*
X43938Y-32586D01*
X19409Y-32666D02*
X43938Y-32666D01*
X19409Y-32746D02*
X43938Y-32746D01*
X19409Y-32826D02*
X43938Y-32826D01*
X43938Y-32875D02*
X43938Y-20826D01*
X19409Y-20826D01*
X19409Y-32875D01*
X19951Y-32875D01*
X19951Y-27984D01*
X19860Y-27946D01*
X19790Y-27876D01*
X19752Y-27784D01*
X19752Y-27095D01*
X19790Y-27004D01*
X19832Y-26961D01*
X19826Y-26955D01*
X19745Y-26758D01*
X19745Y-26545D01*
X19827Y-26349D01*
X19917Y-26258D01*
X19826Y-26168D01*
X19745Y-25971D01*
X19745Y-25758D01*
X19827Y-25562D01*
X19917Y-25471D01*
X19826Y-25381D01*
X19745Y-25184D01*
X19745Y-24971D01*
X19827Y-24775D01*
X19917Y-24683D01*
X19826Y-24593D01*
X19745Y-24396D01*
X19745Y-24183D01*
X19827Y-23987D01*
X19917Y-23896D01*
X19826Y-23806D01*
X19745Y-23609D01*
X19745Y-23396D01*
X19827Y-23200D01*
X19917Y-23109D01*
X19826Y-23019D01*
X19745Y-22822D01*
X19745Y-22609D01*
X19827Y-22413D01*
X19919Y-22319D01*
X19842Y-22245D01*
X19768Y-22063D01*
X19816Y-21979D01*
X19816Y-21879D01*
X19768Y-21795D01*
X19842Y-21613D01*
X19998Y-21463D01*
X20199Y-21384D01*
X20541Y-21384D01*
X20541Y-21879D01*
X19816Y-21879D01*
X19816Y-21979D01*
X20541Y-21979D01*
X20641Y-21979D01*
X20641Y-21879D01*
X20641Y-21384D01*
X20983Y-21384D01*
X21184Y-21463D01*
X21340Y-21613D01*
X21414Y-21795D01*
X21366Y-21879D01*
X20641Y-21879D01*
X20641Y-21979D01*
X21366Y-21979D01*
X21414Y-22063D01*
X21340Y-22245D01*
X21262Y-22319D01*
X21356Y-22413D01*
X21437Y-22610D01*
X21437Y-22823D01*
X21355Y-23019D01*
X21264Y-23109D01*
X21356Y-23200D01*
X21437Y-23397D01*
X21437Y-23610D01*
X21355Y-23806D01*
X21264Y-23896D01*
X21356Y-23987D01*
X21437Y-24184D01*
X21437Y-24397D01*
X21355Y-24593D01*
X21264Y-24684D01*
X21356Y-24775D01*
X21437Y-24972D01*
X21437Y-25185D01*
X21355Y-25381D01*
X21264Y-25471D01*
X21356Y-25562D01*
X21437Y-25759D01*
X21437Y-25972D01*
X21355Y-26168D01*
X21264Y-26258D01*
X21356Y-26349D01*
X21437Y-26546D01*
X21437Y-26759D01*
X21355Y-26955D01*
X21349Y-26961D01*
X21392Y-27004D01*
X21430Y-27096D01*
X21430Y-27150D01*
X21534Y-27150D01*
X21679Y-27005D01*
X21679Y-26571D01*
X21608Y-26500D01*
X21544Y-26344D01*
X21544Y-26175D01*
X21609Y-26019D01*
X21679Y-25949D01*
X21679Y-25078D01*
X21701Y-24967D01*
X21764Y-24873D01*
X22016Y-24621D01*
X22016Y-24521D01*
X22081Y-24365D01*
X22201Y-24245D01*
X22357Y-24181D01*
X22526Y-24181D01*
X22682Y-24246D01*
X22802Y-24366D01*
X22866Y-24522D01*
X22866Y-24691D01*
X22801Y-24847D01*
X22681Y-24967D01*
X22525Y-25031D01*
X22426Y-25031D01*
X22259Y-25198D01*
X22259Y-25949D01*
X22330Y-26020D01*
X22394Y-26176D01*
X22394Y-26345D01*
X22329Y-26501D01*
X22259Y-26571D01*
X22259Y-27125D01*
X22237Y-27236D01*
X22174Y-27330D01*
X21859Y-27645D01*
X21765Y-27708D01*
X21654Y-27730D01*
X21430Y-27730D01*
X21430Y-27785D01*
X21392Y-27876D01*
X21322Y-27946D01*
X21230Y-27984D01*
X19951Y-27984D01*
X19951Y-32875D01*
X22205Y-32875D01*
X22205Y-30544D01*
X22114Y-30506D01*
X22044Y-30436D01*
X22006Y-30344D01*
X22006Y-28237D01*
X22044Y-28146D01*
X22114Y-28076D01*
X22206Y-28038D01*
X22465Y-28038D01*
X22465Y-26575D01*
X22487Y-26464D01*
X22550Y-26370D01*
X26110Y-22809D01*
X26110Y-22710D01*
X26175Y-22554D01*
X26295Y-22434D01*
X26451Y-22370D01*
X26620Y-22370D01*
X26776Y-22435D01*
X26896Y-22555D01*
X26960Y-22711D01*
X26960Y-22880D01*
X26895Y-23036D01*
X26775Y-23156D01*
X26619Y-23220D01*
X26520Y-23220D01*
X23045Y-26695D01*
X23045Y-28038D01*
X23305Y-28038D01*
X23396Y-28076D01*
X23466Y-28146D01*
X23504Y-28238D01*
X23504Y-30345D01*
X23466Y-30436D01*
X23396Y-30506D01*
X23304Y-30544D01*
X22205Y-30544D01*
X22205Y-32875D01*
X25167Y-32875D01*
X25167Y-31337D01*
X24823Y-31017D01*
X24747Y-30903D01*
X24323Y-29810D01*
X24350Y-28638D01*
X24823Y-27565D01*
X25167Y-27245D01*
X27212Y-29291D01*
X25167Y-31337D01*
X25167Y-32875D01*
X27802Y-32875D01*
X27802Y-32251D01*
X26630Y-32224D01*
X25557Y-31751D01*
X25237Y-31407D01*
X27283Y-29362D01*
X27283Y-29220D01*
X25237Y-27175D01*
X25557Y-26831D01*
X25671Y-26755D01*
X26764Y-26331D01*
X27936Y-26358D01*
X29009Y-26831D01*
X29329Y-27175D01*
X27283Y-29220D01*
X27283Y-29362D01*
X29329Y-31407D01*
X29009Y-31751D01*
X28895Y-31827D01*
X27802Y-32251D01*
X27802Y-32875D01*
X29399Y-32875D01*
X29399Y-31337D01*
X27354Y-29291D01*
X29399Y-27245D01*
X29743Y-27565D01*
X29819Y-27679D01*
X30243Y-28772D01*
X30216Y-29944D01*
X29743Y-31017D01*
X29399Y-31337D01*
X29399Y-32875D01*
X33340Y-32875D01*
X33340Y-30661D01*
X33184Y-30596D01*
X33064Y-30476D01*
X33000Y-30320D01*
X33000Y-30260D01*
X32520Y-29780D01*
X32520Y-30345D01*
X32482Y-30436D01*
X32412Y-30506D01*
X32320Y-30544D01*
X31221Y-30544D01*
X31130Y-30506D01*
X31060Y-30436D01*
X31022Y-30344D01*
X31022Y-28237D01*
X31060Y-28146D01*
X31130Y-28076D01*
X31222Y-28038D01*
X32321Y-28038D01*
X32348Y-28049D01*
X32348Y-27876D01*
X30233Y-25762D01*
X29248Y-25762D01*
X29177Y-25833D01*
X29021Y-25897D01*
X28852Y-25897D01*
X28696Y-25832D01*
X28576Y-25712D01*
X28512Y-25556D01*
X28512Y-25387D01*
X28577Y-25231D01*
X28697Y-25111D01*
X28853Y-25047D01*
X29022Y-25047D01*
X29178Y-25112D01*
X29248Y-25182D01*
X30354Y-25182D01*
X30465Y-25204D01*
X30559Y-25267D01*
X32843Y-27551D01*
X32906Y-27645D01*
X32928Y-27756D01*
X32928Y-29368D01*
X33371Y-29811D01*
X33510Y-29811D01*
X33666Y-29876D01*
X33786Y-29996D01*
X33850Y-30152D01*
X33850Y-30321D01*
X33785Y-30477D01*
X33665Y-30597D01*
X33509Y-30661D01*
X33340Y-30661D01*
X33340Y-32875D01*
X41919Y-32875D01*
X41919Y-32450D01*
X41683Y-32351D01*
X41503Y-32170D01*
X41405Y-31934D01*
X41405Y-31678D01*
X41504Y-31442D01*
X41685Y-31262D01*
X41919Y-31164D01*
X41919Y-22922D01*
X41683Y-22823D01*
X41503Y-22642D01*
X41405Y-22406D01*
X41405Y-22150D01*
X41504Y-21914D01*
X41685Y-21734D01*
X41921Y-21636D01*
X42177Y-21636D01*
X42413Y-21735D01*
X42593Y-21916D01*
X42691Y-22152D01*
X42691Y-22408D01*
X42592Y-22644D01*
X42411Y-22824D01*
X42175Y-22922D01*
X41919Y-22922D01*
X41919Y-31164D01*
X42177Y-31164D01*
X42413Y-31263D01*
X42593Y-31444D01*
X42691Y-31680D01*
X42691Y-31936D01*
X42592Y-32172D01*
X42411Y-32352D01*
X42175Y-32450D01*
X41919Y-32450D01*
X41919Y-32875D01*
X43938Y-32875D01*
M02*
