G04 (created by PCBNEW-RS274X (2010-05-05 BZR 2356)-stable) date 3/07/2011 4:56:28 p.m.*
G01*
G70*
G90*
%MOIN*%
G04 Gerber Fmt 3.4, Leading zero omitted, Abs format*
%FSLAX34Y34*%
G04 APERTURE LIST*
%ADD10C,0.006000*%
%ADD11C,0.019700*%
%ADD12R,0.080000X0.080000*%
%ADD13C,0.080000*%
%ADD14O,0.079100X0.138100*%
%ADD15R,0.079100X0.138100*%
%ADD16O,0.138100X0.079100*%
%ADD17R,0.138100X0.079100*%
%ADD18C,0.075000*%
%ADD19C,0.180000*%
%ADD20C,0.055000*%
G04 APERTURE END LIST*
G54D10*
G54D11*
X78691Y-33268D02*
X78667Y-33510D01*
X78596Y-33744D01*
X78482Y-33959D01*
X78327Y-34148D01*
X78139Y-34304D01*
X77925Y-34420D01*
X77692Y-34492D01*
X77449Y-34517D01*
X77207Y-34495D01*
X76973Y-34426D01*
X76757Y-34313D01*
X76567Y-34161D01*
X76410Y-33974D01*
X76293Y-33760D01*
X76219Y-33527D01*
X76192Y-33285D01*
X76212Y-33043D01*
X76279Y-32808D01*
X76391Y-32591D01*
X76542Y-32400D01*
X76728Y-32242D01*
X76941Y-32123D01*
X77173Y-32048D01*
X77415Y-32019D01*
X77658Y-32037D01*
X77893Y-32103D01*
X78110Y-32213D01*
X78303Y-32363D01*
X78462Y-32548D01*
X78582Y-32760D01*
X78659Y-32992D01*
X78690Y-33234D01*
X78691Y-33268D01*
X74941Y-33268D02*
X79941Y-33268D01*
X77441Y-30768D02*
X77441Y-35768D01*
X13927Y-33189D02*
X13903Y-33431D01*
X13832Y-33665D01*
X13718Y-33880D01*
X13563Y-34069D01*
X13375Y-34225D01*
X13161Y-34341D01*
X12928Y-34413D01*
X12685Y-34438D01*
X12443Y-34416D01*
X12209Y-34347D01*
X11993Y-34234D01*
X11803Y-34082D01*
X11646Y-33895D01*
X11529Y-33681D01*
X11455Y-33448D01*
X11428Y-33206D01*
X11448Y-32964D01*
X11515Y-32729D01*
X11627Y-32512D01*
X11778Y-32321D01*
X11964Y-32163D01*
X12177Y-32044D01*
X12409Y-31969D01*
X12651Y-31940D01*
X12894Y-31958D01*
X13129Y-32024D01*
X13346Y-32134D01*
X13539Y-32284D01*
X13698Y-32469D01*
X13818Y-32681D01*
X13895Y-32913D01*
X13926Y-33155D01*
X13927Y-33189D01*
X10177Y-33189D02*
X15177Y-33189D01*
X12677Y-30689D02*
X12677Y-35689D01*
X16167Y-33349D02*
X16013Y-33209D01*
X15848Y-33083D01*
X15672Y-32972D01*
X15487Y-32876D01*
X15295Y-32797D01*
X15096Y-32736D01*
X14893Y-32691D01*
X14687Y-32665D01*
X14480Y-32657D01*
X14397Y-32658D01*
X75802Y-32654D02*
X75595Y-32656D01*
X75387Y-32676D01*
X75183Y-32714D01*
X74982Y-32769D01*
X74787Y-32842D01*
X74599Y-32932D01*
X74419Y-33038D01*
X74250Y-33159D01*
X74092Y-33294D01*
X74017Y-33366D01*
X16181Y-33366D02*
X73986Y-33366D01*
X78248Y-11909D02*
X11909Y-11909D01*
X13091Y-30610D02*
X14390Y-32657D01*
X77264Y-30610D02*
X75807Y-32657D01*
X77264Y-21161D02*
X77264Y-30610D01*
X78248Y-19980D02*
X77264Y-21161D01*
X13091Y-21161D02*
X13091Y-30610D01*
X11909Y-19980D02*
X13091Y-21161D01*
X11909Y-11909D02*
X11909Y-19980D01*
X78248Y-11909D02*
X78248Y-19980D01*
G54D12*
X25784Y-16150D03*
G54D13*
X27260Y-16150D03*
X28736Y-16150D03*
G54D14*
X44804Y-32165D03*
X44017Y-32165D03*
G54D15*
X43229Y-32165D03*
G54D14*
X45591Y-32165D03*
X46379Y-32165D03*
X47166Y-32165D03*
X47953Y-32165D03*
X48740Y-32165D03*
G54D16*
X71260Y-30630D03*
X71260Y-31417D03*
G54D17*
X71260Y-32205D03*
G54D16*
X64763Y-30630D03*
X64763Y-31417D03*
G54D17*
X64763Y-32205D03*
G54D14*
X57992Y-13228D03*
G54D15*
X58780Y-13228D03*
G54D18*
X66890Y-26850D03*
X66890Y-25276D03*
X69252Y-26850D03*
X69252Y-25276D03*
X70433Y-23267D03*
X70433Y-21693D03*
X72795Y-23267D03*
X72795Y-21693D03*
X66890Y-19684D03*
X66890Y-18110D03*
X69252Y-19684D03*
X69252Y-18110D03*
G54D14*
X36614Y-13386D03*
X37402Y-13386D03*
G54D15*
X38189Y-13386D03*
G54D14*
X35827Y-13386D03*
X35039Y-13386D03*
X34252Y-13386D03*
X33465Y-13386D03*
X32677Y-13386D03*
X31890Y-13386D03*
X31102Y-13386D03*
X30315Y-13386D03*
X29528Y-13386D03*
X23326Y-13347D03*
X24113Y-13347D03*
G54D15*
X24901Y-13347D03*
G54D14*
X22539Y-13347D03*
X21751Y-13347D03*
X20964Y-13347D03*
X20177Y-13347D03*
X19390Y-13347D03*
X18602Y-13347D03*
X72598Y-13031D03*
X73385Y-13031D03*
G54D15*
X74173Y-13031D03*
G54D14*
X71811Y-13031D03*
X71023Y-13031D03*
X70236Y-13031D03*
X69449Y-13031D03*
X68662Y-13031D03*
X67874Y-13031D03*
G54D16*
X76772Y-17835D03*
X76772Y-18622D03*
G54D17*
X76772Y-19410D03*
G54D16*
X76772Y-17048D03*
X76772Y-16260D03*
X76772Y-15473D03*
G54D14*
X52952Y-13189D03*
X53739Y-13189D03*
G54D15*
X54527Y-13189D03*
G54D14*
X52165Y-13189D03*
X51377Y-13189D03*
X50590Y-13189D03*
G54D16*
X13150Y-17520D03*
X13150Y-16733D03*
G54D17*
X13150Y-15945D03*
G54D16*
X13150Y-18307D03*
X13150Y-19095D03*
G54D19*
X61811Y-31969D03*
X62480Y-13780D03*
X27480Y-31969D03*
X27480Y-13780D03*
X21417Y-23425D03*
G54D12*
X75150Y-24988D03*
G54D13*
X76150Y-24988D03*
X75150Y-25988D03*
X76150Y-25988D03*
X75150Y-26988D03*
X76150Y-26988D03*
X75150Y-27988D03*
X76150Y-27988D03*
X75150Y-28988D03*
X76150Y-28988D03*
G54D19*
X76772Y-13425D03*
X74370Y-31653D03*
X13504Y-13425D03*
X15709Y-31535D03*
G54D18*
X63347Y-23267D03*
X63347Y-21693D03*
X65709Y-23267D03*
X65709Y-21693D03*
X20197Y-21259D03*
X20197Y-19685D03*
X22559Y-21259D03*
X22559Y-19685D03*
X20197Y-27047D03*
X20197Y-25473D03*
X22559Y-27047D03*
X22559Y-25473D03*
G54D20*
X53402Y-27165D03*
X51480Y-27165D03*
G54D14*
X53232Y-17811D03*
G54D15*
X54020Y-17811D03*
M02*
