G04 (created by PCBNEW-RS274X (2010-05-05 BZR 2356)-stable) date 10/12/2010 12:30:38 p.m.*
G01*
G70*
G90*
%MOIN*%
G04 Gerber Fmt 3.4, Leading zero omitted, Abs format*
%FSLAX34Y34*%
G04 APERTURE LIST*
%ADD10C,0.006000*%
%ADD11C,0.019700*%
%ADD12O,0.079100X0.138100*%
%ADD13R,0.079100X0.138100*%
%ADD14O,0.138100X0.079100*%
%ADD15R,0.138100X0.079100*%
%ADD16C,0.075000*%
%ADD17R,0.030000X0.100000*%
%ADD18R,0.120000X0.150000*%
%ADD19R,0.047600X0.067200*%
%ADD20R,0.047600X0.098700*%
%ADD21R,0.106600X0.130300*%
%ADD22R,0.055000X0.075000*%
%ADD23C,0.180000*%
%ADD24R,0.080000X0.080000*%
%ADD25C,0.080000*%
%ADD26R,0.100000X0.080000*%
%ADD27R,0.080000X0.100000*%
%ADD28R,0.037700X0.098700*%
%ADD29R,0.098700X0.037700*%
%ADD30R,0.065000X0.040000*%
%ADD31R,0.075000X0.055000*%
%ADD32R,0.056000X0.056000*%
%ADD33R,0.045000X0.051500*%
%ADD34R,0.051500X0.045000*%
%ADD35C,0.108600*%
G04 APERTURE END LIST*
G54D10*
G54D11*
X16167Y-33349D02*
X16013Y-33209D01*
X15848Y-33083D01*
X15672Y-32972D01*
X15487Y-32876D01*
X15295Y-32797D01*
X15096Y-32736D01*
X14893Y-32691D01*
X14687Y-32665D01*
X14480Y-32657D01*
X14397Y-32658D01*
X75802Y-32654D02*
X75595Y-32656D01*
X75387Y-32676D01*
X75183Y-32714D01*
X74982Y-32769D01*
X74787Y-32842D01*
X74599Y-32932D01*
X74419Y-33038D01*
X74250Y-33159D01*
X74092Y-33294D01*
X74017Y-33366D01*
X16181Y-33366D02*
X73986Y-33366D01*
X78248Y-11909D02*
X11909Y-11909D01*
X13091Y-30610D02*
X14390Y-32657D01*
X77264Y-30610D02*
X75807Y-32657D01*
X77264Y-21161D02*
X77264Y-30610D01*
X78248Y-19980D02*
X77264Y-21161D01*
X13091Y-21161D02*
X13091Y-30610D01*
X11909Y-19980D02*
X13091Y-21161D01*
X11909Y-11909D02*
X11909Y-19980D01*
X78248Y-11909D02*
X78248Y-19980D01*
G54D12*
X44804Y-32165D03*
X44017Y-32165D03*
G54D13*
X43229Y-32165D03*
G54D12*
X45591Y-32165D03*
X46379Y-32165D03*
X47166Y-32165D03*
X47953Y-32165D03*
X48740Y-32165D03*
G54D14*
X71260Y-30630D03*
X71260Y-31417D03*
G54D15*
X71260Y-32205D03*
G54D14*
X64763Y-30630D03*
X64763Y-31417D03*
G54D15*
X64763Y-32205D03*
G54D12*
X57992Y-13228D03*
G54D13*
X58780Y-13228D03*
G54D16*
X66890Y-26850D03*
X66890Y-25276D03*
X69252Y-26850D03*
X69252Y-25276D03*
X70431Y-23425D03*
X70431Y-21851D03*
X72793Y-23425D03*
X72793Y-21851D03*
X66890Y-19684D03*
X66890Y-18110D03*
X69252Y-19684D03*
X69252Y-18110D03*
G54D12*
X36614Y-13386D03*
X37402Y-13386D03*
G54D13*
X38189Y-13386D03*
G54D12*
X35827Y-13386D03*
X35039Y-13386D03*
X34252Y-13386D03*
X33465Y-13386D03*
X32677Y-13386D03*
X31890Y-13386D03*
X31102Y-13386D03*
X30315Y-13386D03*
X29528Y-13386D03*
X23326Y-13347D03*
X24113Y-13347D03*
G54D13*
X24901Y-13347D03*
G54D12*
X22539Y-13347D03*
X21751Y-13347D03*
X20964Y-13347D03*
X20177Y-13347D03*
X19390Y-13347D03*
X18602Y-13347D03*
X72598Y-13031D03*
X73385Y-13031D03*
G54D13*
X74173Y-13031D03*
G54D12*
X71811Y-13031D03*
X71023Y-13031D03*
X70236Y-13031D03*
X69449Y-13031D03*
X68662Y-13031D03*
X67874Y-13031D03*
G54D14*
X76772Y-17835D03*
X76772Y-18622D03*
G54D15*
X76772Y-19410D03*
G54D14*
X76772Y-17048D03*
X76772Y-16260D03*
X76772Y-15473D03*
G54D12*
X52952Y-13189D03*
X53739Y-13189D03*
G54D13*
X54527Y-13189D03*
G54D12*
X52165Y-13189D03*
X51377Y-13189D03*
X50590Y-13189D03*
G54D14*
X13150Y-17520D03*
X13150Y-16733D03*
G54D15*
X13150Y-15945D03*
G54D14*
X13150Y-18307D03*
X13150Y-19095D03*
G54D17*
X43878Y-14547D03*
X44078Y-14547D03*
X44273Y-14547D03*
X44468Y-14547D03*
X44668Y-14547D03*
X44863Y-14547D03*
X45058Y-14547D03*
X45258Y-14547D03*
X45453Y-14547D03*
X45648Y-14547D03*
X43681Y-14547D03*
X45848Y-14547D03*
X46043Y-14547D03*
X43484Y-14547D03*
X47618Y-14547D03*
X46238Y-14547D03*
X46438Y-14547D03*
X46633Y-14547D03*
X46828Y-14547D03*
X47028Y-14547D03*
X47223Y-14547D03*
X47418Y-14547D03*
X43287Y-14547D03*
X43091Y-14547D03*
X42894Y-14547D03*
X42697Y-14547D03*
X42500Y-14547D03*
X42303Y-14547D03*
X42106Y-14547D03*
X41909Y-14547D03*
G54D18*
X48588Y-13667D03*
X40958Y-13667D03*
G54D19*
X37952Y-18071D03*
G54D20*
X38543Y-17914D03*
G54D19*
X39134Y-18071D03*
G54D21*
X38543Y-16969D03*
G54D22*
X40257Y-28228D03*
X39507Y-28228D03*
G54D23*
X61811Y-31969D03*
X62480Y-13780D03*
X27480Y-31969D03*
X27480Y-13780D03*
X21417Y-23425D03*
G54D19*
X32696Y-17776D03*
G54D20*
X33287Y-17619D03*
G54D19*
X33878Y-17776D03*
G54D21*
X33287Y-16674D03*
G54D24*
X75150Y-24988D03*
G54D25*
X76150Y-24988D03*
X75150Y-25988D03*
X76150Y-25988D03*
X75150Y-26988D03*
X76150Y-26988D03*
X75150Y-27988D03*
X76150Y-27988D03*
X75150Y-28988D03*
X76150Y-28988D03*
G54D26*
X35473Y-16711D03*
X35473Y-18011D03*
G54D27*
X52777Y-29999D03*
X51477Y-29999D03*
X37834Y-19685D03*
X39134Y-19685D03*
G54D28*
X45159Y-27831D03*
X44844Y-27831D03*
X44529Y-27831D03*
X44214Y-27831D03*
X43899Y-27831D03*
X43584Y-27831D03*
X43269Y-27831D03*
X42954Y-27831D03*
X47682Y-27831D03*
X47682Y-21535D03*
X42954Y-21535D03*
X45477Y-27831D03*
X45792Y-27831D03*
X46107Y-27831D03*
X46422Y-27831D03*
X46737Y-27831D03*
X47052Y-27831D03*
X47367Y-27831D03*
X47367Y-21535D03*
X47052Y-21535D03*
X46737Y-21535D03*
X46422Y-21535D03*
X46107Y-21535D03*
X45792Y-21535D03*
X45477Y-21535D03*
X45159Y-21535D03*
X44844Y-21535D03*
X44529Y-21535D03*
X44214Y-21535D03*
X43899Y-21535D03*
X43584Y-21535D03*
X43269Y-21535D03*
G54D29*
X42166Y-27047D03*
X42166Y-26733D03*
X42166Y-26417D03*
X42166Y-26103D03*
X42166Y-25787D03*
X42166Y-25473D03*
X42166Y-24527D03*
X42166Y-23897D03*
X42166Y-23583D03*
X42166Y-25157D03*
X42166Y-24843D03*
X42166Y-24213D03*
X42166Y-23267D03*
X42166Y-22953D03*
X42166Y-22637D03*
X42166Y-22323D03*
X48466Y-27047D03*
X48466Y-26733D03*
X48466Y-26417D03*
X48466Y-26103D03*
X48466Y-25787D03*
X48466Y-25473D03*
X48466Y-25157D03*
X48466Y-24843D03*
X48466Y-24527D03*
X48466Y-24213D03*
X48466Y-23897D03*
X48466Y-23583D03*
X48466Y-23267D03*
X48466Y-22953D03*
X48466Y-22637D03*
X48466Y-22323D03*
G54D30*
X22167Y-32574D03*
X22167Y-32074D03*
X22167Y-31574D03*
X22167Y-31074D03*
X22167Y-30574D03*
X22167Y-30074D03*
X22167Y-29574D03*
X19667Y-29574D03*
X19667Y-30074D03*
X19667Y-31074D03*
X19667Y-31574D03*
X19667Y-32074D03*
X19667Y-32574D03*
X19667Y-30574D03*
G54D31*
X38917Y-31910D03*
X38917Y-31160D03*
G54D32*
X49324Y-20114D03*
X49324Y-19414D03*
X50124Y-19764D03*
G54D33*
X37977Y-26683D03*
X37377Y-26683D03*
X37977Y-26033D03*
X37377Y-26033D03*
X37977Y-24065D03*
X37377Y-24065D03*
X37977Y-22756D03*
X37377Y-22756D03*
X38539Y-18819D03*
X39139Y-18819D03*
X37977Y-25384D03*
X37377Y-25384D03*
X37977Y-24724D03*
X37377Y-24724D03*
X37977Y-23406D03*
X37377Y-23406D03*
X38017Y-21614D03*
X37417Y-21614D03*
X53444Y-28312D03*
X52844Y-28312D03*
X51444Y-28312D03*
X52044Y-28312D03*
G54D34*
X36654Y-17455D03*
X36654Y-18055D03*
G54D33*
X40143Y-28937D03*
X39543Y-28937D03*
G54D34*
X24449Y-32466D03*
X24449Y-31866D03*
G54D33*
X52102Y-19449D03*
X52702Y-19449D03*
X39985Y-27323D03*
X39385Y-27323D03*
G54D34*
X36890Y-15801D03*
X36890Y-16401D03*
G54D33*
X33765Y-22283D03*
X33165Y-22283D03*
G54D34*
X39921Y-31669D03*
X39921Y-32269D03*
X40551Y-31669D03*
X40551Y-32269D03*
X50512Y-31944D03*
X50512Y-32544D03*
G54D33*
X33765Y-21693D03*
X33165Y-21693D03*
X53264Y-20748D03*
X53864Y-20748D03*
G54D34*
X41181Y-31669D03*
X41181Y-32269D03*
X41811Y-31669D03*
X41811Y-32269D03*
X46142Y-16669D03*
X46142Y-17269D03*
X44251Y-16669D03*
X44251Y-17269D03*
X42953Y-16669D03*
X42953Y-17269D03*
X41850Y-16669D03*
X41850Y-17269D03*
X43504Y-16669D03*
X43504Y-17269D03*
X42402Y-16669D03*
X42402Y-17269D03*
X41299Y-16669D03*
X41299Y-17269D03*
X45354Y-17269D03*
X45354Y-16669D03*
X44803Y-16669D03*
X44803Y-17269D03*
G54D33*
X37417Y-20984D03*
X38017Y-20984D03*
X39385Y-21457D03*
X39985Y-21457D03*
X39975Y-26683D03*
X39375Y-26683D03*
X39985Y-25384D03*
X39385Y-25384D03*
X39985Y-24065D03*
X39385Y-24065D03*
X39985Y-22756D03*
X39385Y-22756D03*
G54D34*
X41181Y-29779D03*
X41181Y-30379D03*
G54D33*
X39985Y-26033D03*
X39385Y-26033D03*
X39986Y-24724D03*
X39386Y-24724D03*
X39985Y-23406D03*
X39385Y-23406D03*
X39985Y-22106D03*
X39385Y-22106D03*
X51316Y-25020D03*
X51916Y-25020D03*
X51316Y-23799D03*
X51916Y-23799D03*
G54D34*
X39921Y-29764D03*
X39921Y-30379D03*
X40551Y-29779D03*
X40551Y-30379D03*
X41811Y-29779D03*
X41811Y-30379D03*
G54D33*
X51316Y-25630D03*
X51916Y-25630D03*
X51316Y-24410D03*
X51916Y-24410D03*
X52249Y-30826D03*
X51649Y-30826D03*
X49621Y-30413D03*
X50221Y-30413D03*
X23726Y-30118D03*
X23126Y-30118D03*
G54D34*
X23740Y-32466D03*
X23740Y-31866D03*
G54D33*
X50803Y-19724D03*
X51403Y-19724D03*
G54D34*
X48543Y-20024D03*
X48543Y-19424D03*
G54D33*
X49276Y-18780D03*
X48676Y-18780D03*
G54D34*
X40748Y-15527D03*
X40748Y-16127D03*
X40748Y-17269D03*
X40748Y-16669D03*
X40197Y-17269D03*
X40197Y-16669D03*
X40197Y-15526D03*
X40197Y-16126D03*
X40177Y-19779D03*
X40177Y-20379D03*
X41437Y-19779D03*
X41437Y-20379D03*
X42697Y-19779D03*
X42697Y-20379D03*
X43957Y-19779D03*
X43957Y-20379D03*
X40177Y-18125D03*
X40177Y-18725D03*
X41437Y-18125D03*
X41437Y-18725D03*
X42697Y-18125D03*
X42697Y-18725D03*
X43957Y-18125D03*
X43957Y-18725D03*
X40807Y-19779D03*
X40807Y-20379D03*
X42067Y-19779D03*
X42067Y-20379D03*
X43327Y-19779D03*
X43327Y-20379D03*
X44587Y-19779D03*
X44587Y-20379D03*
X40807Y-18125D03*
X40807Y-18725D03*
X42067Y-18125D03*
X42067Y-18725D03*
X43327Y-18125D03*
X43327Y-18725D03*
X44587Y-18125D03*
X44587Y-18725D03*
X47106Y-19779D03*
X47106Y-20379D03*
X45846Y-19779D03*
X45846Y-20379D03*
X47736Y-19779D03*
X47736Y-20379D03*
X46476Y-19779D03*
X46476Y-20379D03*
X45217Y-19779D03*
X45217Y-20379D03*
X47736Y-18125D03*
X47736Y-18725D03*
X46476Y-18125D03*
X46476Y-18725D03*
X45217Y-18125D03*
X45217Y-18725D03*
X47106Y-18125D03*
X47106Y-18725D03*
X45846Y-18125D03*
X45846Y-18725D03*
G54D33*
X51916Y-20748D03*
X51316Y-20748D03*
G54D23*
X76772Y-13425D03*
X74370Y-31653D03*
X13504Y-13425D03*
X15709Y-31535D03*
G54D26*
X54528Y-14941D03*
X54528Y-16241D03*
G54D16*
X63346Y-23425D03*
X63346Y-21851D03*
X65708Y-23425D03*
X65708Y-21851D03*
X20197Y-21259D03*
X20197Y-19685D03*
X22559Y-21259D03*
X22559Y-19685D03*
X20197Y-27047D03*
X20197Y-25473D03*
X22559Y-27047D03*
X22559Y-25473D03*
G54D33*
X34739Y-21063D03*
X35339Y-21063D03*
X34700Y-22717D03*
X35300Y-22717D03*
X67623Y-30039D03*
X67023Y-30039D03*
X28056Y-23327D03*
X27456Y-23327D03*
X61157Y-25276D03*
X61757Y-25276D03*
X68794Y-30197D03*
X69394Y-30197D03*
G54D34*
X66101Y-31629D03*
X66101Y-32229D03*
G54D33*
X66747Y-32756D03*
X67347Y-32756D03*
X62889Y-19016D03*
X63489Y-19016D03*
X28056Y-24606D03*
X27456Y-24606D03*
X62889Y-16339D03*
X63489Y-16339D03*
X28056Y-23917D03*
X27456Y-23917D03*
X68755Y-32323D03*
X69355Y-32323D03*
X61235Y-21850D03*
X61835Y-21850D03*
X28056Y-21653D03*
X27456Y-21653D03*
X62889Y-17126D03*
X63489Y-17126D03*
X28056Y-21063D03*
X27456Y-21063D03*
X62889Y-18189D03*
X63489Y-18189D03*
X62850Y-20709D03*
X63450Y-20709D03*
X64424Y-19685D03*
X65024Y-19685D03*
X28056Y-22244D03*
X27456Y-22244D03*
X67346Y-32205D03*
X66746Y-32205D03*
G54D32*
X67396Y-31542D03*
X66696Y-31542D03*
X67046Y-30742D03*
X68075Y-30820D03*
X68775Y-30820D03*
X68425Y-31620D03*
G54D35*
X49173Y-28346D03*
X49134Y-21535D03*
X50591Y-18819D03*
X48268Y-29567D03*
X55197Y-26339D03*
G54D33*
X53204Y-22795D03*
X53804Y-22795D03*
X53204Y-22205D03*
X53804Y-22205D03*
X53204Y-23386D03*
X53804Y-23386D03*
X53204Y-21614D03*
X53804Y-21614D03*
X68755Y-32874D03*
X69355Y-32874D03*
G54D16*
X53402Y-27086D03*
X51480Y-27086D03*
M02*
