M48
;DRILL file {PCBnew (2010-05-05 BZR 2356)-stable} date 5/01/2011 9:52:56 a.m.
;FORMAT={-.-/ absolute / metric / decimal}
R,T
VER,1
FMAT,2
METRIC,TZ
TCST,OFF
ICI,OFF
ATC,ON
T1C0.500
T2C0.635
T3C0.800
T4C0.813
T5C1.016
T6C2.499
T7C3.048
%
M47
G05
M71
T1
X102.050Y-48.801
X103.650Y-48.801
X105.250Y-48.801
X106.850Y-48.801
X107.899Y-34.140
X108.450Y-48.801
X108.801Y-34.900
X109.901Y-34.100
X110.051Y-48.801
X110.701Y-35.001
X111.651Y-48.801
X111.699Y-34.399
X113.200Y-48.875
X114.851Y-48.801
X116.449Y-48.900
X117.376Y-33.599
X117.800Y-39.101
X118.049Y-48.801
X118.651Y-33.599
X118.801Y-40.201
X119.499Y-34.351
X119.649Y-48.849
X119.700Y-41.199
X120.350Y-33.599
X121.201Y-34.399
X121.249Y-48.900
T2
X32.101Y-37.701
X37.501Y-37.800
X38.001Y-43.500
X38.001Y-45.499
X38.001Y-52.200
X38.001Y-55.999
X38.001Y-60.000
X38.001Y-64.000
X38.001Y-67.501
X38.075Y-74.399
X38.100Y-70.800
X38.151Y-31.900
X38.151Y-36.200
X41.900Y-70.800
X41.999Y-49.101
X41.999Y-52.100
X41.999Y-55.999
X41.999Y-60.000
X41.999Y-64.000
X41.999Y-67.501
X43.076Y-74.300
X43.226Y-36.149
X44.300Y-77.749
X44.351Y-82.276
X45.799Y-43.401
X45.799Y-48.974
X45.900Y-45.601
X47.000Y-78.900
X48.001Y-76.401
X48.100Y-31.199
X48.499Y-45.499
X50.099Y-43.500
X50.825Y-56.050
X50.851Y-62.776
X51.801Y-45.499
X52.200Y-39.200
X53.200Y-76.401
X53.200Y-81.501
X53.401Y-48.100
X54.201Y-39.200
X54.526Y-70.701
X56.200Y-39.200
X56.500Y-47.749
X57.851Y-55.926
X58.001Y-80.500
X58.024Y-62.824
X58.301Y-39.200
X59.500Y-53.500
X59.500Y-56.500
X60.099Y-77.800
X60.201Y-39.200
X60.201Y-74.501
X60.201Y-79.799
X60.500Y-60.749
X61.501Y-55.001
X61.524Y-57.851
X61.750Y-64.099
X61.750Y-70.676
X62.400Y-77.500
X62.499Y-79.700
X62.751Y-50.000
X62.751Y-59.251
X62.926Y-40.300
X63.101Y-47.800
X63.599Y-82.400
X64.000Y-48.999
X64.000Y-62.499
X65.001Y-74.501
X65.024Y-50.076
X65.024Y-57.775
X65.776Y-37.351
X65.801Y-43.500
X65.801Y-82.400
X65.824Y-34.326
X65.900Y-79.799
X65.999Y-67.701
X66.101Y-31.275
X66.200Y-70.099
X67.501Y-64.399
X67.701Y-72.499
X68.501Y-40.201
X68.501Y-43.500
X68.699Y-45.499
X68.699Y-50.599
X70.899Y-43.401
X71.001Y-45.499
X71.399Y-50.800
X72.276Y-31.626
X72.301Y-66.799
X72.301Y-68.801
X72.400Y-70.701
X73.000Y-40.300
X73.000Y-42.499
X73.101Y-62.901
X73.200Y-53.701
X73.200Y-57.201
X73.200Y-59.901
X73.325Y-37.424
X73.401Y-76.901
X73.401Y-78.900
X74.501Y-81.501
X74.501Y-83.000
X75.001Y-46.101
X75.400Y-60.000
X75.400Y-63.000
X75.425Y-55.324
X75.999Y-39.200
X76.500Y-49.500
X76.500Y-79.799
X76.700Y-83.000
X77.399Y-58.001
X77.600Y-60.099
X77.600Y-62.799
X78.001Y-39.200
X78.501Y-45.349
X78.501Y-53.200
X78.651Y-54.826
X78.900Y-78.900
X78.900Y-83.000
X78.999Y-66.799
X78.999Y-68.801
X78.999Y-70.701
X78.999Y-72.700
X78.999Y-76.901
X79.799Y-61.100
X79.799Y-62.901
X80.099Y-39.200
X81.001Y-80.701
X81.100Y-83.000
X82.075Y-62.601
X82.199Y-59.799
X82.499Y-78.400
X83.101Y-47.000
X83.101Y-48.499
X83.200Y-83.000
X83.599Y-39.149
X84.099Y-53.899
X84.099Y-62.601
X84.099Y-66.799
X84.099Y-68.801
X84.099Y-70.701
X84.099Y-72.901
X84.099Y-77.399
X84.150Y-50.350
X85.001Y-75.900
X85.301Y-83.000
X85.849Y-47.800
X85.849Y-71.699
X86.700Y-39.149
X87.399Y-46.299
X87.899Y-37.201
X88.600Y-69.700
X88.699Y-72.901
X88.699Y-78.600
X89.799Y-36.800
X89.799Y-54.699
X89.799Y-56.299
X89.926Y-49.825
X89.926Y-62.799
X90.701Y-69.799
X90.701Y-78.600
X91.501Y-65.801
X91.699Y-83.000
X91.801Y-53.701
X91.801Y-56.200
X91.951Y-39.149
X91.999Y-47.274
X92.426Y-59.700
X92.426Y-61.074
X92.601Y-73.000
X92.901Y-52.100
X92.901Y-64.501
X93.000Y-65.999
X93.124Y-62.725
X93.200Y-69.799
X93.200Y-78.600
X93.299Y-67.800
X93.576Y-58.374
X94.201Y-50.000
X94.201Y-73.899
X94.600Y-75.900
X94.800Y-80.701
X95.400Y-71.699
X95.499Y-75.001
X95.801Y-76.901
X95.801Y-79.799
X96.200Y-81.600
X97.899Y-39.101
X98.199Y-57.800
X98.199Y-59.451
X98.199Y-64.475
X98.199Y-66.124
X98.301Y-61.199
X98.301Y-62.799
X98.301Y-67.800
X98.801Y-70.350
X98.801Y-72.799
X98.801Y-82.799
X99.601Y-51.900
X99.700Y-32.799
X99.700Y-36.800
X99.725Y-35.324
X100.701Y-47.899
X101.001Y-38.100
X101.001Y-45.001
X101.399Y-78.801
X102.761Y-37.691
X103.000Y-78.801
X104.600Y-78.801
X106.200Y-78.801
X108.301Y-78.900
X109.499Y-58.100
X109.499Y-60.099
X109.499Y-61.999
X109.550Y-67.851
X110.599Y-66.599
X111.001Y-68.501
X111.399Y-44.801
X111.900Y-62.024
X111.999Y-78.900
X112.601Y-75.999
X112.781Y-34.940
X113.000Y-56.700
X113.299Y-60.150
X113.599Y-68.801
X113.949Y-34.900
X114.000Y-57.800
X114.051Y-52.875
X114.600Y-62.100
X115.100Y-68.801
X115.801Y-72.499
X116.601Y-68.100
X116.799Y-59.101
X116.799Y-75.601
X117.899Y-68.699
X118.674Y-62.024
X118.801Y-75.601
X120.424Y-58.699
X120.701Y-66.650
X124.699Y-76.901
X124.800Y-75.601
X125.001Y-37.549
X125.600Y-46.901
X125.875Y-43.625
X127.376Y-39.799
X128.501Y-47.800
X128.900Y-76.901
X130.599Y-55.199
X130.599Y-56.599
X130.599Y-57.899
X130.759Y-68.999
X131.300Y-59.098
X131.300Y-81.900
X131.501Y-51.100
X131.801Y-45.199
X132.476Y-41.476
X132.499Y-38.900
X133.401Y-52.700
X133.749Y-65.926
X134.300Y-81.801
X134.950Y-39.126
X135.001Y-41.524
X135.301Y-45.001
X135.641Y-68.999
X136.700Y-77.800
X137.099Y-46.401
X137.099Y-48.400
X137.099Y-50.599
X137.300Y-67.450
X137.625Y-65.024
X138.001Y-54.801
X138.100Y-56.599
X138.501Y-79.499
X138.501Y-81.900
X138.801Y-52.601
X138.900Y-59.101
X138.900Y-70.599
X138.999Y-72.700
X139.149Y-43.350
X140.099Y-71.501
X140.200Y-46.200
X141.801Y-79.400
X141.801Y-81.900
X142.499Y-41.999
X142.601Y-60.099
X142.700Y-74.800
X142.799Y-32.700
X142.799Y-35.199
X143.701Y-63.500
X144.300Y-47.501
X144.300Y-50.800
X144.300Y-54.501
X144.300Y-57.201
X144.701Y-43.101
X144.800Y-41.100
X145.301Y-79.400
X145.301Y-81.900
X145.349Y-69.075
X146.700Y-47.501
X146.799Y-40.000
X146.799Y-43.000
X146.799Y-50.800
X146.799Y-54.399
X146.799Y-57.201
X146.825Y-64.450
X147.300Y-68.900
X148.400Y-76.500
X148.400Y-79.400
X148.400Y-81.801
X148.699Y-41.399
X148.699Y-60.701
X148.699Y-69.451
X149.799Y-66.299
X150.099Y-47.501
X150.099Y-50.401
X150.099Y-54.399
X150.099Y-56.700
X150.200Y-58.100
X151.501Y-40.800
X151.501Y-82.901
X152.725Y-56.675
X153.200Y-32.101
X153.200Y-35.100
X153.200Y-59.101
X153.299Y-64.099
X153.599Y-47.501
X153.599Y-50.599
X153.700Y-41.199
X153.700Y-43.599
X153.901Y-67.300
X153.901Y-69.400
X154.399Y-37.399
X154.800Y-76.401
X156.101Y-43.500
X156.101Y-46.200
X156.576Y-60.500
X157.701Y-41.501
X157.701Y-48.301
X158.999Y-57.650
X159.101Y-76.401
X162.601Y-61.501
X162.601Y-67.201
X162.601Y-69.400
X162.649Y-65.225
X163.101Y-35.799
X163.101Y-53.551
X163.200Y-32.700
X165.100Y-48.301
X165.199Y-46.200
X165.301Y-61.399
X165.301Y-70.599
X166.901Y-59.098
X167.000Y-32.700
X167.000Y-35.900
X168.399Y-76.599
X171.600Y-53.101
X171.600Y-58.199
X172.199Y-48.199
X172.250Y-38.001
X172.900Y-82.100
X174.399Y-38.001
X174.399Y-40.599
X174.501Y-53.101
X174.501Y-58.100
X176.400Y-39.601
X177.424Y-38.100
X177.701Y-48.199
X179.464Y-38.664
X180.000Y-42.499
X180.000Y-48.199
X180.000Y-53.101
X180.401Y-64.501
X180.401Y-68.100
X182.001Y-71.501
X182.400Y-48.199
X182.499Y-44.000
X183.101Y-62.901
X184.701Y-64.501
X184.701Y-68.001
X184.701Y-71.300
X184.800Y-77.201
X185.301Y-39.301
X185.400Y-48.199
X185.400Y-81.801
X186.400Y-72.700
X187.449Y-60.551
X188.100Y-39.301
X188.100Y-47.899
X188.801Y-73.800
X189.301Y-53.200
X189.301Y-54.801
X189.301Y-56.599
X189.301Y-58.301
X190.101Y-49.350
X191.000Y-31.999
X191.000Y-37.000
X192.100Y-76.599
X192.301Y-54.801
X192.301Y-56.599
X192.301Y-58.301
X195.100Y-54.501
T3
X33.401Y-40.500
X33.401Y-42.502
X33.401Y-44.501
X33.401Y-46.500
X33.401Y-48.501
X47.249Y-33.901
X49.251Y-33.901
X51.250Y-33.901
X53.249Y-33.901
X55.248Y-33.901
X57.249Y-33.901
X59.248Y-33.901
X61.247Y-33.901
X63.249Y-33.901
X75.001Y-34.000
X77.000Y-34.000
X78.999Y-34.000
X81.001Y-34.000
X83.000Y-34.000
X85.001Y-34.000
X87.000Y-34.000
X88.999Y-34.000
X91.001Y-34.000
X93.000Y-34.000
X95.001Y-34.000
X97.000Y-34.000
X109.802Y-81.699
X111.803Y-81.699
X113.802Y-81.699
X115.801Y-81.699
X117.803Y-81.699
X119.802Y-81.699
X121.801Y-81.699
X123.800Y-81.699
X128.499Y-33.500
X130.498Y-33.500
X132.499Y-33.500
X134.498Y-33.500
X136.497Y-33.500
X138.499Y-33.500
X147.300Y-33.599
X149.301Y-33.599
X164.498Y-77.800
X164.498Y-79.799
X164.498Y-81.801
X172.400Y-33.099
X174.401Y-33.099
X176.400Y-33.099
X178.399Y-33.099
X180.398Y-33.099
X181.000Y-77.800
X181.000Y-79.799
X181.000Y-81.801
X182.400Y-33.099
X184.399Y-33.099
X186.398Y-33.099
X188.399Y-33.099
X195.001Y-39.301
X195.001Y-41.300
X195.001Y-43.302
X195.001Y-45.301
X195.001Y-47.300
X195.001Y-49.301
T4
X51.300Y-50.000
X51.300Y-53.998
X51.300Y-64.701
X51.300Y-68.699
X57.300Y-50.000
X57.300Y-53.998
X57.300Y-64.701
X57.300Y-68.699
X160.901Y-55.100
X160.901Y-59.098
X166.901Y-55.100
X166.901Y-59.098
X169.901Y-45.999
X169.901Y-49.997
X169.901Y-64.201
X169.901Y-68.199
X175.900Y-45.999
X175.900Y-49.997
X175.900Y-64.201
X175.900Y-68.199
X178.900Y-55.100
X178.900Y-59.098
X184.899Y-55.100
X184.899Y-59.098
T5
X190.881Y-63.470
X190.881Y-66.010
X190.881Y-68.550
X190.881Y-71.090
X190.881Y-73.630
X193.421Y-63.470
X193.421Y-66.010
X193.421Y-68.550
X193.421Y-71.090
X193.421Y-73.630
T6
X54.399Y-59.500
X69.799Y-35.001
X69.799Y-81.201
X157.000Y-81.201
X158.699Y-35.001
T7
X34.300Y-34.100
X39.901Y-80.099
X188.900Y-80.399
X195.001Y-34.100
T0
M30
